<svg xmlns="http://www.w3.org/2000/svg" viewBox="0 0 185.16 185.46"><defs><style>.cls-1,.cls-3,.cls-4{fill:#fff;}.cls-1,.cls-2{fill-rule:evenodd;}.cls-2{fill:#999;}.cls-3{font-size:16px;font-family:Digital-7;}</style></defs><title>bottom left</title><g id="Layer_2" data-name="Layer 2"><g id="Layer_1-2" data-name="Layer 1"><g id="main_thing" data-name="main thing"><polygon class="cls-1" points="95.34 0 185.16 76.7 185.16 185.46 183.48 185.46 183.48 77.21 95.34 1.46 95.34 0 95.34 0"/><path class="cls-1" d="M0,160.32H21.2v21.2H19.52a8.94,8.94,0,0,0-8.65-7,9,9,0,0,0-8.67,7H0v-21.2Zm10.9,3.78a5,5,0,1,1-5,5,5,5,0,0,1,5-5Z"/><path class="cls-1" d="M23.43,160.32h21.2v21.2H43a8.86,8.86,0,0,0-17.31,0H23.43v-21.2Zm10.92,3.78a5,5,0,1,1-5,5,5,5,0,0,1,5-5Z"/><path class="cls-1" d="M0,136.89H21.2v21.2H19.52a8.94,8.94,0,0,0-8.65-7,9,9,0,0,0-8.67,7H0v-21.2Zm10.9,3.59a5,5,0,1,1-5,5,5,5,0,0,1,5-5Z"/><path class="cls-1" d="M23.43,136.89h21.2v21.2H43a8.86,8.86,0,0,0-17.31,0H23.43v-21.2Zm10.92,3.59a5,5,0,1,1-5,5,5,5,0,0,1,5-5Z"/><path class="cls-1" d="M46.86,160.32H68.62v21.2H66.47a8.86,8.86,0,0,0-17.32,0H46.86v-21.2Zm11,3.78a5,5,0,1,1-5,5,5,5,0,0,1,5-5Z"/><path class="cls-1" d="M70.29,160.32H92.05v21.2H89.91a8.86,8.86,0,0,0-17.31,0H70.29v-21.2Zm11,3.78a5,5,0,1,1-5,5,5,5,0,0,1,5-5Z"/><path class="cls-1" d="M46.86,136.89H68.62v21.2H66.47a8.86,8.86,0,0,0-17.32,0H46.86v-21.2Zm11,3.59a5,5,0,1,1-5,5,5,5,0,0,1,5-5Z"/><path class="cls-1" d="M70.29,136.89H92.05v21.2H89.91a8.86,8.86,0,0,0-17.31,0H70.29v-21.2Zm11,3.59a5,5,0,1,1-5,5,5,5,0,0,1,5-5Z"/><path class="cls-1" d="M0,112.9H21.2v21.2H19.52a8.94,8.94,0,0,0-8.65-7,9,9,0,0,0-8.67,7H0V112.9Zm10.9,3.63a5,5,0,1,1-5,5,5,5,0,0,1,5-5Z"/><path class="cls-1" d="M23.43,112.9h21.2v21.2H43a8.86,8.86,0,0,0-17.31,0H23.43V112.9Zm10.92,3.63a5,5,0,1,1-5,5,5,5,0,0,1,5-5Z"/><path class="cls-1" d="M0,89.47H21.2v21.2H19.52a8.94,8.94,0,0,0-8.65-7,9,9,0,0,0-8.67,7H0V89.47Zm10.9,3.45a5,5,0,1,1-5,5,5,5,0,0,1,5-5Z"/><path class="cls-1" d="M23.43,89.47h21.2v21.2H43a8.86,8.86,0,0,0-17.31,0H23.43V89.47Zm10.92,3.45a5,5,0,1,1-5,5,5,5,0,0,1,5-5Z"/><path class="cls-1" d="M46.86,112.9H68.62v21.2H66.47a8.86,8.86,0,0,0-17.32,0H46.86V112.9Zm11,3.63a5,5,0,1,1-5,5,5,5,0,0,1,5-5Z"/><path class="cls-1" d="M70.29,112.9H92.05v21.2H89.91a8.86,8.86,0,0,0-17.31,0H70.29V112.9Zm11,3.63a5,5,0,1,1-5,5,5,5,0,0,1,5-5Z"/><path class="cls-2" d="M46.86,89.47H68.62v21.2H66.47a8.86,8.86,0,0,0-17.32,0H46.86V89.47Zm11,3.45a5,5,0,1,1-5,5,5,5,0,0,1,5-5Z"/><path class="cls-2" d="M70.29,89.47H92.05v21.2H89.91a8.86,8.86,0,0,0-17.31,0H70.29V89.47Zm11,3.45a5,5,0,1,1-5,5,5,5,0,0,1,5-5Z"/><path class="cls-1" d="M93.72,160.32h21.2v21.2h-2a8.86,8.86,0,0,0-17.32,0H93.72v-21.2Zm10.58,3.78a5,5,0,1,1-5,5,5,5,0,0,1,5-5Z"/><path class="cls-1" d="M93.72,136.89h21.2v21.2h-2a8.86,8.86,0,0,0-17.32,0H93.72v-21.2Zm10.58,3.59a5,5,0,1,1-5,5,5,5,0,0,1,5-5Z"/><path class="cls-1" d="M93.72,112.9h21.2v21.2h-2a8.86,8.86,0,0,0-17.32,0H93.72V112.9Zm10.58,3.63a5,5,0,1,1-5,5,5,5,0,0,1,5-5Z"/><path class="cls-2" d="M93.72,89.47h21.2v21.2h-2a8.86,8.86,0,0,0-17.32,0H93.72V89.47Zm10.58,3.45a5,5,0,1,1-5,5,5,5,0,0,1,5-5Z"/><text class="cls-3" transform="translate(59.48 61.31)">JOIN OUR<tspan x="11.35" y="19.2">TEAM</tspan></text><path class="cls-4" d="M6.33,68c-.57-7.25,4.55-16.1,11.1-19.29a11.3,11.3,0,0,1,6.1-1.2A7.59,7.59,0,0,1,30,52.66a2.89,2.89,0,0,1,0,.69,15.84,15.84,0,0,0-2-1.83,6.78,6.78,0,0,0-5.09-.87c-7.5,1.41-13.7,10.89-12,18.33a7.84,7.84,0,0,0,6,6.2,13.54,13.54,0,0,0,3.43,0c-3.4,1.15-6.81,1.51-10-.32-2.63-1.49-3.74-4-4-6.93"/><path class="cls-4" d="M25.84,69.4c1.34.27,2.95.57,4.54.93a4,4,0,0,0,2-.06,55.3,55.3,0,0,1,10.58-2.22,7.5,7.5,0,0,1,2.63.14c1,.27,1.16.92.46,1.67a6.82,6.82,0,0,1-2.11,1.36,42,42,0,0,1-8.93,3,8.22,8.22,0,0,0-4.33,2.33,21.25,21.25,0,0,1-2.36,2.09c-1,.78-1.5.59-1.82-.62-.2-.78-.29-1.61-1.43-1.52a.58.58,0,0,1-.62-.5c-.2-.78-.42-1.54-.64-2.31-.08-.27-.06-.54.18-.67,1.05-.54.9-1.36.55-2.23C24.12,69.74,24.6,69.38,25.84,69.4Z"/><path class="cls-4" d="M43.43,56.1c-.15.37-.24.55-.3.74a2.1,2.1,0,0,1-2.74,1.75c-.89-.18-1.12.19-1.1,1.07.07,2.23,0,4.45.05,6.67,0,.85-.27,1.15-1.05,1.31-2,.4-2,.43-2-1.53,0-2.14,0-4.28,0-6.42,0-.83-.13-1.25-1.07-1.11a10.58,10.58,0,0,1-1.38,0c-.66,0-1.43.26-1.36-1,.06-1,.29-1.55,1.44-1.54C37.08,56.13,40.18,56.1,43.43,56.1Z"/><path class="cls-4" d="M28.05,65c-.33-.56-.39-.86.31-1.22a3.5,3.5,0,0,0,2-3.26,4.35,4.35,0,0,0-4.49-4.44c-1.71-.08-3.44,0-5.16,0-.84,0-1.23.36-1.23,1.21,0,4.11,0,8.22,0,12.34,0,.59.25.71.75.68a6.09,6.09,0,0,1,1.13,0c.84.11,1.21-.14,1.13-1.07s0-2.1,0-3.15c0-1.59,0-1.55,1.58-1.48a1,1,0,0,1,.91.69c.43.82.86,1.63,1.28,2.45a1.09,1.09,0,0,0,.79.71c1.06.2,2.11.46,3.36.75C29.54,67.72,28.82,66.37,28.05,65ZM26,62.24a15.14,15.14,0,0,1-3,.11c-.39,0-.51-.17-.5-.53s0-.92,0-1.39c0-1.84,0-1.84,1.82-1.8a9.51,9.51,0,0,1,1.51,0,1.77,1.77,0,0,1,1.62,1.79A1.74,1.74,0,0,1,26,62.24Z"/></g></g></g></svg>