<svg xmlns="http://www.w3.org/2000/svg" viewBox="0 0 161.87 185.73"><defs><style>.cls-1{fill:#fff;}.cls-1,.cls-2{fill-rule:evenodd;}.cls-2{fill:#b12024;}</style></defs><title>top right_2</title><g id="Layer_2" data-name="Layer 2"><g id="Layer_1-2" data-name="Layer 1"><g id="main_thing" data-name="main thing"><polygon class="cls-1" points="88.7 185.73 0 109.03 0 0 0.56 0 0.56 108.52 88.7 184.27 88.7 185.73 88.7 185.73"/><path class="cls-1" d="M86.91,88.92a40.08,40.08,0,0,1-4.57-4.13A43.26,43.26,0,0,0,91,93.5a41.05,41.05,0,0,1-4.13-4.58Zm12.93,7.14A51.19,51.19,0,0,1,94,93.49a36.85,36.85,0,0,0,9.53,5.87,31.34,31.34,0,0,1-3.67-3.3ZM110.7,98.6a48.59,48.59,0,0,1-6.86-1.3,22.13,22.13,0,0,0,8.74,4.27,17.93,17.93,0,0,1-1.88-3Zm10.17.2c-1.34.11-2.7.16-4.08.16s-2.74,0-4.08-.16c.17.3.33.58.51.84a8.65,8.65,0,0,0,2.19,2.36c.45,0,.92,0,1.38,0s.92,0,1.38,0a8.41,8.41,0,0,0,2.17-2.36,7,7,0,0,0,.53-.84Zm8.86-1.5a47.53,47.53,0,0,1-6.86,1.3,16.71,16.71,0,0,1-1.88,3,22.13,22.13,0,0,0,8.74-4.27Zm9.88-3.81a50,50,0,0,1-5.88,2.57,31.34,31.34,0,0,1-3.67,3.3,36.79,36.79,0,0,0,9.55-5.87Zm11.63-8.7a42.69,42.69,0,0,1-4.56,4.13,42.22,42.22,0,0,1-4.15,4.58,43.31,43.31,0,0,0,8.71-8.71Zm-4.56-55.62a41.83,41.83,0,0,1,4.56,4.15,43.1,43.1,0,0,0-8.71-8.72,44.07,44.07,0,0,1,4.15,4.57Zm-13-7.12a46.88,46.88,0,0,1,5.88,2.57,37.21,37.21,0,0,0-9.54-5.88,31.27,31.27,0,0,1,3.66,3.31Zm-10.86-2.56a50.42,50.42,0,0,1,6.86,1.31A22,22,0,0,0,121,16.53a16.25,16.25,0,0,1,1.88,3Zm-10.16-.2c1.34-.1,2.7-.17,4.08-.17s2.74.07,4.08.17c-.16-.28-.34-.56-.53-.85a8.34,8.34,0,0,0-2.17-2.34c-.46,0-.91-.05-1.38-.05s-.93,0-1.38.05a8.58,8.58,0,0,0-2.19,2.34l-.51.85Zm-8.87,1.51a51.62,51.62,0,0,1,6.86-1.31,17.41,17.41,0,0,1,1.88-3,22,22,0,0,0-8.74,4.27ZM94,24.62a47.91,47.91,0,0,1,5.86-2.57,30.57,30.57,0,0,1,3.67-3.31A37.16,37.16,0,0,0,94,24.62Zm-11.64,8.7a39.32,39.32,0,0,1,4.57-4.15A42.8,42.8,0,0,1,91,24.6a43.05,43.05,0,0,0-8.7,8.72ZM79.77,76a31.53,31.53,0,0,1-3.31-3.67,36.79,36.79,0,0,0,5.9,9.55A50.09,50.09,0,0,1,79.77,76ZM92,83.83a45.58,45.58,0,0,1-9.19-5.27,44.31,44.31,0,0,0,5.45,9,44.31,44.31,0,0,0,9,5.45A45,45,0,0,1,92,83.83Zm15,4.2a59.18,59.18,0,0,1-13-3.36,38.66,38.66,0,0,0,6.57,9.68,46.45,46.45,0,0,0,9.17,2.29A54.5,54.5,0,0,1,107.06,88Zm17.69.23a69.08,69.08,0,0,1-8,.46,67.07,67.07,0,0,1-8-.46c.18.75.38,1.48.58,2.21a45.13,45.13,0,0,0,2.29,6.4,48.3,48.3,0,0,0,10.2,0,43.79,43.79,0,0,0,2.27-6.4c.22-.73.4-1.46.59-2.21Zm14.77-3.59a59.18,59.18,0,0,1-13,3.36,56.78,56.78,0,0,1-2.71,8.61A46.78,46.78,0,0,0,133,94.35a38.66,38.66,0,0,0,6.57-9.68Zm11.22-6.11a45.06,45.06,0,0,1-9.16,5.27A44.59,44.59,0,0,1,136.3,93a43.77,43.77,0,0,0,9-5.45,43.39,43.39,0,0,0,5.44-9Zm6.38-6.24A30.75,30.75,0,0,1,153.8,76a46.88,46.88,0,0,1-2.57,5.88,37.58,37.58,0,0,0,5.89-9.55ZM153.8,42.11a31.54,31.54,0,0,1,3.32,3.67,37.36,37.36,0,0,0-5.89-9.54,46.11,46.11,0,0,1,2.57,5.87Zm-12.22-7.85a44.62,44.62,0,0,1,9.16,5.28,42.87,42.87,0,0,0-5.44-9,43.3,43.3,0,0,0-9-5.44,44.43,44.43,0,0,1,5.28,9.16Zm-15.07-4.2a60.33,60.33,0,0,1,13,3.37A38.72,38.72,0,0,0,133,23.74a47.49,47.49,0,0,0-9.15-2.28,56.27,56.27,0,0,1,2.71,8.6Zm-17.69-.23a70.72,70.72,0,0,1,15.93,0c-.19-.73-.37-1.46-.59-2.19a43.9,43.9,0,0,0-2.27-6.41,50.15,50.15,0,0,0-10.2,0,45.25,45.25,0,0,0-2.29,6.41c-.2.73-.4,1.46-.58,2.19Zm-14.77,3.6a60.33,60.33,0,0,1,13-3.37,54,54,0,0,1,2.73-8.6,47.14,47.14,0,0,0-9.17,2.28,38.72,38.72,0,0,0-6.57,9.69ZM82.82,39.54A45.14,45.14,0,0,1,92,34.26a44.84,44.84,0,0,1,5.26-9.16,43.82,43.82,0,0,0-9,5.44,43.77,43.77,0,0,0-5.45,9Zm-6.36,6.24a32.36,32.36,0,0,1,3.31-3.67,49.22,49.22,0,0,1,2.59-5.87,36.57,36.57,0,0,0-5.9,9.54Zm80.1,17.35c.28-.17.56-.33.84-.52a8.31,8.31,0,0,0,2.34-2.19,18,18,0,0,0,0-2.75,8.41,8.41,0,0,0-2.34-2.18l-.84-.53c.1,1.35.16,2.71.16,4.08s-.06,2.74-.16,4.09ZM146,67c.74-.18,1.47-.38,2.2-.58a44,44,0,0,0,6.41-2.29,50,50,0,0,0,0-10.18,44,44,0,0,0-6.41-2.29l-2.2-.58A70.63,70.63,0,0,1,146,67ZM129.13,69.6c1.67-.15,3.35-.31,5-.5a102.2,102.2,0,0,0,10.45-1.76,67.63,67.63,0,0,0,0-16.58A105,105,0,0,0,134.14,49c-1.66-.2-3.34-.36-5-.5.23,3.39.35,6.93.35,10.54s-.12,7.17-.35,10.56Zm-23,.12c3.55.25,7.12.36,10.67.36s7.13-.11,10.68-.36c.25-3.56.35-7.12.35-10.68s-.1-7.12-.35-10.67c-3.55-.23-7.13-.35-10.68-.35s-7.12.12-10.67.35c-.25,3.55-.37,7.12-.37,10.67s.12,7.12.37,10.68ZM89,67.34A100.64,100.64,0,0,0,99.44,69.1c1.67.19,3.32.35,5,.5-.23-3.39-.35-6.92-.35-10.56s.12-7.15.35-10.54c-1.68.14-3.33.3-5,.5A103.38,103.38,0,0,0,89,50.76a65.1,65.1,0,0,0,0,16.58Zm-10-3.2a44.89,44.89,0,0,0,6.41,2.29c.73.2,1.47.4,2.21.58a67.64,67.64,0,0,1,0-15.92l-2.21.58A44.89,44.89,0,0,0,79,54a50,50,0,0,0,0,10.18Zm-5.12-3.72a8.47,8.47,0,0,0,2.35,2.19c.27.19.55.35.83.52-.1-1.35-.15-2.71-.15-4.09s0-2.73.15-4.08l-.83.53a8.58,8.58,0,0,0-2.35,2.18,18,18,0,0,0,0,2.75Zm3.38,4.72a18.57,18.57,0,0,1-2.95-1.88A21.91,21.91,0,0,0,78.54,72a48.22,48.22,0,0,1-1.33-6.85ZM87.8,68.77a53.21,53.21,0,0,1-8.61-2.72,46.35,46.35,0,0,0,2.29,9.16,38.66,38.66,0,0,0,9.68,6.57,59.18,59.18,0,0,1-3.36-13Zm16.77,2.49A113.44,113.44,0,0,1,89.25,69.1a56.82,56.82,0,0,0,3.88,13.6,57,57,0,0,0,13.6,3.88,114.82,114.82,0,0,1-2.16-15.32Zm22.77.13c-3.39.24-6.91.35-10.55.35s-7.17-.11-10.56-.35c.15,1.68.32,3.34.52,5a95.11,95.11,0,0,0,1.74,10.44,65.26,65.26,0,0,0,16.6,0,100.16,100.16,0,0,0,1.75-10.44c.2-1.66.36-3.32.5-5Zm17-2.29A114.07,114.07,0,0,1,129,71.26a114.73,114.73,0,0,1-2.17,15.32,56.82,56.82,0,0,0,13.6-3.88,55.93,55.93,0,0,0,3.9-13.6Zm10-3a52.75,52.75,0,0,1-8.6,2.72,59.75,59.75,0,0,1-3.37,13,38.78,38.78,0,0,0,9.7-6.57,47,47,0,0,0,2.27-9.16Zm5-2.79a17.93,17.93,0,0,1-3,1.88A49.64,49.64,0,0,1,155.05,72a22.32,22.32,0,0,0,4.28-8.73Zm-3-10.29a18.61,18.61,0,0,1,3,1.87,22.42,22.42,0,0,0-4.28-8.74A49.36,49.36,0,0,1,156.36,53Zm-10.58-3.64a54.84,54.84,0,0,1,8.6,2.71,47.47,47.47,0,0,0-2.27-9.15,39.05,39.05,0,0,0-9.7-6.57,59.9,59.9,0,0,1,3.37,13ZM129,46.83A117.29,117.29,0,0,1,144.34,49a56,56,0,0,0-3.9-13.59,55,55,0,0,0-13.6-3.89A114.81,114.81,0,0,1,129,46.83Zm-22.78-.12c3.39-.23,6.93-.35,10.56-.35s7.16.12,10.55.35c-.14-1.68-.3-3.34-.5-5a100.87,100.87,0,0,0-1.75-10.43,65.26,65.26,0,0,0-16.6,0,95.73,95.73,0,0,0-1.74,10.43c-.2,1.67-.37,3.33-.52,5ZM89.25,49a116.63,116.63,0,0,1,15.32-2.17,114.9,114.9,0,0,1,2.16-15.31,55.17,55.17,0,0,0-13.6,3.89A56.88,56.88,0,0,0,89.25,49ZM79.19,52a55.33,55.33,0,0,1,8.61-2.71,59.33,59.33,0,0,1,3.36-13,38.93,38.93,0,0,0-9.68,6.57A46.78,46.78,0,0,0,79.19,52Zm-4.93,2.8A19.3,19.3,0,0,1,77.21,53a50.86,50.86,0,0,1,1.31-6.87,22.24,22.24,0,0,0-4.26,8.74ZM116.79,14a45.07,45.07,0,0,1,45.08,45.08c0,25.58-19.93,45.08-45.08,45.05-25.67,0-45.06-18.92-45.08-45.07C71.7,33.88,91.19,14,116.79,14Z"/><polygon class="cls-2" points="73.97 117.77 79.19 117.77 79.19 122.04 73.97 122.04 73.97 117.77 73.97 117.77"/><polygon class="cls-2" points="82.04 117.77 87.26 117.77 87.26 122.04 82.04 122.04 82.04 117.77 82.04 117.77"/><polygon class="cls-2" points="90.58 117.77 95.8 117.77 95.8 122.04 90.58 122.04 90.58 117.77 90.58 117.77"/><polygon class="cls-2" points="98.65 117.77 103.86 117.77 103.86 122.04 98.65 122.04 98.65 117.77 98.65 117.77"/><polygon class="cls-2" points="106.71 117.77 111.93 117.77 111.93 122.04 106.71 122.04 106.71 117.77 106.71 117.77"/><polygon class="cls-2" points="114.78 117.77 120 117.77 120 122.04 114.78 122.04 114.78 117.77 114.78 117.77"/><polygon class="cls-2" points="123.32 117.77 128.53 117.77 128.53 122.04 123.32 122.04 123.32 117.77 123.32 117.77"/><polygon class="cls-2" points="131.38 117.77 136.6 117.77 136.6 122.04 131.38 122.04 131.38 117.77 131.38 117.77"/><polygon class="cls-2" points="139.45 117.77 144.66 117.77 144.66 122.04 139.45 122.04 139.45 117.77 139.45 117.77"/><polygon class="cls-2" points="147.99 117.77 153.21 117.77 153.21 122.04 147.99 122.04 147.99 117.77 147.99 117.77"/><polygon class="cls-2" points="156.05 117.77 161.27 117.77 161.27 122.04 156.05 122.04 156.05 117.77 156.05 117.77"/></g></g></g></svg>