<svg xmlns="http://www.w3.org/2000/svg" viewBox="0 0 194.71 185.73"><defs><style>.cls-1,.cls-3{fill:#fff;}.cls-1,.cls-2{fill-rule:evenodd;}.cls-2{fill:#b12024;}.cls-3{font-size:18px;font-family:Digital-7;}</style></defs><title>top right_1</title><g id="Layer_2" data-name="Layer 2"><g id="Layer_1-2" data-name="Layer 1"><g id="main_thing" data-name="main thing"><polygon class="cls-1" points="104.9 185.73 194.71 109.03 194.71 0 193.04 0 193.04 108.52 104.9 184.27 104.9 185.73 104.9 185.73"/><path class="cls-1" d="M78.68,146.81H72.54V77.2h6.14v69.61Zm-10.53,0H62.59V77.2h5.56v69.61Zm-10,0H52.35V77.2H58.2v69.61Zm24.57,0V77.2h6.14v69.61Zm10.53,0V77.2h5.56v69.61Zm10,0V77.2h5.85v69.61ZM77.8,145.64V77.78H73.71v67.86Zm-10.24,0V77.78H63.47v67.86Zm-10.53,0V77.78H53.52v67.86Zm26.91,0V77.78h3.8v67.86Zm10,0V77.78H98v67.86Zm10.53,0V77.78h3.51v67.86Zm9.94,0V77.78h4.1v67.86Zm-.88,1.17V77.2h5.85v69.61Z"/><polygon class="cls-1" points="114.36 145.64 114.36 109.66 118.46 109.66 118.46 145.64 114.36 145.64 114.36 145.64"/><polygon class="cls-1" points="104.42 145.64 104.42 117.56 107.93 117.56 107.93 145.64 104.42 145.64 104.42 145.64"/><polygon class="cls-1" points="93.89 145.64 93.89 109.66 97.98 109.66 97.98 145.64 93.89 145.64 93.89 145.64"/><polygon class="cls-1" points="83.94 145.64 83.94 88.31 87.75 88.31 87.75 145.64 83.94 145.64 83.94 145.64"/><polygon class="cls-1" points="57.03 145.64 57.03 109.66 53.52 109.66 53.52 145.64 57.03 145.64 57.03 145.64"/><polygon class="cls-1" points="67.56 145.64 67.56 136.57 63.47 136.57 63.47 145.64 67.56 145.64 67.56 145.64"/><polygon class="cls-1" points="77.8 145.64 77.8 117.56 73.7 117.56 73.7 145.64 77.8 145.64 77.8 145.64"/><polygon class="cls-2" points="48.84 152.07 52.06 152.07 52.06 155 48.84 155 48.84 152.07 48.84 152.07"/><polygon class="cls-2" points="53.81 152.07 57.03 152.07 57.03 155 53.81 155 53.81 152.07 53.81 152.07"/><polygon class="cls-2" points="58.79 152.07 62.01 152.07 62.01 155 58.79 155 58.79 152.07 58.79 152.07"/><polygon class="cls-2" points="64.05 152.07 67.27 152.07 67.27 155 64.05 155 64.05 152.07 64.05 152.07"/><polygon class="cls-2" points="69.03 152.07 72.24 152.07 72.24 155 69.03 155 69.03 152.07 69.03 152.07"/><polygon class="cls-2" points="74 152.07 77.22 152.07 77.22 155 74 155 74 152.07 74 152.07"/><polygon class="cls-2" points="78.97 152.07 82.48 152.07 82.48 155 78.97 155 78.97 152.07 78.97 152.07"/><polygon class="cls-2" points="84.23 152.07 87.45 152.07 87.45 155 84.23 155 84.23 152.07 84.23 152.07"/><polygon class="cls-2" points="89.21 152.07 92.42 152.07 92.42 155 89.21 155 89.21 152.07 89.21 152.07"/><polygon class="cls-2" points="94.18 152.07 97.4 152.07 97.4 155 94.18 155 94.18 152.07 94.18 152.07"/><polygon class="cls-2" points="99.44 152.07 102.66 152.07 102.66 155 99.44 155 99.44 152.07 99.44 152.07"/><polygon class="cls-2" points="104.42 152.07 107.64 152.07 107.64 155 104.42 155 104.42 152.07 104.42 152.07"/><polygon class="cls-2" points="109.39 152.07 112.61 152.07 112.61 155 109.39 155 109.39 152.07 109.39 152.07"/><polygon class="cls-2" points="114.36 152.07 117.87 152.07 117.87 155 114.36 155 114.36 152.07 114.36 152.07"/><polygon class="cls-2" points="119.63 152.07 122.84 152.07 122.84 155 119.63 155 119.63 152.07 119.63 152.07"/><polygon class="cls-1" points="0 27.95 6.14 27.95 6.14 34.08 0 34.08 0 27.95 0 27.95"/><polygon class="cls-1" points="9.48 27.95 15.62 27.95 15.62 34.08 9.48 34.08 9.48 27.95 9.48 27.95"/><polygon class="cls-1" points="18.97 27.95 25.1 27.95 25.1 34.08 18.97 34.08 18.97 27.95 18.97 27.95"/><polygon class="cls-1" points="29.01 27.95 35.15 27.95 35.15 34.08 29.01 34.08 29.01 27.95 29.01 27.95"/><polygon class="cls-1" points="38.49 27.95 44.63 27.95 44.63 34.08 38.49 34.08 38.49 27.95 38.49 27.95"/><polygon class="cls-1" points="47.98 27.95 54.11 27.95 54.11 34.08 47.98 34.08 47.98 27.95 47.98 27.95"/><polygon class="cls-1" points="57.46 27.95 64.15 27.95 64.15 34.08 57.46 34.08 57.46 27.95 57.46 27.95"/><polygon class="cls-1" points="67.5 27.95 73.64 27.95 73.64 34.08 67.5 34.08 67.5 27.95 67.5 27.95"/><polygon class="cls-1" points="76.98 27.95 83.12 27.95 83.12 34.08 76.98 34.08 76.98 27.95 76.98 27.95"/><polygon class="cls-1" points="86.47 27.95 92.6 27.95 92.6 34.08 86.47 34.08 86.47 27.95 86.47 27.95"/><polygon class="cls-1" points="96.51 27.95 102.65 27.95 102.65 34.08 96.51 34.08 96.51 27.95 96.51 27.95"/><polygon class="cls-1" points="105.99 27.95 112.13 27.95 112.13 34.08 105.99 34.08 105.99 27.95 105.99 27.95"/><polygon class="cls-1" points="115.48 27.95 121.61 27.95 121.61 34.08 115.48 34.08 115.48 27.95 115.48 27.95"/><polygon class="cls-1" points="124.96 27.95 131.65 27.95 131.65 34.08 124.96 34.08 124.96 27.95 124.96 27.95"/><polygon class="cls-1" points="135 27.95 141.14 27.95 141.14 34.08 135 34.08 135 27.95 135 27.95"/><polygon class="cls-1" points="144.49 27.95 150.62 27.95 150.62 34.08 144.49 34.08 144.49 27.95 144.49 27.95"/><polygon class="cls-1" points="153.97 27.95 160.1 27.95 160.1 34.08 153.97 34.08 153.97 27.95 153.97 27.95"/><polygon class="cls-1" points="164.01 27.95 170.15 27.95 170.15 34.08 164.01 34.08 164.01 27.95 164.01 27.95"/><polygon class="cls-1" points="173.49 27.95 179.63 27.95 179.63 34.08 173.49 34.08 173.49 27.95 173.49 27.95"/><text class="cls-3" transform="translate(5.35 55.55)">PREPARING FOR TAKEOFF...</text></g></g></g></svg>