<svg xmlns="http://www.w3.org/2000/svg" viewBox="0 0 471.38 343.93"><defs><style>.cls-1{fill:#262626;stroke-width:0.5px;}.cls-1,.cls-2{stroke:#fff;stroke-miterlimit:10;}.cls-2{fill:none;}.cls-3{fill:#fff;}</style></defs><title>business_2</title><g id="Layer_2" data-name="Layer 2"><g id="Layer_1-2" data-name="Layer 1"><g id="Business"><g id="Business-2" data-name="Business"><polygon class="cls-1" points="224.09 296.59 0.5 166.49 247.34 24.02 470.88 152.97 224.09 296.59"/><polygon class="cls-1" points="224.09 296.59 224.09 307.4 0.5 177.3 0.5 166.49 224.09 296.59"/><polygon class="cls-1" points="470.88 152.97 470.88 163.78 224.09 307.4 224.09 296.59 470.88 152.97"/><polygon class="cls-1" points="245.56 30.81 245.56 46.92 254.59 41.72 255.9 24.85 245.56 30.81"/><polygon class="cls-1" points="255.9 24.85 245.56 30.81 235.16 24.8 245.51 18.85 255.9 24.85"/><polygon class="cls-1" points="245.56 30.8 245.56 46.91 236.92 41.93 235.16 24.8 245.56 30.8"/><path class="cls-1" d="M245.51,18.85,235.16,24.8l10.4,6,10.34-6Zm-8.53,6,8.52-4.91,8.59,5-8.53,4.91Z"/><polygon class="cls-1" points="197.77 36.5 228.15 54.26 228.14 90.94 197.77 73 197.77 36.5"/><polygon class="cls-1" points="228.15 54.26 230.11 53.12 230.11 89.8 228.14 90.94 228.15 54.26"/><polygon class="cls-1" points="197.77 36.5 199.63 35.42 230.11 53.12 228.15 54.26 197.77 36.5"/><polygon class="cls-1" points="142.86 112.79 119.89 126.08 119.89 153.53 142.86 140.06 142.86 112.79"/><polygon class="cls-1" points="119.89 126.08 117.92 124.95 117.92 152.39 119.89 153.53 119.89 126.08"/><polygon class="cls-1" points="142.86 112.79 141 111.71 117.92 124.95 119.89 126.08 142.86 112.79"/><polygon class="cls-1" points="119.88 137.21 151.07 155.18 151.07 157.29 119.88 139.2 119.88 137.21"/><polygon class="cls-1" points="151.07 155.18 173.97 141.87 173.97 143.98 151.07 157.29 151.07 155.18"/><polygon class="cls-1" points="119.88 137.21 142.86 123.92 173.97 141.87 151.07 155.18 119.88 137.21"/><polygon class="cls-1" points="119.88 126.08 151.07 144.06 151.07 146.17 119.88 128.08 119.88 126.08"/><polygon class="cls-1" points="151.07 144.06 173.97 130.74 173.97 132.85 151.07 146.17 151.07 144.06"/><polygon class="cls-1" points="119.88 126.08 142.86 112.79 173.97 130.74 151.07 144.06 119.88 126.08"/><polygon class="cls-1" points="175.83 131.83 153.04 145.2 153.04 172.64 175.83 159.09 175.83 131.83"/><polygon class="cls-1" points="153.04 145.2 151.07 144.06 151.07 171.5 153.04 172.64 153.04 145.2"/><polygon class="cls-1" points="175.83 131.83 173.97 130.74 151.07 144.06 153.04 145.2 175.83 131.83"/><polygon class="cls-1" points="225.91 64.95 202.93 78.24 202.93 105.68 225.91 92.21 225.91 64.95"/><polygon class="cls-1" points="202.93 78.24 200.96 77.1 200.96 104.55 202.93 105.68 202.93 78.24"/><polygon class="cls-1" points="225.91 64.95 224.04 63.86 200.96 77.1 202.93 78.24 225.91 64.95"/><polygon class="cls-1" points="202.93 89.36 234.11 107.34 234.11 109.45 202.93 91.35 202.93 89.36"/><polygon class="cls-1" points="234.11 107.34 257.01 94.02 257.01 96.13 234.11 109.45 234.11 107.34"/><polygon class="cls-1" points="202.93 89.36 225.91 76.07 257.01 94.02 234.11 107.34 202.93 89.36"/><polygon class="cls-1" points="202.93 78.24 234.11 96.22 234.11 98.33 202.93 80.23 202.93 78.24"/><polygon class="cls-1" points="234.11 96.22 257.01 82.9 257.01 85.01 234.11 98.33 234.11 96.22"/><polygon class="cls-1" points="202.93 78.24 225.91 64.95 257.01 82.9 234.11 96.22 202.93 78.24"/><polygon class="cls-1" points="258.87 83.98 236.08 97.35 236.08 124.79 258.87 111.25 258.87 83.98"/><polygon class="cls-1" points="236.08 97.35 234.11 96.21 234.11 123.66 236.08 124.79 236.08 97.35"/><polygon class="cls-1" points="258.87 83.98 257.01 82.9 234.11 96.21 236.08 97.35 258.87 83.98"/><polygon class="cls-1" points="110.7 97.07 61.74 125.52 61.74 159.54 228.14 63.67 228.14 56.44 110.7 97.07"/><polygon class="cls-1" points="228.14 54.26 61.74 150.51 61.74 153 228.14 56.45 228.14 54.26"/><polygon class="cls-1" points="61.74 150.51 31.26 132.81 31.26 135.3 61.74 153 61.74 150.51"/><polygon class="cls-1" points="228.14 54.26 197.96 36.61 31.26 132.81 61.74 150.51 228.14 54.26"/><polygon class="cls-1" points="29.4 133.9 59.77 151.65 59.77 188.33 29.4 170.4 29.4 133.9"/><polygon class="cls-1" points="59.77 151.65 61.74 150.51 61.74 187.19 59.77 188.33 59.77 151.65"/><polygon class="cls-1" points="29.4 133.9 31.26 132.81 61.74 150.51 59.77 151.65 29.4 133.9"/><polygon class="cls-1" points="119.88 128.08 151.07 146.17 151.07 155.18 119.88 137.21 119.88 128.08"/><polygon class="cls-1" points="202.93 80.23 202.93 89.36 234.11 107.34 234.11 98.33 202.93 80.23"/><polygon class="cls-1" points="314.27 104.36 344.65 122.12 344.65 158.79 314.27 140.86 314.27 104.36"/><polygon class="cls-1" points="344.65 122.12 346.62 120.98 346.62 157.66 344.65 158.79 344.65 122.12"/><polygon class="cls-1" points="314.27 104.36 316.14 103.28 346.62 120.98 344.65 122.12 314.27 104.36"/><polygon class="cls-1" points="259.37 180.65 236.39 193.94 236.39 221.39 259.37 207.92 259.37 180.65"/><polygon class="cls-1" points="236.39 193.94 234.43 192.81 234.43 220.25 236.39 221.39 236.39 193.94"/><polygon class="cls-1" points="259.37 180.65 257.5 179.57 234.43 192.81 236.39 193.94 259.37 180.65"/><polygon class="cls-1" points="236.39 205.07 267.58 223.04 267.57 225.15 236.39 207.06 236.39 205.07"/><polygon class="cls-1" points="267.58 223.04 290.47 209.73 290.47 211.84 267.57 225.15 267.58 223.04"/><polygon class="cls-1" points="236.39 205.07 259.37 191.78 290.47 209.73 267.58 223.04 236.39 205.07"/><polygon class="cls-1" points="236.39 193.94 267.58 211.92 267.57 214.03 236.39 195.94 236.39 193.94"/><polygon class="cls-1" points="267.58 211.92 290.47 198.6 290.47 200.71 267.57 214.03 267.58 211.92"/><polygon class="cls-1" points="236.39 193.94 259.37 180.65 290.47 198.6 267.58 211.92 236.39 193.94"/><polygon class="cls-1" points="292.34 199.69 269.54 213.06 269.54 240.5 292.34 226.95 292.34 199.69"/><polygon class="cls-1" points="269.54 213.06 267.58 211.92 267.58 239.36 269.54 240.5 269.54 213.06"/><polygon class="cls-1" points="292.34 199.69 290.47 198.6 267.58 211.92 269.54 213.06 292.34 199.69"/><polygon class="cls-1" points="342.41 132.81 319.43 146.1 319.44 173.54 342.41 160.07 342.41 132.81"/><polygon class="cls-1" points="319.43 146.1 317.47 144.96 317.47 172.4 319.44 173.54 319.43 146.1"/><polygon class="cls-1" points="342.41 132.81 340.55 131.72 317.47 144.96 319.43 146.1 342.41 132.81"/><polygon class="cls-1" points="319.43 157.22 350.62 175.2 350.62 177.31 319.43 159.21 319.43 157.22"/><polygon class="cls-1" points="350.62 175.2 373.51 161.88 373.51 163.99 350.62 177.31 350.62 175.2"/><polygon class="cls-1" points="319.43 157.22 342.41 143.93 373.51 161.88 350.62 175.2 319.43 157.22"/><polygon class="cls-1" points="319.43 146.1 350.62 164.07 350.62 166.19 319.43 148.09 319.43 146.1"/><polygon class="cls-1" points="350.62 164.07 373.51 150.76 373.51 152.87 350.62 166.19 350.62 164.07"/><polygon class="cls-1" points="319.43 146.1 342.41 132.81 373.51 150.76 350.62 164.07 319.43 146.1"/><polygon class="cls-1" points="375.38 151.84 352.58 165.21 352.59 192.65 375.38 179.11 375.38 151.84"/><polygon class="cls-1" points="352.58 165.21 350.62 164.07 350.62 191.52 352.59 192.65 352.58 165.21"/><polygon class="cls-1" points="375.38 151.84 373.51 150.76 350.62 164.07 352.58 165.21 375.38 151.84"/><polygon class="cls-1" points="227.21 164.93 178.24 193.38 178.24 227.4 344.65 131.53 344.65 124.3 227.21 164.93"/><polygon class="cls-1" points="344.65 122.12 178.24 218.38 178.24 220.86 344.65 124.31 344.65 122.12"/><polygon class="cls-1" points="178.24 218.38 147.77 200.67 147.77 203.16 178.24 220.86 178.24 218.38"/><polygon class="cls-1" points="344.65 122.12 314.46 104.47 147.77 200.67 178.24 218.38 344.65 122.12"/><polygon class="cls-1" points="145.9 201.75 176.28 219.51 176.28 256.19 145.9 238.25 145.9 201.75"/><polygon class="cls-1" points="176.28 219.51 178.24 218.38 178.24 255.05 176.28 256.19 176.28 219.51"/><polygon class="cls-1" points="145.9 201.75 147.77 200.67 178.24 218.38 176.28 219.51 145.9 201.75"/><polygon class="cls-1" points="236.39 195.94 267.57 214.03 267.58 223.04 236.39 205.07 236.39 195.94"/><polygon class="cls-1" points="319.43 148.09 319.43 157.22 350.62 175.2 350.62 166.19 319.43 148.09"/><polygon class="cls-1" points="326.44 39.49 326.44 84.98 330.78 82.47 330.78 36.99 326.44 39.49"/><polygon class="cls-1" points="330.78 36.99 326.44 39.49 322.07 36.97 326.42 34.47 330.78 36.99"/><polygon class="cls-1" points="326.44 39.49 326.44 84.97 322.07 82.45 322.07 36.97 326.44 39.49"/><polygon class="cls-1" points="266.82 5.31 266.82 50.79 271.17 48.29 271.17 2.81 266.82 5.31"/><polygon class="cls-1" points="271.17 2.81 266.82 5.31 262.46 2.79 266.8 0.29 271.17 2.81"/><polygon class="cls-1" points="266.82 5.31 266.82 50.79 262.46 48.27 262.46 2.79 266.82 5.31"/><polygon class="cls-1" points="267.39 40.19 307.9 63.57 307.9 83.81 267.39 60.29 267.39 40.19"/><polygon class="cls-1" points="307.9 63.57 320.71 56.11 320.71 76.36 307.9 83.81 307.9 63.57"/><polygon class="cls-1" points="267.39 40.19 280.25 32.76 320.71 56.11 307.9 63.57 267.39 40.19"/><polygon class="cls-1" points="268.64 42.23 306.65 64.15 306.65 81.77 268.64 59.73 268.64 42.23"/><polygon class="cls-1" points="268.64 42.23 280.42 49.02 280.42 52.88 268.64 59.73 268.64 42.23"/><polygon class="cls-1" points="280.42 52.88 306.65 68.14 306.65 64.15 280.42 49.02 280.42 52.88"/><polygon class="cls-1" points="267.39 21.36 307.9 44.74 307.9 64.98 267.39 41.47 267.39 21.36"/><polygon class="cls-1" points="307.9 44.74 320.71 37.29 320.71 57.53 307.9 64.98 307.9 44.74"/><polygon class="cls-1" points="267.39 21.36 280.25 13.93 320.71 37.29 307.9 44.74 267.39 21.36"/><polygon class="cls-1" points="268.64 23.4 306.65 45.32 306.65 62.95 268.64 40.9 268.64 23.4"/><polygon class="cls-1" points="268.64 23.4 280.42 30.19 280.42 34.05 268.64 40.9 268.64 23.4"/><polygon class="cls-1" points="280.42 34.05 306.65 49.31 306.65 45.32 280.42 30.19 280.42 34.05"/><polygon class="cls-1" points="170.27 74.02 161.43 79.12 169.99 84.04 178.8 78.92 170.27 74.02"/><polygon class="cls-1" points="135.56 91.7 141.95 95.98 141.94 96.65 135.56 92.96 135.56 91.7"/><polygon class="cls-1" points="141.95 95.98 162.73 83.91 162.73 84.58 141.94 96.65 141.95 95.98"/><polygon class="cls-1" points="135.56 91.7 156.43 79.65 162.73 83.91 141.95 95.98 135.56 91.7"/><polygon class="cls-1" points="143.79 93.08 151.13 88.85 151.86 89.36 144.55 93.6 143.79 93.08"/><polygon class="cls-1" points="143.26 94.35 144.36 93.72 143.63 93.2 142.53 93.84 143.26 94.35"/><polygon class="cls-1" points="141.98 95.1 143.07 94.46 142.34 93.95 141.25 94.58 141.98 95.1"/><polygon class="cls-1" points="139.63 91.78 140.73 91.14 140 90.63 138.9 91.26 139.63 91.78"/><polygon class="cls-1" points="138.35 92.52 139.45 91.89 138.72 91.37 137.62 92 138.35 92.52"/><polygon class="cls-1" points="145.02 92.15 146.11 91.51 145.38 91 144.28 91.63 145.02 92.15"/><polygon class="cls-1" points="143.74 92.89 144.83 92.26 144.1 91.74 143 92.38 143.74 92.89"/><polygon class="cls-1" points="147.59 90.65 148.69 90.02 147.96 89.5 146.86 90.14 147.59 90.65"/><polygon class="cls-1" points="146.31 91.4 147.41 90.76 146.68 90.25 145.58 90.88 146.31 91.4"/><polygon class="cls-1" points="150.17 89.16 151.26 88.52 150.53 88 149.44 88.64 150.17 89.16"/><polygon class="cls-1" points="148.89 89.9 149.98 89.27 149.25 88.75 148.15 89.38 148.89 89.9"/><polygon class="cls-1" points="151.46 88.41 152.56 87.77 151.83 87.25 150.73 87.89 151.46 88.41"/><polygon class="cls-1" points="144.1 91.53 145.2 90.89 144.47 90.38 143.37 91.01 144.1 91.53"/><polygon class="cls-1" points="142.82 92.27 143.91 91.64 143.19 91.12 142.09 91.75 142.82 92.27"/><polygon class="cls-1" points="146.68 90.03 147.77 89.4 147.04 88.88 145.94 89.51 146.68 90.03"/><polygon class="cls-1" points="145.4 90.78 146.49 90.14 145.76 89.63 144.66 90.26 145.4 90.78"/><polygon class="cls-1" points="149.25 88.53 150.35 87.9 149.62 87.38 148.52 88.02 149.25 88.53"/><polygon class="cls-1" points="147.97 89.28 149.07 88.64 148.34 88.13 147.24 88.76 147.97 89.28"/><polygon class="cls-1" points="151.83 87.04 152.92 86.4 152.19 85.89 151.09 86.52 151.83 87.04"/><polygon class="cls-1" points="150.55 87.78 151.64 87.15 150.91 86.63 149.81 87.27 150.55 87.78"/><polygon class="cls-1" points="153.12 86.29 154.22 85.65 153.49 85.14 152.39 85.77 153.12 86.29"/><polygon class="cls-1" points="143.23 90.92 144.32 90.28 143.59 89.77 142.49 90.4 143.23 90.92"/><polygon class="cls-1" points="141.94 91.66 143.04 91.03 142.31 90.51 141.21 91.14 141.94 91.66"/><polygon class="cls-1" points="145.8 89.42 146.9 88.78 146.17 88.27 145.07 88.9 145.8 89.42"/><polygon class="cls-1" points="144.52 90.17 145.61 89.53 144.88 89.01 143.79 89.65 144.52 90.17"/><polygon class="cls-1" points="148.38 87.92 149.47 87.29 148.74 86.77 147.64 87.41 148.38 87.92"/><polygon class="cls-1" points="147.09 88.67 148.19 88.03 147.46 87.52 146.36 88.15 147.09 88.67"/><polygon class="cls-1" points="150.95 86.43 152.05 85.79 151.32 85.28 150.22 85.91 150.95 86.43"/><polygon class="cls-1" points="149.67 87.17 150.76 86.53 150.03 86.02 148.94 86.65 149.67 87.17"/><polygon class="cls-1" points="152.25 85.67 153.34 85.04 152.61 84.52 151.51 85.16 152.25 85.67"/><polygon class="cls-1" points="142.28 90.26 143.38 89.63 142.65 89.11 141.55 89.75 142.28 90.26"/><polygon class="cls-1" points="141 91.01 142.1 90.37 141.37 89.86 140.27 90.49 141 91.01"/><polygon class="cls-1" points="144.86 88.77 145.96 88.13 145.22 87.61 144.13 88.25 144.86 88.77"/><polygon class="cls-1" points="143.58 89.51 144.67 88.88 143.94 88.36 142.84 88.99 143.58 89.51"/><polygon class="cls-1" points="147.44 87.27 148.53 86.63 147.8 86.12 146.7 86.75 147.44 87.27"/><polygon class="cls-1" points="146.15 88.02 147.25 87.38 146.52 86.86 145.42 87.5 146.15 88.02"/><polygon class="cls-1" points="150.01 85.77 151.1 85.14 150.38 84.62 149.28 85.25 150.01 85.77"/><polygon class="cls-1" points="148.73 86.52 149.82 85.88 149.09 85.37 148 86 148.73 86.52"/><polygon class="cls-1" points="151.3 85.02 152.4 84.39 151.67 83.87 150.57 84.5 151.3 85.02"/><polygon class="cls-1" points="158.09 84.53 159.18 83.89 158.45 83.38 157.35 84.01 158.09 84.53"/><polygon class="cls-1" points="156.81 85.28 157.9 84.64 157.17 84.12 156.07 84.76 156.81 85.28"/><polygon class="cls-1" points="159.38 83.78 160.48 83.14 159.75 82.63 158.65 83.26 159.38 83.78"/><polygon class="cls-1" points="157.17 83.91 158.27 83.27 157.54 82.76 156.44 83.39 157.17 83.91"/><polygon class="cls-1" points="155.89 84.65 156.99 84.02 156.26 83.5 155.16 84.14 155.89 84.65"/><polygon class="cls-1" points="158.47 83.16 159.56 82.52 158.83 82 157.73 82.64 158.47 83.16"/><polygon class="cls-1" points="156.3 83.3 157.39 82.66 156.66 82.14 155.56 82.78 156.3 83.3"/><polygon class="cls-1" points="155.01 84.04 156.11 83.41 155.38 82.89 154.28 83.52 155.01 84.04"/><polygon class="cls-1" points="157.59 82.54 158.69 81.91 157.96 81.39 156.86 82.03 157.59 82.54"/><polygon class="cls-1" points="155.35 82.64 156.45 82.01 155.72 81.49 154.62 82.12 155.35 82.64"/><polygon class="cls-1" points="154.07 83.39 155.17 82.75 154.44 82.24 153.34 82.87 154.07 83.39"/><polygon class="cls-1" points="156.65 81.89 157.74 81.25 157.01 80.74 155.91 81.37 156.65 81.89"/><polygon class="cls-1" points="137.41 91.87 138.5 91.23 137.77 90.72 136.67 91.35 137.41 91.87"/><polygon class="cls-1" points="141.06 94.44 143.45 93.07 142.72 92.56 140.32 93.93 141.06 94.44"/><polygon class="cls-1" points="152.74 87.66 155.14 86.29 154.41 85.77 152.01 87.14 152.74 87.66"/><polygon class="cls-1" points="140.17 93.82 142.56 92.45 141.83 91.94 139.44 93.31 140.17 93.82"/><polygon class="cls-1" points="139.29 93.2 141.69 91.83 140.96 91.31 138.56 92.68 139.29 93.2"/><polygon class="cls-1" points="66.72 133.57 73.11 137.85 73.11 138.52 66.72 134.83 66.72 133.57"/><polygon class="cls-1" points="73.11 137.85 93.9 125.78 93.9 126.45 73.11 138.52 73.11 137.85"/><polygon class="cls-1" points="66.72 133.57 87.59 121.53 93.9 125.78 73.11 137.85 66.72 133.57"/><polygon class="cls-1" points="74.96 134.95 82.29 130.72 83.02 131.23 75.72 135.47 74.96 134.95"/><polygon class="cls-1" points="74.42 136.22 75.52 135.59 74.79 135.07 73.69 135.71 74.42 136.22"/><polygon class="cls-1" points="73.14 136.97 74.24 136.33 73.51 135.82 72.41 136.45 73.14 136.97"/><polygon class="cls-1" points="70.8 133.65 71.89 133.01 71.16 132.5 70.06 133.13 70.8 133.65"/><polygon class="cls-1" points="69.51 134.39 70.61 133.76 69.88 133.24 68.78 133.88 69.51 134.39"/><polygon class="cls-1" points="76.18 134.02 77.28 133.38 76.54 132.87 75.45 133.5 76.18 134.02"/><polygon class="cls-1" points="74.9 134.77 75.99 134.13 75.26 133.61 74.16 134.25 74.9 134.77"/><polygon class="cls-1" points="78.75 132.52 79.85 131.89 79.12 131.37 78.02 132.01 78.75 132.52"/><polygon class="cls-1" points="77.47 133.27 78.57 132.63 77.84 132.12 76.74 132.75 77.47 133.27"/><polygon class="cls-1" points="81.33 131.03 82.42 130.39 81.69 129.88 80.6 130.51 81.33 131.03"/><polygon class="cls-1" points="80.05 131.77 81.14 131.14 80.41 130.62 79.31 131.25 80.05 131.77"/><polygon class="cls-1" points="82.62 130.28 83.72 129.64 82.99 129.12 81.89 129.76 82.62 130.28"/><polygon class="cls-1" points="75.26 133.4 76.36 132.76 75.63 132.25 74.53 132.88 75.26 133.4"/><polygon class="cls-1" points="73.98 134.15 75.08 133.51 74.35 132.99 73.25 133.63 73.98 134.15"/><polygon class="cls-1" points="77.84 131.9 78.94 131.27 78.2 130.75 77.11 131.38 77.84 131.9"/><polygon class="cls-1" points="76.56 132.65 77.65 132.01 76.92 131.5 75.82 132.13 76.56 132.65"/><polygon class="cls-1" points="80.41 130.41 81.51 129.77 80.78 129.25 79.68 129.89 80.41 130.41"/><polygon class="cls-1" points="79.13 131.15 80.23 130.51 79.5 130 78.4 130.63 79.13 131.15"/><polygon class="cls-1" points="82.99 128.91 84.08 128.27 83.36 127.76 82.26 128.39 82.99 128.91"/><polygon class="cls-1" points="81.71 129.65 82.8 129.02 82.07 128.5 80.97 129.14 81.71 129.65"/><polygon class="cls-1" points="84.28 128.16 85.38 127.52 84.65 127 83.55 127.64 84.28 128.16"/><polygon class="cls-1" points="74.39 132.79 75.48 132.15 74.75 131.64 73.65 132.27 74.39 132.79"/><polygon class="cls-1" points="73.11 133.53 74.2 132.9 73.47 132.38 72.37 133.01 73.11 133.53"/><polygon class="cls-1" points="76.96 131.29 78.06 130.66 77.33 130.14 76.23 130.77 76.96 131.29"/><polygon class="cls-1" points="75.68 132.04 76.78 131.4 76.05 130.88 74.95 131.52 75.68 132.04"/><polygon class="cls-1" points="79.54 129.79 80.63 129.16 79.9 128.64 78.81 129.28 79.54 129.79"/><polygon class="cls-1" points="78.26 130.54 79.35 129.9 78.62 129.39 77.52 130.02 78.26 130.54"/><polygon class="cls-1" points="82.11 128.3 83.21 127.66 82.48 127.15 81.38 127.78 82.11 128.3"/><polygon class="cls-1" points="80.83 129.04 81.93 128.41 81.2 127.89 80.1 128.53 80.83 129.04"/><polygon class="cls-1" points="83.41 127.55 84.5 126.91 83.77 126.39 82.67 127.03 83.41 127.55"/><polygon class="cls-1" points="73.45 132.13 74.54 131.5 73.81 130.98 72.71 131.62 73.45 132.13"/><polygon class="cls-1" points="72.16 132.88 73.26 132.24 72.53 131.73 71.43 132.36 72.16 132.88"/><polygon class="cls-1" points="76.02 130.64 77.12 130 76.39 129.49 75.29 130.12 76.02 130.64"/><polygon class="cls-1" points="74.74 131.38 75.83 130.75 75.1 130.23 74.01 130.87 74.74 131.38"/><polygon class="cls-1" points="78.6 129.14 79.69 128.5 78.96 127.99 77.86 128.62 78.6 129.14"/><polygon class="cls-1" points="77.31 129.89 78.41 129.25 77.68 128.73 76.58 129.37 77.31 129.89"/><polygon class="cls-1" points="81.17 127.64 82.27 127.01 81.54 126.49 80.44 127.13 81.17 127.64"/><polygon class="cls-1" points="79.89 128.39 80.98 127.75 80.25 127.24 79.16 127.87 79.89 128.39"/><polygon class="cls-1" points="82.47 126.89 83.56 126.26 82.83 125.74 81.73 126.38 82.47 126.89"/><polygon class="cls-1" points="89.25 126.4 90.34 125.76 89.61 125.25 88.52 125.88 89.25 126.4"/><polygon class="cls-1" points="87.97 127.15 89.06 126.51 88.33 125.99 87.23 126.63 87.97 127.15"/><polygon class="cls-1" points="90.54 125.65 91.64 125.01 90.91 124.5 89.81 125.13 90.54 125.65"/><polygon class="cls-1" points="88.33 125.78 89.43 125.14 88.7 124.63 87.6 125.26 88.33 125.78"/><polygon class="cls-1" points="87.05 126.52 88.15 125.89 87.42 125.37 86.32 126.01 87.05 126.52"/><polygon class="cls-1" points="89.63 125.03 90.72 124.39 89.99 123.88 88.89 124.51 89.63 125.03"/><polygon class="cls-1" points="87.46 125.17 88.55 124.53 87.82 124.02 86.72 124.65 87.46 125.17"/><polygon class="cls-1" points="86.18 125.91 87.27 125.28 86.54 124.76 85.44 125.39 86.18 125.91"/><polygon class="cls-1" points="88.75 124.42 89.85 123.78 89.12 123.26 88.02 123.9 88.75 124.42"/><polygon class="cls-1" points="86.52 124.51 87.61 123.88 86.88 123.36 85.78 124 86.52 124.51"/><polygon class="cls-1" points="85.23 125.26 86.33 124.62 85.6 124.11 84.5 124.74 85.23 125.26"/><polygon class="cls-1" points="87.81 123.76 88.91 123.13 88.17 122.61 87.08 123.24 87.81 123.76"/><polygon class="cls-1" points="68.57 133.74 69.66 133.1 68.93 132.59 67.83 133.22 68.57 133.74"/><polygon class="cls-1" points="72.22 136.31 74.61 134.94 73.88 134.43 71.48 135.8 72.22 136.31"/><polygon class="cls-1" points="83.9 129.53 86.3 128.16 85.57 127.64 83.17 129.01 83.9 129.53"/><polygon class="cls-1" points="71.33 135.69 73.72 134.32 73 133.81 70.6 135.18 71.33 135.69"/><polygon class="cls-1" points="70.45 135.07 72.85 133.7 72.12 133.19 69.72 134.56 70.45 135.07"/><path class="cls-1" d="M167.56,78.23s-.05-1.53,2.1-1.48c0,0,3.11.74,3,2.73C172.66,79.48,171.54,81.92,167.56,78.23Z"/><path class="cls-1" d="M167.76,77.55a1.37,1.37,0,0,0-.2.68c4,3.69,5.11,1.25,5.11,1.25a1.87,1.87,0,0,0,0-.42C172.16,79.57,170.8,80.36,167.76,77.55Z"/><polygon class="cls-1" points="100.48 112.73 91.65 117.83 100.2 122.75 109.01 117.63 100.48 112.73"/><path class="cls-1" d="M97.78,116.94s-.06-1.53,2.1-1.48c0,0,3.11.74,3,2.73C102.88,118.19,101.75,120.63,97.78,116.94Z"/><path class="cls-1" d="M98,116.26a1.42,1.42,0,0,0-.19.68c4,3.69,5.1,1.25,5.1,1.25a1.89,1.89,0,0,0,0-.42C102.38,118.28,101,119.07,98,116.26Z"/><polygon class="cls-1" points="153.66 54.25 150.54 56.05 150.54 72.28 153.66 70.48 153.66 54.25"/><polygon class="cls-1" points="149.81 55.63 150.54 56.05 150.54 72.28 149.81 71.85 149.81 55.63"/><polygon class="cls-1" points="149.81 55.63 150.54 56.05 153.66 54.25 152.92 53.83 149.81 55.63"/><polygon class="cls-1" points="156.65 71.57 153.54 73.38 153.54 74.03 156.65 72.22 156.65 71.57"/><polygon class="cls-1" points="150.54 71.63 153.54 73.38 153.54 74.03 150.54 72.28 150.54 71.63"/><polygon class="cls-1" points="150.54 71.63 153.54 73.38 156.65 71.57 153.66 69.83 150.54 71.63"/><polygon class="cls-1" points="132.33 66.65 129.22 68.45 129.22 84.68 132.33 82.88 132.33 66.65"/><polygon class="cls-1" points="128.49 68.03 129.22 68.45 129.22 84.68 128.49 84.25 128.49 68.03"/><polygon class="cls-1" points="128.49 68.03 129.22 68.45 132.33 66.65 131.6 66.23 128.49 68.03"/><polygon class="cls-1" points="135.32 83.97 132.22 85.78 132.22 86.43 135.32 84.62 135.32 83.97"/><polygon class="cls-1" points="129.22 84.03 132.22 85.78 132.22 86.43 129.22 84.68 129.22 84.03"/><polygon class="cls-1" points="129.22 84.03 132.22 85.78 135.32 83.97 132.33 82.23 129.22 84.03"/><polygon class="cls-1" points="157.14 43.05 125.39 61.4 125.39 83.48 157.14 65.13 157.14 43.05"/><polygon class="cls-1" points="123.52 60.31 125.39 61.4 125.39 83.48 123.52 82.39 123.52 60.31"/><polygon class="cls-1" points="123.52 60.31 125.39 61.4 157.14 43.05 155.28 41.96 123.52 60.31"/><path class="cls-1" d="M125.38,61.4V83.48l31.76-18.35V43.05Zm30.4,2.95-29,16.77V62.18l29-16.77Z"/><polygon class="cls-1" points="80.01 96.15 76.89 97.94 76.89 114.17 80.01 112.37 80.01 96.15"/><polygon class="cls-1" points="76.16 97.52 76.89 97.94 76.89 114.17 76.16 113.75 76.16 97.52"/><polygon class="cls-1" points="76.16 97.52 76.89 97.94 80.01 96.15 79.28 95.72 76.16 97.52"/><polygon class="cls-1" points="83 113.46 79.89 115.27 79.89 115.92 83 114.12 83 113.46"/><polygon class="cls-1" points="76.89 113.52 79.89 115.27 79.89 115.92 76.89 114.17 76.89 113.52"/><polygon class="cls-1" points="76.89 113.52 79.89 115.27 83 113.46 80.01 111.72 76.89 113.52"/><polygon class="cls-1" points="58.68 108.55 55.57 110.35 55.57 126.57 58.68 124.77 58.68 108.55"/><polygon class="cls-1" points="54.84 109.92 55.57 110.35 55.57 126.57 54.84 126.14 54.84 109.92"/><polygon class="cls-1" points="54.84 109.92 55.57 110.35 58.68 108.55 57.95 108.12 54.84 109.92"/><polygon class="cls-1" points="61.67 125.86 58.57 127.67 58.57 128.32 61.67 126.52 61.67 125.86"/><polygon class="cls-1" points="55.57 125.92 58.57 127.67 58.57 128.32 55.57 126.57 55.57 125.92"/><polygon class="cls-1" points="55.57 125.92 58.57 127.67 61.67 125.86 58.68 124.12 55.57 125.92"/><polygon class="cls-1" points="83.49 84.95 51.74 103.29 51.74 125.37 83.49 107.03 83.49 84.95"/><polygon class="cls-1" points="49.87 102.2 51.74 103.29 51.74 125.37 49.87 124.28 49.87 102.2"/><polygon class="cls-1" points="49.87 102.2 51.74 103.29 83.49 84.95 81.63 83.86 49.87 102.2"/><path class="cls-1" d="M51.74,103.29v22.08L83.49,107V85Zm30.39,2.95L53.1,123V104.08l29-16.77Z"/><rect class="cls-1" x="158.13" y="43.05" width="39.3" height="21.8"/><rect class="cls-1" x="159.76" y="44.55" width="36.04" height="18.82"/><rect class="cls-1" x="158.13" y="41.3" width="39.3" height="1.76"/><rect class="cls-1" x="163.4" y="64.86" width="5.28" height="2.48"/><rect class="cls-1" x="163.4" y="67.34" width="5.28" height="2.86"/><rect class="cls-1" x="187.07" y="67.34" width="5.28" height="2.86"/><rect class="cls-1" x="163.4" y="70.21" width="5.28" height="0.68"/><rect class="cls-1" x="187.07" y="70.21" width="5.28" height="0.68"/><rect class="cls-1" x="187.07" y="64.86" width="5.28" height="2.48"/><path class="cls-1" d="M120.08,150.34,103.85,141a2.24,2.24,0,0,0-1.62-.24,3.41,3.41,0,0,0-1.45.94c-.38.36-.82,1.18-.26,1.59a37.07,37.07,0,0,0,3.56,2.07l3.73,2.17,7.27,4.24c.83.49,1.94,1.46,3,1.38a3.88,3.88,0,0,0,2.48-1.46A1,1,0,0,0,120.08,150.34Z"/><path class="cls-1" d="M116.27,151.15l-8-4.66-4.09-2.37c-1.21-.7-2.55-1.33-3.7-2.13-.26.41-.41.95,0,1.26a37.07,37.07,0,0,0,3.56,2.07l3.73,2.17,7.27,4.24c.83.49,1.94,1.46,3,1.38a3.58,3.58,0,0,0,1.29-.44C118.26,152.63,117.13,151.66,116.27,151.15Z"/><path class="cls-1" d="M87.45,189.28a1.93,1.93,0,1,0,1.92-2.07A2,2,0,0,0,87.45,189.28Z"/><path class="cls-1" d="M116.35,188.89a1.93,1.93,0,1,0,1.92-2.08A2,2,0,0,0,116.35,188.89Z"/><path class="cls-1" d="M117.17,173.58a1.93,1.93,0,1,0,1.92-2.07A2,2,0,0,0,117.17,173.58Z"/><path class="cls-1" d="M85.86,172.78a1.93,1.93,0,1,0,1.93-2.08A2,2,0,0,0,85.86,172.78Z"/><polygon class="cls-1" points="102.16 178.43 88.88 187.81 86.93 186.86 99.72 176.32 99.71 175.07 87.29 171.51 87.92 170.7 102.16 173.26 105.58 173.26 118.74 170.93 119.87 171.69 107.64 175.06 107.64 176.32 120.19 186.98 119.03 187.83 105.31 178.39 102.16 178.43"/><path class="cls-1" d="M105.8,175.94a4.57,4.57,0,0,1-4.68,0v-8.76h4.68Z"/><polygon class="cls-1" points="87.29 171.51 87.59 172.82 99.72 176.32 99.71 175.07 87.29 171.51"/><polygon class="cls-1" points="119.87 171.69 107.64 175.06 107.64 176.32 119.53 173.08 119.87 171.69"/><polygon class="cls-1" points="119.03 187.83 117.98 188.89 105.11 180.33 105.31 178.39 119.03 187.83"/><polygon class="cls-1" points="102.16 178.43 102.16 180.26 89.71 189.12 88.88 187.81 102.16 178.43"/><polygon class="cls-1" points="105.11 180.33 102.16 180.26 102.16 178.43 105.31 178.39 105.11 180.33"/><polygon class="cls-1" points="120.19 186.98 119.16 188.19 117.98 188.89 119.03 187.83 120.19 186.98"/><polygon class="cls-1" points="89.71 189.12 87.62 188.14 86.93 186.86 88.88 187.81 89.71 189.12"/><polygon class="cls-1" points="120.73 158.38 101.88 169.24 101.89 173.68 120.73 162.72 120.73 158.38"/><polygon class="cls-1" points="101.88 169.24 82.54 157.93 82.54 162.37 101.89 173.68 101.88 169.24"/><polygon class="cls-1" points="120.73 158.38 101.31 147.09 82.54 157.93 101.88 169.24 120.73 158.38"/><polygon class="cls-1" points="126.16 138.47 107.3 149.23 101.88 169.24 120.73 158.38 126.16 138.47"/><polygon class="cls-1" points="107.3 149.23 103.96 147.3 98.53 167.31 101.88 169.24 107.3 149.23"/><polygon class="cls-1" points="126.16 138.47 122.79 136.54 103.96 147.3 107.3 149.23 126.16 138.47"/><path class="cls-1" d="M101.87,160.85l-16.24-9.39a2.22,2.22,0,0,0-1.62-.23,3.62,3.62,0,0,0-1.45.93c-.38.36-.82,1.19-.26,1.6,1.09.79,2.4,1.39,3.57,2.07L89.6,158l7.26,4.25c.84.49,1.94,1.45,3,1.38a3.86,3.86,0,0,0,2.47-1.46A1,1,0,0,0,101.87,160.85Z"/><path class="cls-1" d="M98.05,161.66q-4-2.34-8-4.66L86,154.62c-1.21-.69-2.55-1.32-3.7-2.12-.26.4-.41.95,0,1.26,1.09.79,2.4,1.39,3.57,2.07L89.6,158l7.26,4.25c.84.49,1.94,1.45,3,1.38a4,4,0,0,0,1.28-.44C100,163.13,98.92,162.17,98.05,161.66Z"/><path class="cls-1" d="M210.51,96.31l-16.24-9.38a2.23,2.23,0,0,0-1.62-.23,3.55,3.55,0,0,0-1.45.93c-.38.36-.82,1.19-.26,1.6,1.09.79,2.4,1.39,3.57,2.07l3.72,2.16q3.65,2.12,7.27,4.25c.84.49,1.94,1.45,3,1.38a3.86,3.86,0,0,0,2.47-1.46A1.06,1.06,0,0,0,210.51,96.31Z"/><path class="cls-1" d="M206.69,97.13l-8-4.66-4.09-2.38c-1.2-.7-2.55-1.32-3.7-2.12-.26.4-.4,1,0,1.26,1.09.79,2.4,1.39,3.56,2.07l3.73,2.16q3.65,2.12,7.27,4.25c.84.49,1.94,1.45,3,1.38a4,4,0,0,0,1.28-.44C208.68,98.6,207.56,97.64,206.69,97.13Z"/><path class="cls-1" d="M177.87,135.25a1.93,1.93,0,1,0,1.92-2.07A2,2,0,0,0,177.87,135.25Z"/><path class="cls-1" d="M206.77,134.86a1.93,1.93,0,1,0,1.92-2.07A2,2,0,0,0,206.77,134.86Z"/><path class="cls-1" d="M207.59,119.56a1.93,1.93,0,1,0,1.92-2.07A2,2,0,0,0,207.59,119.56Z"/><path class="cls-1" d="M176.28,118.75a1.93,1.93,0,1,0,1.93-2.07A2,2,0,0,0,176.28,118.75Z"/><polygon class="cls-1" points="192.58 124.41 179.31 133.78 177.35 132.84 190.14 122.29 190.13 121.05 177.71 117.49 178.34 116.68 192.58 119.24 196 119.24 209.16 116.9 210.29 117.67 198.07 121.04 198.07 122.29 210.62 132.95 209.45 133.81 195.73 124.36 192.58 124.41"/><path class="cls-1" d="M196.22,121.91a4.54,4.54,0,0,1-4.68,0v-8.76h4.68Z"/><polygon class="cls-1" points="177.71 117.49 178.02 118.79 190.14 122.29 190.13 121.05 177.71 117.49"/><polygon class="cls-1" points="210.29 117.67 198.07 121.04 198.07 122.29 209.95 119.06 210.29 117.67"/><polygon class="cls-1" points="209.45 133.81 208.4 134.86 195.53 126.3 195.73 124.36 209.45 133.81"/><polygon class="cls-1" points="192.58 124.41 192.58 126.23 180.13 135.1 179.31 133.78 192.58 124.41"/><polygon class="cls-1" points="195.53 126.3 192.58 126.23 192.58 124.41 195.73 124.36 195.53 126.3"/><polygon class="cls-1" points="210.62 132.95 209.58 134.16 208.4 134.86 209.45 133.81 210.62 132.95"/><polygon class="cls-1" points="180.13 135.1 178.04 134.12 177.35 132.84 179.31 133.78 180.13 135.1"/><polygon class="cls-1" points="211.15 104.35 192.31 115.21 192.31 119.66 211.15 108.69 211.15 104.35"/><polygon class="cls-1" points="192.31 115.21 172.96 103.9 172.96 108.34 192.31 119.66 192.31 115.21"/><polygon class="cls-1" points="211.15 104.35 191.74 93.06 172.96 103.9 192.31 115.21 211.15 104.35"/><polygon class="cls-1" points="216.58 84.45 197.72 95.2 192.3 115.21 211.15 104.35 216.58 84.45"/><polygon class="cls-1" points="197.72 95.2 194.38 93.28 188.96 113.29 192.3 115.21 197.72 95.2"/><polygon class="cls-1" points="216.58 84.45 213.21 82.52 194.38 93.28 197.72 95.2 216.58 84.45"/><path class="cls-1" d="M192.29,106.82l-16.24-9.38a2.16,2.16,0,0,0-1.61-.23,3.39,3.39,0,0,0-1.46.93c-.38.36-.82,1.19-.26,1.59a39.56,39.56,0,0,0,3.57,2.08L180,104l7.27,4.24c.83.49,1.93,1.46,3,1.38a3.79,3.79,0,0,0,2.47-1.46A1,1,0,0,0,192.29,106.82Z"/><path class="cls-1" d="M188.48,107.64q-4-2.34-8-4.66l-4.09-2.38c-1.21-.7-2.55-1.32-3.7-2.12-.26.4-.41,1,0,1.25a39.56,39.56,0,0,0,3.57,2.08L180,104l7.27,4.24c.83.49,1.93,1.46,3,1.38a3.54,3.54,0,0,0,1.28-.44C190.47,109.11,189.34,108.14,188.48,107.64Z"/><path class="cls-1" d="M236.63,216.58l-16.24-9.38a2.22,2.22,0,0,0-1.62-.23,3.41,3.41,0,0,0-1.45.93c-.38.36-.82,1.19-.26,1.59a39.56,39.56,0,0,0,3.57,2.08l3.73,2.16,7.26,4.25c.84.48,1.94,1.45,3,1.37a3.82,3.82,0,0,0,2.47-1.46A1,1,0,0,0,236.63,216.58Z"/><path class="cls-1" d="M232.82,217.4q-4-2.34-8-4.66l-4.09-2.38c-1.21-.7-2.55-1.32-3.7-2.12-.26.4-.41.95,0,1.25a39.56,39.56,0,0,0,3.57,2.08l3.73,2.16,7.26,4.25c.84.48,1.94,1.45,3,1.37a3.54,3.54,0,0,0,1.28-.44C234.8,218.87,233.68,217.9,232.82,217.4Z"/><path class="cls-1" d="M204,255.52a1.93,1.93,0,1,0,1.93-2.07A2,2,0,0,0,204,255.52Z"/><path class="cls-1" d="M232.9,255.13a1.93,1.93,0,1,0,1.92-2.07A2,2,0,0,0,232.9,255.13Z"/><path class="cls-1" d="M233.71,239.83a1.93,1.93,0,1,0,1.92-2.07A2,2,0,0,0,233.71,239.83Z"/><path class="cls-1" d="M202.41,239a1.93,1.93,0,1,0,1.92-2.07A2,2,0,0,0,202.41,239Z"/><polygon class="cls-1" points="218.71 244.68 205.43 254.05 203.48 253.11 216.26 242.56 216.26 241.31 203.84 237.75 204.46 236.95 218.71 239.51 222.12 239.51 235.29 237.17 236.41 237.94 224.19 241.31 224.19 242.56 236.74 253.22 235.57 254.07 221.85 244.63 218.71 244.68"/><path class="cls-1" d="M222.35,242.18a4.56,4.56,0,0,1-4.69,0v-8.76h4.69Z"/><polygon class="cls-1" points="203.84 237.75 204.14 239.06 216.26 242.56 216.26 241.31 203.84 237.75"/><polygon class="cls-1" points="236.41 237.94 224.19 241.31 224.19 242.56 236.08 239.32 236.41 237.94"/><polygon class="cls-1" points="235.57 254.07 234.53 255.13 221.65 246.57 221.85 244.63 235.57 254.07"/><polygon class="cls-1" points="218.71 244.68 218.71 246.5 206.25 255.36 205.43 254.05 218.71 244.68"/><polygon class="cls-1" points="221.65 246.57 218.71 246.5 218.71 244.68 221.85 244.63 221.65 246.57"/><polygon class="cls-1" points="236.74 253.22 235.71 254.43 234.53 255.13 235.57 254.07 236.74 253.22"/><polygon class="cls-1" points="206.25 255.36 204.16 254.39 203.48 253.11 205.43 254.05 206.25 255.36"/><polygon class="cls-1" points="237.28 224.62 218.43 235.48 218.43 239.92 237.28 228.96 237.28 224.62"/><polygon class="cls-1" points="218.43 235.48 199.09 224.17 199.09 228.61 218.43 239.92 218.43 235.48"/><polygon class="cls-1" points="237.28 224.62 217.86 213.33 199.09 224.17 218.43 235.48 237.28 224.62"/><polygon class="cls-1" points="242.7 204.72 223.85 215.47 218.42 235.48 237.28 224.62 242.7 204.72"/><polygon class="cls-1" points="223.85 215.47 220.5 213.54 215.08 233.55 218.42 235.48 223.85 215.47"/><polygon class="cls-1" points="242.7 204.72 239.34 202.78 220.5 213.54 223.85 215.47 242.7 204.72"/><path class="cls-1" d="M218.42,227.09l-16.24-9.38a2.24,2.24,0,0,0-1.62-.24,3.47,3.47,0,0,0-1.45.94c-.38.35-.82,1.18-.26,1.59a38.33,38.33,0,0,0,3.56,2.07l3.73,2.17,7.27,4.24c.84.49,1.94,1.45,3,1.38a3.86,3.86,0,0,0,2.47-1.46A1,1,0,0,0,218.42,227.09Z"/><path class="cls-1" d="M214.6,227.9l-8-4.66-4.09-2.37c-1.2-.7-2.55-1.33-3.7-2.13-.26.41-.4.95,0,1.26a38.33,38.33,0,0,0,3.56,2.07l3.73,2.17,7.27,4.24c.84.49,1.94,1.45,3,1.38a3.81,3.81,0,0,0,1.28-.44C216.59,229.38,215.47,228.41,214.6,227.9Z"/><path class="cls-1" d="M327,166.36,310.72,157a2.22,2.22,0,0,0-1.62-.23,3.41,3.41,0,0,0-1.45.93c-.38.36-.82,1.19-.26,1.6,1.09.79,2.4,1.39,3.57,2.07l3.73,2.16,7.26,4.25c.84.49,1.94,1.45,3,1.38a3.86,3.86,0,0,0,2.47-1.46A1.05,1.05,0,0,0,327,166.36Z"/><path class="cls-1" d="M323.15,167.18l-8-4.66-4.09-2.38c-1.21-.7-2.55-1.32-3.7-2.12-.26.4-.41.95,0,1.26,1.09.79,2.4,1.39,3.57,2.07l3.73,2.16,7.26,4.25c.84.49,1.94,1.45,3,1.38a3.79,3.79,0,0,0,1.28-.45C325.13,168.65,324,167.68,323.15,167.18Z"/><path class="cls-1" d="M294.32,205.3a1.93,1.93,0,1,0,1.93-2.07A2,2,0,0,0,294.32,205.3Z"/><path class="cls-1" d="M323.23,204.91a1.93,1.93,0,1,0,1.92-2.07A2,2,0,0,0,323.23,204.91Z"/><path class="cls-1" d="M324,189.61a1.93,1.93,0,1,0,1.92-2.07A2,2,0,0,0,324,189.61Z"/><path class="cls-1" d="M292.74,188.8a1.93,1.93,0,1,0,1.92-2.07A2,2,0,0,0,292.74,188.8Z"/><polygon class="cls-1" points="309.04 194.46 295.76 203.83 293.81 202.89 306.59 192.34 306.59 191.09 294.17 187.54 294.8 186.73 309.04 189.29 312.45 189.29 325.62 186.95 326.74 187.72 314.52 191.09 314.52 192.34 327.07 203 325.9 203.85 312.18 194.41 309.04 194.46"/><path class="cls-1" d="M312.68,192a4.56,4.56,0,0,1-4.69,0V183.2h4.69Z"/><polygon class="cls-1" points="294.17 187.54 294.47 188.84 306.59 192.34 306.59 191.09 294.17 187.54"/><polygon class="cls-1" points="326.74 187.72 314.52 191.09 314.52 192.34 326.41 189.1 326.74 187.72"/><polygon class="cls-1" points="325.9 203.85 324.86 204.91 311.98 196.35 312.18 194.41 325.9 203.85"/><polygon class="cls-1" points="309.04 194.46 309.04 196.28 296.58 205.15 295.76 203.83 309.04 194.46"/><polygon class="cls-1" points="311.98 196.35 309.04 196.28 309.04 194.46 312.18 194.41 311.98 196.35"/><polygon class="cls-1" points="327.07 203 326.04 204.21 324.86 204.91 325.9 203.85 327.07 203"/><polygon class="cls-1" points="296.58 205.15 294.49 204.17 293.81 202.89 295.76 203.83 296.58 205.15"/><polygon class="cls-1" points="327.61 174.4 308.76 185.26 308.76 189.71 327.61 178.74 327.61 174.4"/><polygon class="cls-1" points="308.76 185.26 289.42 173.95 289.42 178.39 308.76 189.71 308.76 185.26"/><polygon class="cls-1" points="327.61 174.4 308.19 163.11 289.42 173.95 308.76 185.26 327.61 174.4"/><polygon class="cls-1" points="333.03 154.5 314.18 165.25 308.75 185.26 327.61 174.4 333.03 154.5"/><polygon class="cls-1" points="314.18 165.25 310.83 163.32 305.41 183.34 308.75 185.26 314.18 165.25"/><polygon class="cls-1" points="333.03 154.5 329.67 152.56 310.83 163.32 314.18 165.25 333.03 154.5"/><path class="cls-1" d="M308.75,176.87l-16.24-9.38a2.24,2.24,0,0,0-1.62-.24,3.47,3.47,0,0,0-1.45.94c-.38.35-.82,1.18-.26,1.59a38.33,38.33,0,0,0,3.56,2.07l3.73,2.17,7.27,4.24c.84.49,1.94,1.46,3,1.38a3.86,3.86,0,0,0,2.47-1.46A1,1,0,0,0,308.75,176.87Z"/><path class="cls-1" d="M304.93,177.68,297,173l-4.09-2.37c-1.2-.7-2.55-1.33-3.7-2.13-.26.41-.4.95,0,1.26a38.33,38.33,0,0,0,3.56,2.07l3.73,2.17,7.27,4.24c.84.49,1.94,1.46,3,1.38a3.6,3.6,0,0,0,1.28-.44C306.92,179.16,305.8,178.19,304.93,177.68Z"/><polygon class="cls-1" points="234.08 89.05 234.08 90.83 247.44 83.14 247.44 81.36 234.08 89.05"/><polygon class="cls-1" points="247.44 81.36 234.08 89.05 215.21 78.13 228.57 70.44 247.44 81.36"/><polygon class="cls-1" points="234.08 89.05 234.08 90.82 215.21 79.89 215.21 78.12 234.08 89.05"/><polygon class="cls-1" points="236.07 80.22 232.13 82.49 226.58 79.27 230.51 77.01 236.07 80.22"/><polygon class="cls-1" points="316.34 106.88 316.34 113.58 320.52 111.15 321.49 103.88 316.34 106.88"/><polygon class="cls-1" points="321.49 103.88 316.34 106.88 311.51 104.08 316.72 101.13 321.49 103.88"/><polygon class="cls-1" points="316.34 106.88 316.34 113.58 312.33 111.26 311.51 104.08 316.34 106.88"/><path class="cls-1" d="M311.51,104.08l4.83,2.8,5.15-3-4.77-2.75Zm.82,0,4.39-2.48,3.93,2.27-4.3,2.51Z"/><polygon class="cls-1" points="316.35 101.46 316.35 104.67 317.67 103.91 317.67 100.7 316.35 101.46"/><polygon class="cls-1" points="316.35 101.46 316.35 104.67 315.01 103.9 315.01 100.69 316.35 101.46"/><polygon class="cls-1" points="316.35 97.99 316.35 103.6 319.95 101.53 319.95 95.91 316.35 97.99"/><polygon class="cls-1" points="319.95 95.91 316.35 97.99 312.73 95.9 316.33 93.82 319.95 95.91"/><polygon class="cls-1" points="316.35 97.98 316.35 103.6 312.73 101.51 312.73 95.89 316.35 97.98"/><polygon class="cls-1" points="327.87 74.6 368.38 97.97 368.38 118.22 327.87 94.7 327.87 74.6"/><polygon class="cls-1" points="368.38 97.97 381.19 90.52 381.19 110.77 368.38 118.22 368.38 97.97"/><polygon class="cls-1" points="327.87 74.6 340.73 67.17 381.19 90.52 368.38 97.97 327.87 74.6"/><polygon class="cls-1" points="329.12 76.64 367.13 98.56 367.13 116.18 329.12 94.14 329.12 76.64"/><polygon class="cls-1" points="329.12 76.64 340.89 83.43 340.89 87.28 329.12 94.14 329.12 76.64"/><polygon class="cls-1" points="340.89 87.28 367.13 102.55 367.13 98.56 340.89 83.43 340.89 87.28"/><polygon class="cls-1" points="367.13 97.25 407.64 120.63 407.64 140.88 367.13 117.36 367.13 97.25"/><polygon class="cls-1" points="407.64 120.63 420.44 113.18 420.44 133.43 407.64 140.88 407.64 120.63"/><polygon class="cls-1" points="367.13 97.25 379.98 89.83 420.44 113.18 407.64 120.63 367.13 97.25"/><polygon class="cls-1" points="368.37 99.29 406.38 121.21 406.38 138.84 368.37 116.79 368.37 99.29"/><polygon class="cls-1" points="410.84 126.53 412.05 127.22 412.05 139.49 410.84 138.77 410.84 126.53"/><polygon class="cls-1" points="368.37 99.29 380.15 106.08 380.15 109.94 368.37 116.8 368.37 99.29"/><polygon class="cls-1" points="380.15 109.94 406.38 125.21 406.38 121.21 380.15 106.08 380.15 109.94"/><polygon class="cls-1" points="406.38 119.91 446.89 143.29 446.89 163.53 406.38 140.01 406.38 119.91"/><polygon class="cls-1" points="446.89 143.29 459.7 135.84 459.7 156.08 446.89 163.53 446.89 143.29"/><polygon class="cls-1" points="406.38 119.91 419.24 112.48 459.7 135.84 446.89 143.29 406.38 119.91"/><polygon class="cls-1" points="407.63 121.95 445.64 143.87 445.64 161.49 407.63 139.45 407.63 121.95"/><polygon class="cls-1" points="407.63 121.95 419.4 128.74 419.4 132.6 407.63 139.45 407.63 121.95"/><polygon class="cls-1" points="419.4 132.6 445.64 147.86 445.64 143.87 419.4 128.74 419.4 132.6"/><polygon class="cls-1" points="368.37 99.29 368.37 116.8 406.38 138.84 406.38 121.21 368.37 99.29"/><polygon class="cls-1" points="407.63 121.95 445.64 143.87 445.64 161.49 407.63 139.45 407.63 121.95"/><polygon class="cls-1" points="383.15 97 383.15 102.32 389.32 98.72 389.32 93.4 383.15 97"/><polygon class="cls-1" points="389.32 93.4 383.15 97 377.34 93.64 383.6 90.1 389.32 93.4"/><polygon class="cls-1" points="383.15 97 383.15 102.31 377.34 98.96 377.34 93.64 383.15 97"/><path class="cls-1" d="M377.34,93.64,383.15,97l6.17-3.6-5.72-3.3Zm1,0,5.27-3,4.72,2.72-5.17,3Z"/><polygon class="cls-1" points="383.15 90.49 383.15 94.34 384.74 93.43 384.74 89.58 383.15 90.49"/><polygon class="cls-1" points="383.15 90.49 383.15 94.34 381.55 93.42 381.55 89.57 383.15 90.49"/><polygon class="cls-1" points="383.16 86.33 383.16 93.07 387.48 90.58 387.48 83.84 383.16 86.33"/><polygon class="cls-1" points="387.48 83.84 383.16 86.33 378.81 83.82 383.13 81.33 387.48 83.84"/><polygon class="cls-1" points="383.16 86.32 383.16 93.06 378.81 90.55 378.81 83.81 383.16 86.32"/><polygon class="cls-1" points="408.94 112.05 408.94 117.37 415.12 113.77 415.12 108.45 408.94 112.05"/><polygon class="cls-1" points="415.12 108.45 408.94 112.05 403.13 108.7 409.39 105.15 415.12 108.45"/><polygon class="cls-1" points="408.94 112.05 408.94 117.37 403.13 114.01 403.13 108.69 408.94 112.05"/><path class="cls-1" d="M403.14,108.7l5.8,3.35,6.18-3.6-5.73-3.3Zm1,0,5.27-3,4.72,2.72-5.16,3Z"/><polygon class="cls-1" points="408.94 105.55 408.94 109.4 410.53 108.48 410.53 104.63 408.94 105.55"/><polygon class="cls-1" points="408.94 105.55 408.94 109.4 407.35 108.48 407.35 104.62 408.94 105.55"/><polygon class="cls-1" points="408.95 101.38 408.95 108.12 413.28 105.63 413.28 98.89 408.95 101.38"/><polygon class="cls-1" points="413.28 98.89 408.95 101.38 404.6 98.87 408.93 96.38 413.28 98.89"/><polygon class="cls-1" points="408.95 101.38 408.95 108.12 404.6 105.61 404.6 98.87 408.95 101.38"/><polygon class="cls-1" points="434.73 127.11 434.73 132.42 440.91 128.83 440.91 123.51 434.73 127.11"/><polygon class="cls-1" points="440.91 123.51 434.73 127.11 428.93 123.75 435.18 120.21 440.91 123.51"/><polygon class="cls-1" points="434.73 127.1 434.73 132.42 428.93 129.07 428.93 123.75 434.73 127.1"/><path class="cls-1" d="M428.93,123.75l5.8,3.36,6.18-3.6-5.73-3.3Zm1,0,5.26-3,4.73,2.72-5.17,3Z"/><polygon class="cls-1" points="434.74 120.6 434.74 124.45 436.33 123.54 436.33 119.69 434.74 120.6"/><polygon class="cls-1" points="434.74 120.6 434.74 124.45 433.14 123.53 433.14 119.68 434.74 120.6"/><polygon class="cls-1" points="434.74 116.44 434.74 123.17 439.07 120.68 439.07 113.94 434.74 116.44"/><polygon class="cls-1" points="439.07 113.94 434.74 116.44 430.39 113.92 434.72 111.43 439.07 113.94"/><polygon class="cls-1" points="434.74 116.43 434.74 123.17 430.39 120.66 430.39 113.92 434.74 116.43"/><polygon class="cls-1" points="270.22 202.55 267.01 204.38 267.01 207.26 270.22 205.39 270.22 202.55"/><polygon class="cls-1" points="267.01 204.38 250.83 194.98 250.83 197.85 267.01 207.26 267.01 204.38"/><polygon class="cls-1" points="270.22 202.55 253.97 193.17 250.83 194.98 267.01 204.38 270.22 202.55"/><polygon class="cls-1" points="125.97 106.68 125.97 109.77 132.31 106.08 132.31 102.98 125.97 106.68"/><polygon class="cls-1" points="132.31 102.98 125.97 106.68 120 103.23 126.43 99.59 132.31 102.98"/><polygon class="cls-1" points="125.97 106.68 125.97 109.77 120 106.33 120 103.23 125.97 106.68"/><path class="cls-1" d="M120,103.23l6,3.45,6.35-3.7-5.88-3.39Zm1,0,5.41-3,4.85,2.79-5.31,3.1Z"/><polygon class="cls-1" points="309.07 134.99 309.07 138.08 315.42 134.39 315.42 131.29 309.07 134.99"/><polygon class="cls-1" points="315.42 131.29 309.07 134.99 303.11 131.54 309.53 127.9 315.42 131.29"/><polygon class="cls-1" points="309.07 134.99 309.07 138.08 303.11 134.63 303.11 131.54 309.07 134.99"/><path class="cls-1" d="M303.11,131.54l6,3.45,6.35-3.7-5.89-3.39Zm1,0,5.41-3.05,4.86,2.79-5.31,3.1Z"/><polygon class="cls-1" points="245.1 159.67 245.1 169.7 250.54 166.53 250.54 156.49 245.1 159.67"/><polygon class="cls-1" points="250.54 156.49 245.1 159.67 239.98 156.71 245.49 153.58 250.54 156.49"/><polygon class="cls-1" points="245.1 159.66 245.1 169.7 239.98 166.74 239.98 156.71 245.1 159.66"/><path class="cls-1" d="M240,156.71l5.12,3,5.44-3.18-5-2.91Zm.87,0,4.64-2.63,4.17,2.41-4.56,2.65Z"/><path class="cls-1" d="M164.38,114l-19-11a.39.39,0,0,0-.38,0h0l-.73.42.53,1.91v12.56a1.31,1.31,0,0,0,.64,1.11l18.27,10.57.22.57.73-.42h0a.71.71,0,0,0,.35-.61v-14A1.33,1.33,0,0,0,164.38,114Z"/><path class="cls-1" d="M164.31,115.54v14a.7.7,0,0,1-1.05.61l-18.52-10.72a1.29,1.29,0,0,1-.64-1.11V103.75a.38.38,0,0,1,.58-.33l19,11A1.32,1.32,0,0,1,164.31,115.54Z"/><polygon class="cls-1" points="163.79 116.1 163.79 128.54 144.56 117.41 144.56 104.97 163.79 116.1"/><path class="cls-1" d="M142.11,127.89v.35a.34.34,0,0,0-.31,0v-.35A.34.34,0,0,1,142.11,127.89Z"/><polygon class="cls-1" points="141.8 127.89 141.8 128.24 138.91 129.91 138.92 129.57 141.8 127.89"/><path class="cls-1" d="M164,130.85v.91a.32.32,0,0,1-.18.26v-.91A.31.31,0,0,0,164,130.85Z"/><polygon class="cls-1" points="148.68 131.69 148.68 132.03 142.11 128.24 142.11 127.89 148.68 131.69"/><path class="cls-1" d="M148.68,132v-.35a.12.12,0,0,1,.06.1v.34A.12.12,0,0,0,148.68,132Z"/><path class="cls-1" d="M148.74,131.78v.34a.11.11,0,0,1-.06.09v-.35A.09.09,0,0,0,148.74,131.78Z"/><polygon class="cls-1" points="145.49 133.54 145.49 133.89 138.92 130.09 138.92 129.75 145.49 133.54"/><path class="cls-1" d="M145.79,133.54v.35a.32.32,0,0,1-.3,0v-.35A.32.32,0,0,0,145.79,133.54Z"/><path class="cls-1" d="M148.68,131.68a.1.1,0,0,1,0,.18l-2.89,1.68a.32.32,0,0,1-.3,0l-6.57-3.79c-.09-.05-.09-.13,0-.18l2.88-1.68a.34.34,0,0,1,.31,0Z"/><polygon class="cls-1" points="163.79 131.11 163.79 132.02 152.46 138.6 152.46 137.69 163.79 131.11"/><path class="cls-1" d="M145.32,120.6c.08.05.08.13,0,.17l-.85.5a.32.32,0,0,1-.3,0l-.85-.5c-.09,0-.09-.12,0-.17l.85-.49a.3.3,0,0,1,.29,0Z"/><path class="cls-1" d="M148.35,122.33c.08,0,.08.12,0,.17l-.86.5a.37.37,0,0,1-.29,0l-.86-.5c-.08,0-.08-.12,0-.17l.85-.5a.39.39,0,0,1,.3,0Z"/><path class="cls-1" d="M146.75,121.4c.08,0,.08.13,0,.17l-.85.5a.32.32,0,0,1-.3,0l-.86-.5c-.08,0-.08-.12,0-.17l.86-.49a.3.3,0,0,1,.29,0Z"/><path class="cls-1" d="M149.86,123.21c.08.05.08.12,0,.17l-.85.5a.39.39,0,0,1-.3,0l-.86-.5c-.08,0-.08-.12,0-.17l.85-.5a.39.39,0,0,1,.3,0Z"/><path class="cls-1" d="M151.35,124.07c.08,0,.08.12,0,.17l-.86.49a.3.3,0,0,1-.29,0l-.86-.49c-.08,0-.08-.13,0-.17l.85-.5a.32.32,0,0,1,.3,0Z"/><path class="cls-1" d="M152.84,124.92a.1.1,0,0,1,0,.18l-.85.49a.32.32,0,0,1-.3,0l-.86-.5c-.08,0-.08-.12,0-.17l.85-.49a.32.32,0,0,1,.3,0Z"/><path class="cls-1" d="M145.39,122.41a.1.1,0,0,1,0,.18l-.85.49a.32.32,0,0,1-.3,0l-2.35-1.36c-.09,0-.09-.12,0-.17l.86-.49a.3.3,0,0,1,.29,0Z"/><path class="cls-1" d="M146.81,123.21c.09.05.09.12,0,.17l-.85.49a.33.33,0,0,1-.29,0l-.86-.5c-.08,0-.08-.13,0-.17l.85-.5a.35.35,0,0,1,.3,0Z"/><path class="cls-1" d="M148.42,124.13c.08.05.08.13,0,.17l-.85.5a.3.3,0,0,1-.29,0l-.86-.5c-.09,0-.09-.12,0-.17l.85-.49a.3.3,0,0,1,.29,0Z"/><path class="cls-1" d="M149.92,125c.08,0,.08.12,0,.17l-.85.49a.32.32,0,0,1-.3,0l-.86-.49c-.08,0-.08-.13,0-.17l.85-.5a.32.32,0,0,1,.3,0Z"/><path class="cls-1" d="M151.42,125.86c.08,0,.08.13,0,.17l-.86.5a.3.3,0,0,1-.29,0l-.86-.5c-.08,0-.08-.12,0-.17l.85-.49a.32.32,0,0,1,.3,0Z"/><path class="cls-1" d="M143.94,123.33c.09,0,.09.13,0,.18l-.86.49a.3.3,0,0,1-.29,0l-2.36-1.36c-.08,0-.08-.12,0-.17l.85-.5a.39.39,0,0,1,.3,0Z"/><path class="cls-1" d="M145.44,124.12c.08,0,.08.12,0,.17l-.85.5a.39.39,0,0,1-.3,0l-.85-.5c-.09-.05-.09-.12,0-.17l.86-.5a.37.37,0,0,1,.29,0Z"/><path class="cls-1" d="M147,125c.08,0,.08.13,0,.17l-.86.5a.3.3,0,0,1-.29,0l-.86-.5c-.08,0-.08-.12,0-.17l.85-.49a.32.32,0,0,1,.3,0Z"/><path class="cls-1" d="M148.48,125.9c.08,0,.09.12,0,.17l-.85.49a.32.32,0,0,1-.3,0l-.85-.49c-.08,0-.08-.13,0-.17l.85-.5a.3.3,0,0,1,.29,0Z"/><path class="cls-1" d="M154.33,125.79c.09,0,.09.12,0,.17l-.86.49a.3.3,0,0,1-.29,0l-.86-.49c-.08,0-.08-.12,0-.17l.85-.5a.39.39,0,0,1,.3,0Z"/><path class="cls-1" d="M152.91,126.73c.08,0,.08.12,0,.17l-.85.49a.32.32,0,0,1-.3,0l-.85-.49c-.08-.05-.08-.13,0-.17l.85-.5a.3.3,0,0,1,.29,0Z"/><path class="cls-1" d="M150,126.76c.08,0,.08.13,0,.17l-.85.5a.32.32,0,0,1-.3,0l-.86-.5c-.08,0-.08-.12,0-.17l.86-.49a.3.3,0,0,1,.29,0Z"/><path class="cls-1" d="M151.48,127.63c.08,0,.08.12,0,.17l-.86.49a.3.3,0,0,1-.29,0l-.86-.49c-.08,0-.08-.13,0-.17l.85-.5a.32.32,0,0,1,.3,0Z"/><path class="cls-1" d="M144.08,125.05c.08,0,.08.12,0,.17l-.85.49a.3.3,0,0,1-.29,0l-3.86-2.22c-.08,0-.08-.12,0-.17l.86-.5a.37.37,0,0,1,.29,0Z"/><path class="cls-1" d="M145.55,125.92c.08,0,.08.12,0,.17l-.85.49a.32.32,0,0,1-.3,0l-.86-.49a.1.1,0,0,1,0-.18l.86-.49a.3.3,0,0,1,.29,0Z"/><path class="cls-1" d="M147.05,126.78c.08,0,.08.12,0,.17l-.85.5a.39.39,0,0,1-.3,0L145,127c-.08,0-.08-.12,0-.17l.85-.5a.39.39,0,0,1,.3,0Z"/><path class="cls-1" d="M148.54,127.64c.09,0,.09.13,0,.18l-.85.49a.3.3,0,0,1-.29,0l-.86-.49a.1.1,0,0,1,0-.18l.85-.49a.3.3,0,0,1,.29,0Z"/><path class="cls-1" d="M150,128.51c.08.05.08.12,0,.17l-.85.5a.35.35,0,0,1-.3,0l-.86-.49c-.08-.05-.08-.13,0-.17l.86-.5a.37.37,0,0,1,.29,0Z"/><path class="cls-1" d="M155.83,126.65c.08,0,.08.13,0,.17l-.85.5a.32.32,0,0,1-.3,0l-.85-.5c-.09,0-.09-.12,0-.17l.86-.49a.3.3,0,0,1,.29,0Z"/><path class="cls-1" d="M154.41,127.59c.08,0,.08.13,0,.17l-.85.5a.39.39,0,0,1-.3,0l-.86-.5c-.08-.05-.08-.12,0-.17l.86-.49a.3.3,0,0,1,.29,0Z"/><path class="cls-1" d="M153,128.49c.09,0,.09.12,0,.17l-.85.5a.3.3,0,0,1-.29,0l-.86-.5c-.08,0-.08-.12,0-.17l.85-.49a.32.32,0,0,1,.3,0Z"/><path class="cls-1" d="M151.54,129.37c.08,0,.08.13,0,.17l-.86.5a.3.3,0,0,1-.29,0l-.86-.5c-.08,0-.08-.12,0-.17l.85-.49a.32.32,0,0,1,.3,0Z"/><path class="cls-1" d="M141.15,125a.1.1,0,0,1,0,.18l-.86.49a.3.3,0,0,1-.29,0l-.86-.49a.1.1,0,0,1,0-.18l.85-.49a.32.32,0,0,1,.3,0Z"/><path class="cls-1" d="M142.64,125.87c.09,0,.09.12,0,.17l-.85.5a.37.37,0,0,1-.29,0l-.86-.5c-.09-.05-.09-.12,0-.17l.85-.5a.39.39,0,0,1,.3,0Z"/><path class="cls-1" d="M150.13,130.19c.08.05.08.13,0,.17l-.85.5a.32.32,0,0,1-.3,0l-6.85-4c-.08,0-.08-.12,0-.17l.86-.49a.3.3,0,0,1,.29,0Z"/><path class="cls-1" d="M157.33,127.52c.08,0,.08.12,0,.17l-.85.49a.32.32,0,0,1-.3,0l-.86-.49c-.08,0-.08-.12,0-.17l.85-.5a.32.32,0,0,1,.3,0Z"/><path class="cls-1" d="M158.82,128.38c.09.05.09.13,0,.17l-.86.5a.3.3,0,0,1-.29,0l-.86-.5c-.08,0-.08-.12,0-.17l.85-.49a.32.32,0,0,1,.3,0Z"/><path class="cls-1" d="M161.82,130.11c.08,0,.08.13,0,.17l-.85.5a.32.32,0,0,1-.3,0l-2.35-1.36c-.09,0-.09-.13,0-.17l.86-.5a.3.3,0,0,1,.29,0Z"/><path class="cls-1" d="M155.91,128.46c.08,0,.08.12,0,.17l-.85.49a.32.32,0,0,1-.3,0l-.86-.49c-.08,0-.08-.13,0-.17l.85-.5a.32.32,0,0,1,.3,0Z"/><path class="cls-1" d="M157.4,129.32c.09.05.09.12,0,.17l-.85.5a.37.37,0,0,1-.29,0l-.86-.5c-.08-.05-.08-.12,0-.17l.85-.49a.3.3,0,0,1,.29,0Z"/><path class="cls-1" d="M158.9,130.18a.1.1,0,0,1,0,.18l-.85.49a.32.32,0,0,1-.3,0l-.86-.49a.1.1,0,0,1,0-.18l.86-.49a.3.3,0,0,1,.29,0Z"/><path class="cls-1" d="M160.4,131.05c.08,0,.08.12,0,.17l-.86.5a.37.37,0,0,1-.29,0l-.86-.5c-.08-.05-.08-.12,0-.17l.85-.5a.39.39,0,0,1,.3,0Z"/><path class="cls-1" d="M154.47,129.36c.08,0,.08.12,0,.17l-.85.49a.32.32,0,0,1-.3,0l-.86-.49c-.08-.05-.08-.13,0-.17l.86-.5a.3.3,0,0,1,.29,0Z"/><path class="cls-1" d="M156,130.22c.08.05.08.12,0,.17l-.85.5a.39.39,0,0,1-.3,0l-.86-.5c-.08,0-.08-.12,0-.17l.85-.5a.39.39,0,0,1,.3,0Z"/><path class="cls-1" d="M159,132c.08.05.08.12,0,.17l-.85.5a.39.39,0,0,1-.3,0l-2.35-1.36a.1.1,0,0,1,0-.18l.85-.49a.32.32,0,0,1,.3,0Z"/><path class="cls-1" d="M153,130.24c.09,0,.09.12,0,.17l-.85.49a.3.3,0,0,1-.29,0l-.86-.49c-.08,0-.08-.13,0-.17l.85-.5a.32.32,0,0,1,.3,0Z"/><path class="cls-1" d="M154.53,131.1c.08.05.08.13,0,.17l-.85.5a.32.32,0,0,1-.3,0l-.86-.5c-.08,0-.08-.12,0-.17l.86-.49a.3.3,0,0,1,.29,0Z"/><path class="cls-1" d="M157.52,132.83c.09,0,.09.13,0,.17l-.84.53a.32.32,0,0,1-.3,0L154,132.14c-.08,0-.08-.13,0-.17l.85-.5a.32.32,0,0,1,.3,0Z"/><path class="cls-1" d="M151.62,131.06c.09,0,.09.12,0,.17l-.86.49a.3.3,0,0,1-.29,0l-.86-.49c-.08,0-.08-.13,0-.17l.85-.5a.32.32,0,0,1,.3,0Z"/><path class="cls-1" d="M156.18,133.68a.1.1,0,0,1,0,.18l-.86.49a.3.3,0,0,1-.29,0L152.67,133c-.08-.05-.08-.12,0-.17l.86-.5a.37.37,0,0,1,.29,0Z"/><path class="cls-1" d="M153.12,131.92c.08.05.08.13,0,.17l-.85.5a.35.35,0,0,1-.3,0l-.86-.5c-.08,0-.08-.12,0-.17l.86-.49a.3.3,0,0,1,.29,0Z"/><path class="cls-1" d="M142.11,127.89v.35a.34.34,0,0,0-.31,0v-.35A.34.34,0,0,1,142.11,127.89Z"/><polygon class="cls-1" points="141.8 127.89 141.8 128.24 138.91 129.91 138.92 129.57 141.8 127.89"/><polygon class="cls-1" points="148.68 131.69 148.68 132.03 142.11 128.24 142.11 127.89 148.68 131.69"/><path class="cls-1" d="M148.68,132v-.35a.12.12,0,0,1,.06.1v.34A.12.12,0,0,0,148.68,132Z"/><path class="cls-1" d="M148.74,131.78v.34a.11.11,0,0,1-.06.09v-.35A.09.09,0,0,0,148.74,131.78Z"/><polygon class="cls-1" points="145.49 133.54 145.49 133.89 138.92 130.09 138.92 129.75 145.49 133.54"/><path class="cls-1" d="M145.79,133.54v.35a.32.32,0,0,1-.3,0v-.35A.32.32,0,0,0,145.79,133.54Z"/><path class="cls-1" d="M163.87,130.65l-.08-.06L144,119.14a.9.9,0,0,0-.21-.08,1,1,0,0,0-.48,0,.7.7,0,0,0-.2.08l-11.33,6.58a.42.42,0,0,0-.14.12c-.09.13,0,.29.14.39v.91l19.84,11.46v-.91a1,1,0,0,0,.89,0l5.67-3.29,5.66-3.29a.38.38,0,0,0,.13-.12A.24.24,0,0,0,163.87,130.65Zm-15.19,1.21-1.44.84-1.45.84-.07,0a.43.43,0,0,1-.16,0l-.07,0-3.29-1.9-3.28-1.89,0,0,0-.05a.1.1,0,0,1,.07-.09l1.44-.84,1.44-.84a.37.37,0,0,1,.15,0,.38.38,0,0,1,.16,0l6.57,3.79c.06,0,.08.1,0,.14A.1.1,0,0,1,148.68,131.86Z"/><path class="cls-1" d="M148.68,131.68a.1.1,0,0,1,0,.18l-2.89,1.68a.32.32,0,0,1-.3,0l-6.57-3.79c-.09-.05-.09-.13,0-.18l2.88-1.68a.34.34,0,0,1,.31,0Z"/><path class="cls-1" d="M152.46,137.69l11.33-6.58a.31.31,0,0,0,.18-.26v.91a.32.32,0,0,1-.18.26l-11.33,6.58Z"/><path class="cls-1" d="M131.55,126a.31.31,0,0,0,.18.25l19.84,11.46a1,1,0,0,0,.89,0v.91a1,1,0,0,1-.89,0l-19.84-11.46a.31.31,0,0,1-.18-.25Z"/><path class="cls-1" d="M145.32,120.6c.08.05.08.13,0,.17l-.85.5a.32.32,0,0,1-.3,0l-.85-.5c-.09,0-.09-.12,0-.17l.85-.49a.3.3,0,0,1,.29,0Z"/><path class="cls-1" d="M148.35,122.33c.08,0,.08.12,0,.17l-.86.5a.37.37,0,0,1-.29,0l-.86-.5c-.08,0-.08-.12,0-.17l.85-.5a.39.39,0,0,1,.3,0Z"/><path class="cls-1" d="M146.75,121.4c.08,0,.08.13,0,.17l-.85.5a.32.32,0,0,1-.3,0l-.86-.5c-.08,0-.08-.12,0-.17l.86-.49a.3.3,0,0,1,.29,0Z"/><path class="cls-1" d="M149.86,123.21c.08.05.08.12,0,.17l-.85.5a.39.39,0,0,1-.3,0l-.86-.5c-.08,0-.08-.12,0-.17l.85-.5a.39.39,0,0,1,.3,0Z"/><path class="cls-1" d="M151.35,124.07c.08,0,.08.12,0,.17l-.86.49a.3.3,0,0,1-.29,0l-.86-.49c-.08,0-.08-.13,0-.17l.85-.5a.32.32,0,0,1,.3,0Z"/><path class="cls-1" d="M152.84,124.92a.1.1,0,0,1,0,.18l-.85.49a.32.32,0,0,1-.3,0l-.86-.5c-.08,0-.08-.12,0-.17l.85-.49a.32.32,0,0,1,.3,0Z"/><path class="cls-1" d="M145.39,122.41a.1.1,0,0,1,0,.18l-.85.49a.32.32,0,0,1-.3,0l-2.35-1.36c-.09,0-.09-.12,0-.17l.86-.49a.3.3,0,0,1,.29,0Z"/><path class="cls-1" d="M146.81,123.21c.09.05.09.12,0,.17l-.85.49a.33.33,0,0,1-.29,0l-.86-.5c-.08,0-.08-.13,0-.17l.85-.5a.35.35,0,0,1,.3,0Z"/><path class="cls-1" d="M148.42,124.13c.08.05.08.13,0,.17l-.85.5a.3.3,0,0,1-.29,0l-.86-.5c-.09,0-.09-.12,0-.17l.85-.49a.3.3,0,0,1,.29,0Z"/><path class="cls-1" d="M149.92,125c.08,0,.08.12,0,.17l-.85.49a.32.32,0,0,1-.3,0l-.86-.49c-.08,0-.08-.13,0-.17l.85-.5a.32.32,0,0,1,.3,0Z"/><path class="cls-1" d="M151.42,125.86c.08,0,.08.13,0,.17l-.86.5a.3.3,0,0,1-.29,0l-.86-.5c-.08,0-.08-.12,0-.17l.85-.49a.32.32,0,0,1,.3,0Z"/><path class="cls-1" d="M143.94,123.33c.09,0,.09.13,0,.18l-.86.49a.3.3,0,0,1-.29,0l-2.36-1.36c-.08,0-.08-.12,0-.17l.85-.5a.39.39,0,0,1,.3,0Z"/><path class="cls-1" d="M145.44,124.12c.08,0,.08.12,0,.17l-.85.5a.39.39,0,0,1-.3,0l-.85-.5c-.09-.05-.09-.12,0-.17l.86-.5a.37.37,0,0,1,.29,0Z"/><path class="cls-1" d="M147,125c.08,0,.08.13,0,.17l-.86.5a.3.3,0,0,1-.29,0l-.86-.5c-.08,0-.08-.12,0-.17l.85-.49a.32.32,0,0,1,.3,0Z"/><path class="cls-1" d="M148.48,125.9c.08,0,.09.12,0,.17l-.85.49a.32.32,0,0,1-.3,0l-.85-.49c-.08,0-.08-.13,0-.17l.85-.5a.3.3,0,0,1,.29,0Z"/><path class="cls-1" d="M154.33,125.79c.09,0,.09.12,0,.17l-.86.49a.3.3,0,0,1-.29,0l-.86-.49c-.08,0-.08-.12,0-.17l.85-.5a.39.39,0,0,1,.3,0Z"/><path class="cls-1" d="M152.91,126.73c.08,0,.08.12,0,.17l-.85.49a.32.32,0,0,1-.3,0l-.85-.49c-.08-.05-.08-.13,0-.17l.85-.5a.3.3,0,0,1,.29,0Z"/><path class="cls-1" d="M150,126.76c.08,0,.08.13,0,.17l-.85.5a.32.32,0,0,1-.3,0l-.86-.5c-.08,0-.08-.12,0-.17l.86-.49a.3.3,0,0,1,.29,0Z"/><path class="cls-1" d="M151.48,127.63c.08,0,.08.12,0,.17l-.86.49a.3.3,0,0,1-.29,0l-.86-.49c-.08,0-.08-.13,0-.17l.85-.5a.32.32,0,0,1,.3,0Z"/><path class="cls-1" d="M144.08,125.05c.08,0,.08.12,0,.17l-.85.49a.3.3,0,0,1-.29,0l-3.86-2.22c-.08,0-.08-.12,0-.17l.86-.5a.37.37,0,0,1,.29,0Z"/><path class="cls-1" d="M145.55,125.92c.08,0,.08.12,0,.17l-.85.49a.32.32,0,0,1-.3,0l-.86-.49a.1.1,0,0,1,0-.18l.86-.49a.3.3,0,0,1,.29,0Z"/><path class="cls-1" d="M147.05,126.78c.08,0,.08.12,0,.17l-.85.5a.39.39,0,0,1-.3,0L145,127c-.08,0-.08-.12,0-.17l.85-.5a.39.39,0,0,1,.3,0Z"/><path class="cls-1" d="M148.54,127.64c.09,0,.09.13,0,.18l-.85.49a.3.3,0,0,1-.29,0l-.86-.49a.1.1,0,0,1,0-.18l.85-.49a.3.3,0,0,1,.29,0Z"/><path class="cls-1" d="M150,128.51c.08.05.08.12,0,.17l-.85.5a.35.35,0,0,1-.3,0l-.86-.49c-.08-.05-.08-.13,0-.17l.86-.5a.37.37,0,0,1,.29,0Z"/><path class="cls-1" d="M155.83,126.65c.08,0,.08.13,0,.17l-.85.5a.32.32,0,0,1-.3,0l-.85-.5c-.09,0-.09-.12,0-.17l.86-.49a.3.3,0,0,1,.29,0Z"/><path class="cls-1" d="M154.41,127.59c.08,0,.08.13,0,.17l-.85.5a.39.39,0,0,1-.3,0l-.86-.5c-.08-.05-.08-.12,0-.17l.86-.49a.3.3,0,0,1,.29,0Z"/><path class="cls-1" d="M153,128.49c.09,0,.09.12,0,.17l-.85.5a.3.3,0,0,1-.29,0l-.86-.5c-.08,0-.08-.12,0-.17l.85-.49a.32.32,0,0,1,.3,0Z"/><path class="cls-1" d="M151.54,129.37c.08,0,.08.13,0,.17l-.86.5a.3.3,0,0,1-.29,0l-.86-.5c-.08,0-.08-.12,0-.17l.85-.49a.32.32,0,0,1,.3,0Z"/><path class="cls-1" d="M141.15,125a.1.1,0,0,1,0,.18l-.86.49a.3.3,0,0,1-.29,0l-.86-.49a.1.1,0,0,1,0-.18l.85-.49a.32.32,0,0,1,.3,0Z"/><path class="cls-1" d="M142.64,125.87c.09,0,.09.12,0,.17l-.85.5a.37.37,0,0,1-.29,0l-.86-.5c-.09-.05-.09-.12,0-.17l.85-.5a.39.39,0,0,1,.3,0Z"/><path class="cls-1" d="M150.13,130.19c.08.05.08.13,0,.17l-.85.5a.32.32,0,0,1-.3,0l-6.85-4c-.08,0-.08-.12,0-.17l.86-.49a.3.3,0,0,1,.29,0Z"/><path class="cls-1" d="M157.33,127.52c.08,0,.08.12,0,.17l-.85.49a.32.32,0,0,1-.3,0l-.86-.49c-.08,0-.08-.12,0-.17l.85-.5a.32.32,0,0,1,.3,0Z"/><path class="cls-1" d="M158.82,128.38c.09.05.09.13,0,.17l-.86.5a.3.3,0,0,1-.29,0l-.86-.5c-.08,0-.08-.12,0-.17l.85-.49a.32.32,0,0,1,.3,0Z"/><path class="cls-1" d="M161.82,130.11c.08,0,.08.13,0,.17l-.85.5a.32.32,0,0,1-.3,0l-2.35-1.36c-.09,0-.09-.13,0-.17l.86-.5a.3.3,0,0,1,.29,0Z"/><path class="cls-1" d="M155.91,128.46c.08,0,.08.12,0,.17l-.85.49a.32.32,0,0,1-.3,0l-.86-.49c-.08,0-.08-.13,0-.17l.85-.5a.32.32,0,0,1,.3,0Z"/><path class="cls-1" d="M157.4,129.32c.09.05.09.12,0,.17l-.85.5a.37.37,0,0,1-.29,0l-.86-.5c-.08-.05-.08-.12,0-.17l.85-.49a.3.3,0,0,1,.29,0Z"/><path class="cls-1" d="M158.9,130.18a.1.1,0,0,1,0,.18l-.85.49a.32.32,0,0,1-.3,0l-.86-.49a.1.1,0,0,1,0-.18l.86-.49a.3.3,0,0,1,.29,0Z"/><path class="cls-1" d="M160.4,131.05c.08,0,.08.12,0,.17l-.86.5a.37.37,0,0,1-.29,0l-.86-.5c-.08-.05-.08-.12,0-.17l.85-.5a.39.39,0,0,1,.3,0Z"/><path class="cls-1" d="M154.47,129.36c.08,0,.08.12,0,.17l-.85.49a.32.32,0,0,1-.3,0l-.86-.49c-.08-.05-.08-.13,0-.17l.86-.5a.3.3,0,0,1,.29,0Z"/><path class="cls-1" d="M156,130.22c.08.05.08.12,0,.17l-.85.5a.39.39,0,0,1-.3,0l-.86-.5c-.08,0-.08-.12,0-.17l.85-.5a.39.39,0,0,1,.3,0Z"/><path class="cls-1" d="M159,132c.08.05.08.12,0,.17l-.85.5a.39.39,0,0,1-.3,0l-2.35-1.36a.1.1,0,0,1,0-.18l.85-.49a.32.32,0,0,1,.3,0Z"/><path class="cls-1" d="M153,130.24c.09,0,.09.12,0,.17l-.85.49a.3.3,0,0,1-.29,0l-.86-.49c-.08,0-.08-.13,0-.17l.85-.5a.32.32,0,0,1,.3,0Z"/><path class="cls-1" d="M154.53,131.1c.08.05.08.13,0,.17l-.85.5a.32.32,0,0,1-.3,0l-.86-.5c-.08,0-.08-.12,0-.17l.86-.49a.3.3,0,0,1,.29,0Z"/><path class="cls-1" d="M157.52,132.83c.09,0,.09.13,0,.17l-.84.53a.32.32,0,0,1-.3,0L154,132.14c-.08,0-.08-.13,0-.17l.85-.5a.32.32,0,0,1,.3,0Z"/><path class="cls-1" d="M151.62,131.06c.09,0,.09.12,0,.17l-.86.49a.3.3,0,0,1-.29,0l-.86-.49c-.08,0-.08-.13,0-.17l.85-.5a.32.32,0,0,1,.3,0Z"/><path class="cls-1" d="M156.18,133.68a.1.1,0,0,1,0,.18l-.86.49a.3.3,0,0,1-.29,0L152.67,133c-.08-.05-.08-.12,0-.17l.86-.5a.37.37,0,0,1,.29,0Z"/><path class="cls-1" d="M153.12,131.92c.08.05.08.13,0,.17l-.85.5a.35.35,0,0,1-.3,0l-.86-.5c-.08,0-.08-.12,0-.17l.86-.49a.3.3,0,0,1,.29,0Z"/><path class="cls-1" d="M172.72,181.25l19-11a.39.39,0,0,1,.38,0h0l.72.43-.53,1.91v12.55a1.27,1.27,0,0,1-.64,1.11l-18.27,10.57-.21.57-.73-.42h0a.7.7,0,0,1-.36-.61v-14A1.35,1.35,0,0,1,172.72,181.25Z"/><path class="cls-1" d="M172.78,182.83v14a.7.7,0,0,0,1.05.6l18.52-10.72a1.27,1.27,0,0,0,.64-1.11V171a.39.39,0,0,0-.58-.33l-19,11A1.34,1.34,0,0,0,172.78,182.83Z"/><polygon class="cls-1" points="173.3 183.39 173.3 195.84 192.54 184.7 192.54 172.26 173.3 183.39"/><path class="cls-1" d="M195,195.18v.35a.32.32,0,0,1,.3,0v-.35A.39.39,0,0,0,195,195.18Z"/><polygon class="cls-1" points="195.29 195.19 195.29 195.53 198.18 197.21 198.18 196.86 195.29 195.19"/><path class="cls-1" d="M173.12,198.14v.91a.31.31,0,0,0,.18.26v-.91A.3.3,0,0,1,173.12,198.14Z"/><polygon class="cls-1" points="188.42 198.98 188.42 199.32 194.99 195.53 194.99 195.19 188.42 198.98"/><path class="cls-1" d="M188.42,199.32V199a.09.09,0,0,0-.07.09v.34S188.37,199.35,188.42,199.32Z"/><path class="cls-1" d="M188.35,199.07v.34a.09.09,0,0,0,.07.09v-.34A.12.12,0,0,1,188.35,199.07Z"/><polygon class="cls-1" points="191.61 200.83 191.61 201.18 198.18 197.39 198.18 197.04 191.61 200.83"/><path class="cls-1" d="M191.3,200.83v.35a.34.34,0,0,0,.31,0v-.35A.34.34,0,0,1,191.3,200.83Z"/><path class="cls-1" d="M188.42,199c-.09.05-.09.13,0,.18l2.89,1.67a.34.34,0,0,0,.31,0l6.57-3.79a.1.1,0,0,0,0-.18l-2.89-1.68a.39.39,0,0,0-.3,0Z"/><polygon class="cls-1" points="173.31 198.4 173.31 199.31 184.63 205.89 184.63 204.98 173.31 198.4"/><path class="cls-1" d="M191.77,187.9c-.08,0-.08.12,0,.17l.85.49a.32.32,0,0,0,.3,0l.86-.49c.08,0,.08-.13,0-.17l-.85-.5a.32.32,0,0,0-.3,0Z"/><path class="cls-1" d="M188.75,189.62c-.09,0-.09.13,0,.17l.85.5a.32.32,0,0,0,.3,0l.85-.5c.08,0,.09-.12,0-.17l-.85-.49a.32.32,0,0,0-.3,0Z"/><path class="cls-1" d="M190.34,188.69a.1.1,0,0,0,0,.18l.86.49a.3.3,0,0,0,.29,0l.86-.49a.1.1,0,0,0,0-.18l-.85-.49a.32.32,0,0,0-.3,0Z"/><path class="cls-1" d="M187.24,190.5c-.09.05-.09.12,0,.17l.85.5a.3.3,0,0,0,.29,0l.86-.5c.08,0,.08-.12,0-.17l-.85-.49a.32.32,0,0,0-.3,0Z"/><path class="cls-1" d="M185.75,191.36c-.08,0-.08.12,0,.17l.85.49a.32.32,0,0,0,.3,0l.85-.49c.09-.05.09-.12,0-.17l-.85-.5a.3.3,0,0,0-.29,0Z"/><path class="cls-1" d="M184.26,192.22c-.09,0-.09.12,0,.17l.85.49a.3.3,0,0,0,.29,0l.86-.49c.08,0,.08-.13,0-.17l-.85-.5a.3.3,0,0,0-.29,0Z"/><path class="cls-1" d="M191.71,189.71c-.09,0-.09.12,0,.17l.86.49a.3.3,0,0,0,.29,0l2.36-1.36c.08,0,.08-.12,0-.17l-.85-.49a.32.32,0,0,0-.3,0Z"/><path class="cls-1" d="M190.28,190.5c-.08.05-.08.12,0,.17l.85.5a.39.39,0,0,0,.3,0l.86-.5c.08,0,.08-.12,0-.17l-.86-.49a.3.3,0,0,0-.29,0Z"/><path class="cls-1" d="M188.67,191.43c-.08,0-.08.12,0,.17l.85.49a.32.32,0,0,0,.3,0l.86-.49a.1.1,0,0,0,0-.18l-.85-.49a.32.32,0,0,0-.3,0Z"/><path class="cls-1" d="M187.18,192.29c-.09.05-.09.12,0,.17l.86.5a.37.37,0,0,0,.29,0l.86-.5c.08-.05.08-.12,0-.17l-.85-.5a.39.39,0,0,0-.3,0Z"/><path class="cls-1" d="M185.68,193.15a.1.1,0,0,0,0,.18l.85.49a.32.32,0,0,0,.3,0l.85-.49c.09-.05.09-.13,0-.18l-.85-.49a.3.3,0,0,0-.29,0Z"/><path class="cls-1" d="M193.15,190.63c-.08,0-.08.12,0,.17l.85.49a.32.32,0,0,0,.3,0l2.35-1.36c.08,0,.08-.12,0-.17l-.85-.49a.3.3,0,0,0-.29,0Z"/><path class="cls-1" d="M191.65,191.41c-.08.05-.08.13,0,.17l.86.5a.3.3,0,0,0,.29,0l.86-.5c.08,0,.08-.12,0-.17l-.85-.49a.32.32,0,0,0-.3,0Z"/><path class="cls-1" d="M190.11,192.32a.1.1,0,0,0,0,.18l.85.49a.32.32,0,0,0,.3,0l.85-.49c.09-.05.09-.13,0-.18l-.85-.49a.3.3,0,0,0-.29,0Z"/><path class="cls-1" d="M188.61,193.19c-.08.05-.08.12,0,.17l.85.5a.39.39,0,0,0,.3,0l.86-.5c.08-.05.08-.12,0-.17l-.86-.5a.37.37,0,0,0-.29,0Z"/><path class="cls-1" d="M182.76,193.08c-.08,0-.08.13,0,.17l.85.5a.39.39,0,0,0,.3,0l.86-.5c.08-.05.08-.12,0-.17l-.86-.5a.37.37,0,0,0-.29,0Z"/><path class="cls-1" d="M184.18,194c-.08,0-.08.12,0,.17l.85.5a.39.39,0,0,0,.3,0l.86-.5c.08-.05.08-.12,0-.17l-.85-.5a.39.39,0,0,0-.3,0Z"/><path class="cls-1" d="M187.11,194.05a.1.1,0,0,0,0,.18l.85.49a.32.32,0,0,0,.3,0l.86-.49a.1.1,0,0,0,0-.18l-.85-.49a.32.32,0,0,0-.3,0Z"/><path class="cls-1" d="M185.62,194.92c-.08.05-.09.12,0,.17l.85.49a.32.32,0,0,0,.3,0l.85-.49c.08-.05.08-.12,0-.17l-.85-.5a.37.37,0,0,0-.29,0Z"/><path class="cls-1" d="M193,192.34c-.08,0-.08.12,0,.17l.85.5a.39.39,0,0,0,.3,0l3.85-2.23c.08-.05.08-.12,0-.17l-.85-.5a.39.39,0,0,0-.3,0Z"/><path class="cls-1" d="M191.54,193.21c-.08,0-.08.12,0,.17l.86.49a.3.3,0,0,0,.29,0l.86-.49c.08,0,.08-.13,0-.17l-.85-.5a.32.32,0,0,0-.3,0Z"/><path class="cls-1" d="M190.05,194.07c-.08.05-.08.13,0,.17l.85.5a.32.32,0,0,0,.3,0l.85-.5c.09-.05.09-.12,0-.17l-.85-.49a.3.3,0,0,0-.29,0Z"/><path class="cls-1" d="M188.55,194.94c-.08,0-.08.12,0,.17l.85.49a.32.32,0,0,0,.3,0l.86-.49c.08-.05.08-.13,0-.17l-.86-.5a.3.3,0,0,0-.29,0Z"/><path class="cls-1" d="M187.05,195.8c-.08,0-.08.13,0,.17l.86.5a.37.37,0,0,0,.29,0l.86-.5c.08,0,.08-.12,0-.17l-.85-.5a.35.35,0,0,0-.3,0Z"/><path class="cls-1" d="M181.26,194c-.08,0-.08.12,0,.17l.86.49a.3.3,0,0,0,.29,0l.86-.49c.08-.05.08-.13,0-.17l-.85-.5a.32.32,0,0,0-.3,0Z"/><path class="cls-1" d="M182.69,194.88c-.09.05-.09.13,0,.17l.86.5a.3.3,0,0,0,.29,0l.86-.5c.08,0,.08-.12,0-.17l-.85-.49a.32.32,0,0,0-.3,0Z"/><path class="cls-1" d="M184.12,195.78c-.08.05-.08.13,0,.17l.85.5a.32.32,0,0,0,.3,0l.86-.5c.08,0,.08-.12,0-.17l-.86-.49a.3.3,0,0,0-.29,0Z"/><path class="cls-1" d="M185.56,196.67c-.08,0-.09.12,0,.17l.85.49a.3.3,0,0,0,.29,0l.86-.49c.08-.05.08-.13,0-.17l-.85-.5a.3.3,0,0,0-.29,0Z"/><path class="cls-1" d="M196,192.3c-.08,0-.08.12,0,.17l.85.49a.32.32,0,0,0,.3,0l.85-.49c.09-.05.09-.13,0-.17l-.85-.5a.3.3,0,0,0-.29,0Z"/><path class="cls-1" d="M194.45,193.16c-.08.05-.08.13,0,.17l.85.5a.32.32,0,0,0,.3,0l.86-.5c.08-.05.08-.12,0-.17l-.86-.49a.3.3,0,0,0-.29,0Z"/><path class="cls-1" d="M187,197.48a.1.1,0,0,0,0,.18l.85.49a.32.32,0,0,0,.3,0l6.84-4c.08,0,.08-.13,0-.17l-.85-.5a.32.32,0,0,0-.3,0Z"/><path class="cls-1" d="M179.77,194.81c-.09.05-.09.12,0,.17l.85.5a.37.37,0,0,0,.29,0l.86-.5c.08,0,.08-.12,0-.17l-.85-.5a.39.39,0,0,0-.3,0Z"/><path class="cls-1" d="M178.27,195.67a.1.1,0,0,0,0,.18l.85.49a.32.32,0,0,0,.3,0l.86-.49a.1.1,0,0,0,0-.18l-.86-.49a.3.3,0,0,0-.29,0Z"/><path class="cls-1" d="M175.28,197.4c-.09,0-.09.13,0,.18l.85.49a.3.3,0,0,0,.29,0l2.36-1.36c.08-.05.08-.12,0-.17l-.85-.5a.39.39,0,0,0-.3,0Z"/><path class="cls-1" d="M181.19,195.75c-.08,0-.08.12,0,.17l.85.49a.32.32,0,0,0,.3,0l.85-.49c.09,0,.09-.13,0-.17l-.85-.5a.3.3,0,0,0-.29,0Z"/><path class="cls-1" d="M179.69,196.61c-.08,0-.08.13,0,.17l.85.5a.32.32,0,0,0,.3,0l.86-.5c.08,0,.08-.12,0-.17l-.85-.49a.32.32,0,0,0-.3,0Z"/><path class="cls-1" d="M178.19,197.48c-.08,0-.08.12,0,.17l.86.49a.3.3,0,0,0,.29,0l.86-.49c.08-.05.08-.13,0-.17l-.85-.5a.32.32,0,0,0-.3,0Z"/><path class="cls-1" d="M176.7,198.34c-.08,0-.08.13,0,.17l.85.5a.32.32,0,0,0,.3,0l.85-.5c.08,0,.08-.12,0-.17l-.85-.49a.3.3,0,0,0-.29,0Z"/><path class="cls-1" d="M182.62,196.65c-.08,0-.08.12,0,.17l.86.49a.3.3,0,0,0,.29,0l.86-.49c.08,0,.08-.13,0-.17l-.85-.5a.32.32,0,0,0-.3,0Z"/><path class="cls-1" d="M181.13,197.51c-.08.05-.08.13,0,.17l.85.5a.3.3,0,0,0,.29,0l.86-.5c.09,0,.09-.12,0-.17l-.85-.49a.3.3,0,0,0-.29,0Z"/><path class="cls-1" d="M178.13,199.32c-.08.05-.08.13,0,.17l.85.5a.35.35,0,0,0,.3,0l2.36-1.36c.08,0,.08-.13,0-.17l-.86-.5a.3.3,0,0,0-.29,0Z"/><path class="cls-1" d="M184.06,197.53c-.08.05-.08.12,0,.17l.85.5a.39.39,0,0,0,.3,0l.86-.5c.08,0,.08-.12,0-.17l-.86-.5a.37.37,0,0,0-.29,0Z"/><path class="cls-1" d="M182.56,198.39a.1.1,0,0,0,0,.18l.86.49a.3.3,0,0,0,.29,0l.86-.49a.1.1,0,0,0,0-.18l-.85-.49a.32.32,0,0,0-.3,0Z"/><path class="cls-1" d="M179.57,200.12a.1.1,0,0,0,0,.18l.84.53a.39.39,0,0,0,.31,0l2.35-1.36c.08-.05.08-.12,0-.17l-.85-.5a.39.39,0,0,0-.3,0Z"/><path class="cls-1" d="M185.47,198.35c-.08.05-.08.12,0,.17l.85.5a.39.39,0,0,0,.3,0l.86-.5c.08-.05.08-.12,0-.17l-.86-.5a.37.37,0,0,0-.29,0Z"/><path class="cls-1" d="M180.92,201c-.08,0-.08.12,0,.17l.85.49a.32.32,0,0,0,.3,0l2.35-1.36c.08,0,.08-.12,0-.17l-.85-.49a.32.32,0,0,0-.3,0Z"/><path class="cls-1" d="M184,199.21c-.08,0-.08.13,0,.17l.85.5a.32.32,0,0,0,.3,0l.86-.49a.1.1,0,0,0,0-.18l-.85-.49a.32.32,0,0,0-.3,0Z"/><path class="cls-1" d="M195,195.18v.35a.32.32,0,0,1,.3,0v-.35A.39.39,0,0,0,195,195.18Z"/><polygon class="cls-1" points="195.29 195.19 195.29 195.53 198.18 197.21 198.18 196.86 195.29 195.19"/><polygon class="cls-1" points="188.42 198.98 188.42 199.32 194.99 195.53 194.99 195.19 188.42 198.98"/><path class="cls-1" d="M188.42,199.32V199a.09.09,0,0,0-.07.09v.34S188.37,199.35,188.42,199.32Z"/><path class="cls-1" d="M188.35,199.07v.34a.09.09,0,0,0,.07.09v-.34A.12.12,0,0,1,188.35,199.07Z"/><polygon class="cls-1" points="191.61 200.83 191.61 201.18 198.18 197.39 198.18 197.04 191.61 200.83"/><path class="cls-1" d="M191.3,200.83v.35a.34.34,0,0,0,.31,0v-.35A.34.34,0,0,1,191.3,200.83Z"/><path class="cls-1" d="M173.17,198.28a.43.43,0,0,0,.14.12l5.66,3.29,5.66,3.29a1,1,0,0,0,.89,0v.91l19.84-11.45v-.91c.19-.11.23-.27.14-.4a.58.58,0,0,0-.14-.12L194,186.43a.66.66,0,0,0-.21-.08.94.94,0,0,0-.47,0,.66.66,0,0,0-.21.08l-19.84,11.45-.08.06A.24.24,0,0,0,173.17,198.28Zm15.2.83s0-.1,0-.13l6.57-3.8a.39.39,0,0,1,.3,0l1.45.84,1.44.84a.12.12,0,0,1,.06.09.06.06,0,0,1,0,.05l0,0-3.29,1.9-3.28,1.89-.07,0h-.17l-.07,0-1.44-.84-1.45-.83Z"/><path class="cls-1" d="M188.42,199c-.09.05-.09.13,0,.18l2.89,1.67a.34.34,0,0,0,.31,0l6.57-3.79a.1.1,0,0,0,0-.18l-2.89-1.68a.39.39,0,0,0-.3,0Z"/><path class="cls-1" d="M184.63,205l-11.32-6.58a.3.3,0,0,1-.19-.26v.91a.31.31,0,0,0,.18.26l11.32,6.58Z"/><path class="cls-1" d="M205.55,193.27a.33.33,0,0,1-.19.26L185.52,205a1,1,0,0,1-.89,0v.91a1,1,0,0,0,.89,0l19.84-11.45a.31.31,0,0,0,.19-.26Z"/><path class="cls-1" d="M191.77,187.9c-.08,0-.08.12,0,.17l.85.49a.32.32,0,0,0,.3,0l.86-.49c.08,0,.08-.13,0-.17l-.85-.5a.32.32,0,0,0-.3,0Z"/><path class="cls-1" d="M188.75,189.62c-.09,0-.09.13,0,.17l.85.5a.32.32,0,0,0,.3,0l.85-.5c.08,0,.09-.12,0-.17l-.85-.49a.32.32,0,0,0-.3,0Z"/><path class="cls-1" d="M190.34,188.69a.1.1,0,0,0,0,.18l.86.49a.3.3,0,0,0,.29,0l.86-.49a.1.1,0,0,0,0-.18l-.85-.49a.32.32,0,0,0-.3,0Z"/><path class="cls-1" d="M187.24,190.5c-.09.05-.09.12,0,.17l.85.5a.3.3,0,0,0,.29,0l.86-.5c.08,0,.08-.12,0-.17l-.85-.49a.32.32,0,0,0-.3,0Z"/><path class="cls-1" d="M185.75,191.36c-.08,0-.08.12,0,.17l.85.49a.32.32,0,0,0,.3,0l.85-.49c.09-.05.09-.12,0-.17l-.85-.5a.3.3,0,0,0-.29,0Z"/><path class="cls-1" d="M184.26,192.22c-.09,0-.09.12,0,.17l.85.49a.3.3,0,0,0,.29,0l.86-.49c.08,0,.08-.13,0-.17l-.85-.5a.3.3,0,0,0-.29,0Z"/><path class="cls-1" d="M191.71,189.71c-.09,0-.09.12,0,.17l.86.49a.3.3,0,0,0,.29,0l2.36-1.36c.08,0,.08-.12,0-.17l-.85-.49a.32.32,0,0,0-.3,0Z"/><path class="cls-1" d="M190.28,190.5c-.08.05-.08.12,0,.17l.85.5a.39.39,0,0,0,.3,0l.86-.5c.08,0,.08-.12,0-.17l-.86-.49a.3.3,0,0,0-.29,0Z"/><path class="cls-1" d="M188.67,191.43c-.08,0-.08.12,0,.17l.85.49a.32.32,0,0,0,.3,0l.86-.49a.1.1,0,0,0,0-.18l-.85-.49a.32.32,0,0,0-.3,0Z"/><path class="cls-1" d="M187.18,192.29c-.09.05-.09.12,0,.17l.86.5a.37.37,0,0,0,.29,0l.86-.5c.08-.05.08-.12,0-.17l-.85-.5a.39.39,0,0,0-.3,0Z"/><path class="cls-1" d="M185.68,193.15a.1.1,0,0,0,0,.18l.85.49a.32.32,0,0,0,.3,0l.85-.49c.09-.05.09-.13,0-.18l-.85-.49a.3.3,0,0,0-.29,0Z"/><path class="cls-1" d="M193.15,190.63c-.08,0-.08.12,0,.17l.85.49a.32.32,0,0,0,.3,0l2.35-1.36c.08,0,.08-.12,0-.17l-.85-.49a.3.3,0,0,0-.29,0Z"/><path class="cls-1" d="M191.65,191.41c-.08.05-.08.13,0,.17l.86.5a.3.3,0,0,0,.29,0l.86-.5c.08,0,.08-.12,0-.17l-.85-.49a.32.32,0,0,0-.3,0Z"/><path class="cls-1" d="M190.11,192.32a.1.1,0,0,0,0,.18l.85.49a.32.32,0,0,0,.3,0l.85-.49c.09-.05.09-.13,0-.18l-.85-.49a.3.3,0,0,0-.29,0Z"/><path class="cls-1" d="M188.61,193.19c-.08.05-.08.12,0,.17l.85.5a.39.39,0,0,0,.3,0l.86-.5c.08-.05.08-.12,0-.17l-.86-.5a.37.37,0,0,0-.29,0Z"/><path class="cls-1" d="M182.76,193.08c-.08,0-.08.13,0,.17l.85.5a.39.39,0,0,0,.3,0l.86-.5c.08-.05.08-.12,0-.17l-.86-.5a.37.37,0,0,0-.29,0Z"/><path class="cls-1" d="M184.18,194c-.08,0-.08.12,0,.17l.85.5a.39.39,0,0,0,.3,0l.86-.5c.08-.05.08-.12,0-.17l-.85-.5a.39.39,0,0,0-.3,0Z"/><path class="cls-1" d="M187.11,194.05a.1.1,0,0,0,0,.18l.85.49a.32.32,0,0,0,.3,0l.86-.49a.1.1,0,0,0,0-.18l-.85-.49a.32.32,0,0,0-.3,0Z"/><path class="cls-1" d="M185.62,194.92c-.08.05-.09.12,0,.17l.85.49a.32.32,0,0,0,.3,0l.85-.49c.08-.05.08-.12,0-.17l-.85-.5a.37.37,0,0,0-.29,0Z"/><path class="cls-1" d="M193,192.34c-.08,0-.08.12,0,.17l.85.5a.39.39,0,0,0,.3,0l3.85-2.23c.08-.05.08-.12,0-.17l-.85-.5a.39.39,0,0,0-.3,0Z"/><path class="cls-1" d="M191.54,193.21c-.08,0-.08.12,0,.17l.86.49a.3.3,0,0,0,.29,0l.86-.49c.08,0,.08-.13,0-.17l-.85-.5a.32.32,0,0,0-.3,0Z"/><path class="cls-1" d="M190.05,194.07c-.08.05-.08.13,0,.17l.85.5a.32.32,0,0,0,.3,0l.85-.5c.09-.05.09-.12,0-.17l-.85-.49a.3.3,0,0,0-.29,0Z"/><path class="cls-1" d="M188.55,194.94c-.08,0-.08.12,0,.17l.85.49a.32.32,0,0,0,.3,0l.86-.49c.08-.05.08-.13,0-.17l-.86-.5a.3.3,0,0,0-.29,0Z"/><path class="cls-1" d="M187.05,195.8c-.08,0-.08.13,0,.17l.86.5a.37.37,0,0,0,.29,0l.86-.5c.08,0,.08-.12,0-.17l-.85-.5a.35.35,0,0,0-.3,0Z"/><path class="cls-1" d="M181.26,194c-.08,0-.08.12,0,.17l.86.49a.3.3,0,0,0,.29,0l.86-.49c.08-.05.08-.13,0-.17l-.85-.5a.32.32,0,0,0-.3,0Z"/><path class="cls-1" d="M182.69,194.88c-.09.05-.09.13,0,.17l.86.5a.3.3,0,0,0,.29,0l.86-.5c.08,0,.08-.12,0-.17l-.85-.49a.32.32,0,0,0-.3,0Z"/><path class="cls-1" d="M184.12,195.78c-.08.05-.08.13,0,.17l.85.5a.32.32,0,0,0,.3,0l.86-.5c.08,0,.08-.12,0-.17l-.86-.49a.3.3,0,0,0-.29,0Z"/><path class="cls-1" d="M185.56,196.67c-.08,0-.09.12,0,.17l.85.49a.3.3,0,0,0,.29,0l.86-.49c.08-.05.08-.13,0-.17l-.85-.5a.3.3,0,0,0-.29,0Z"/><path class="cls-1" d="M196,192.3c-.08,0-.08.12,0,.17l.85.49a.32.32,0,0,0,.3,0l.85-.49c.09-.05.09-.13,0-.17l-.85-.5a.3.3,0,0,0-.29,0Z"/><path class="cls-1" d="M194.45,193.16c-.08.05-.08.13,0,.17l.85.5a.32.32,0,0,0,.3,0l.86-.5c.08-.05.08-.12,0-.17l-.86-.49a.3.3,0,0,0-.29,0Z"/><path class="cls-1" d="M187,197.48a.1.1,0,0,0,0,.18l.85.49a.32.32,0,0,0,.3,0l6.84-4c.08,0,.08-.13,0-.17l-.85-.5a.32.32,0,0,0-.3,0Z"/><path class="cls-1" d="M179.77,194.81c-.09.05-.09.12,0,.17l.85.5a.37.37,0,0,0,.29,0l.86-.5c.08,0,.08-.12,0-.17l-.85-.5a.39.39,0,0,0-.3,0Z"/><path class="cls-1" d="M178.27,195.67a.1.1,0,0,0,0,.18l.85.49a.32.32,0,0,0,.3,0l.86-.49a.1.1,0,0,0,0-.18l-.86-.49a.3.3,0,0,0-.29,0Z"/><path class="cls-1" d="M175.28,197.4c-.09,0-.09.13,0,.18l.85.49a.3.3,0,0,0,.29,0l2.36-1.36c.08-.05.08-.12,0-.17l-.85-.5a.39.39,0,0,0-.3,0Z"/><path class="cls-1" d="M181.19,195.75c-.08,0-.08.12,0,.17l.85.49a.32.32,0,0,0,.3,0l.85-.49c.09,0,.09-.13,0-.17l-.85-.5a.3.3,0,0,0-.29,0Z"/><path class="cls-1" d="M179.69,196.61c-.08,0-.08.13,0,.17l.85.5a.32.32,0,0,0,.3,0l.86-.5c.08,0,.08-.12,0-.17l-.85-.49a.32.32,0,0,0-.3,0Z"/><path class="cls-1" d="M178.19,197.48c-.08,0-.08.12,0,.17l.86.49a.3.3,0,0,0,.29,0l.86-.49c.08-.05.08-.13,0-.17l-.85-.5a.32.32,0,0,0-.3,0Z"/><path class="cls-1" d="M176.7,198.34c-.08,0-.08.13,0,.17l.85.5a.32.32,0,0,0,.3,0l.85-.5c.08,0,.08-.12,0-.17l-.85-.49a.3.3,0,0,0-.29,0Z"/><path class="cls-1" d="M182.62,196.65c-.08,0-.08.12,0,.17l.86.49a.3.3,0,0,0,.29,0l.86-.49c.08,0,.08-.13,0-.17l-.85-.5a.32.32,0,0,0-.3,0Z"/><path class="cls-1" d="M181.13,197.51c-.08.05-.08.13,0,.17l.85.5a.3.3,0,0,0,.29,0l.86-.5c.09,0,.09-.12,0-.17l-.85-.49a.3.3,0,0,0-.29,0Z"/><path class="cls-1" d="M178.13,199.32c-.08.05-.08.13,0,.17l.85.5a.35.35,0,0,0,.3,0l2.36-1.36c.08,0,.08-.13,0-.17l-.86-.5a.3.3,0,0,0-.29,0Z"/><path class="cls-1" d="M184.06,197.53c-.08.05-.08.12,0,.17l.85.5a.39.39,0,0,0,.3,0l.86-.5c.08,0,.08-.12,0-.17l-.86-.5a.37.37,0,0,0-.29,0Z"/><path class="cls-1" d="M182.56,198.39a.1.1,0,0,0,0,.18l.86.49a.3.3,0,0,0,.29,0l.86-.49a.1.1,0,0,0,0-.18l-.85-.49a.32.32,0,0,0-.3,0Z"/><path class="cls-1" d="M179.57,200.12a.1.1,0,0,0,0,.18l.84.53a.39.39,0,0,0,.31,0l2.35-1.36c.08-.05.08-.12,0-.17l-.85-.5a.39.39,0,0,0-.3,0Z"/><path class="cls-1" d="M185.47,198.35c-.08.05-.08.12,0,.17l.85.5a.39.39,0,0,0,.3,0l.86-.5c.08-.05.08-.12,0-.17l-.86-.5a.37.37,0,0,0-.29,0Z"/><path class="cls-1" d="M180.92,201c-.08,0-.08.12,0,.17l.85.49a.32.32,0,0,0,.3,0l2.35-1.36c.08,0,.08-.12,0-.17l-.85-.49a.32.32,0,0,0-.3,0Z"/><path class="cls-1" d="M184,199.21c-.08,0-.08.13,0,.17l.85.5a.32.32,0,0,0,.3,0l.86-.49a.1.1,0,0,0,0-.18l-.85-.49a.32.32,0,0,0-.3,0Z"/><path class="cls-1" d="M260.78,130.61l19-11a.39.39,0,0,1,.38,0h0l.72.42-.53,1.91v12.56a1.28,1.28,0,0,1-.64,1.11l-18.27,10.57-.21.57-.73-.42h0a.7.7,0,0,1-.36-.61v-14A1.34,1.34,0,0,1,260.78,130.61Z"/><path class="cls-1" d="M260.84,132.19v14a.7.7,0,0,0,1.05.61l18.52-10.72a1.27,1.27,0,0,0,.64-1.11V120.4a.38.38,0,0,0-.58-.33l-19,11A1.32,1.32,0,0,0,260.84,132.19Z"/><polygon class="cls-1" points="261.36 132.75 261.36 145.19 280.6 134.06 280.6 121.62 261.36 132.75"/><path class="cls-1" d="M283.05,144.54v.35a.32.32,0,0,1,.3,0v-.35A.32.32,0,0,0,283.05,144.54Z"/><polygon class="cls-1" points="283.35 144.54 283.35 144.89 286.24 146.56 286.24 146.22 283.35 144.54"/><path class="cls-1" d="M261.18,147.5v.91a.31.31,0,0,0,.19.26v-.91A.31.31,0,0,1,261.18,147.5Z"/><polygon class="cls-1" points="276.48 148.34 276.48 148.68 283.05 144.89 283.05 144.54 276.48 148.34"/><path class="cls-1" d="M276.48,148.68v-.34c-.05,0-.07,0-.07.08v.35S276.43,148.71,276.48,148.68Z"/><path class="cls-1" d="M276.41,148.42v.35a.1.1,0,0,0,.07.09v-.35A.1.1,0,0,1,276.41,148.42Z"/><polygon class="cls-1" points="279.67 150.19 279.67 150.54 286.24 146.74 286.24 146.4 279.67 150.19"/><path class="cls-1" d="M279.36,150.19v.35a.42.42,0,0,0,.31,0v-.35A.34.34,0,0,1,279.36,150.19Z"/><path class="cls-1" d="M276.48,148.34c-.09,0-.09.12,0,.17l2.89,1.68a.34.34,0,0,0,.31,0l6.57-3.79a.1.1,0,0,0,0-.18l-2.89-1.68a.32.32,0,0,0-.3,0Z"/><polygon class="cls-1" points="261.37 147.76 261.37 148.67 272.69 155.25 272.69 154.34 261.37 147.76"/><path class="cls-1" d="M279.83,137.25c-.08.05-.08.13,0,.17l.85.5a.32.32,0,0,0,.3,0l.86-.5c.08,0,.08-.12,0-.17l-.85-.49a.32.32,0,0,0-.3,0Z"/><path class="cls-1" d="M276.81,139c-.09.05-.09.12,0,.17l.85.5a.37.37,0,0,0,.29,0l.86-.5c.08-.05.08-.12,0-.17l-.85-.5a.39.39,0,0,0-.3,0Z"/><path class="cls-1" d="M278.4,138.05c-.08,0-.08.13,0,.17l.85.5a.32.32,0,0,0,.3,0l.86-.5c.08,0,.08-.12,0-.17l-.85-.49a.32.32,0,0,0-.3,0Z"/><path class="cls-1" d="M275.3,139.86c-.09,0-.09.12,0,.17l.85.49a.33.33,0,0,0,.29,0l.86-.5c.08-.05.08-.12,0-.17l-.85-.5a.39.39,0,0,0-.3,0Z"/><path class="cls-1" d="M273.81,140.72c-.08,0-.09.12,0,.17l.85.49a.32.32,0,0,0,.3,0l.85-.49a.1.1,0,0,0,0-.18l-.85-.49a.32.32,0,0,0-.3,0Z"/><path class="cls-1" d="M272.32,141.57c-.09.05-.09.13,0,.18l.85.49a.3.3,0,0,0,.29,0l.86-.5c.08,0,.08-.12,0-.17l-.85-.49a.32.32,0,0,0-.3,0Z"/><path class="cls-1" d="M279.76,139.06a.1.1,0,0,0,0,.18l.86.49a.3.3,0,0,0,.29,0l2.36-1.36c.08-.05.08-.12,0-.17l-.85-.49a.35.35,0,0,0-.3,0Z"/><path class="cls-1" d="M278.34,139.86c-.08,0-.08.12,0,.17l.85.49a.32.32,0,0,0,.3,0l.86-.49c.08-.05.08-.13,0-.17l-.86-.5a.3.3,0,0,0-.29,0Z"/><path class="cls-1" d="M276.73,140.78c-.08.05-.08.13,0,.17l.85.5a.32.32,0,0,0,.3,0l.86-.5c.08,0,.08-.12,0-.17l-.85-.49a.32.32,0,0,0-.3,0Z"/><path class="cls-1" d="M275.24,141.65c-.09,0-.09.12,0,.17l.85.49a.32.32,0,0,0,.3,0l.86-.49c.08,0,.08-.13,0-.17l-.85-.5a.32.32,0,0,0-.3,0Z"/><path class="cls-1" d="M273.74,142.51c-.09.05-.09.13,0,.17l.85.5a.32.32,0,0,0,.3,0l.85-.5c.08-.05.09-.12,0-.17l-.85-.49a.3.3,0,0,0-.29,0Z"/><path class="cls-1" d="M281.21,140a.1.1,0,0,0,0,.18l.85.49a.32.32,0,0,0,.3,0l2.35-1.36c.08,0,.08-.12,0-.17l-.85-.5a.39.39,0,0,0-.3,0Z"/><path class="cls-1" d="M279.71,140.77c-.08,0-.08.12,0,.17l.85.5a.39.39,0,0,0,.3,0l.86-.5c.08-.05.08-.12,0-.17l-.85-.5a.39.39,0,0,0-.3,0Z"/><path class="cls-1" d="M278.17,141.68c-.08,0-.09.13,0,.17l.85.5a.32.32,0,0,0,.3,0l.85-.5c.09,0,.09-.12,0-.17l-.85-.49a.32.32,0,0,0-.3,0Z"/><path class="cls-1" d="M276.67,142.55c-.08,0-.08.12,0,.17l.85.49a.32.32,0,0,0,.3,0l.86-.49c.08-.05.08-.13,0-.17l-.86-.5a.3.3,0,0,0-.29,0Z"/><path class="cls-1" d="M270.82,142.44c-.08.05-.08.12,0,.17l.85.5a.39.39,0,0,0,.3,0l.85-.5c.09-.05.09-.13,0-.17l-.86-.5a.37.37,0,0,0-.29,0Z"/><path class="cls-1" d="M272.24,143.38c-.08,0-.08.12,0,.17l.85.49a.32.32,0,0,0,.3,0l.86-.49c.08-.05.08-.13,0-.17l-.86-.5a.3.3,0,0,0-.29,0Z"/><path class="cls-1" d="M275.17,143.41c-.08.05-.08.13,0,.17l.85.5a.32.32,0,0,0,.3,0l.86-.5c.08,0,.08-.12,0-.17l-.85-.49a.32.32,0,0,0-.3,0Z"/><path class="cls-1" d="M273.68,144.28c-.09,0-.09.12,0,.17l.85.49a.3.3,0,0,0,.29,0l.86-.49c.08,0,.08-.13,0-.17l-.85-.5a.32.32,0,0,0-.3,0Z"/><path class="cls-1" d="M281.07,141.7c-.08,0-.08.12,0,.17l.85.49a.32.32,0,0,0,.3,0l3.85-2.22c.08,0,.08-.12,0-.17l-.85-.5a.39.39,0,0,0-.3,0Z"/><path class="cls-1" d="M279.6,142.56a.1.1,0,0,0,0,.18l.86.49a.3.3,0,0,0,.29,0l.86-.49a.1.1,0,0,0,0-.18l-.85-.49a.32.32,0,0,0-.3,0Z"/><path class="cls-1" d="M278.11,143.43c-.08,0-.09.12,0,.17l.86.5a.37.37,0,0,0,.29,0l.86-.5c.08,0,.08-.12,0-.17l-.85-.5a.37.37,0,0,0-.29,0Z"/><path class="cls-1" d="M276.61,144.29a.1.1,0,0,0,0,.18l.85.49a.32.32,0,0,0,.3,0l.86-.5c.08,0,.08-.12,0-.17l-.86-.49a.3.3,0,0,0-.29,0Z"/><path class="cls-1" d="M275.11,145.16c-.08.05-.08.12,0,.17l.85.49a.32.32,0,0,0,.3,0l.86-.49c.08-.05.08-.12,0-.17l-.85-.5a.39.39,0,0,0-.3,0Z"/><path class="cls-1" d="M269.32,143.3c-.08,0-.08.13,0,.17l.85.5a.32.32,0,0,0,.3,0l.86-.5c.08,0,.08-.12,0-.17l-.85-.49a.32.32,0,0,0-.3,0Z"/><path class="cls-1" d="M270.74,144.24c-.08,0-.08.12,0,.17l.86.5a.37.37,0,0,0,.29,0l.86-.5c.08,0,.08-.12,0-.17l-.85-.49a.32.32,0,0,0-.3,0Z"/><path class="cls-1" d="M272.18,145.14c-.08.05-.08.12,0,.17l.85.5a.35.35,0,0,0,.3,0l.86-.5c.08-.05.08-.12,0-.17l-.86-.5a.33.33,0,0,0-.29,0Z"/><path class="cls-1" d="M273.62,146c-.09,0-.09.13,0,.17l.85.5a.3.3,0,0,0,.29,0l.86-.5c.08,0,.08-.12,0-.17l-.85-.49a.32.32,0,0,0-.3,0Z"/><path class="cls-1" d="M284,141.65c-.08,0-.09.13,0,.18l.85.49a.32.32,0,0,0,.3,0l.85-.49a.1.1,0,0,0,0-.18l-.85-.49a.32.32,0,0,0-.3,0Z"/><path class="cls-1" d="M282.51,142.52c-.08,0-.08.12,0,.17l.85.5a.39.39,0,0,0,.3,0l.86-.5c.08-.05.08-.12,0-.17l-.86-.5a.37.37,0,0,0-.29,0Z"/><path class="cls-1" d="M275,146.84c-.09,0-.09.13,0,.17l.85.5a.3.3,0,0,0,.29,0l6.85-4c.08,0,.08-.12,0-.17l-.85-.49a.32.32,0,0,0-.3,0Z"/><path class="cls-1" d="M267.83,144.17c-.09,0-.09.12,0,.17l.85.49a.3.3,0,0,0,.29,0l.86-.49c.08-.05.08-.13,0-.17l-.85-.5a.32.32,0,0,0-.3,0Z"/><path class="cls-1" d="M266.33,145c-.08.05-.08.13,0,.17l.85.5a.32.32,0,0,0,.3,0l.85-.5c.09,0,.09-.12,0-.17l-.86-.49a.3.3,0,0,0-.29,0Z"/><path class="cls-1" d="M263.33,146.76c-.08.05-.08.12,0,.17l.86.5a.37.37,0,0,0,.29,0l2.36-1.36c.08,0,.08-.13,0-.17l-.85-.5a.32.32,0,0,0-.3,0Z"/><path class="cls-1" d="M269.25,145.11c-.08,0-.09.12,0,.17l.85.49a.3.3,0,0,0,.29,0l.86-.49a.1.1,0,0,0,0-.18l-.85-.49a.32.32,0,0,0-.3,0Z"/><path class="cls-1" d="M267.75,146c-.08.05-.08.12,0,.17l.85.5a.39.39,0,0,0,.3,0l.86-.5c.08,0,.08-.12,0-.17l-.86-.5a.37.37,0,0,0-.29,0Z"/><path class="cls-1" d="M266.25,146.83a.1.1,0,0,0,0,.18l.86.49a.3.3,0,0,0,.29,0l.86-.49a.1.1,0,0,0,0-.18l-.85-.49a.32.32,0,0,0-.3,0Z"/><path class="cls-1" d="M264.76,147.7c-.09.05-.09.12,0,.17l.85.5a.39.39,0,0,0,.3,0l.85-.5c.08-.05.08-.12,0-.17l-.85-.5a.39.39,0,0,0-.3,0Z"/><path class="cls-1" d="M270.68,146c-.08,0-.08.12,0,.17l.85.49a.32.32,0,0,0,.3,0l.86-.49a.1.1,0,0,0,0-.18l-.85-.49a.32.32,0,0,0-.3,0Z"/><path class="cls-1" d="M269.19,146.87c-.09,0-.09.12,0,.17l.85.5a.37.37,0,0,0,.29,0l.86-.5c.08,0,.08-.12,0-.17l-.85-.5a.39.39,0,0,0-.3,0Z"/><path class="cls-1" d="M266.19,148.68c-.08,0-.08.12,0,.17l.85.5a.39.39,0,0,0,.3,0l2.35-1.36c.09-.05.09-.13,0-.18l-.86-.49a.3.3,0,0,0-.29,0Z"/><path class="cls-1" d="M272.12,146.89c-.08,0-.08.12,0,.17l.85.49a.32.32,0,0,0,.3,0l.86-.49c.08-.05.08-.13,0-.17l-.86-.5a.3.3,0,0,0-.29,0Z"/><path class="cls-1" d="M270.62,147.75c-.08.05-.08.13,0,.17l.85.5a.32.32,0,0,0,.3,0l.86-.5c.08,0,.08-.12,0-.17l-.85-.49a.32.32,0,0,0-.3,0Z"/><path class="cls-1" d="M267.63,149.48c-.08.05-.08.13,0,.17l.84.53a.38.38,0,0,0,.31,0l2.35-1.36c.08,0,.08-.13,0-.17l-.85-.5a.32.32,0,0,0-.3,0Z"/><path class="cls-1" d="M273.53,147.71c-.08,0-.08.12,0,.17l.85.49a.32.32,0,0,0,.3,0l.86-.49c.08,0,.08-.13,0-.17l-.86-.5a.3.3,0,0,0-.29,0Z"/><path class="cls-1" d="M269,150.33c-.09,0-.09.13,0,.18l.85.49a.32.32,0,0,0,.3,0l2.35-1.36c.08,0,.08-.12,0-.17l-.85-.5a.39.39,0,0,0-.3,0Z"/><path class="cls-1" d="M272,148.57c-.08.05-.08.12,0,.17l.85.5a.32.32,0,0,0,.3,0l.86-.5c.08-.05.08-.12,0-.17l-.85-.49a.32.32,0,0,0-.3,0Z"/><path class="cls-1" d="M283.05,144.54v.35a.32.32,0,0,1,.3,0v-.35A.32.32,0,0,0,283.05,144.54Z"/><polygon class="cls-1" points="283.35 144.54 283.35 144.89 286.24 146.56 286.24 146.22 283.35 144.54"/><polygon class="cls-1" points="276.48 148.34 276.48 148.68 283.05 144.89 283.05 144.54 276.48 148.34"/><path class="cls-1" d="M276.48,148.68v-.34c-.05,0-.07,0-.07.08v.35S276.43,148.71,276.48,148.68Z"/><path class="cls-1" d="M276.41,148.42v.35a.1.1,0,0,0,.07.09v-.35A.1.1,0,0,1,276.41,148.42Z"/><polygon class="cls-1" points="279.67 150.19 279.67 150.54 286.24 146.74 286.24 146.4 279.67 150.19"/><path class="cls-1" d="M279.36,150.19v.35a.42.42,0,0,0,.31,0v-.35A.34.34,0,0,1,279.36,150.19Z"/><path class="cls-1" d="M261.23,147.64a.43.43,0,0,0,.14.12l5.66,3.29,5.66,3.29a1,1,0,0,0,.89,0v.91l19.84-11.46v-.91c.18-.1.23-.26.14-.39a.42.42,0,0,0-.14-.12l-11.32-6.58a.66.66,0,0,0-.21-.08.94.94,0,0,0-.47,0,.66.66,0,0,0-.21.08l-19.84,11.45-.08.06A.24.24,0,0,0,261.23,147.64Zm15.2.83s0-.1.05-.13l6.57-3.8a.39.39,0,0,1,.3,0l1.45.84,1.44.84a.1.1,0,0,1,.06.09l0,.05,0,0L283,148.29l-3.28,1.9-.08,0h-.16l-.07,0-1.44-.84-1.45-.84A.08.08,0,0,1,276.43,148.47Z"/><path class="cls-1" d="M276.48,148.34c-.09,0-.09.12,0,.17l2.89,1.68a.34.34,0,0,0,.31,0l6.57-3.79a.1.1,0,0,0,0-.18l-2.89-1.68a.32.32,0,0,0-.3,0Z"/><path class="cls-1" d="M272.69,154.34l-11.32-6.58a.31.31,0,0,1-.19-.26v.91a.31.31,0,0,0,.19.26l11.32,6.58Z"/><path class="cls-1" d="M293.61,142.63a.32.32,0,0,1-.19.25l-19.84,11.46a1,1,0,0,1-.89,0v.91a1,1,0,0,0,.89,0l19.84-11.46a.32.32,0,0,0,.19-.26Z"/><path class="cls-1" d="M279.83,137.25c-.08.05-.08.13,0,.17l.85.5a.32.32,0,0,0,.3,0l.86-.5c.08,0,.08-.12,0-.17l-.85-.49a.32.32,0,0,0-.3,0Z"/><path class="cls-1" d="M276.81,139c-.09.05-.09.12,0,.17l.85.5a.37.37,0,0,0,.29,0l.86-.5c.08-.05.08-.12,0-.17l-.85-.5a.39.39,0,0,0-.3,0Z"/><path class="cls-1" d="M278.4,138.05c-.08,0-.08.13,0,.17l.85.5a.32.32,0,0,0,.3,0l.86-.5c.08,0,.08-.12,0-.17l-.85-.49a.32.32,0,0,0-.3,0Z"/><path class="cls-1" d="M275.3,139.86c-.09,0-.09.12,0,.17l.85.49a.33.33,0,0,0,.29,0l.86-.5c.08-.05.08-.12,0-.17l-.85-.5a.39.39,0,0,0-.3,0Z"/><path class="cls-1" d="M273.81,140.72c-.08,0-.09.12,0,.17l.85.49a.32.32,0,0,0,.3,0l.85-.49a.1.1,0,0,0,0-.18l-.85-.49a.32.32,0,0,0-.3,0Z"/><path class="cls-1" d="M272.32,141.57c-.09.05-.09.13,0,.18l.85.49a.3.3,0,0,0,.29,0l.86-.5c.08,0,.08-.12,0-.17l-.85-.49a.32.32,0,0,0-.3,0Z"/><path class="cls-1" d="M279.76,139.06a.1.1,0,0,0,0,.18l.86.49a.3.3,0,0,0,.29,0l2.36-1.36c.08-.05.08-.12,0-.17l-.85-.49a.35.35,0,0,0-.3,0Z"/><path class="cls-1" d="M278.34,139.86c-.08,0-.08.12,0,.17l.85.49a.32.32,0,0,0,.3,0l.86-.49c.08-.05.08-.13,0-.17l-.86-.5a.3.3,0,0,0-.29,0Z"/><path class="cls-1" d="M276.73,140.78c-.08.05-.08.13,0,.17l.85.5a.32.32,0,0,0,.3,0l.86-.5c.08,0,.08-.12,0-.17l-.85-.49a.32.32,0,0,0-.3,0Z"/><path class="cls-1" d="M275.24,141.65c-.09,0-.09.12,0,.17l.85.49a.32.32,0,0,0,.3,0l.86-.49c.08,0,.08-.13,0-.17l-.85-.5a.32.32,0,0,0-.3,0Z"/><path class="cls-1" d="M273.74,142.51c-.09.05-.09.13,0,.17l.85.5a.32.32,0,0,0,.3,0l.85-.5c.08-.05.09-.12,0-.17l-.85-.49a.3.3,0,0,0-.29,0Z"/><path class="cls-1" d="M281.21,140a.1.1,0,0,0,0,.18l.85.49a.32.32,0,0,0,.3,0l2.35-1.36c.08,0,.08-.12,0-.17l-.85-.5a.39.39,0,0,0-.3,0Z"/><path class="cls-1" d="M279.71,140.77c-.08,0-.08.12,0,.17l.85.5a.39.39,0,0,0,.3,0l.86-.5c.08-.05.08-.12,0-.17l-.85-.5a.39.39,0,0,0-.3,0Z"/><path class="cls-1" d="M278.17,141.68c-.08,0-.09.13,0,.17l.85.5a.32.32,0,0,0,.3,0l.85-.5c.09,0,.09-.12,0-.17l-.85-.49a.32.32,0,0,0-.3,0Z"/><path class="cls-1" d="M276.67,142.55c-.08,0-.08.12,0,.17l.85.49a.32.32,0,0,0,.3,0l.86-.49c.08-.05.08-.13,0-.17l-.86-.5a.3.3,0,0,0-.29,0Z"/><path class="cls-1" d="M270.82,142.44c-.08.05-.08.12,0,.17l.85.5a.39.39,0,0,0,.3,0l.85-.5c.09-.05.09-.13,0-.17l-.86-.5a.37.37,0,0,0-.29,0Z"/><path class="cls-1" d="M272.24,143.38c-.08,0-.08.12,0,.17l.85.49a.32.32,0,0,0,.3,0l.86-.49c.08-.05.08-.13,0-.17l-.86-.5a.3.3,0,0,0-.29,0Z"/><path class="cls-1" d="M275.17,143.41c-.08.05-.08.13,0,.17l.85.5a.32.32,0,0,0,.3,0l.86-.5c.08,0,.08-.12,0-.17l-.85-.49a.32.32,0,0,0-.3,0Z"/><path class="cls-1" d="M273.68,144.28c-.09,0-.09.12,0,.17l.85.49a.3.3,0,0,0,.29,0l.86-.49c.08,0,.08-.13,0-.17l-.85-.5a.32.32,0,0,0-.3,0Z"/><path class="cls-1" d="M281.07,141.7c-.08,0-.08.12,0,.17l.85.49a.32.32,0,0,0,.3,0l3.85-2.22c.08,0,.08-.12,0-.17l-.85-.5a.39.39,0,0,0-.3,0Z"/><path class="cls-1" d="M279.6,142.56a.1.1,0,0,0,0,.18l.86.49a.3.3,0,0,0,.29,0l.86-.49a.1.1,0,0,0,0-.18l-.85-.49a.32.32,0,0,0-.3,0Z"/><path class="cls-1" d="M278.11,143.43c-.08,0-.09.12,0,.17l.86.5a.37.37,0,0,0,.29,0l.86-.5c.08,0,.08-.12,0-.17l-.85-.5a.37.37,0,0,0-.29,0Z"/><path class="cls-1" d="M276.61,144.29a.1.1,0,0,0,0,.18l.85.49a.32.32,0,0,0,.3,0l.86-.5c.08,0,.08-.12,0-.17l-.86-.49a.3.3,0,0,0-.29,0Z"/><path class="cls-1" d="M275.11,145.16c-.08.05-.08.12,0,.17l.85.49a.32.32,0,0,0,.3,0l.86-.49c.08-.05.08-.12,0-.17l-.85-.5a.39.39,0,0,0-.3,0Z"/><path class="cls-1" d="M269.32,143.3c-.08,0-.08.13,0,.17l.85.5a.32.32,0,0,0,.3,0l.86-.5c.08,0,.08-.12,0-.17l-.85-.49a.32.32,0,0,0-.3,0Z"/><path class="cls-1" d="M270.74,144.24c-.08,0-.08.12,0,.17l.86.5a.37.37,0,0,0,.29,0l.86-.5c.08,0,.08-.12,0-.17l-.85-.49a.32.32,0,0,0-.3,0Z"/><path class="cls-1" d="M272.18,145.14c-.08.05-.08.12,0,.17l.85.5a.35.35,0,0,0,.3,0l.86-.5c.08-.05.08-.12,0-.17l-.86-.5a.33.33,0,0,0-.29,0Z"/><path class="cls-1" d="M273.62,146c-.09,0-.09.13,0,.17l.85.5a.3.3,0,0,0,.29,0l.86-.5c.08,0,.08-.12,0-.17l-.85-.49a.32.32,0,0,0-.3,0Z"/><path class="cls-1" d="M284,141.65c-.08,0-.09.13,0,.18l.85.49a.32.32,0,0,0,.3,0l.85-.49a.1.1,0,0,0,0-.18l-.85-.49a.32.32,0,0,0-.3,0Z"/><path class="cls-1" d="M282.51,142.52c-.08,0-.08.12,0,.17l.85.5a.39.39,0,0,0,.3,0l.86-.5c.08-.05.08-.12,0-.17l-.86-.5a.37.37,0,0,0-.29,0Z"/><path class="cls-1" d="M275,146.84c-.09,0-.09.13,0,.17l.85.5a.3.3,0,0,0,.29,0l6.85-4c.08,0,.08-.12,0-.17l-.85-.49a.32.32,0,0,0-.3,0Z"/><path class="cls-1" d="M267.83,144.17c-.09,0-.09.12,0,.17l.85.49a.3.3,0,0,0,.29,0l.86-.49c.08-.05.08-.13,0-.17l-.85-.5a.32.32,0,0,0-.3,0Z"/><path class="cls-1" d="M266.33,145c-.08.05-.08.13,0,.17l.85.5a.32.32,0,0,0,.3,0l.85-.5c.09,0,.09-.12,0-.17l-.86-.49a.3.3,0,0,0-.29,0Z"/><path class="cls-1" d="M263.33,146.76c-.08.05-.08.12,0,.17l.86.5a.37.37,0,0,0,.29,0l2.36-1.36c.08,0,.08-.13,0-.17l-.85-.5a.32.32,0,0,0-.3,0Z"/><path class="cls-1" d="M269.25,145.11c-.08,0-.09.12,0,.17l.85.49a.3.3,0,0,0,.29,0l.86-.49a.1.1,0,0,0,0-.18l-.85-.49a.32.32,0,0,0-.3,0Z"/><path class="cls-1" d="M267.75,146c-.08.05-.08.12,0,.17l.85.5a.39.39,0,0,0,.3,0l.86-.5c.08,0,.08-.12,0-.17l-.86-.5a.37.37,0,0,0-.29,0Z"/><path class="cls-1" d="M266.25,146.83a.1.1,0,0,0,0,.18l.86.49a.3.3,0,0,0,.29,0l.86-.49a.1.1,0,0,0,0-.18l-.85-.49a.32.32,0,0,0-.3,0Z"/><path class="cls-1" d="M264.76,147.7c-.09.05-.09.12,0,.17l.85.5a.39.39,0,0,0,.3,0l.85-.5c.08-.05.08-.12,0-.17l-.85-.5a.39.39,0,0,0-.3,0Z"/><path class="cls-1" d="M270.68,146c-.08,0-.08.12,0,.17l.85.49a.32.32,0,0,0,.3,0l.86-.49a.1.1,0,0,0,0-.18l-.85-.49a.32.32,0,0,0-.3,0Z"/><path class="cls-1" d="M269.19,146.87c-.09,0-.09.12,0,.17l.85.5a.37.37,0,0,0,.29,0l.86-.5c.08,0,.08-.12,0-.17l-.85-.5a.39.39,0,0,0-.3,0Z"/><path class="cls-1" d="M266.19,148.68c-.08,0-.08.12,0,.17l.85.5a.39.39,0,0,0,.3,0l2.35-1.36c.09-.05.09-.13,0-.18l-.86-.49a.3.3,0,0,0-.29,0Z"/><path class="cls-1" d="M272.12,146.89c-.08,0-.08.12,0,.17l.85.49a.32.32,0,0,0,.3,0l.86-.49c.08-.05.08-.13,0-.17l-.86-.5a.3.3,0,0,0-.29,0Z"/><path class="cls-1" d="M270.62,147.75c-.08.05-.08.13,0,.17l.85.5a.32.32,0,0,0,.3,0l.86-.5c.08,0,.08-.12,0-.17l-.85-.49a.32.32,0,0,0-.3,0Z"/><path class="cls-1" d="M267.63,149.48c-.08.05-.08.13,0,.17l.84.53a.38.38,0,0,0,.31,0l2.35-1.36c.08,0,.08-.13,0-.17l-.85-.5a.32.32,0,0,0-.3,0Z"/><path class="cls-1" d="M273.53,147.71c-.08,0-.08.12,0,.17l.85.49a.32.32,0,0,0,.3,0l.86-.49c.08,0,.08-.13,0-.17l-.86-.5a.3.3,0,0,0-.29,0Z"/><path class="cls-1" d="M269,150.33c-.09,0-.09.13,0,.18l.85.49a.32.32,0,0,0,.3,0l2.35-1.36c.08,0,.08-.12,0-.17l-.85-.5a.39.39,0,0,0-.3,0Z"/><path class="cls-1" d="M272,148.57c-.08.05-.08.12,0,.17l.85.5a.32.32,0,0,0,.3,0l.86-.5c.08-.05.08-.12,0-.17l-.85-.49a.32.32,0,0,0-.3,0Z"/></g><polyline class="cls-2" points="224.37 306.93 188.68 343.43 46.37 343.43"/><path class="cls-3" d="M58.77,341H51V320.09h7.5c4.41,0,6.64,2.4,6.64,5.31a4.89,4.89,0,0,1-3.67,4.84,5.23,5.23,0,0,1,4.15,5.16C65.59,338.55,63.09,341,58.77,341Zm-.54-18.67H53.7v6.78h4.59c2.55,0,4-1.26,4-3.38S60.9,322.34,58.23,322.34Zm.21,9H53.7v7.38h4.83c2.7,0,4.32-1.35,4.32-3.63S61.11,331.38,58.44,331.38Z"/><path class="cls-3" d="M69.3,320.09H72v13.24c0,3.84,2.07,5.49,5.16,5.49s5.13-1.65,5.13-5.49V320.09h2.74V333.3c0,5.43-3.58,7.92-7.9,7.92s-7.86-2.49-7.86-7.92Z"/><path class="cls-3" d="M96.24,341.22c-4.2,0-7.17-2.34-7.23-5.79h2.91c.18,1.74,1.41,3.48,4.32,3.48,2.64,0,4.2-1.5,4.2-3.48,0-5.64-11.31-2-11.31-9.82,0-3.45,2.79-5.79,6.93-5.79,4,0,6.6,2.19,6.94,5.37h-3c-.18-1.41-1.5-3-4-3-2.25-.06-4,1.11-4,3.36,0,5.4,11.28,2,11.28,9.79C103.2,338.28,100.77,341.22,96.24,341.22Z"/><path class="cls-3" d="M107.22,320.09H110V341h-2.73Z"/><path class="cls-3" d="M131,320.06V341h-2.73l-11-16.66V341H114.6V320.06h2.73l11,16.63V320.06Z"/><path class="cls-3" d="M146.94,322.31h-8.52v7H146v2.26h-7.62v7.2h8.52V341H135.69V320.06h11.25Z"/><path class="cls-3" d="M157.71,341.22c-4.2,0-7.17-2.34-7.23-5.79h2.91c.18,1.74,1.41,3.48,4.32,3.48,2.64,0,4.2-1.5,4.2-3.48,0-5.64-11.31-2-11.31-9.82,0-3.45,2.79-5.79,6.93-5.79,4,0,6.6,2.19,6.93,5.37h-3c-.18-1.41-1.5-3-4.05-3-2.25-.06-4,1.11-4,3.36,0,5.4,11.28,2,11.28,9.79C164.67,338.28,162.24,341.22,157.71,341.22Z"/><path class="cls-3" d="M175.32,341.22c-4.2,0-7.17-2.34-7.23-5.79H171c.18,1.74,1.41,3.48,4.32,3.48,2.64,0,4.2-1.5,4.2-3.48,0-5.64-11.31-2-11.31-9.82,0-3.45,2.79-5.79,6.93-5.79s6.6,2.19,6.93,5.37h-3c-.18-1.41-1.5-3-4-3-2.25-.06-4,1.11-4,3.36,0,5.4,11.28,2,11.28,9.79C182.28,338.28,179.85,341.22,175.32,341.22Z"/></g></g></g></svg>