<svg xmlns="http://www.w3.org/2000/svg" viewBox="0 0 378 135"><defs><style>.cls-1{fill:#262626;stroke-width:0.75px;}.cls-1,.cls-2,.cls-4{stroke:#fff;}.cls-1,.cls-4{stroke-linecap:round;stroke-linejoin:round;}.cls-2,.cls-4{fill:none;}.cls-2{stroke-miterlimit:10;}.cls-3{fill:#fff;}.cls-4{opacity:0;}</style></defs><title>propulsion</title><g id="Layer_2" data-name="Layer 2"><g id="Layer_1-2" data-name="Layer 1"><g id="Rocket"><g id="Propulsion"><g id="fill"><polyline class="cls-1" points="153.49 40.78 153.49 21.93 170.86 17.31 207.06 17.31 224.42 21.93 224.42 40.78"/><path id="_Path_" data-name="&lt;Path&gt;" class="cls-1" d="M171,27V1c0,2.42,8.07,4.28,18,4.28s18-2,18-4.39V128c0,3.35-8.07,6.07-18,6.07s-18-2.72-18-6.07V27Z"/><path class="cls-1" d="M207.05,6.14c0,2.45-8.07,4.44-18,4.44s-18-2-18-4.44"/><path class="cls-1" d="M175,122.79c-2.48-1-4-2.31-4-3.72"/><path class="cls-1" d="M201.76,123.28a47.73,47.73,0,0,1-25.36,0"/><path class="cls-1" d="M207.06,119.07c0,1.38-1.43,2.65-3.83,3.66"/><ellipse class="cls-1" cx="189.04" cy="91.62" rx="0.82" ry="0.7"/><ellipse class="cls-1" cx="189.03" cy="97.47" rx="0.82" ry="0.7"/><ellipse class="cls-1" cx="175.86" cy="128.03" rx="1.06" ry="1.5"/><ellipse class="cls-1" cx="202.3" cy="128.03" rx="1.06" ry="1.5"/><ellipse class="cls-1" cx="175.87" cy="122" rx="1.05" ry="1.51"/><ellipse class="cls-1" cx="202.32" cy="122" rx="1.05" ry="1.51"/><ellipse class="cls-1" cx="178.44" cy="67.09" rx="0.83" ry="1.05"/><ellipse class="cls-1" cx="199.56" cy="67.09" rx="0.83" ry="1.05"/><ellipse class="cls-1" cx="178.44" cy="48.63" rx="0.83" ry="1.05"/><ellipse class="cls-1" cx="199.56" cy="48.63" rx="0.83" ry="1.05"/><ellipse class="cls-1" cx="178.44" cy="30.09" rx="0.83" ry="1.05"/><ellipse class="cls-1" cx="199.56" cy="30.09" rx="0.83" ry="1.05"/><polygon class="cls-1" points="176.22 22.96 176.22 72.4 151.22 66.94 151.22 42.57 176.22 22.96"/><polygon class="cls-1" points="201.72 22.96 201.72 72.4 226.71 66.94 226.71 42.57 201.72 22.96"/></g><polyline class="cls-2" points="207 92 242.69 128.5 370 128.5"/><path class="cls-3" d="M250.78,121.21H248.1V127h-1.82V113.09h4.5c3.28,0,4.82,1.8,4.82,4.08C255.6,119.29,254.24,121.21,250.78,121.21Zm0-1.5c2.08,0,3-1,3-2.54s-.88-2.58-3-2.58H248.1v5.12Z"/><path class="cls-3" d="M262.36,113.09c3.28,0,4.84,1.82,4.84,4.1a3.93,3.93,0,0,1-3.32,4l3.5,5.84H265.2l-3.32-5.7h-2.2V127h-1.82V113.09Zm0,1.5h-2.68v5.28h2.68c2.06,0,3-1.12,3-2.68S264.44,114.59,262.36,114.59Z"/><path class="cls-3" d="M276.34,127.17a7.12,7.12,0,1,1,7-7.12A6.88,6.88,0,0,1,276.34,127.17Zm0-1.58c2.94,0,5.14-2.14,5.14-5.54s-2.2-5.54-5.14-5.54-5.14,2.12-5.14,5.54S273.4,125.59,276.34,125.59Z"/><path class="cls-3" d="M290.24,121.21h-2.68V127h-1.82V113.09h4.5c3.28,0,4.82,1.8,4.82,4.08C295.06,119.29,293.7,121.21,290.24,121.21Zm0-1.5c2.08,0,3-1,3-2.54s-.88-2.58-3-2.58h-2.68v5.12Z"/><path class="cls-3" d="M297.28,113.09h1.82v8.82c0,2.56,1.38,3.66,3.44,3.66s3.42-1.1,3.42-3.66v-8.82h1.82v8.8c0,3.62-2.38,5.28-5.26,5.28s-5.24-1.66-5.24-5.28Z"/><path class="cls-3" d="M312.64,113.09v12.46h4.88V127h-6.7V113.09Z"/><path class="cls-3" d="M323.88,127.17c-2.8,0-4.78-1.56-4.82-3.86H321a2.58,2.58,0,0,0,2.88,2.32c1.76,0,2.8-1,2.8-2.32,0-3.76-7.54-1.36-7.54-6.54,0-2.3,1.86-3.86,4.62-3.86s4.4,1.46,4.62,3.58h-2a2.52,2.52,0,0,0-2.7-2c-1.5,0-2.68.74-2.68,2.24,0,3.6,7.52,1.36,7.52,6.52C328.52,125.21,326.9,127.17,323.88,127.17Z"/><path class="cls-3" d="M331.2,113.09H333V127H331.2Z"/><path class="cls-3" d="M342.44,127.17a7.12,7.12,0,1,1,7-7.12A6.88,6.88,0,0,1,342.44,127.17Zm0-1.58c2.94,0,5.14-2.14,5.14-5.54s-2.2-5.54-5.14-5.54-5.14,2.12-5.14,5.54S339.5,125.59,342.44,125.59Z"/><path class="cls-3" d="M362.8,113.07v14H361l-7.32-11.1V127h-1.82v-14h1.82L361,124.15V113.07Z"/><rect id="Propulsion_Border_Box" data-name="Propulsion Border Box" class="cls-4" x="0.5" y="0.5" width="377" height="134"/></g></g></g></g></svg>