<svg xmlns="http://www.w3.org/2000/svg" viewBox="0 0 482 135"><defs><style>.cls-1,.cls-3{fill:none;}.cls-1,.cls-3,.cls-4{stroke:#fff;}.cls-1{stroke-miterlimit:10;}.cls-2{fill:#fff;}.cls-3,.cls-4{stroke-linecap:round;stroke-linejoin:round;}.cls-3{opacity:0;}.cls-4{fill:#262626;stroke-width:0.75px;}</style></defs><title>propulsion_4</title><g id="Layer_2" data-name="Layer 2"><g id="Layer_1-2" data-name="Layer 1"><g id="Rocket"><g id="Propulsion"><polyline class="cls-1" points="259 92 294.69 128.5 479 128.5"/><path class="cls-2" d="M305,118.23h-4V127h-2.73V106.05H305c4.92,0,7.23,2.7,7.23,6.12C312.26,115.35,310.22,118.23,305,118.23Zm0-2.25c3.12,0,4.44-1.47,4.44-3.81s-1.32-3.87-4.44-3.87h-4V116Z"/><path class="cls-2" d="M322.4,106.05c4.92,0,7.27,2.73,7.27,6.15a5.91,5.91,0,0,1-5,6l5.25,8.76h-3.27l-5-8.55h-3.3V127h-2.73V106.05Zm0,2.25h-4v7.92h4c3.09,0,4.44-1.68,4.44-4S325.52,108.3,322.4,108.3Z"/><path class="cls-2" d="M343.37,127.17a10.68,10.68,0,1,1,10.51-10.68A10.31,10.31,0,0,1,343.37,127.17Zm0-2.37c4.41,0,7.72-3.21,7.72-8.31s-3.31-8.31-7.72-8.31-7.71,3.18-7.71,8.31S339,124.8,343.37,124.8Z"/><path class="cls-2" d="M364.22,118.23h-4V127h-2.73V106.05h6.75c4.92,0,7.23,2.7,7.23,6.12C371.45,115.35,369.41,118.23,364.22,118.23Zm0-2.25c3.12,0,4.44-1.47,4.44-3.81s-1.32-3.87-4.44-3.87h-4V116Z"/><path class="cls-2" d="M374.78,106.05h2.73v13.23c0,3.84,2.07,5.49,5.16,5.49s5.13-1.65,5.13-5.49V106.05h2.73v13.2c0,5.43-3.57,7.92-7.89,7.92s-7.86-2.49-7.86-7.92Z"/><path class="cls-2" d="M397.82,106.05v18.69h7.32V127H395.09V106.05Z"/><path class="cls-2" d="M414.68,127.17c-4.2,0-7.17-2.34-7.23-5.79h2.91c.18,1.74,1.41,3.48,4.32,3.48,2.64,0,4.2-1.5,4.2-3.48,0-5.64-11.31-2-11.31-9.81,0-3.45,2.79-5.79,6.93-5.79s6.6,2.19,6.93,5.37h-3c-.18-1.41-1.5-3-4.05-3-2.25-.06-4,1.11-4,3.36,0,5.4,11.28,2,11.28,9.78C421.64,124.23,419.21,127.17,414.68,127.17Z"/><path class="cls-2" d="M425.66,106.05h2.73V127h-2.73Z"/><path class="cls-2" d="M442.52,127.17A10.68,10.68,0,1,1,453,116.49,10.31,10.31,0,0,1,442.52,127.17Zm0-2.37c4.41,0,7.71-3.21,7.71-8.31s-3.3-8.31-7.71-8.31-7.71,3.18-7.71,8.31S438.11,124.8,442.52,124.8Z"/><path class="cls-2" d="M473.06,106V127h-2.73l-11-16.65V127h-2.73V106h2.73l11,16.62V106Z"/><rect id="Propulsion_Border_Box" data-name="Propulsion Border Box" class="cls-3" x="0.5" y="0.5" width="481" height="134"/><polyline class="cls-4" points="205.49 40.78 205.49 21.93 222.86 17.31 259.06 17.31 276.42 21.93 276.42 40.78"/><path id="_Path_" data-name="&lt;Path&gt;" class="cls-4" d="M223,27V1c0,2.42,8.07,4.28,18,4.28s18-2,18-4.39V128c0,3.35-8.07,6.07-18,6.07s-18-2.72-18-6.07V27Z"/><path class="cls-4" d="M259.05,6.14c0,2.45-8.07,4.44-18,4.44s-18-2-18-4.44"/><path class="cls-4" d="M227,122.79c-2.48-1-4-2.31-4-3.72"/><path class="cls-4" d="M253.76,123.28a47.73,47.73,0,0,1-25.36,0"/><path class="cls-4" d="M259.06,119.07c0,1.38-1.43,2.65-3.83,3.66"/><ellipse class="cls-4" cx="241.04" cy="91.62" rx="0.82" ry="0.7"/><ellipse class="cls-4" cx="241.03" cy="97.47" rx="0.82" ry="0.7"/><ellipse class="cls-4" cx="227.86" cy="128.03" rx="1.06" ry="1.5"/><ellipse class="cls-4" cx="254.3" cy="128.03" rx="1.06" ry="1.5"/><ellipse class="cls-4" cx="227.87" cy="122" rx="1.05" ry="1.51"/><ellipse class="cls-4" cx="254.32" cy="122" rx="1.05" ry="1.51"/><ellipse class="cls-4" cx="230.44" cy="67.09" rx="0.83" ry="1.05"/><ellipse class="cls-4" cx="251.56" cy="67.09" rx="0.83" ry="1.05"/><ellipse class="cls-4" cx="230.44" cy="48.63" rx="0.83" ry="1.05"/><ellipse class="cls-4" cx="251.56" cy="48.63" rx="0.83" ry="1.05"/><ellipse class="cls-4" cx="230.44" cy="30.09" rx="0.83" ry="1.05"/><ellipse class="cls-4" cx="251.56" cy="30.09" rx="0.83" ry="1.05"/><polygon class="cls-4" points="228.22 22.96 228.22 72.4 203.22 66.94 203.22 42.57 228.22 22.96"/><polygon class="cls-4" points="253.72 22.96 253.72 72.4 278.71 66.94 278.71 42.57 253.72 22.96"/></g></g></g></g></svg>