<svg xmlns="http://www.w3.org/2000/svg" viewBox="0 0 378 783.17"><defs><style>.cls-1{fill:#262626;}.cls-1,.cls-2,.cls-5,.cls-6{stroke:#fff;}.cls-1,.cls-2,.cls-6{stroke-linecap:round;stroke-linejoin:round;}.cls-1,.cls-2{stroke-width:0.75px;}.cls-2,.cls-3,.cls-5,.cls-6{fill:none;}.cls-4{fill:#fff;}.cls-5{stroke-linecap:square;stroke-miterlimit:10;}.cls-6{opacity:0;}</style></defs><title>structures_1</title><g id="Layer_2" data-name="Layer 2"><g id="Layer_1-2" data-name="Layer 1"><g id="Rocket"><g id="Structures"><g id="Fill_Rocket" data-name="Fill Rocket"><path id="main_curve" data-name="main curve" class="cls-1" d="M171,778.41V252h0s-.73-163.45,18-251.13h0c18.76,87.68,18,251.13,18,251.13V778.41"/><path class="cls-2" d="M207.06,545.22c0,.83-8.07,1.51-18,1.51s-18-.68-18-1.51"/><path class="cls-2" d="M207.06,557c0,.89-8.07,1.62-18,1.62s-18-.73-18-1.62"/><ellipse class="cls-2" cx="175.89" cy="723.11" rx="1.07" ry="1.4"/><ellipse class="cls-2" cx="202.2" cy="723.11" rx="1.07" ry="1.4"/><ellipse class="cls-2" cx="175.89" cy="717.04" rx="1.07" ry="1.4"/><ellipse class="cls-2" cx="202.2" cy="717.04" rx="1.07" ry="1.4"/><circle class="cls-2" cx="189.04" cy="626.98" r="0.77"/><circle class="cls-2" cx="189.03" cy="632.86" r="0.77"/><line class="cls-2" x1="171.02" y1="429.75" x2="207.06" y2="429.75"/><ellipse class="cls-2" cx="175.95" cy="423.45" rx="0.74" ry="0.96"/><ellipse class="cls-2" cx="202.12" cy="423.45" rx="0.74" ry="0.96"/><ellipse class="cls-2" cx="175.95" cy="354.94" rx="0.78" ry="0.98"/><ellipse class="cls-2" cx="202.12" cy="354.94" rx="0.78" ry="0.98"/><path class="cls-2" d="M171,245.38c0-1.44,8.07-2.61,18-2.61s18,1.17,18,2.61"/><path class="cls-2" d="M207.06,242.4c0-1.46-8.07-2.64-18-2.64s-18,1.18-18,2.64"/><path class="cls-2" d="M171,235.77c0-1.46,8.06-2.64,18-2.64s18,1.18,18,2.64"/><path class="cls-2" d="M206.93,229.73c0-1.45-8-2.63-17.9-2.63s-17.9,1.18-17.9,2.63"/><path class="cls-2" d="M171.24,223.18c0-1.51,8-2.73,17.81-2.73s17.81,1.22,17.81,2.73"/><path class="cls-2" d="M206.66,212.48c0-1.45-7.89-2.62-17.63-2.62s-17.64,1.17-17.64,2.62"/><path class="cls-2" d="M206.52,205.89c0-1.45-7.84-2.63-17.51-2.63s-17.5,1.18-17.5,2.63"/><circle class="cls-2" cx="189.05" cy="193.36" r="1.37"/><path class="cls-2" d="M207.06,417.5c0-.13-8.07-.24-18-.24s-18,.11-18,.24"/><path class="cls-2" d="M207.06,342.87c0-.3-1.93-.57-5.06-.77"/><path class="cls-2" d="M202,296.37c3.16.25,5.11.59,5.11,1"/><path class="cls-2" d="M202,250.55c3.16.39,5.11.92,5.11,1.5"/><path class="cls-3" d="M191.3,258s0,0,0,0l-.23-.36a6.55,6.55,0,0,0-.39-.53,2.62,2.62,0,0,0-.55-.5,2.48,2.48,0,0,0-.64-.35,3.86,3.86,0,0,0-.82-.24l-.47-.05a4.17,4.17,0,0,0-.5,0l-.49.06a6,6,0,0,0-1.87.69,8.32,8.32,0,0,0-1.37,1,10.14,10.14,0,0,0-1.54,1.67,11.46,11.46,0,0,0-.78,1.18,8.64,8.64,0,0,0-.81,2.08,6.26,6.26,0,0,0-.14.73c0,.21,0,.42-.06.62s0,.41,0,.61,0,.21,0,.32,0,.28,0,.42.08.46.14.69a5.17,5.17,0,0,0,.6,1.36,3.85,3.85,0,0,0,.92,1,3.74,3.74,0,0,0,1.17.57q.3.08.6.12a3.93,3.93,0,0,0,.48.06l.75,0,.46,0,.39,0,.45-.07.14,0h0l-.05,0a7.19,7.19,0,0,1-1.11.36c-.24.06-.48.11-.73.15l-.41.07-.49,0h-.28a4.34,4.34,0,0,1-.51,0l-.43,0-.4,0a5.22,5.22,0,0,1-1.41-.36,3.92,3.92,0,0,1-.8-.45,4.07,4.07,0,0,1-1.22-1.42,4.56,4.56,0,0,1-.45-1.18,5.88,5.88,0,0,1-.14-.73,8.69,8.69,0,0,1,0-1.14c0-.22,0-.43.05-.64a9.9,9.9,0,0,1,.55-2.27,12.61,12.61,0,0,1,1.1-2.28l.26-.43a11.86,11.86,0,0,1,1.56-2,9.27,9.27,0,0,1,2.12-1.61,7.38,7.38,0,0,1,1.45-.6,6.43,6.43,0,0,1,.76-.17,5.22,5.22,0,0,1,.88-.07,3.91,3.91,0,0,1,.49,0,4.25,4.25,0,0,1,1.39.39,3.69,3.69,0,0,1,.69.41,3.56,3.56,0,0,1,.75.75,5.07,5.07,0,0,1,.72,1.31,5.2,5.2,0,0,1,.22.77Z"/><path class="cls-3" d="M199.8,265.79a.41.41,0,0,1,0,.19.75.75,0,0,1-.1.17,1.7,1.7,0,0,1-.19.19,2.47,2.47,0,0,1-.38.28,7.48,7.48,0,0,1-.74.39c-.41.19-.82.36-1.24.52l-1.44.5a3.37,3.37,0,0,1-.34.09l-1.9.51-.93.25a.48.48,0,0,0-.23.13l-1.19,1.05-1,.83-.07.08a.46.46,0,0,1-.17.09l-.4.11a.25.25,0,0,1-.17,0,.22.22,0,0,1-.09-.14l-.1-.37c-.06-.21-.11-.42-.17-.63a.23.23,0,0,0-.17-.17h0c-.14,0-.27,0-.41-.06h-.1a.2.2,0,0,1-.18-.15.65.65,0,0,1,0-.13c-.11-.43-.23-.86-.34-1.29a.22.22,0,0,1,0-.14.19.19,0,0,1,.07-.11l.37-.29.05,0a.27.27,0,0,0,.11-.21.13.13,0,0,0,0-.06c-.06-.24-.13-.48-.19-.71s-.06-.19-.08-.29a.24.24,0,0,1,0-.12.17.17,0,0,1,.14-.14l.2-.06.19,0a.41.41,0,0,1,.22,0l.29.06.69.14.69.14.69.14.56.11a.31.31,0,0,0,.19,0l.49-.13,1.74-.47.92-.24.32-.07.57-.11.55-.09.47-.08.39-.05.37,0h.18l.25,0h0a4.85,4.85,0,0,1,.66,0,2.26,2.26,0,0,1,.57.09.77.77,0,0,1,.19.08.36.36,0,0,1,.12.08A.38.38,0,0,1,199.8,265.79Z"/><path class="cls-3" d="M189.72,263.21l0,.06.76,1.38.66,1.19a.08.08,0,0,1,0,.05h0l-2-.45h0c-.17-.33-.34-.66-.52-1l-.51-1H187a0,0,0,0,0,0,0v3h-1.57v-7.1a.36.36,0,0,1,0-.18.44.44,0,0,1,.38-.31h2.8a3.13,3.13,0,0,1,1.09.19,2.47,2.47,0,0,1,.91.59,2.19,2.19,0,0,1,.57,1.12,2.35,2.35,0,0,1,0,.65,2,2,0,0,1-.82,1.44,2.55,2.55,0,0,1-.59.31l-.05,0Zm-2.75-1h1.45l.28,0a1.15,1.15,0,0,0,.37-.12.92.92,0,0,0,.48-.51.93.93,0,0,0,0-.52.9.9,0,0,0-.41-.65,1.1,1.1,0,0,0-.37-.16,1.81,1.81,0,0,0-.4,0H187C187,260.26,187,262.16,187,262.21Z"/><path class="cls-3" d="M196,260.2a.27.27,0,0,0,0,.09v4.62h-.09l-.77.16c-.24,0-.48.13-.72.19,0,0,0,0,0,0v-5s0-.06,0-.08h-2s0,0,0-.06v-.77a.61.61,0,0,1,0-.14.46.46,0,0,1,.39-.34h5.34a.05.05,0,0,1,0,.08,0,0,0,0,1,0,0l-.54,1.13,0,0a.11.11,0,0,1-.09.05H196Z"/><path id="Bottom_Curve" data-name="Bottom Curve" class="cls-1" d="M171,778.52c0,2.42,8.07,4.28,18,4.28s18-2,18-4.39"/></g><path class="cls-4" d="M251.3,206.85c-2.79,0-4.76-1.55-4.8-3.83h1.93a2.57,2.57,0,0,0,2.87,2.3c1.75,0,2.78-1,2.78-2.3,0-3.74-7.5-1.35-7.5-6.5,0-2.29,1.85-3.84,4.6-3.84s4.37,1.45,4.59,3.56h-2a2.5,2.5,0,0,0-2.68-2c-1.49,0-2.67.73-2.67,2.23,0,3.57,7.48,1.35,7.48,6.48C255.91,204.91,254.3,206.85,251.3,206.85Z"/><path class="cls-4" d="M257.72,192.86h9.39v1.47h-3.78v12.39h-1.81V194.33h-3.8Z"/><path class="cls-4" d="M273.81,192.86c3.27,0,4.82,1.81,4.82,4.07a3.92,3.92,0,0,1-3.31,4l3.49,5.81h-2.17l-3.3-5.67h-2.19v5.67h-1.81V192.86Zm0,1.49h-2.66v5.25h2.66c2.05,0,2.95-1.12,2.95-2.67S275.88,194.35,273.81,194.35Z"/><path class="cls-4" d="M281.39,192.86h1.81v8.77c0,2.54,1.37,3.63,3.42,3.63s3.4-1.09,3.4-3.63v-8.77h1.81v8.75c0,3.59-2.36,5.24-5.23,5.24a4.84,4.84,0,0,1-5.21-5.24Z"/><path class="cls-4" d="M301.1,192.68a6.53,6.53,0,0,1,6.43,4.19h-2.17a4.37,4.37,0,0,0-4.26-2.6c-2.9,0-5.07,2.11-5.07,5.51s2.17,5.48,5.07,5.48a4.38,4.38,0,0,0,4.26-2.58h2.17a6.53,6.53,0,0,1-6.43,4.15,7.08,7.08,0,0,1,0-14.15Z"/><path class="cls-4" d="M309.35,192.86h9.39v1.47H315v12.39h-1.81V194.33h-3.8Z"/><path class="cls-4" d="M320.93,192.86h1.81v8.77c0,2.54,1.37,3.63,3.42,3.63s3.4-1.09,3.4-3.63v-8.77h1.82v8.75c0,3.59-2.37,5.24-5.24,5.24a4.84,4.84,0,0,1-5.21-5.24Z"/><path class="cls-4" d="M338.87,192.86c3.26,0,4.82,1.81,4.82,4.07a3.92,3.92,0,0,1-3.31,4l3.49,5.81H341.7l-3.31-5.67h-2.18v5.67H334.4V192.86Zm0,1.49h-2.66v5.25h2.66c2.05,0,2.95-1.12,2.95-2.67S340.94,194.35,338.87,194.35Z"/><path class="cls-4" d="M354,194.33H348.3V199h5.05v1.49H348.3v4.77H354v1.5h-7.46V192.84H354Z"/><path class="cls-4" d="M361.09,206.85c-2.79,0-4.76-1.55-4.8-3.83h1.93a2.57,2.57,0,0,0,2.87,2.3c1.75,0,2.78-1,2.78-2.3,0-3.74-7.5-1.35-7.5-6.5,0-2.29,1.85-3.84,4.6-3.84s4.38,1.45,4.6,3.56h-2a2.51,2.51,0,0,0-2.69-2c-1.49,0-2.67.73-2.67,2.23,0,3.57,7.48,1.35,7.48,6.48C365.7,204.91,364.09,206.85,361.09,206.85Z"/><polyline class="cls-5" points="206.72 245.26 242.4 208.78 370.22 208.78"/><rect id="Structures_Border_Box" data-name="Structures Border Box" class="cls-6" x="0.5" y="0.5" width="377" height="777.52"/></g></g></g></g></svg>