<svg xmlns="http://www.w3.org/2000/svg" viewBox="0 0 482 783.17"><defs><style>.cls-1{fill:#262626;}.cls-1,.cls-2,.cls-5,.cls-6{stroke:#fff;}.cls-1,.cls-2,.cls-6{stroke-linecap:round;stroke-linejoin:round;}.cls-1,.cls-2{stroke-width:0.75px;}.cls-2,.cls-3,.cls-5,.cls-6{fill:none;}.cls-4{fill:#fff;}.cls-5{stroke-linecap:square;stroke-miterlimit:10;}.cls-6{opacity:0;}</style></defs><title>structures_4</title><g id="Layer_2" data-name="Layer 2"><g id="Layer_1-2" data-name="Layer 1"><g id="Rocket"><g id="Structures"><path id="main_curve" data-name="main curve" class="cls-1" d="M223,778.41V252h0s-.73-163.45,18-251.13h0c18.76,87.68,18,251.13,18,251.13V778.41"/><path class="cls-2" d="M259.06,545.22c0,.83-8.07,1.51-18,1.51s-18-.68-18-1.51"/><path class="cls-2" d="M259.06,557c0,.89-8.07,1.62-18,1.62s-18-.73-18-1.62"/><ellipse class="cls-2" cx="227.89" cy="723.11" rx="1.07" ry="1.4"/><ellipse class="cls-2" cx="254.2" cy="723.11" rx="1.07" ry="1.4"/><ellipse class="cls-2" cx="227.89" cy="717.04" rx="1.07" ry="1.4"/><ellipse class="cls-2" cx="254.2" cy="717.04" rx="1.07" ry="1.4"/><circle class="cls-2" cx="241.04" cy="626.98" r="0.77"/><circle class="cls-2" cx="241.03" cy="632.86" r="0.77"/><line class="cls-2" x1="223.02" y1="429.75" x2="259.06" y2="429.75"/><ellipse class="cls-2" cx="227.95" cy="423.45" rx="0.74" ry="0.96"/><ellipse class="cls-2" cx="254.12" cy="423.45" rx="0.74" ry="0.96"/><ellipse class="cls-2" cx="227.95" cy="354.94" rx="0.78" ry="0.98"/><ellipse class="cls-2" cx="254.12" cy="354.94" rx="0.78" ry="0.98"/><path class="cls-2" d="M223,245.38c0-1.44,8.07-2.61,18-2.61s18,1.17,18,2.61"/><path class="cls-2" d="M259.06,242.4c0-1.46-8.07-2.64-18-2.64s-18,1.18-18,2.64"/><path class="cls-2" d="M223,235.77c0-1.46,8.06-2.64,18-2.64s18,1.18,18,2.64"/><path class="cls-2" d="M258.93,229.73c0-1.45-8-2.63-17.9-2.63s-17.9,1.18-17.9,2.63"/><path class="cls-2" d="M223.24,223.18c0-1.51,8-2.73,17.81-2.73s17.81,1.22,17.81,2.73"/><path class="cls-2" d="M258.66,212.48c0-1.45-7.89-2.62-17.63-2.62s-17.64,1.17-17.64,2.62"/><path class="cls-2" d="M258.52,205.89c0-1.45-7.84-2.63-17.51-2.63s-17.5,1.18-17.5,2.63"/><circle class="cls-2" cx="241.05" cy="193.36" r="1.37"/><path class="cls-2" d="M259.06,417.5c0-.13-8.07-.24-18-.24s-18,.11-18,.24"/><path class="cls-2" d="M259.06,342.87c0-.3-1.93-.57-5.06-.77"/><path class="cls-2" d="M254,296.37c3.16.25,5.11.59,5.11,1"/><path class="cls-2" d="M254,250.55c3.16.39,5.11.92,5.11,1.5"/><path class="cls-3" d="M243.3,258s0,0,0,0l-.23-.36a6.55,6.55,0,0,0-.39-.53,2.62,2.62,0,0,0-.55-.5,2.48,2.48,0,0,0-.64-.35,3.86,3.86,0,0,0-.82-.24l-.47-.05a4.17,4.17,0,0,0-.5,0l-.49.06a6,6,0,0,0-1.87.69,8.32,8.32,0,0,0-1.37,1,10.14,10.14,0,0,0-1.54,1.67,11.46,11.46,0,0,0-.78,1.18,8.64,8.64,0,0,0-.81,2.08,6.26,6.26,0,0,0-.14.73c0,.21,0,.42-.06.62s0,.41,0,.61,0,.21,0,.32,0,.28,0,.42.08.46.14.69a5.17,5.17,0,0,0,.6,1.36,3.85,3.85,0,0,0,.92,1,3.74,3.74,0,0,0,1.17.57q.3.08.6.12a3.93,3.93,0,0,0,.48.06l.75,0,.46,0,.39,0,.45-.07.14,0h0l-.05,0a7.19,7.19,0,0,1-1.11.36c-.24.06-.48.11-.73.15l-.41.07-.49,0h-.28a4.34,4.34,0,0,1-.51,0l-.43,0-.4,0a5.22,5.22,0,0,1-1.41-.36,3.92,3.92,0,0,1-.8-.45,4.07,4.07,0,0,1-1.22-1.42,4.56,4.56,0,0,1-.45-1.18,5.88,5.88,0,0,1-.14-.73,8.69,8.69,0,0,1,0-1.14c0-.22,0-.43.05-.64a9.9,9.9,0,0,1,.55-2.27,12.61,12.61,0,0,1,1.1-2.28l.26-.43a11.86,11.86,0,0,1,1.56-2,9.27,9.27,0,0,1,2.12-1.61,7.38,7.38,0,0,1,1.45-.6,6.43,6.43,0,0,1,.76-.17,5.22,5.22,0,0,1,.88-.07,3.91,3.91,0,0,1,.49,0,4.25,4.25,0,0,1,1.39.39,3.69,3.69,0,0,1,.69.41,3.56,3.56,0,0,1,.75.75,5.07,5.07,0,0,1,.72,1.31,5.2,5.2,0,0,1,.22.77Z"/><path class="cls-3" d="M251.8,265.79a.41.41,0,0,1,0,.19.75.75,0,0,1-.1.17,1.7,1.7,0,0,1-.19.19,2.47,2.47,0,0,1-.38.28,7.48,7.48,0,0,1-.74.39c-.41.19-.82.36-1.24.52l-1.44.5a3.37,3.37,0,0,1-.34.09l-1.9.51-.93.25a.48.48,0,0,0-.23.13l-1.19,1.05-1,.83-.07.08a.46.46,0,0,1-.17.09l-.4.11a.25.25,0,0,1-.17,0,.22.22,0,0,1-.09-.14l-.1-.37c-.06-.21-.11-.42-.17-.63a.23.23,0,0,0-.17-.17h0c-.14,0-.27,0-.41-.06h-.1a.2.2,0,0,1-.18-.15.65.65,0,0,1,0-.13c-.11-.43-.23-.86-.34-1.29a.22.22,0,0,1,0-.14.19.19,0,0,1,.07-.11l.37-.29.05,0a.27.27,0,0,0,.11-.21.13.13,0,0,0,0-.06c-.06-.24-.13-.48-.19-.71s-.06-.19-.08-.29a.24.24,0,0,1,0-.12.17.17,0,0,1,.14-.14l.2-.06.19,0a.41.41,0,0,1,.22,0l.29.06.69.14.69.14.69.14.56.11a.31.31,0,0,0,.19,0l.49-.13,1.74-.47.92-.24.32-.07.57-.11.55-.09.47-.08.39-.05.37,0h.18l.25,0h0a4.85,4.85,0,0,1,.66,0,2.26,2.26,0,0,1,.57.09.77.77,0,0,1,.19.08.36.36,0,0,1,.12.08A.38.38,0,0,1,251.8,265.79Z"/><path class="cls-3" d="M241.72,263.21l0,.06.76,1.38.66,1.19a.08.08,0,0,1,0,.05h0l-2-.45h0c-.17-.33-.34-.66-.52-1l-.51-1H239a0,0,0,0,0,0,0v3h-1.57v-7.1a.36.36,0,0,1,0-.18.44.44,0,0,1,.38-.31h2.8a3.13,3.13,0,0,1,1.09.19,2.47,2.47,0,0,1,.91.59,2.19,2.19,0,0,1,.57,1.12,2.35,2.35,0,0,1,0,.65,2,2,0,0,1-.82,1.44,2.55,2.55,0,0,1-.59.31l-.05,0Zm-2.75-1h1.45l.28,0a1.15,1.15,0,0,0,.37-.12.92.92,0,0,0,.48-.51.93.93,0,0,0,0-.52.9.9,0,0,0-.41-.65,1.1,1.1,0,0,0-.37-.16,1.81,1.81,0,0,0-.4,0H239C239,260.26,239,262.16,239,262.21Z"/><path class="cls-3" d="M248,260.2a.27.27,0,0,0,0,.09v4.62h-.09l-.77.16c-.24,0-.48.13-.72.19,0,0,0,0,0,0v-5s0-.06,0-.08h-2s0,0,0-.06v-.77a.61.61,0,0,1,0-.14.46.46,0,0,1,.39-.34h5.34a.05.05,0,0,1,0,.08,0,0,0,0,1,0,0l-.54,1.13,0,0a.11.11,0,0,1-.09.05H248Z"/><path id="Bottom_Curve" data-name="Bottom Curve" class="cls-1" d="M223,778.52c0,2.42,8.07,4.28,18,4.28s18-2,18-4.39"/><path class="cls-4" d="M305.7,206.85c-4.18,0-7.14-2.32-7.2-5.75h2.9c.18,1.73,1.4,3.46,4.3,3.46,2.62,0,4.17-1.49,4.17-3.46,0-5.61-11.25-2-11.25-9.75,0-3.43,2.78-5.76,6.9-5.76,4,0,6.56,2.18,6.89,5.34h-3c-.17-1.4-1.49-3-4-3-2.24-.06-4,1.1-4,3.34,0,5.36,11.22,2,11.22,9.72C312.62,203.93,310.2,206.85,305.7,206.85Z"/><path class="cls-4" d="M315.33,185.86h14.08v2.21h-5.67v18.58H321V188.07h-5.7Z"/><path class="cls-4" d="M339.47,185.86c4.89,0,7.22,2.71,7.22,6.11a5.86,5.86,0,0,1-5,6l5.23,8.71H343.7l-4.95-8.5h-3.28v8.5h-2.72V185.86Zm0,2.24h-4V196h4c3.07,0,4.41-1.67,4.41-4S342.57,188.1,339.47,188.1Z"/><path class="cls-4" d="M350.83,185.86h2.72V199c0,3.82,2.06,5.46,5.13,5.46s5.1-1.64,5.1-5.46V185.86h2.72V199c0,5.4-3.55,7.87-7.85,7.87s-7.82-2.47-7.82-7.87Z"/><path class="cls-4" d="M380.4,185.59c4.51,0,8.09,2.27,9.64,6.29h-3.25a6.55,6.55,0,0,0-6.39-3.9c-4.36,0-7.61,3.16-7.61,8.26s3.25,8.23,7.61,8.23a6.57,6.57,0,0,0,6.39-3.88H390c-1.55,4-5.13,6.23-9.64,6.23a10.62,10.62,0,0,1,0-21.23Z"/><path class="cls-4" d="M392.78,185.86h14.09v2.21H401.2v18.58h-2.72V188.07h-5.7Z"/><path class="cls-4" d="M410.14,185.86h2.72V199c0,3.82,2.06,5.46,5.13,5.46s5.11-1.64,5.11-5.46V185.86h2.71V199c0,5.4-3.55,7.87-7.85,7.87s-7.82-2.47-7.82-7.87Z"/><path class="cls-4" d="M437.06,185.86c4.89,0,7.22,2.71,7.22,6.11a5.86,5.86,0,0,1-5,6l5.23,8.71h-3.26l-5-8.5h-3.28v8.5h-2.72V185.86Zm0,2.24h-4V196h4c3.07,0,4.41-1.67,4.41-4S440.16,188.1,437.06,188.1Z"/><path class="cls-4" d="M459.67,188.07H451.2V195h7.58v2.24H451.2v7.16h8.47v2.24H448.48V185.83h11.19Z"/><path class="cls-4" d="M470.38,206.85c-4.18,0-7.13-2.32-7.19-5.75h2.89c.18,1.73,1.41,3.46,4.3,3.46,2.63,0,4.18-1.49,4.18-3.46,0-5.61-11.25-2-11.25-9.75,0-3.43,2.77-5.76,6.89-5.76s6.57,2.18,6.9,5.34h-3c-.18-1.4-1.49-3-4-3-2.24-.06-4,1.1-4,3.34,0,5.36,11.22,2,11.22,9.72C477.3,203.93,474.89,206.85,470.38,206.85Z"/><polyline class="cls-5" points="258.72 245.26 294.4 208.78 480.5 209.02"/><rect id="Structures_Border_Box" data-name="Structures Border Box" class="cls-6" x="0.5" y="0.5" width="481" height="777.52"/></g></g></g></g></svg>