<svg xmlns="http://www.w3.org/2000/svg" viewBox="0 0 312.75 87.58"><defs><style>.cls-1,.cls-4{fill:#b22126;}.cls-2{fill:none;}.cls-2,.cls-3{stroke:#fff;}.cls-2,.cls-3,.cls-4{stroke-miterlimit:10;stroke-width:2.5px;}.cls-3{fill:#231f20;opacity:0.6;}.cls-4{stroke:#b22126;}.cls-5,.cls-6{fill:#fff;}.cls-6{font-size:16px;font-family:Poppins-Regular, Poppins;}</style></defs><g id="Layer_2" data-name="Layer 2"><g id="Layer_1-2" data-name="Layer 1"><polygon class="cls-1" points="0 15.17 10.83 15.17 10.83 3 119.33 3 143.08 15.5 312.75 15.5 312.75 12.75 157.93 12.75 134.53 0 0 0 0 15.17"/><polygon class="cls-2" points="16.17 8.17 16.17 79.92 177.17 79.92 201.25 67.58 306.17 67.58 306.17 20.75 142.67 20.75 118 8.17 16.17 8.17"/><polygon class="cls-3" points="16.17 8.17 16.17 79.92 177.17 79.92 201.25 67.58 306.17 67.58 306.17 20.75 142.67 20.75 118 8.17 16.17 8.17"/><polyline class="cls-4" points="0.88 86.33 178.25 86.33 204.58 86.33 225.21 74.46 312.75 74.46 198.88 74.46 178.25 86.33"/><polygon class="cls-5" points="37.42 44.04 47.33 44.04 41.17 34.92 37.42 34.92 37.42 44.04"/><polygon class="cls-5" points="37.42 44.04 47.33 44.04 41.17 53.17 37.42 53.17 37.42 44.04"/><text class="cls-6" transform="translate(55.53 49.89)">FRESHMAN APPLICATION</text></g></g></svg>