<svg xmlns="http://www.w3.org/2000/svg" viewBox="0 0 312.75 87.58"><defs><style>.cls-1,.cls-4{fill:#b22126;}.cls-2{fill:none;}.cls-2,.cls-3{stroke:#fff;}.cls-2,.cls-3,.cls-4{stroke-miterlimit:10;stroke-width:2.5px;}.cls-3{fill:#231f20;opacity:0.6;}.cls-4{stroke:#b22126;}.cls-5{fill:#fff;}</style></defs><g id="Layer_2" data-name="Layer 2"><g id="Layer_1-2" data-name="Layer 1"><polygon class="cls-1" points="0 15.17 10.83 15.17 10.83 3 119.33 3 143.08 15.5 312.75 15.5 312.75 12.75 157.93 12.75 134.53 0 0 0 0 15.17"/><polygon class="cls-2" points="16.17 8.17 16.17 79.92 177.17 79.92 201.25 67.58 306.17 67.58 306.17 20.75 142.67 20.75 118 8.17 16.17 8.17"/><polygon class="cls-3" points="16.17 8.17 16.17 79.92 177.17 79.92 201.25 67.58 306.17 67.58 306.17 20.75 142.67 20.75 118 8.17 16.17 8.17"/><polyline class="cls-4" points="0.88 86.33 178.25 86.33 204.58 86.33 225.21 74.46 312.75 74.46 198.88 74.46 178.25 86.33"/><polygon class="cls-5" points="37.42 44.04 47.33 44.04 41.17 34.92 37.42 34.92 37.42 44.04"/><polygon class="cls-5" points="37.42 44.04 47.33 44.04 41.17 53.17 37.42 53.17 37.42 44.04"/><path class="cls-5" d="M56.76,38.74h6.31v1.18H58.22v3.76h3.93v1.19H58.22v5H56.76Z"/><path class="cls-5" d="M68.43,38.74c2.62,0,3.87,1.45,3.87,3.28a3.16,3.16,0,0,1-2.66,3.2l2.8,4.67H70.7L68,45.33H66.28v4.56H64.82V38.74Zm0,1.2H66.28v4.22h2.15c1.64,0,2.36-.89,2.36-2.14S70.09,39.94,68.43,39.94Z"/><path class="cls-5" d="M80.55,39.92H76v3.73h4.06v1.2H76v3.84h4.54v1.2h-6V38.72h6Z"/><path class="cls-5" d="M86.3,50c-2.24,0-3.83-1.25-3.86-3.09H84a2.07,2.07,0,0,0,2.31,1.85c1.41,0,2.24-.8,2.24-1.85,0-3-6-1.09-6-5.24,0-1.84,1.49-3.09,3.7-3.09s3.52,1.17,3.7,2.87H88.3a2,2,0,0,0-2.16-1.62c-1.2,0-2.15.59-2.15,1.79,0,2.89,6,1.09,6,5.22C90,48.44,88.71,50,86.3,50Z"/><path class="cls-5" d="M99.29,44.84H93.61v5H92.15V38.74h1.46v4.9h5.68v-4.9h1.46V49.89H99.29Z"/><path class="cls-5" d="M103.21,38.82h1.57L108.87,48l4.1-9.15h1.55V49.89h-1.45V41.63l-3.68,8.26h-1l-3.7-8.27v8.27h-1.45Z"/><path class="cls-5" d="M123.58,47.41h-4.87l-.89,2.48h-1.54l4-11.09H122l4,11.09h-1.54Zm-2.43-6.82-2,5.64h4Z"/><path class="cls-5" d="M136.54,38.72V49.89h-1.46L129.22,41v8.88h-1.45V38.72h1.45l5.86,8.87V38.72Z"/><path class="cls-5" d="M149.88,47.41H145l-.89,2.48h-1.54l4-11.09h1.68l4,11.09h-1.53Zm-2.43-6.82-2,5.64h4Z"/><path class="cls-5" d="M157.67,45.24h-2.14v4.65h-1.46V38.74h3.6c2.63,0,3.86,1.44,3.86,3.26S160.44,45.24,157.67,45.24Zm0-1.21c1.67,0,2.37-.78,2.37-2s-.7-2.06-2.37-2.06h-2.14V44Z"/><path class="cls-5" d="M166.94,45.24h-2.15v4.65h-1.45V38.74h3.6c2.62,0,3.85,1.44,3.85,3.26S169.71,45.24,166.94,45.24Zm0-1.21c1.66,0,2.37-.78,2.37-2s-.71-2.06-2.37-2.06h-2.15V44Z"/><path class="cls-5" d="M174.06,38.74v10H178v1.18H172.6V38.74Z"/><path class="cls-5" d="M179.51,38.74H181V49.89h-1.46Z"/><path class="cls-5" d="M188.47,38.59A5.25,5.25,0,0,1,193.64,42H191.9a3.52,3.52,0,0,0-3.43-2.1c-2.33,0-4.08,1.7-4.08,4.44s1.75,4.41,4.08,4.41a3.52,3.52,0,0,0,3.43-2.08h1.74A5.24,5.24,0,0,1,188.47,50a5.7,5.7,0,0,1,0-11.4Z"/><path class="cls-5" d="M202.39,47.41h-4.86l-.9,2.48h-1.54l4-11.09h1.68l4,11.09h-1.54ZM200,40.59l-2,5.64h4Z"/><path class="cls-5" d="M205.89,38.74h7.56v1.18h-3v10H209v-10h-3.06Z"/><path class="cls-5" d="M215.24,38.74h1.45V49.89h-1.45Z"/><path class="cls-5" d="M224.23,50a5.7,5.7,0,1,1,5.6-5.7A5.5,5.5,0,0,1,224.23,50Zm0-1.27a4.08,4.08,0,0,0,4.12-4.43c0-2.74-1.77-4.44-4.12-4.44s-4.11,1.7-4.11,4.44S221.88,48.74,224.23,48.74Z"/><path class="cls-5" d="M240.52,38.72V49.89h-1.46L233.21,41v8.88h-1.46V38.72h1.46l5.85,8.87V38.72Z"/></g></g></svg>