<svg xmlns="http://www.w3.org/2000/svg" viewBox="0 0 357.75 87.58"><g id="Layer_2" data-name="Layer 2"><g id="Layer_1-2" data-name="Layer 1"><polygon points="0 15.17 12.39 15.17 12.39 3 136.5 3 163.67 15.5 357.75 15.5 357.75 12.75 180.65 12.75 153.88 0 0 0 0 15.17" style="fill:#b22126"/><polygon points="18.49 8.17 18.49 79.92 202.66 79.92 230.21 67.58 350.22 67.58 350.22 20.75 163.19 20.75 134.98 8.17 18.49 8.17" style="fill:none;stroke:#fff;stroke-miterlimit:10;stroke-width:2.5px"/><polygon points="18.49 8.17 18.49 79.92 202.66 79.92 230.21 67.58 350.22 67.58 350.22 20.75 163.19 20.75 134.98 8.17 18.49 8.17" style="fill:#231f20;stroke:#fff;stroke-miterlimit:10;stroke-width:2.5px;opacity:0.6000000000000001"/><polyline points="1 86.33 203.9 86.33 234.02 86.33 257.61 74.46 357.75 74.46 227.49 74.46 203.9 86.33" style="fill:#b22126;stroke:#b22126;stroke-miterlimit:10;stroke-width:2.5px"/><polygon points="37.42 44.04 47.33 44.04 41.17 34.92 37.42 34.92 37.42 44.04" style="fill:#fff"/><polygon points="37.42 44.04 47.33 44.04 41.17 53.17 37.42 53.17 37.42 44.04" style="fill:#fff"/><path d="M59.76,38.74h6.31v1.18H61.22v3.76h3.93v1.19H61.22v5H59.76Z" style="fill:#fff"/><path d="M67.82,38.74h1.46V49.89H67.82Z" style="fill:#fff"/><path d="M75.36,38.74c2.63,0,3.88,1.45,3.88,3.28a3.16,3.16,0,0,1-2.66,3.2l2.8,4.67H77.63L75,45.33H73.22v4.56H71.76V38.74Zm0,1.2H73.22v4.22h2.14c1.65,0,2.37-.89,2.37-2.14S77,39.94,75.36,39.94Z" style="fill:#fff"/><path d="M85,50c-2.25,0-3.83-1.25-3.86-3.09h1.55A2.07,2.07,0,0,0,85,48.77c1.4,0,2.24-.8,2.24-1.85,0-3-6-1.09-6-5.24,0-1.84,1.49-3.09,3.7-3.09s3.52,1.17,3.7,2.87H87a2,2,0,0,0-2.16-1.62c-1.21,0-2.15.59-2.15,1.79,0,2.89,6,1.09,6,5.22C88.74,48.44,87.44,50,85,50Z" style="fill:#fff"/><path d="M90.19,38.74h7.56v1.18h-3v10H93.25v-10H90.19Z" style="fill:#fff"/><path d="M99.23,43.41h6.39v1.23H99.23Z" style="fill:#fff"/><path d="M107.42,38.74H109l2.75,5.65,2.76-5.65h1.61l-3.63,6.94v4.21h-1.46V45.68Z" style="fill:#fff"/><path d="M123.7,39.92h-4.55v3.73h4.07v1.2h-4.07v3.84h4.55v1.2h-6V38.72h6Z" style="fill:#fff"/><path d="M132.5,47.41h-4.87l-.9,2.48H125.2l4-11.09h1.68l4,11.09h-1.54Zm-2.44-6.82-2,5.64h4Z" style="fill:#fff"/><path d="M140.29,38.74c2.62,0,3.87,1.45,3.87,3.28a3.15,3.15,0,0,1-2.65,3.2l2.8,4.67h-1.75l-2.66-4.56h-1.76v4.56h-1.45V38.74Zm0,1.2h-2.15v4.22h2.15c1.65,0,2.37-.89,2.37-2.14S142,39.94,140.29,39.94Z" style="fill:#fff"/><path d="M150.4,34.82h1.46l-4.39,17.79H146Z" style="fill:#fff"/><path d="M153.34,38.74h7.56v1.18h-3v10H156.4v-10h-3.06Z" style="fill:#fff"/><path d="M166.29,38.74c2.62,0,3.87,1.45,3.87,3.28a3.15,3.15,0,0,1-2.65,3.2l2.8,4.67h-1.75l-2.66-4.56h-1.76v4.56h-1.45V38.74Zm0,1.2h-2.15v4.22h2.15c1.65,0,2.37-.89,2.37-2.14S168,39.94,166.29,39.94Z" style="fill:#fff"/><path d="M179,47.41h-4.87l-.89,2.48h-1.54l4-11.09h1.68l4,11.09h-1.53Zm-2.43-6.82-2,5.64h4Z" style="fill:#fff"/><path d="M192,38.72V49.89h-1.46L184.66,41v8.88H183.2V38.72h1.46l5.85,8.87V38.72Z" style="fill:#fff"/><path d="M198,50c-2.24,0-3.82-1.25-3.85-3.09h1.55a2.06,2.06,0,0,0,2.3,1.85c1.41,0,2.24-.8,2.24-1.85,0-3-6-1.09-6-5.24,0-1.84,1.49-3.09,3.7-3.09s3.52,1.17,3.69,2.87H200a2,2,0,0,0-2.16-1.62c-1.2,0-2.14.59-2.14,1.79,0,2.89,6,1.09,6,5.22C201.7,48.44,200.4,50,198,50Z" style="fill:#fff"/><path d="M203.84,38.74h6.3v1.18h-4.85v3.76h3.94v1.19h-3.94v5h-1.45Z" style="fill:#fff"/><path d="M217.9,39.92h-4.54v3.73h4.06v1.2h-4.06v3.84h4.54v1.2h-6V38.72h6Z" style="fill:#fff"/><path d="M223.71,38.74c2.63,0,3.88,1.45,3.88,3.28a3.16,3.16,0,0,1-2.66,3.2l2.8,4.67H226l-2.65-4.56h-1.76v4.56h-1.46V38.74Zm0,1.2h-2.14v4.22h2.14c1.65,0,2.37-.89,2.37-2.14S225.38,39.94,223.71,39.94Z" style="fill:#fff"/><path d="M240.7,47.41h-4.86l-.9,2.48H233.4l4-11.09h1.68l4,11.09H241.6Zm-2.43-6.82-2,5.64h4Z" style="fill:#fff"/><path d="M248.49,45.24h-2.14v4.65h-1.46V38.74h3.6c2.63,0,3.86,1.44,3.86,3.26S251.26,45.24,248.49,45.24Zm0-1.21c1.67,0,2.37-.78,2.37-2s-.7-2.06-2.37-2.06h-2.14V44Z" style="fill:#fff"/><path d="M257.76,45.24h-2.15v4.65h-1.45V38.74h3.6c2.62,0,3.86,1.44,3.86,3.26S260.53,45.24,257.76,45.24Zm0-1.21c1.66,0,2.37-.78,2.37-2s-.71-2.06-2.37-2.06h-2.15V44Z" style="fill:#fff"/><path d="M264.88,38.74v10h3.9v1.18h-5.36V38.74Z" style="fill:#fff"/><path d="M270.33,38.74h1.46V49.89h-1.46Z" style="fill:#fff"/><path d="M279.3,38.59A5.27,5.27,0,0,1,284.47,42h-1.75a3.52,3.52,0,0,0-3.42-2.1c-2.34,0-4.09,1.7-4.09,4.44s1.75,4.41,4.09,4.41a3.51,3.51,0,0,0,3.42-2.08h1.75A5.26,5.26,0,0,1,279.3,50a5.7,5.7,0,0,1,0-11.4Z" style="fill:#fff"/><path d="M293.22,47.41h-4.87l-.9,2.48h-1.53l4-11.09h1.68l4,11.09h-1.54Zm-2.44-6.82-2,5.64h4Z" style="fill:#fff"/><path d="M296.72,38.74h7.55v1.18h-3v10h-1.46v-10h-3Z" style="fill:#fff"/><path d="M306.06,38.74h1.46V49.89h-1.46Z" style="fill:#fff"/><path d="M315.05,50a5.7,5.7,0,1,1,5.61-5.7A5.51,5.51,0,0,1,315.05,50Zm0-1.27c2.36,0,4.12-1.71,4.12-4.43s-1.76-4.44-4.12-4.44-4.11,1.7-4.11,4.44S312.7,48.74,315.05,48.74Z" style="fill:#fff"/><path d="M331.34,38.72V49.89h-1.45L324,41v8.88h-1.46V38.72H324l5.86,8.87V38.72Z" style="fill:#fff"/></g></g></svg>