<svg xmlns="http://www.w3.org/2000/svg" viewBox="0 0 312.75 87.58"><defs><style>.cls-1,.cls-4{fill:#b22126;}.cls-2{fill:none;}.cls-2,.cls-3{stroke:#fff;}.cls-2,.cls-3,.cls-4{stroke-miterlimit:10;stroke-width:2.5px;}.cls-3{fill:#231f20;opacity:0.6;}.cls-4{stroke:#b22126;}.cls-5,.cls-6{fill:#fff;}.cls-6{font-size:16px;font-family:Poppins-Regular, Poppins;}</style></defs><g id="Layer_2" data-name="Layer 2"><g id="Layer_1-2" data-name="Layer 1"><polygon class="cls-1" points="312.75 15.17 301.92 15.17 301.92 3 193.42 3 169.67 15.5 0 15.5 0 12.75 154.82 12.75 178.22 0 312.75 0 312.75 15.17"/><polygon class="cls-2" points="296.58 8.17 296.58 79.92 135.58 79.92 111.5 67.58 6.58 67.58 6.58 20.75 170.08 20.75 194.75 8.17 296.58 8.17"/><polygon class="cls-3" points="296.58 8.17 296.58 79.92 135.58 79.92 111.5 67.58 6.58 67.58 6.58 20.75 170.08 20.75 194.75 8.17 296.58 8.17"/><polyline class="cls-4" points="311.88 86.33 134.5 86.33 108.17 86.33 87.54 74.46 0 74.46 113.88 74.46 134.5 86.33"/><polygon class="cls-5" points="275.33 44.04 265.42 44.04 271.58 34.92 275.33 34.92 275.33 44.04"/><polygon class="cls-5" points="275.33 44.04 265.42 44.04 271.58 53.17 275.33 53.17 275.33 44.04"/><text class="cls-6" transform="translate(18.14 49.89)">NON-FRESHMAN APPLICATION</text></g></g></svg>