<svg xmlns="http://www.w3.org/2000/svg" viewBox="0 0 352.96 87.58"><g id="Layer_2" data-name="Layer 2"><g id="Layer_1-2" data-name="Layer 1"><polygon points="352.96 15.17 340.73 15.17 340.73 3 218.28 3 191.48 15.5 0 15.5 0 12.75 174.72 12.75 201.13 0 352.96 0 352.96 15.17" style="fill:#b22126"/><polygon points="334.71 8.17 334.71 79.92 153.01 79.92 125.83 67.58 7.43 67.58 7.43 20.75 191.95 20.75 219.79 8.17 334.71 8.17" style="fill:none;stroke:#fff;stroke-miterlimit:10;stroke-width:2.5px"/><polygon points="334.71 8.17 334.71 79.92 153.01 79.92 125.83 67.58 7.43 67.58 7.43 20.75 191.95 20.75 219.79 8.17 334.71 8.17" style="fill:#231f20;stroke:#fff;stroke-miterlimit:10;stroke-width:2.5px;opacity:0.6000000000000001"/><polyline points="351.97 86.33 151.79 86.33 122.07 86.33 98.8 74.46 0 74.46 128.51 74.46 151.79 86.33" style="fill:#b22126;stroke:#b22126;stroke-miterlimit:10;stroke-width:2.5px"/><polygon points="316.38 44.04 305.28 44.04 312.18 34.92 316.38 34.92 316.38 44.04" style="fill:#fff"/><polygon points="316.38 44.04 305.28 44.04 312.18 53.17 316.38 53.17 316.38 44.04" style="fill:#fff"/><path d="M26.34,38.74h1.45V45.8c0,2,1.11,2.92,2.76,2.92s2.73-.88,2.73-2.92V38.74h1.46v7A3.91,3.91,0,0,1,30.53,50a3.89,3.89,0,0,1-4.19-4.23Z" style="fill:#fff"/><path d="M40.77,45.24H38.62v4.65H37.17V38.74h3.6c2.62,0,3.86,1.44,3.86,3.26S43.54,45.24,40.77,45.24Zm0-1.21c1.66,0,2.37-.78,2.37-2s-.71-2.06-2.37-2.06H38.62V44Z" style="fill:#fff"/><path d="M50,45.24H47.89v4.65H46.43V38.74H50c2.63,0,3.86,1.44,3.86,3.26S52.8,45.24,50,45.24ZM50,44c1.67,0,2.37-.78,2.37-2s-.7-2.06-2.37-2.06H47.89V44Z" style="fill:#fff"/><path d="M61.7,39.92H57.15v3.73h4.07v1.2H57.15v3.84H61.7v1.2h-6V38.72h6Z" style="fill:#fff"/><path d="M67.5,38.74c2.63,0,3.88,1.45,3.88,3.28a3.16,3.16,0,0,1-2.66,3.2l2.8,4.67H69.78l-2.66-4.56H65.36v4.56H63.9V38.74Zm0,1.2H65.36v4.22H67.5c1.65,0,2.37-.89,2.37-2.14S69.17,39.94,67.5,39.94Z" style="fill:#fff"/><path d="M78.66,38.59A5.27,5.27,0,0,1,83.83,42H82.08a3.52,3.52,0,0,0-3.42-2.1c-2.34,0-4.09,1.7-4.09,4.44s1.75,4.41,4.09,4.41a3.51,3.51,0,0,0,3.42-2.08h1.75A5.26,5.26,0,0,1,78.66,50a5.7,5.7,0,0,1,0-11.4Z" style="fill:#fff"/><path d="M87.44,38.74v10h3.91v1.18H86V38.74Z" style="fill:#fff"/><path d="M99.49,47.41H94.62l-.89,2.48H92.19l4-11.09H97.9l4,11.09h-1.53Zm-2.43-6.82-2,5.64h4Z" style="fill:#fff"/><path d="M107.22,50c-2.24,0-3.83-1.25-3.86-3.09h1.55a2.07,2.07,0,0,0,2.31,1.85c1.4,0,2.24-.8,2.24-1.85,0-3-6-1.09-6-5.24,0-1.84,1.49-3.09,3.7-3.09s3.52,1.17,3.7,2.87h-1.6a2,2,0,0,0-2.16-1.62c-1.2,0-2.15.59-2.15,1.79,0,2.88,6,1.09,6,5.22C110.93,48.44,109.63,50,107.22,50Z" style="fill:#fff"/><path d="M116.61,50c-2.24,0-3.83-1.25-3.86-3.09h1.55a2.08,2.08,0,0,0,2.31,1.85c1.41,0,2.24-.8,2.24-1.85,0-3-6-1.09-6-5.24,0-1.84,1.49-3.09,3.7-3.09s3.52,1.17,3.7,2.87h-1.6a2,2,0,0,0-2.16-1.62c-1.2,0-2.15.59-2.15,1.79,0,2.88,6,1.09,6,5.22C120.32,48.44,119,50,116.61,50Z" style="fill:#fff"/><path d="M133.33,47.41h-4.87l-.89,2.48H126l4-11.09h1.68l4,11.09h-1.53Zm-2.43-6.82-2,5.64h4Z" style="fill:#fff"/><path d="M141.12,45.24H139v4.65h-1.46V38.74h3.6c2.62,0,3.86,1.44,3.86,3.26S143.89,45.24,141.12,45.24Zm0-1.21c1.66,0,2.37-.78,2.37-2s-.71-2.06-2.37-2.06H139V44Z" style="fill:#fff"/><path d="M150.38,45.24h-2.14v4.65h-1.46V38.74h3.6c2.63,0,3.86,1.44,3.86,3.26S153.15,45.24,150.38,45.24Zm0-1.21c1.67,0,2.37-.78,2.37-2s-.7-2.06-2.37-2.06h-2.14V44Z" style="fill:#fff"/><path d="M157.5,38.74v10h3.91v1.18h-5.36V38.74Z" style="fill:#fff"/><path d="M163,38.74h1.45V49.89H163Z" style="fill:#fff"/><path d="M171.92,38.59A5.25,5.25,0,0,1,177.09,42h-1.74a3.53,3.53,0,0,0-3.43-2.1c-2.34,0-4.08,1.7-4.08,4.44s1.74,4.41,4.08,4.41a3.53,3.53,0,0,0,3.43-2.08h1.74A5.24,5.24,0,0,1,171.92,50a5.7,5.7,0,0,1,0-11.4Z" style="fill:#fff"/><path d="M185.84,47.41H181l-.89,2.48h-1.54l4-11.09h1.69l4,11.09h-1.53Zm-2.43-6.82-2,5.64h4Z" style="fill:#fff"/><path d="M189.34,38.74h7.56v1.18h-3.05v10H192.4v-10h-3.06Z" style="fill:#fff"/><path d="M198.69,38.74h1.45V49.89h-1.45Z" style="fill:#fff"/><path d="M207.68,50a5.7,5.7,0,1,1,5.6-5.7A5.5,5.5,0,0,1,207.68,50Zm0-1.27c2.35,0,4.11-1.71,4.11-4.43s-1.76-4.44-4.11-4.44-4.11,1.7-4.11,4.44S205.33,48.74,207.68,48.74Z" style="fill:#fff"/><path d="M224,38.72V49.89h-1.46L216.65,41v8.88H215.2V38.72h1.45l5.86,8.87V38.72Z" style="fill:#fff"/></g></g></svg>