<svg xmlns="http://www.w3.org/2000/svg" xmlns:xlink="http://www.w3.org/1999/xlink" viewBox="0 0 2000.25 1000.25"><defs><style>.cls-1{fill:#262626;}.cls-2{opacity:0.5;}.cls-3{fill:none;stroke:#fff;stroke-miterlimit:10;stroke-width:0.25px;}.cls-4{fill:url(#radial-gradient);}</style><radialGradient id="radial-gradient" cx="960.12" cy="540.12" r="1015.31" gradientTransform="translate(-0.01 0.01) scale(1.04 0.93)" gradientUnits="userSpaceOnUse"><stop offset="0" stop-color="#0d0d0d" stop-opacity="0.2"/><stop offset="1"/></radialGradient></defs><title>blueprint</title><g id="Layer_2" data-name="Layer 2"><g id="Layer_1-2" data-name="Layer 1"><g id="Background"><rect class="cls-1" x="0.13" y="0.13" width="2000" height="1000"/><g id="Grid" class="cls-2"><rect class="cls-3" x="0.13" y="0.13" width="2000" height="1000"/><line class="cls-3" x1="0.13" y1="19.73" x2="2000.13" y2="19.73"/><line class="cls-3" x1="0.13" y1="39.34" x2="2000.13" y2="39.34"/><line class="cls-3" x1="0.13" y1="58.95" x2="2000.13" y2="58.95"/><line class="cls-3" x1="0.13" y1="78.56" x2="2000.13" y2="78.56"/><line class="cls-3" x1="0.13" y1="98.16" x2="2000.13" y2="98.16"/><line class="cls-3" x1="0.13" y1="117.77" x2="2000.13" y2="117.77"/><line class="cls-3" x1="0.13" y1="137.38" x2="2000.13" y2="137.38"/><line class="cls-3" x1="0.13" y1="156.99" x2="2000.13" y2="156.99"/><line class="cls-3" x1="0.13" y1="176.6" x2="2000.13" y2="176.6"/><line class="cls-3" x1="0.13" y1="196.2" x2="2000.13" y2="196.2"/><line class="cls-3" x1="0.13" y1="215.81" x2="2000.13" y2="215.81"/><line class="cls-3" x1="0.13" y1="235.42" x2="2000.13" y2="235.42"/><line class="cls-3" x1="0.13" y1="255.03" x2="2000.13" y2="255.03"/><line class="cls-3" x1="0.13" y1="274.63" x2="2000.13" y2="274.63"/><line class="cls-3" x1="0.13" y1="294.24" x2="2000.13" y2="294.24"/><line class="cls-3" x1="0.13" y1="313.85" x2="2000.13" y2="313.85"/><line class="cls-3" x1="0.13" y1="333.46" x2="2000.13" y2="333.46"/><line class="cls-3" x1="0.13" y1="353.07" x2="2000.13" y2="353.07"/><line class="cls-3" x1="0.13" y1="372.67" x2="2000.13" y2="372.67"/><line class="cls-3" x1="0.13" y1="392.28" x2="2000.13" y2="392.28"/><line class="cls-3" x1="0.13" y1="411.89" x2="2000.13" y2="411.89"/><line class="cls-3" x1="0.13" y1="431.5" x2="2000.13" y2="431.5"/><line class="cls-3" x1="0.13" y1="451.11" x2="2000.13" y2="451.11"/><line class="cls-3" x1="0.13" y1="470.71" x2="2000.13" y2="470.71"/><line class="cls-3" x1="0.13" y1="490.32" x2="2000.13" y2="490.32"/><line class="cls-3" x1="0.13" y1="509.93" x2="2000.13" y2="509.93"/><line class="cls-3" x1="0.13" y1="529.54" x2="2000.13" y2="529.54"/><line class="cls-3" x1="0.13" y1="549.14" x2="2000.13" y2="549.14"/><line class="cls-3" x1="0.13" y1="568.75" x2="2000.13" y2="568.75"/><line class="cls-3" x1="0.13" y1="588.36" x2="2000.13" y2="588.36"/><line class="cls-3" x1="0.13" y1="607.97" x2="2000.13" y2="607.97"/><line class="cls-3" x1="0.13" y1="627.58" x2="2000.13" y2="627.58"/><line class="cls-3" x1="0.13" y1="647.18" x2="2000.13" y2="647.18"/><line class="cls-3" x1="0.13" y1="666.79" x2="2000.13" y2="666.79"/><line class="cls-3" x1="0.13" y1="686.4" x2="2000.13" y2="686.4"/><line class="cls-3" x1="0.13" y1="706.01" x2="2000.13" y2="706.01"/><line class="cls-3" x1="0.13" y1="725.62" x2="2000.13" y2="725.62"/><line class="cls-3" x1="0.13" y1="745.22" x2="2000.13" y2="745.22"/><line class="cls-3" x1="0.13" y1="764.83" x2="2000.13" y2="764.83"/><line class="cls-3" x1="0.13" y1="784.44" x2="2000.13" y2="784.44"/><line class="cls-3" x1="0.13" y1="804.05" x2="2000.13" y2="804.05"/><line class="cls-3" x1="0.13" y1="823.65" x2="2000.13" y2="823.65"/><line class="cls-3" x1="0.13" y1="843.26" x2="2000.13" y2="843.26"/><line class="cls-3" x1="0.13" y1="862.87" x2="2000.13" y2="862.87"/><line class="cls-3" x1="0.13" y1="882.48" x2="2000.13" y2="882.48"/><line class="cls-3" x1="0.13" y1="902.09" x2="2000.13" y2="902.09"/><line class="cls-3" x1="0.13" y1="921.69" x2="2000.13" y2="921.69"/><line class="cls-3" x1="0.13" y1="941.3" x2="2000.13" y2="941.3"/><line class="cls-3" x1="0.13" y1="960.91" x2="2000.13" y2="960.91"/><line class="cls-3" x1="0.13" y1="980.52" x2="2000.13" y2="980.52"/><line class="cls-3" x1="1980.32" y1="1000.13" x2="1980.32" y2="0.13"/><line class="cls-3" x1="1960.52" y1="1000.13" x2="1960.52" y2="0.13"/><line class="cls-3" x1="1940.72" y1="1000.13" x2="1940.72" y2="0.13"/><line class="cls-3" x1="1920.92" y1="1000.13" x2="1920.92" y2="0.13"/><line class="cls-3" x1="1901.12" y1="1000.13" x2="1901.12" y2="0.13"/><line class="cls-3" x1="1881.31" y1="1000.13" x2="1881.31" y2="0.13"/><line class="cls-3" x1="1861.51" y1="1000.13" x2="1861.51" y2="0.13"/><line class="cls-3" x1="1841.71" y1="1000.13" x2="1841.71" y2="0.13"/><line class="cls-3" x1="1821.91" y1="1000.13" x2="1821.91" y2="0.13"/><line class="cls-3" x1="1802.11" y1="1000.13" x2="1802.11" y2="0.13"/><line class="cls-3" x1="1782.3" y1="1000.13" x2="1782.3" y2="0.13"/><line class="cls-3" x1="1762.5" y1="1000.13" x2="1762.5" y2="0.13"/><line class="cls-3" x1="1742.7" y1="1000.13" x2="1742.7" y2="0.13"/><line class="cls-3" x1="1722.9" y1="1000.13" x2="1722.9" y2="0.13"/><line class="cls-3" x1="1703.1" y1="1000.13" x2="1703.1" y2="0.13"/><line class="cls-3" x1="1683.29" y1="1000.13" x2="1683.29" y2="0.13"/><line class="cls-3" x1="1663.49" y1="1000.13" x2="1663.49" y2="0.13"/><line class="cls-3" x1="1643.69" y1="1000.13" x2="1643.69" y2="0.13"/><line class="cls-3" x1="1623.89" y1="1000.13" x2="1623.89" y2="0.13"/><line class="cls-3" x1="1604.09" y1="1000.13" x2="1604.09" y2="0.13"/><line class="cls-3" x1="1584.28" y1="1000.13" x2="1584.28" y2="0.13"/><line class="cls-3" x1="1564.48" y1="1000.13" x2="1564.48" y2="0.13"/><line class="cls-3" x1="1544.68" y1="1000.13" x2="1544.68" y2="0.13"/><line class="cls-3" x1="1524.88" y1="1000.13" x2="1524.88" y2="0.13"/><line class="cls-3" x1="1505.08" y1="1000.13" x2="1505.08" y2="0.13"/><line class="cls-3" x1="1485.27" y1="1000.13" x2="1485.27" y2="0.13"/><line class="cls-3" x1="1465.47" y1="1000.13" x2="1465.47" y2="0.13"/><line class="cls-3" x1="1445.67" y1="1000.13" x2="1445.67" y2="0.13"/><line class="cls-3" x1="1425.87" y1="1000.13" x2="1425.87" y2="0.13"/><line class="cls-3" x1="1406.07" y1="1000.13" x2="1406.07" y2="0.13"/><line class="cls-3" x1="1386.26" y1="1000.13" x2="1386.26" y2="0.13"/><line class="cls-3" x1="1366.46" y1="1000.13" x2="1366.46" y2="0.13"/><line class="cls-3" x1="1346.66" y1="1000.13" x2="1346.66" y2="0.13"/><line class="cls-3" x1="1326.86" y1="1000.13" x2="1326.86" y2="0.13"/><line class="cls-3" x1="1307.06" y1="1000.13" x2="1307.06" y2="0.13"/><line class="cls-3" x1="1287.25" y1="1000.13" x2="1287.25" y2="0.13"/><line class="cls-3" x1="1267.45" y1="1000.13" x2="1267.45" y2="0.13"/><line class="cls-3" x1="1247.65" y1="1000.13" x2="1247.65" y2="0.13"/><line class="cls-3" x1="1227.85" y1="1000.13" x2="1227.85" y2="0.13"/><line class="cls-3" x1="1208.05" y1="1000.13" x2="1208.05" y2="0.13"/><line class="cls-3" x1="1188.24" y1="1000.13" x2="1188.24" y2="0.13"/><line class="cls-3" x1="1168.44" y1="1000.13" x2="1168.44" y2="0.13"/><line class="cls-3" x1="1148.64" y1="1000.13" x2="1148.64" y2="0.13"/><line class="cls-3" x1="1128.84" y1="1000.13" x2="1128.84" y2="0.13"/><line class="cls-3" x1="1109.04" y1="1000.13" x2="1109.04" y2="0.13"/><line class="cls-3" x1="1089.23" y1="1000.13" x2="1089.23" y2="0.13"/><line class="cls-3" x1="1069.43" y1="1000.13" x2="1069.43" y2="0.13"/><line class="cls-3" x1="1049.63" y1="1000.13" x2="1049.63" y2="0.13"/><line class="cls-3" x1="1029.83" y1="1000.13" x2="1029.83" y2="0.13"/><line class="cls-3" x1="1010.03" y1="1000.13" x2="1010.03" y2="0.13"/><line class="cls-3" x1="990.22" y1="1000.13" x2="990.22" y2="0.13"/><line class="cls-3" x1="970.42" y1="1000.13" x2="970.42" y2="0.13"/><line class="cls-3" x1="950.62" y1="1000.13" x2="950.62" y2="0.13"/><line class="cls-3" x1="930.82" y1="1000.13" x2="930.82" y2="0.13"/><line class="cls-3" x1="911.02" y1="1000.13" x2="911.02" y2="0.13"/><line class="cls-3" x1="891.21" y1="1000.13" x2="891.21" y2="0.13"/><line class="cls-3" x1="871.41" y1="1000.13" x2="871.41" y2="0.13"/><line class="cls-3" x1="851.61" y1="1000.13" x2="851.61" y2="0.13"/><line class="cls-3" x1="831.81" y1="1000.13" x2="831.81" y2="0.13"/><line class="cls-3" x1="812.01" y1="1000.13" x2="812.01" y2="0.13"/><line class="cls-3" x1="792.2" y1="1000.13" x2="792.2" y2="0.13"/><line class="cls-3" x1="772.4" y1="1000.13" x2="772.4" y2="0.13"/><line class="cls-3" x1="752.6" y1="1000.13" x2="752.6" y2="0.13"/><line class="cls-3" x1="732.8" y1="1000.13" x2="732.8" y2="0.13"/><line class="cls-3" x1="713" y1="1000.13" x2="713" y2="0.13"/><line class="cls-3" x1="693.19" y1="1000.13" x2="693.19" y2="0.13"/><line class="cls-3" x1="673.39" y1="1000.13" x2="673.39" y2="0.13"/><line class="cls-3" x1="653.59" y1="1000.13" x2="653.59" y2="0.13"/><line class="cls-3" x1="633.79" y1="1000.13" x2="633.79" y2="0.13"/><line class="cls-3" x1="613.99" y1="1000.13" x2="613.99" y2="0.13"/><line class="cls-3" x1="594.18" y1="1000.13" x2="594.18" y2="0.13"/><line class="cls-3" x1="574.38" y1="1000.13" x2="574.38" y2="0.13"/><line class="cls-3" x1="554.58" y1="1000.13" x2="554.58" y2="0.13"/><line class="cls-3" x1="534.78" y1="1000.13" x2="534.78" y2="0.13"/><line class="cls-3" x1="514.98" y1="1000.13" x2="514.98" y2="0.13"/><line class="cls-3" x1="495.17" y1="1000.13" x2="495.17" y2="0.13"/><line class="cls-3" x1="475.37" y1="1000.13" x2="475.37" y2="0.13"/><line class="cls-3" x1="455.57" y1="1000.13" x2="455.57" y2="0.13"/><line class="cls-3" x1="435.77" y1="1000.13" x2="435.77" y2="0.13"/><line class="cls-3" x1="415.97" y1="1000.13" x2="415.97" y2="0.13"/><line class="cls-3" x1="396.16" y1="1000.13" x2="396.16" y2="0.13"/><line class="cls-3" x1="376.36" y1="1000.13" x2="376.36" y2="0.13"/><line class="cls-3" x1="356.56" y1="1000.13" x2="356.56" y2="0.13"/><line class="cls-3" x1="336.76" y1="1000.13" x2="336.76" y2="0.13"/><line class="cls-3" x1="316.96" y1="1000.13" x2="316.96" y2="0.13"/><line class="cls-3" x1="297.15" y1="1000.13" x2="297.15" y2="0.13"/><line class="cls-3" x1="277.35" y1="1000.13" x2="277.35" y2="0.13"/><line class="cls-3" x1="257.55" y1="1000.13" x2="257.55" y2="0.13"/><line class="cls-3" x1="237.75" y1="1000.13" x2="237.75" y2="0.13"/><line class="cls-3" x1="217.95" y1="1000.13" x2="217.95" y2="0.13"/><line class="cls-3" x1="198.14" y1="1000.13" x2="198.14" y2="0.13"/><line class="cls-3" x1="178.34" y1="1000.13" x2="178.34" y2="0.13"/><line class="cls-3" x1="158.54" y1="1000.13" x2="158.54" y2="0.13"/><line class="cls-3" x1="138.74" y1="1000.13" x2="138.74" y2="0.13"/><line class="cls-3" x1="118.94" y1="1000.13" x2="118.94" y2="0.13"/><line class="cls-3" x1="99.13" y1="1000.13" x2="99.13" y2="0.13"/><line class="cls-3" x1="79.33" y1="1000.13" x2="79.33" y2="0.13"/><line class="cls-3" x1="59.53" y1="1000.13" x2="59.53" y2="0.13"/><line class="cls-3" x1="39.73" y1="1000.13" x2="39.73" y2="0.13"/><line class="cls-3" x1="19.93" y1="1000.13" x2="19.93" y2="0.13"/></g><rect class="cls-4" x="0.13" y="0.13" width="2000" height="1000"/></g></g></g></svg>