<svg xmlns="http://www.w3.org/2000/svg" viewBox="0 0 341 356"><defs><style>.cls-1,.cls-3,.cls-5{fill:none;}.cls-1,.cls-3,.cls-4,.cls-5{stroke:#fff;}.cls-1{stroke-miterlimit:10;}.cls-2{fill:#fff;}.cls-3,.cls-4,.cls-5{stroke-linecap:round;stroke-linejoin:round;}.cls-3{opacity:0;}.cls-4{fill:#262626;}.cls-4,.cls-5{stroke-width:0.75px;}</style></defs><title>newpropulsion xs</title><g id="Layer_2" data-name="Layer 2"><g id="Layer_1-2" data-name="Layer 1"><g id="Rocket"><g id="Propulsion"><polyline class="cls-1" points="188.5 313 224.19 349.5 336.5 349.5"/><path class="cls-2" d="M231.83,342.81h-2.41v5.24h-1.64V335.5h4.05c3,0,4.34,1.62,4.34,3.67S235,342.81,231.83,342.81Zm0-1.35c1.88,0,2.67-.88,2.67-2.29s-.79-2.32-2.67-2.32h-2.41v4.61Z"/><path class="cls-2" d="M242.26,335.5c3,0,4.35,1.64,4.35,3.69a3.54,3.54,0,0,1-3,3.6l3.15,5.26h-2l-3-5.13h-2v5.13H238.2V335.5Zm0,1.35h-2.42v4.75h2.42c1.85,0,2.66-1,2.66-2.41S244.13,336.85,242.26,336.85Z"/><path class="cls-2" d="M254.84,348.17a6.41,6.41,0,1,1,6.3-6.41A6.18,6.18,0,0,1,254.84,348.17Zm0-1.42c2.64,0,4.62-1.92,4.62-5s-2-5-4.62-5-4.63,1.91-4.63,5S252.19,346.75,254.84,346.75Z"/><path class="cls-2" d="M267.35,342.81h-2.42v5.24H263.3V335.5h4.05c2.95,0,4.34,1.62,4.34,3.67S270.46,342.81,267.35,342.81Zm0-1.35c1.87,0,2.66-.88,2.66-2.29s-.79-2.32-2.66-2.32h-2.42v4.61Z"/><path class="cls-2" d="M273.68,335.5h1.64v7.94c0,2.3,1.24,3.29,3.1,3.29s3.07-1,3.07-3.29V335.5h1.64v7.92a4.73,4.73,0,1,1-9.45,0Z"/><path class="cls-2" d="M287.51,335.5v11.21h4.39v1.34h-6V335.5Z"/><path class="cls-2" d="M297.62,348.17c-2.52,0-4.3-1.4-4.34-3.47H295a2.33,2.33,0,0,0,2.59,2.09c1.59,0,2.52-.9,2.52-2.09,0-3.39-6.79-1.23-6.79-5.89,0-2.07,1.68-3.47,4.16-3.47s4,1.31,4.16,3.22h-1.8a2.27,2.27,0,0,0-2.43-1.82c-1.35,0-2.41.67-2.41,2,0,3.24,6.77,1.22,6.77,5.87C301.8,346.41,300.34,348.17,297.62,348.17Z"/><path class="cls-2" d="M304.21,335.5h1.64v12.55h-1.64Z"/><path class="cls-2" d="M314.33,348.17a6.41,6.41,0,1,1,6.3-6.41A6.19,6.19,0,0,1,314.33,348.17Zm0-1.42c2.64,0,4.62-1.92,4.62-5s-2-5-4.62-5-4.63,1.91-4.63,5S311.68,346.75,314.33,346.75Z"/><path class="cls-2" d="M332.65,335.48v12.57H331l-6.59-10v10h-1.63V335.48h1.63l6.59,10v-10Z"/><rect id="Propulsion_Border_Box" data-name="Propulsion Border Box" class="cls-3" x="0.5" y="0.5" width="340" height="355"/><polyline class="cls-4" points="134.99 261.78 134.99 242.93 152.36 238.31 188.56 238.31 205.92 242.93 205.92 261.78"/><path id="_Path_" data-name="&lt;Path&gt;" class="cls-4" d="M152.52,248V222c0,2.42,8.07,4.28,18,4.28s18-2,18-4.39V349c0,3.35-8.07,6.07-18,6.07s-18-2.72-18-6.07V248Z"/><path class="cls-4" d="M188.55,227.14c0,2.45-8.07,4.44-18,4.44s-18-2-18-4.44"/><path class="cls-4" d="M156.48,343.79c-2.48-1-4-2.31-4-3.72"/><path class="cls-4" d="M183.26,344.28a47.73,47.73,0,0,1-25.36,0"/><path class="cls-4" d="M188.56,340.07c0,1.38-1.43,2.65-3.83,3.66"/><ellipse class="cls-4" cx="170.54" cy="312.62" rx="0.82" ry="0.7"/><ellipse class="cls-4" cx="170.53" cy="318.47" rx="0.82" ry="0.7"/><ellipse class="cls-4" cx="157.36" cy="349.03" rx="1.06" ry="1.5"/><ellipse class="cls-4" cx="183.8" cy="349.03" rx="1.06" ry="1.5"/><ellipse class="cls-4" cx="157.37" cy="343" rx="1.05" ry="1.51"/><ellipse class="cls-4" cx="183.82" cy="343" rx="1.05" ry="1.51"/><ellipse class="cls-4" cx="159.94" cy="288.09" rx="0.83" ry="1.05"/><ellipse class="cls-4" cx="181.06" cy="288.09" rx="0.83" ry="1.05"/><ellipse class="cls-4" cx="159.94" cy="269.63" rx="0.83" ry="1.05"/><ellipse class="cls-4" cx="181.06" cy="269.63" rx="0.83" ry="1.05"/><ellipse class="cls-4" cx="159.94" cy="251.09" rx="0.83" ry="1.05"/><ellipse class="cls-4" cx="181.06" cy="251.09" rx="0.83" ry="1.05"/><polygon class="cls-4" points="157.72 243.96 157.72 293.4 132.72 287.94 132.72 263.57 157.72 243.96"/><polygon class="cls-4" points="183.22 243.96 183.22 293.4 208.21 287.94 208.21 263.57 183.22 243.96"/><path class="cls-4" d="M152.52,221.89V.49c0,.9,8.07,1.63,18,1.63s18-.73,18-1.63v221.4"/><ellipse class="cls-5" cx="157.39" cy="166.59" rx="1.07" ry="1.4"/><ellipse class="cls-5" cx="183.7" cy="166.59" rx="1.07" ry="1.4"/><ellipse class="cls-5" cx="157.39" cy="160.53" rx="1.07" ry="1.4"/><ellipse class="cls-5" cx="183.7" cy="160.53" rx="1.07" ry="1.4"/><circle class="cls-5" cx="170.54" cy="70.46" r="0.77"/><circle class="cls-5" cx="170.53" cy="76.34" r="0.77"/><path id="Bottom_Curve" data-name="Bottom Curve" class="cls-4" d="M152.52,222c0,2.42,8.07,4.28,18,4.28s18-2,18-4.39"/></g></g></g></g></svg>