<svg xmlns="http://www.w3.org/2000/svg" viewBox="0 0 341 547"><defs><style>.cls-1{fill:#262626;}.cls-1,.cls-2,.cls-5,.cls-6{stroke:#fff;}.cls-1,.cls-2,.cls-6{stroke-linecap:round;stroke-linejoin:round;}.cls-1,.cls-2{stroke-width:0.75px;}.cls-2,.cls-3,.cls-5,.cls-6{fill:none;}.cls-4{fill:#fff;}.cls-5{stroke-linecap:square;stroke-miterlimit:10;}.cls-6{opacity:0;}</style></defs><title>newstructures xs</title><g id="Layer_2" data-name="Layer 2"><g id="Layer_1-2" data-name="Layer 1"><g id="Rocket"><g id="Structures"><path class="cls-1" d="M152.52,544.7V251.51h0s-.73-163.46,18-251.13h0c18.76,87.67,18,251.13,18,251.13V544.7c0,.84-8.07,1.51-18,1.51S152.52,545.54,152.52,544.7Z"/><line class="cls-2" x1="152.52" y1="429.24" x2="188.56" y2="429.24"/><ellipse class="cls-2" cx="157.45" cy="422.94" rx="0.74" ry="0.96"/><ellipse class="cls-2" cx="183.62" cy="422.94" rx="0.74" ry="0.96"/><ellipse class="cls-2" cx="157.45" cy="354.43" rx="0.78" ry="0.98"/><ellipse class="cls-2" cx="183.62" cy="354.43" rx="0.78" ry="0.98"/><path class="cls-2" d="M152.52,244.87c0-1.45,8.07-2.61,18-2.61s18,1.16,18,2.61"/><path class="cls-2" d="M188.56,241.88c0-1.46-8.07-2.64-18-2.64s-18,1.18-18,2.64"/><path class="cls-2" d="M152.52,235.26c0-1.46,8.06-2.64,18-2.64s18,1.18,18,2.64"/><path class="cls-2" d="M188.43,229.22c0-1.45-8-2.63-17.9-2.63s-17.9,1.18-17.9,2.63"/><path class="cls-2" d="M152.74,222.67c0-1.51,8-2.73,17.81-2.73s17.81,1.22,17.81,2.73"/><path class="cls-2" d="M188.16,212c0-1.45-7.89-2.63-17.63-2.63s-17.64,1.18-17.64,2.63"/><path class="cls-2" d="M188,205.37c0-1.45-7.84-2.62-17.51-2.62s-17.5,1.17-17.5,2.62"/><circle class="cls-2" cx="170.55" cy="192.84" r="1.37"/><path class="cls-2" d="M188.56,417c0-.13-8.07-.23-18-.23s-18,.1-18,.23"/><path class="cls-2" d="M188.56,342.36c0-.3-1.93-.57-5.06-.77"/><path class="cls-2" d="M183.45,295.85c3.16.25,5.11.59,5.11,1"/><path class="cls-2" d="M183.45,250c3.16.38,5.11.91,5.11,1.5"/><path class="cls-3" d="M172.8,257.43s0,0,0,0l-.23-.35a5.17,5.17,0,0,0-.39-.53,3,3,0,0,0-.55-.51,3.28,3.28,0,0,0-.64-.35,3.84,3.84,0,0,0-.82-.23,3.75,3.75,0,0,0-.47-.05h-.5l-.49.06a6,6,0,0,0-1.87.7,7.72,7.72,0,0,0-1.37,1,10.14,10.14,0,0,0-1.54,1.67,11.46,11.46,0,0,0-.78,1.18,8.64,8.64,0,0,0-.81,2.08,6.42,6.42,0,0,0-.14.74,6.2,6.2,0,0,0-.06.62c0,.2,0,.4,0,.6s0,.22,0,.32,0,.28,0,.42a7,7,0,0,0,.14.69,5.09,5.09,0,0,0,.6,1.37,3.66,3.66,0,0,0,.92,1,3.35,3.35,0,0,0,1.17.57c.2.05.4.1.6.13l.48.05a4.71,4.71,0,0,0,.75,0l.46,0,.39,0,.45-.07.14,0h0l-.05,0a10.27,10.27,0,0,1-1.11.36c-.24.06-.48.11-.73.15L166,269l-.49.05-.28,0h-.51l-.43,0-.4,0a5.21,5.21,0,0,1-1.41-.35,4,4,0,0,1-.8-.46,4,4,0,0,1-1.22-1.41,4.63,4.63,0,0,1-.45-1.19,6.1,6.1,0,0,1-.14-.72,8.84,8.84,0,0,1,0-1.15c0-.21,0-.42.05-.64a10,10,0,0,1,.55-2.27,12.94,12.94,0,0,1,1.1-2.28l.26-.43a11.86,11.86,0,0,1,1.56-2,9.23,9.23,0,0,1,2.12-1.6,7.41,7.41,0,0,1,1.45-.61,6.43,6.43,0,0,1,.76-.17,5.21,5.21,0,0,1,.88-.06,3.91,3.91,0,0,1,.49,0,4.23,4.23,0,0,1,1.39.38,4.33,4.33,0,0,1,.69.41,3.6,3.6,0,0,1,.75.76,5.18,5.18,0,0,1,.72,1.3,5.32,5.32,0,0,1,.22.78Z"/><path class="cls-3" d="M181.3,265.28a.37.37,0,0,1,0,.18.59.59,0,0,1-.1.17,1.8,1.8,0,0,1-.19.2,3.28,3.28,0,0,1-.38.27,7.58,7.58,0,0,1-.74.4c-.41.19-.82.35-1.24.51s-1,.35-1.44.5l-.34.1-1.9.51-.93.25a.46.46,0,0,0-.23.12l-1.19,1.06-1,.83-.07.07a.28.28,0,0,1-.17.09l-.4.11a.17.17,0,0,1-.17,0,.2.2,0,0,1-.09-.13c0-.13-.07-.25-.1-.38l-.17-.62a.24.24,0,0,0-.17-.18h0l-.41-.05-.1,0a.19.19,0,0,1-.18-.15.5.5,0,0,1,0-.13c-.11-.43-.23-.86-.34-1.28a.23.23,0,0,1,0-.14.16.16,0,0,1,.07-.11l.37-.3.05,0a.27.27,0,0,0,.11-.2.13.13,0,0,0,0-.06c-.06-.24-.13-.48-.19-.72s-.06-.19-.08-.28a.29.29,0,0,1,0-.13.18.18,0,0,1,.14-.14l.2-.05.19,0a.42.42,0,0,1,.22,0l.29.07.69.13.69.15.69.14.56.11a.41.41,0,0,0,.19,0l.49-.12,1.74-.47.92-.25.32-.07.57-.1.55-.1.47-.07.39-.05.37,0,.18,0h1a2.82,2.82,0,0,1,.57.09l.19.08a.27.27,0,0,1,.12.09A.35.35,0,0,1,181.3,265.28Z"/><path class="cls-3" d="M171.22,262.7l0,.06.76,1.37.66,1.19s0,0,0,.05h0l-2-.45,0,0c-.17-.33-.34-.66-.52-1l-.51-1h-1.14s0,0,0,0v3h-1.57s0,0,0,0v-7.07a.38.38,0,0,1,0-.18.46.46,0,0,1,.38-.31h2.8a3.12,3.12,0,0,1,1.09.18,2.47,2.47,0,0,1,.91.59,2.19,2.19,0,0,1,.57,1.12,2.44,2.44,0,0,1,0,.66,2,2,0,0,1-.82,1.43,2.25,2.25,0,0,1-.59.32l-.05,0Zm-2.75-1h1.45a1.32,1.32,0,0,0,.28,0,1.14,1.14,0,0,0,.37-.11.91.91,0,0,0,.48-.52,1,1,0,0,0-.36-1.17,1.31,1.31,0,0,0-.37-.15,1.81,1.81,0,0,0-.4,0h-1.45C168.46,259.74,168.46,261.64,168.47,261.7Z"/><path class="cls-3" d="M177.48,259.69a.21.21,0,0,0,0,.08v4.63h-.09l-.77.17-.72.18v-5a.21.21,0,0,0,0-.08h-2s0,0,0-.05v-.78a.71.71,0,0,1,0-.14.49.49,0,0,1,.39-.34h5.34s.06,0,0,.08a0,0,0,0,1,0,0l-.54,1.12,0,0a.15.15,0,0,1-.09.06h-1.53Z"/><path class="cls-4" d="M232.32,206.34c-2.51,0-4.28-1.4-4.32-3.45h1.74a2.31,2.31,0,0,0,2.58,2.07c1.57,0,2.5-.89,2.5-2.07,0-3.37-6.75-1.22-6.75-5.86,0-2.05,1.67-3.45,4.14-3.45s3.94,1.31,4.14,3.2h-1.79a2.26,2.26,0,0,0-2.42-1.8c-1.34,0-2.4.66-2.4,2,0,3.22,6.73,1.22,6.73,5.83C236.47,204.59,235,206.34,232.32,206.34Z"/><path class="cls-4" d="M238.1,193.74h8.45v1.33h-3.4v11.14h-1.63V195.07H238.1Z"/><path class="cls-4" d="M252.58,193.74c2.94,0,4.33,1.63,4.33,3.67a3.52,3.52,0,0,1-3,3.58l3.14,5.22h-2l-3-5.1h-2v5.1h-1.63V193.74Zm0,1.34h-2.4v4.73h2.4c1.85,0,2.65-1,2.65-2.4S254.44,195.08,252.58,195.08Z"/><path class="cls-4" d="M259.4,193.74H261v7.89c0,2.29,1.24,3.28,3.08,3.28s3.06-1,3.06-3.28v-7.89h1.63v7.88a4.7,4.7,0,1,1-9.4,0Z"/><path class="cls-4" d="M277.14,193.58a5.88,5.88,0,0,1,5.79,3.78h-2a3.92,3.92,0,0,0-3.83-2.35c-2.61,0-4.56,1.9-4.56,5s1.95,4.94,4.56,4.94a3.93,3.93,0,0,0,3.83-2.33h2a5.88,5.88,0,0,1-5.79,3.74,6.37,6.37,0,0,1,0-12.74Z"/><path class="cls-4" d="M284.57,193.74H293v1.33h-3.4v11.14H288V195.07h-3.42Z"/><path class="cls-4" d="M295,193.74h1.63v7.89c0,2.29,1.23,3.28,3.08,3.28s3.06-1,3.06-3.28v-7.89h1.63v7.88a4.7,4.7,0,1,1-9.4,0Z"/><path class="cls-4" d="M311.13,193.74c2.94,0,4.34,1.63,4.34,3.67a3.53,3.53,0,0,1-3,3.58l3.13,5.22h-1.95l-3-5.1h-2v5.1h-1.63V193.74Zm0,1.34h-2.39v4.73h2.39c1.85,0,2.65-1,2.65-2.4S313,195.08,311.13,195.08Z"/><path class="cls-4" d="M324.7,195.07h-5.08v4.17h4.55v1.34h-4.55v4.29h5.08v1.34H318V193.72h6.71Z"/><path class="cls-4" d="M331.13,206.34c-2.51,0-4.28-1.4-4.32-3.45h1.74a2.31,2.31,0,0,0,2.58,2.07c1.58,0,2.51-.89,2.51-2.07,0-3.37-6.75-1.22-6.75-5.86,0-2.05,1.66-3.45,4.13-3.45s3.94,1.31,4.14,3.2h-1.79A2.26,2.26,0,0,0,331,195c-1.34,0-2.4.66-2.4,2,0,3.22,6.73,1.22,6.73,5.83C335.28,204.59,333.83,206.34,331.13,206.34Z"/><polyline class="cls-5" points="188.22 244.74 223.9 208.26 339 208.5"/><rect id="Structures_Border_Box" data-name="Structures Border Box" class="cls-6" x="0.5" y="0.5" width="340" height="546"/></g></g></g></g></svg>