<svg xmlns="http://www.w3.org/2000/svg" viewBox="0 0 519.75 389"><defs><style>.cls-1{fill:#262626;}.cls-1,.cls-2,.cls-3,.cls-5{stroke:#fff;}.cls-1,.cls-2,.cls-3{stroke-miterlimit:10;}.cls-1,.cls-2,.cls-5{stroke-width:0.5px;}.cls-2,.cls-3,.cls-5{fill:none;}.cls-4{fill:#fff;}.cls-5{stroke-linecap:round;stroke-linejoin:round;opacity:0;}</style></defs><title>recoveryandpayload_3</title><g id="Layer_2" data-name="Layer 2"><g id="Layer_1-2" data-name="Layer 1"><g id="Recovery_Payload" data-name="Recovery &amp; Payload"><g id="Background_Curve" data-name="Background Curve"><g id="background_curve_2" data-name="background curve 2"><path class="cls-1" d="M138.61,122.88c-.28,4.28,8.52,13.24,18.88,22.16l-.15.32L150.4,182c1.16,2.71,10.94,5.78,24.92,7.81a202.81,202.81,0,0,0,44.92,1.55l.28,0,4.07,3.63a71.79,71.79,0,0,1,16.09-4.46c18.55-2.89,49.2-10.67,51-12.25,2-3.15,42.78-40.52,50.2-46.62,8.94-7.34,37.35-45.47,38.72-64.11l1.12-1.26L367.56,55.9l-1-.47c3.73-18.36,3.89-31.48.21-35.61l-.72-1.77L284.24,1.38s-15.76-4.6-52,4.75c0,0-28.2,17.47-53.76,36.27l-39.91,79.47Z"/></g></g><path class="cls-2" d="M254.56,65.25s-5.38-10.36-7.43-16.69c0,0-1.52-9.56-4.87-22.09a58.74,58.74,0,0,0-9.8-20.4"/><path class="cls-2" d="M329.5,51s-12-22.59-43.67-41.33c0,0,20,20.07-13.73,59.39"/><path class="cls-2" d="M181.75,61c-.49,12.43,11.13,51.33,11.13,51.33"/><path class="cls-2" d="M337.56,40.28c6.82,5.59,24.32,36.84,24.32,36.84"/><line class="cls-2" x1="381.32" y1="66.38" x2="367.16" y2="56.01"/><path class="cls-2" d="M365.68,18.15,283.83,1.49s-15.76-4.6-52,4.75c0,0-28.2,17.47-53.77,36.27L138.13,122"/><line class="cls-2" x1="156.94" y1="145.46" x2="149.69" y2="181.23"/><path class="cls-2" d="M184,166.67c-2-3.32-4-7-6-11a145.83,145.83,0,0,1-6.35-14.94L167,114.5"/><path class="cls-2" d="M202.26,51.82c-.06.9-3.32,7.93.22,13.86s21.23,9,40-5.61"/><path class="cls-2" d="M220.29,192c-26.86-57.27-27.41-79.75-27.41-79.75a45.38,45.38,0,0,0,9.74,2.29c6.12.74,12.17.2,22.9-2.82a135.88,135.88,0,0,0,27-10.14c5.89-3,18.71-9.49,29.79-20.24,19.09-18.51,25.13-42,27.25-54.22"/><path class="cls-2" d="M226.25,195.35s-30-58.31-6.51-125"/><path class="cls-2" d="M228.86,67.93s-8.14,34.7,30.26,119.72"/><path class="cls-2" d="M259.8,59.93s67.88,49.56,82.51,72.23"/><path class="cls-2" d="M361.88,77.12c-67-39.84-90.46-34.66-90.46-34.66"/><path class="cls-2" d="M169.29,127.69s12.83,5.66,27.17,2.82c0,0,4.49.61,14.56,2.41,0,0,54-7.27,86.52-43.79,0,0,17.08-16,26-46.87"/><path class="cls-2" d="M155.56,176.7s19.36,12.94,57.3-1.13"/><path class="cls-2" d="M341.53,109s11.81-4.54,28.39-36.29"/><path class="cls-2" d="M279.81,164.57s3.31,1.33,21.65-10c0,0,27.94-21,34.64-30.3S340.68,111,340.68,111"/><path class="cls-2" d="M216.33,183.41l5.12.49,32.67-7.64s15.79-3.86,24.15-10.84"/><line class="cls-2" x1="202.48" y1="65.68" x2="185.07" y2="82.72"/><polyline class="cls-2" points="192.88 112.28 198.92 99.14 188.69 97.29"/><path class="cls-2" d="M261.58,78.62s-13.31,8.65-17,9.55c0,0,5.73,13.27,6.7,14.07"/><path class="cls-2" d="M274.32,33.73a98.18,98.18,0,0,1,33.76-.18"/><path class="cls-2" d="M179.41,77.88C177.69,59,178,42.51,178,42.51"/><path class="cls-2" d="M247.87,2.71s16.29,10.58,28.45,22.06"/><path class="cls-2" d="M178.8,70.14c-3.62-39.27,68.33-21.58,68.33-21.58,5-12.64,22.32-29.86,22.32-29.86C289.9-2.49,298.57,6.84,298.57,6.84A36.56,36.56,0,0,1,306.14,6"/><path class="cls-2" d="M142.59,113.09s20.3-13.36,43.24-15.47"/><path class="cls-2" d="M165.47,67.54s7.06-9.37,12.82-7.14"/><path class="cls-2" d="M173.78,51s.12-1.48,4.24-2.8"/><path class="cls-2" d="M249.65,3.89s-12.11,1.78-13.54,7.53c0,0-31.18,8.89-52,31.12l-5.3,22.54.38-14.51"/><line class="cls-2" x1="179.15" y1="50.57" x2="184.07" y2="42.54"/><line class="cls-2" x1="184.07" y1="42.54" x2="187.39" y2="35.77"/><path class="cls-2" d="M321.12,32.81s18.4-12.75,29.94-17.63"/><path class="cls-2" d="M362,18s9.81,19.88-9.39,43.39"/><path class="cls-2" d="M352.83,23.67a79.81,79.81,0,0,1,17,10.56"/><path class="cls-2" d="M152,170.05s7.39-9.83,17.41-14.42"/><path class="cls-2" d="M175.06,149.54l-8.4.47s-25.8-20.93-26.51-29.82"/><line class="cls-2" x1="309.57" y1="148.29" x2="315.57" y2="156.21"/><path class="cls-2" d="M152.51,116.68S149,123.88,150.2,135"/><path class="cls-2" d="M190.47,53.74s-7,10.56,0,23.69"/><line class="cls-2" x1="187.57" y1="62.34" x2="181.93" y2="65.26"/><line class="cls-2" x1="180.08" y1="163.8" x2="173.42" y2="169.71"/><line class="cls-2" x1="171.84" y1="181.67" x2="172.12" y2="189.99"/><line class="cls-2" x1="366.22" y1="60.33" x2="372.55" y2="59.96"/><line class="cls-2" x1="206.33" y1="44.93" x2="207.26" y2="51.38"/><rect class="cls-1" x="313.61" y="154.48" width="1.33" height="236.7" transform="translate(-97.44 333.61) rotate(-49.36)"/><path class="cls-1" d="M291.86,179.69a39.21,39.21,0,0,1-5.36,1.86c-3.45,1-8.12,2.27-13.49,3.58-11.68,2.86-24,5.42-32.13,6.69a68.54,68.54,0,0,0-16.14,4.53l-.39.18-4.28-3.81a206.16,206.16,0,0,1-44.95-1.59c-5.57-.81-23.9-3.82-26-8.6a2.52,2.52,0,0,1,.93-3.05c6.91-6.06,26.91-11.65,32.39-13.1-3.23-2.34-12.78-9.38-22.18-17.19-15.58-13-23.32-21.84-23-26.4a3.38,3.38,0,0,1,1.91-2.85c10.7-5.69,46.21-7.91,52.69-8.27-1.21-2.71-2.46-5.37-3.68-8-4-8.46-7.75-16.44-9.2-24.25-1.64-8.81-.12-16.22,4.78-23.33l.08-.12L184,56c12.54-7.57,31.18-4.8,44.6-1.13a162.93,162.93,0,0,1,25.87,9.59c10.27-9.68,16.74-20,19.23-30.83.21-.91.4-1.89.61-2.93,1.26-6.22,2.83-13.95,9.39-20,3.14-2.9,6.18-4.71,8.8-5.23,10.69-2.14,25.9,16,37.18,44.23,5.74-8.06,26.78-36.37,36.29-32.09,3.87,1.74,5.43,8.31,4.65,19.52-.71,10.21-3.35,23.57-7.64,38.7l19-10.52v1.14c-.13,11.14-10.39,28.42-16.5,37.72-8.78,13.39-18.47,25-22.76,28.56-9.52,7.82-48.7,44.17-49.92,46.31C292.72,179.14,292.61,179.34,291.86,179.69ZM224.59,195a71.82,71.82,0,0,1,16.08-4.46c18.55-2.89,49.21-10.66,51-12.24,2-3.16,42.78-40.53,50.2-46.62,8.93-7.35,37.35-45.47,38.72-64.11L360.8,78.47l.44-1.54c9.19-31.78,10.86-55.16,4.17-58.17C357.94,15.4,339.66,37.7,330,51.4l-.71,1-.45-1.15c-5.4-13.77-12-25.8-18.67-33.85-6.47-7.86-12.68-11.66-17.47-10.7-2.34.47-5.24,2.21-8.16,4.9-6.25,5.77-7.77,13.27-9,19.3-.21,1.05-.41,2-.62,3C272.39,45,265.68,55.74,255,65.69l-.34.32-.41-.21a161.56,161.56,0,0,0-26.07-9.71c-13.12-3.58-31.29-6.31-43.42.92-10.15,14.85-3.31,29.36,4.61,46.15,1.35,2.86,2.75,5.83,4.08,8.85l.39.88-1,0c-.42,0-41.82,2.15-53.1,8.17a2,2,0,0,0-1.2,1.77c-.54,8.27,32.88,34,45.8,43.25l1.17.84-1.39.35c-.26.06-25.59,6.47-33.22,13.16-.79.69-.73,1.18-.58,1.53,1.17,2.71,11,5.78,24.92,7.81a204.05,204.05,0,0,0,44.92,1.55l.29,0Z"/><path class="cls-1" d="M403.53,350.29c-18.57-27-38.4-56.46-57.58-84.92s-39-57.87-57.57-84.9c0,0-4.46-5.89-8.74-11.93-8.84-12.48-8.42-13.52-8.2-14.08a1.48,1.48,0,0,1,1.26-1.1c1.18-.08,2.25,1.61,2.55,2.13l14.24,24.26c18.58,27,38.4,56.45,57.56,84.88s39,57.87,57.58,84.9ZM272.69,154.9c0,1.18,4,7.28,9.19,14.5l-7.77-13.24a3.81,3.81,0,0,0-1.3-1.47A1.79,1.79,0,0,0,272.69,154.9Z"/><polygon class="cls-1" points="403.49 350.22 254.03 65.69 254.69 66.01 255.35 65.38 404.67 349.6 403.49 350.22"/><path class="cls-1" d="M404.76,349.77l-1.31.25L351.31,122l-17.56-16.63c-.93-.73-3.78-3.13-3.5-4.86a1.6,1.6,0,0,1,1.18-1.27c.73-.26,2.09-.74,11.85,10.73,4.69,5.52,9.11,11.22,9.15,11.28l.09.11L400.6,331.59,360.8,78.47l1.93-1.06Zm-73-249.21c-.12.06-.18.12-.19.18-.11.66,1.48,2.41,3,3.62l.05,0,10.73,10.16c-.91-1.1-1.87-2.25-2.84-3.4-8.47-10-10.36-10.63-10.69-10.64Z"/><polygon class="cls-1" points="403.66 350.42 183.86 167.4 185.58 166.97 404.5 349.4 403.66 350.42"/><path class="cls-1" d="M405.09,352l-1.49-1.69c-34.92-39.74-70.85-79.93-105.6-118.79S227.52,152.7,192.59,113l1.27-.11-.46-1c34.93,39.74,70.83,79.94,105.58,118.8,34.26,38.32,69.67,77.91,104.13,117.1-8.23-54.13-21.77-115.9-41.38-188.7-9.72-36.11-20.32-71.2-32.4-106.62l.9-1.28c12.1,35.44,23,71.41,32.78,107.55,19.89,73.86,33.55,136.37,41.75,191.09Z"/><polyline class="cls-3" points="405 352 369.31 388.5 0 388.5"/><path class="cls-4" d="M11.3,364.74c4.92,0,7.26,2.74,7.26,6.16a5.9,5.9,0,0,1-5,6l5.25,8.76H15.56l-5-8.55H7.28v8.55H4.54V364.74Zm0,2.25h-4v7.93h4c3.09,0,4.44-1.68,4.44-4S14.42,367,11.3,367Z"/><path class="cls-4" d="M34,367H25.51v7h7.63v2.25H25.51v7.2H34v2.25H22.78v-21H34Z"/><path class="cls-4" d="M47.6,364.47c4.53,0,8.13,2.29,9.69,6.34H54a6.58,6.58,0,0,0-6.42-3.93c-4.39,0-7.66,3.18-7.66,8.31s3.27,8.28,7.66,8.28a6.6,6.6,0,0,0,6.42-3.9h3.27c-1.56,4-5.16,6.27-9.69,6.27a10.69,10.69,0,0,1,0-21.37Z"/><path class="cls-4" d="M70.82,385.87a10.69,10.69,0,1,1,10.5-10.68A10.32,10.32,0,0,1,70.82,385.87Zm0-2.37c4.41,0,7.71-3.21,7.71-8.31s-3.3-8.31-7.71-8.31-7.72,3.18-7.72,8.31S66.4,383.5,70.82,383.5Z"/><path class="cls-4" d="M99.32,364.74h2.88l-7.89,20.92H91.15l-7.89-20.92h2.91l6.57,18Z"/><path class="cls-4" d="M116.45,367h-8.53v7h7.63v2.25h-7.63v7.2h8.53v2.25H105.19v-21h11.26Z"/><path class="cls-4" d="M127.33,364.74c4.92,0,7.27,2.74,7.27,6.16a5.9,5.9,0,0,1-5,6l5.26,8.76h-3.28l-5-8.55h-3.3v8.55h-2.73V364.74Zm0,2.25h-4v7.93h4c3.09,0,4.45-1.68,4.45-4S130.45,367,127.33,367Z"/><path class="cls-4" d="M137.08,364.74h3l5.16,10.6,5.16-10.6h3l-6.82,13v7.89h-2.73v-7.89Z"/><path class="cls-4" d="M176.72,381h-9.13l-1.68,4.65H163l7.56-20.8h3.15l7.54,20.8H178.4Zm-4.57-12.78-3.78,10.56h7.57Z"/><path class="cls-4" d="M201,364.71v21h-2.73L187.3,369v16.65h-2.73v-21h2.73l11,16.63V364.71Z"/><path class="cls-4" d="M223.28,375.25c0,6.48-4.24,10.41-11.11,10.41h-6.51V364.74h6.51C219,364.74,223.28,368.77,223.28,375.25Zm-11.11,8.16c5.46,0,8.31-3.06,8.31-8.16s-2.85-8.29-8.31-8.29h-3.78v16.45Z"/><path class="cls-4" d="M241.63,376.93h-4v8.73h-2.73V364.74h6.75c4.92,0,7.23,2.71,7.23,6.13C248.86,374.05,246.82,376.93,241.63,376.93Zm0-2.25c3.12,0,4.44-1.47,4.44-3.81s-1.32-3.88-4.44-3.88h-4v7.69Z"/><path class="cls-4" d="M264.61,381h-9.12l-1.68,4.65h-2.88l7.56-20.8h3.15l7.53,20.8h-2.88Zm-4.56-12.78-3.78,10.56h7.56Z"/><path class="cls-4" d="M270.73,364.74h3l5.16,10.6,5.16-10.6h3l-6.81,13v7.89h-2.73v-7.89Z"/><path class="cls-4" d="M292.72,364.74v18.7H300v2.22H290V364.74Z"/><path class="cls-4" d="M312.43,385.87a10.69,10.69,0,1,1,10.51-10.68A10.31,10.31,0,0,1,312.43,385.87Zm0-2.37c4.41,0,7.71-3.21,7.71-8.31s-3.3-8.31-7.71-8.31-7.71,3.18-7.71,8.31S308,383.5,312.43,383.5Z"/><path class="cls-4" d="M338.89,381h-9.12l-1.68,4.65h-2.88l7.56-20.8h3.15l7.53,20.8h-2.88Zm-4.56-12.78-3.78,10.56h7.56Z"/><path class="cls-4" d="M364.36,375.25c0,6.48-4.23,10.41-11.1,10.41h-6.51V364.74h6.51C360.13,364.74,364.36,368.77,364.36,375.25Zm-11.1,8.16c5.46,0,8.31-3.06,8.31-8.16s-2.85-8.29-8.31-8.29h-3.78v16.45Z"/><rect id="Recovery_Payload_Border_Box" data-name="Recovery &amp; Payload Border Box" class="cls-5" x="49.5" y="0.5" width="470" height="388"/></g></g></g></svg>