<svg xmlns="http://www.w3.org/2000/svg" xmlns:xlink="http://www.w3.org/1999/xlink" viewBox="0 0 558.01 409.75"><defs><style>.cls-1,.cls-3,.cls-4{fill:#262626;}.cls-1,.cls-28,.cls-3,.cls-30,.cls-6{stroke:#fff;}.cls-1,.cls-3,.cls-6{stroke-linejoin:round;}.cls-1,.cls-3,.cls-30,.cls-6{stroke-width:0.5px;}.cls-2{isolation:isolate;}.cls-3{mix-blend-mode:multiply;}.cls-5{clip-path:url(#clip-path);}.cls-28,.cls-30,.cls-6{fill:none;}.cls-7{clip-path:url(#clip-path-2);}.cls-8{clip-path:url(#clip-path-3);}.cls-9{clip-path:url(#clip-path-4);}.cls-10{clip-path:url(#clip-path-5);}.cls-11{clip-path:url(#clip-path-6);}.cls-12{clip-path:url(#clip-path-7);}.cls-13{clip-path:url(#clip-path-8);}.cls-14{clip-path:url(#clip-path-9);}.cls-15{clip-path:url(#clip-path-10);}.cls-16{clip-path:url(#clip-path-11);}.cls-17{clip-path:url(#clip-path-12);}.cls-18{clip-path:url(#clip-path-13);}.cls-19{clip-path:url(#clip-path-14);}.cls-20{clip-path:url(#clip-path-15);}.cls-21{clip-path:url(#clip-path-16);}.cls-22{clip-path:url(#clip-path-17);}.cls-23{clip-path:url(#clip-path-18);}.cls-24{clip-path:url(#clip-path-19);}.cls-25{clip-path:url(#clip-path-20);}.cls-26{clip-path:url(#clip-path-21);}.cls-27{clip-path:url(#clip-path-22);}.cls-28,.cls-30{stroke-miterlimit:10;}.cls-29{fill:#fff;}.cls-30{opacity:0;}</style><clipPath id="clip-path"><path class="cls-1" d="M224.24,268.4a2.52,2.52,0,0,0-1.07,2.3,8,8,0,0,0,3.57,6.35,2.58,2.58,0,0,0,2.63.28L222,281.54a2.58,2.58,0,0,1-2.63-.29,8,8,0,0,1-3.58-6.34,2.56,2.56,0,0,1,1.08-2.31Z"/></clipPath><clipPath id="clip-path-2"><path class="cls-1" d="M219.54,272.89l-.31.89c-1.66-1-3-.24-3.07,1.67a6.65,6.65,0,0,0,3,5.25c1.66,1,3,.24,3.07-1.67a6.64,6.64,0,0,0-3-5.25l.31-.89a8,8,0,0,1,3.58,6.34c0,2.31-1.7,3.22-3.71,2a8,8,0,0,1-3.58-6.34C215.87,272.6,217.53,271.7,219.54,272.89Z"/></clipPath><clipPath id="clip-path-3"><path class="cls-1" d="M217.06,273.54a2.12,2.12,0,0,0-.9,1.91,6.65,6.65,0,0,0,3,5.25,2.12,2.12,0,0,0,2.17.24l-1.68,1a2.14,2.14,0,0,1-2.18-.24,6.63,6.63,0,0,1-3-5.25,2.1,2.1,0,0,1,.89-1.91Z"/></clipPath><clipPath id="clip-path-4"><path class="cls-1" d="M216.91,272.6l7.33-4.2a2.6,2.6,0,0,1,2.63.28l-7.33,4.21A2.61,2.61,0,0,0,216.91,272.6Z"/></clipPath><clipPath id="clip-path-5"><path class="cls-1" d="M214.55,273.88a2.56,2.56,0,0,0-1.1,2.33,8.15,8.15,0,0,0,3.63,6.44,2.66,2.66,0,0,0,2.67.29L218,284a2.66,2.66,0,0,1-2.67-.29,8.15,8.15,0,0,1-3.63-6.44,2.58,2.58,0,0,1,1.1-2.33Z"/></clipPath><clipPath id="clip-path-6"><path class="cls-1" d="M215.37,274.51l1.69-1a2.12,2.12,0,0,1,2.17.24l-1.68,1A2.14,2.14,0,0,0,215.37,274.51Z"/></clipPath><clipPath id="clip-path-7"><path class="cls-1" d="M229.37,277.33,222,281.54a2.55,2.55,0,0,0,1.08-2.31,8,8,0,0,0-3.58-6.34l7.33-4.21a8.06,8.06,0,0,1,3.58,6.35A2.54,2.54,0,0,1,229.37,277.33Z"/></clipPath><clipPath id="clip-path-8"><path class="cls-1" d="M221.3,280.94l-1.68,1a2.12,2.12,0,0,0,.89-1.91,6.64,6.64,0,0,0-3-5.25l1.68-1a6.64,6.64,0,0,1,3,5.25A2.12,2.12,0,0,1,221.3,280.94Z"/></clipPath><clipPath id="clip-path-9"><path class="cls-1" d="M217.55,274.75c-1.67-1-3-.25-3.07,1.67a6.63,6.63,0,0,0,3,5.25c1.67,1,3,.24,3.07-1.67a6.64,6.64,0,0,0-3-5.25l-.34-.58a8.12,8.12,0,0,1,3.63,6.43c0,2.34-1.72,3.26-3.76,2a8.15,8.15,0,0,1-3.63-6.44c0-2.34,1.72-3.26,3.76-2Z"/></clipPath><clipPath id="clip-path-10"><path class="cls-1" d="M212.77,274.9l1.78-1a2.59,2.59,0,0,1,2.66.29l-1.78,1A2.59,2.59,0,0,0,212.77,274.9Z"/></clipPath><clipPath id="clip-path-11"><path class="cls-1" d="M219.75,282.94,218,284a2.59,2.59,0,0,0,1.09-2.34,8.12,8.12,0,0,0-3.63-6.43l1.78-1a8.12,8.12,0,0,1,3.63,6.43A2.59,2.59,0,0,1,219.75,282.94Z"/></clipPath><clipPath id="clip-path-12"><path class="cls-1" d="M236.87,276.84a2.52,2.52,0,0,0-1.07,2.3,8,8,0,0,0,3.57,6.35,2.6,2.6,0,0,0,2.63.28L234.67,290a2.61,2.61,0,0,1-2.63-.29,8,8,0,0,1-3.58-6.34,2.56,2.56,0,0,1,1.08-2.31Z"/></clipPath><clipPath id="clip-path-13"><path class="cls-1" d="M232.17,281.33l-.31.88c-1.66-1-3-.24-3.07,1.68a6.66,6.66,0,0,0,3,5.25c1.66,1,3,.24,3.07-1.67a6.66,6.66,0,0,0-3-5.26l.31-.88a8,8,0,0,1,3.58,6.34c0,2.31-1.7,3.22-3.71,2a8,8,0,0,1-3.58-6.34C228.5,281,230.16,280.13,232.17,281.33Z"/></clipPath><clipPath id="clip-path-14"><path class="cls-1" d="M229.69,282a2.12,2.12,0,0,0-.9,1.91,6.66,6.66,0,0,0,3,5.25,2.15,2.15,0,0,0,2.17.24l-1.68,1a2.16,2.16,0,0,1-2.18-.24,6.63,6.63,0,0,1-3-5.25A2.08,2.08,0,0,1,228,283Z"/></clipPath><clipPath id="clip-path-15"><path class="cls-1" d="M229.54,281l7.33-4.2a2.58,2.58,0,0,1,2.63.28l-7.33,4.21A2.61,2.61,0,0,0,229.54,281Z"/></clipPath><clipPath id="clip-path-16"><path class="cls-1" d="M227.18,282.31a2.6,2.6,0,0,0-1.1,2.34,8.18,8.18,0,0,0,3.63,6.44,2.66,2.66,0,0,0,2.67.29l-1.78,1a2.66,2.66,0,0,1-2.67-.29,8.17,8.17,0,0,1-3.63-6.44,2.6,2.6,0,0,1,1.1-2.34Z"/></clipPath><clipPath id="clip-path-17"><path class="cls-1" d="M228,283l1.69-1a2.14,2.14,0,0,1,2.17.23l-1.68,1A2.16,2.16,0,0,0,228,283Z"/></clipPath><clipPath id="clip-path-18"><path class="cls-1" d="M242,285.77,234.67,290a2.56,2.56,0,0,0,1.08-2.31,8,8,0,0,0-3.58-6.34l7.33-4.21a8.06,8.06,0,0,1,3.58,6.35A2.54,2.54,0,0,1,242,285.77Z"/></clipPath><clipPath id="clip-path-19"><path class="cls-1" d="M233.93,289.38l-1.68,1a2.12,2.12,0,0,0,.89-1.91,6.66,6.66,0,0,0-3-5.26l1.68-1a6.66,6.66,0,0,1,3,5.26A2.12,2.12,0,0,1,233.93,289.38Z"/></clipPath><clipPath id="clip-path-20"><path class="cls-1" d="M230.18,283.18c-1.67-1-3-.24-3.07,1.68a6.63,6.63,0,0,0,3,5.25c1.67,1,3,.24,3.07-1.67a6.66,6.66,0,0,0-3-5.26l-.34-.58a8.13,8.13,0,0,1,3.63,6.44c0,2.34-1.72,3.26-3.76,2a8.18,8.18,0,0,1-3.63-6.44c0-2.34,1.72-3.26,3.76-2Z"/></clipPath><clipPath id="clip-path-21"><path class="cls-1" d="M225.4,283.33l1.78-1a2.64,2.64,0,0,1,2.66.29l-1.78,1A2.64,2.64,0,0,0,225.4,283.33Z"/></clipPath><clipPath id="clip-path-22"><path class="cls-1" d="M232.38,291.38l-1.78,1a2.59,2.59,0,0,0,1.09-2.34,8.14,8.14,0,0,0-3.63-6.44l1.78-1a8.13,8.13,0,0,1,3.63,6.44A2.59,2.59,0,0,1,232.38,291.38Z"/></clipPath></defs><title>newelectrical</title><g class="cls-2"><g id="Layer_2" data-name="Layer 2"><g id="Layer_1-2" data-name="Layer 1"><g id="Circuit_Board" data-name="Circuit Board"><g id="Electrical"><polygon class="cls-1" points="0.25 196.17 307 373.27 515.92 252.65 209.17 75.55 0.41 188.37 0.25 196.17"/><polygon class="cls-1" points="0.41 188.37 307.16 365.47 516.08 244.85 209.34 67.75 0.41 188.37"/><polygon class="cls-1" points="307.16 365.47 307 373.27 515.92 252.65 516.08 244.85 307.16 365.47"/><polygon class="cls-1" points="259.98 317.98 202.17 285.32 358.25 192.58 300.4 159.66 285.65 167.41 265.67 156.26 194.26 199.16 100.07 147.78 131.63 129.64 123.86 126.46 45.86 174.42 28.61 183.12 144.13 248.03 147.81 245.33 48.62 189.89 51.05 185.52 157.04 244.76 144.49 253.97 17.99 182.88 43.52 170 123.41 120.87 142.98 128.89 110.3 147.66 194.14 193.4 265.58 150.49 285.73 161.72 300.5 153.97 368.2 192.49 212.14 285.21 259.92 312.2 293.09 292.64 247.13 268.3 363.71 197.71 426.2 232.31 432.74 228.38 296 149.76 280.39 158.14 278.03 153.73 296.08 144.04 442.62 228.29 426.3 238.07 363.82 203.49 257.26 268.01 303.33 292.4 259.98 317.98"/><path class="cls-1" d="M308.51,361.63l-14.84-8.78,67.49-42.43-12-6.51L402.5,271l-9.6-5.95-69.49,39.29,19.93,11.95-56.58,33.41-18.2-10.06,38.64-22.33L164.68,236l26.65-14.25L98.21,167.18l-11.56,6.59-2.48-4.34,14.07-8,103.32,60.52L175,236.11,317.24,317.3l-38.52,22.27,7.95,4.39,46.89-27.69-20.09-12,79.54-45L412,271l-52.89,32.61,6.89,3.73,10.76-6.77,13.58,7.31,96.42-55.71-87.65-52.64,22.3-4.35,90.31,52.14-5,2.89-86.19-49.77L412.86,202l83.77,50.3L390.44,313.64,377,306.39l-5.92,3.72,13.13,7.12Zm-5.24-8.91,5.25,3.1L374,317.4l-7.82-4.24Z"/><path class="cls-1" d="M236.61,209.38h-.8v8.81h0a.21.21,0,0,0,.12.17.64.64,0,0,0,.57,0c.08-.05.12-.11.11-.17h0Z"/><path class="cls-1" d="M240.07,211.35l-.81,0v8.81h0a.21.21,0,0,0,.12.17.64.64,0,0,0,.57,0,.21.21,0,0,0,.12-.17h0Z"/><path class="cls-1" d="M257.3,197.43l-.8,0v8.81h0a.22.22,0,0,0,.11.17.64.64,0,0,0,.57,0,.21.21,0,0,0,.12-.17h0Z"/><path class="cls-1" d="M260.76,199.41l-.81,0v8.81h0a.19.19,0,0,0,.12.16.64.64,0,0,0,.57,0,.19.19,0,0,0,.12-.16h0Z"/><polygon class="cls-1" points="262.94 203.88 242.25 215.82 242.25 203.81 262.94 191.87 262.94 203.88"/><polygon class="cls-1" points="262.94 191.87 242.25 203.81 234.57 199.38 255.25 187.43 262.94 191.87"/><polygon class="cls-1" points="262.55 204.07 243.3 215.18 243.3 204.56 262.55 193.45 262.55 204.07"/><polygon class="cls-1" points="242.25 215.82 234.57 211.39 234.57 199.38 242.25 203.81 242.25 215.82"/><polygon class="cls-1" points="241.06 215.18 234.82 211.57 234.82 200.96 241.06 204.56 241.06 215.18"/><path class="cls-1" d="M240.36,214.46l-4.77-2.75v-6.79c0-1.31.8-1.92,1.79-1.35l1.19.69a4.28,4.28,0,0,1,1.79,3.42Z"/><path class="cls-1" d="M237.13,212.6l-.47-.28v-6.49c0-.18.1-.26.23-.18h0a.55.55,0,0,1,.24.45Z"/><path class="cls-1" d="M239.22,213.8l-.47-.27V207c0-.17.1-.25.23-.18h0a.56.56,0,0,1,.24.46Z"/><path class="cls-1" d="M250.22,216.74l-.8,0v8.81h0a.19.19,0,0,0,.12.16.64.64,0,0,0,.57,0,.19.19,0,0,0,.11-.16h0Z"/><path class="cls-1" d="M253.68,218.72h-.81v8.81h0a.21.21,0,0,0,.12.17.64.64,0,0,0,.57,0,.21.21,0,0,0,.12-.17h0Z"/><path class="cls-1" d="M270.91,204.8h-.81v8.81h0a.21.21,0,0,0,.12.17.64.64,0,0,0,.57,0,.21.21,0,0,0,.12-.17h0Z"/><path class="cls-1" d="M274.36,206.77l-.8,0v8.81h0a.21.21,0,0,0,.12.17.64.64,0,0,0,.57,0,.22.22,0,0,0,.11-.17h0Z"/><polygon class="cls-1" points="276.54 211.24 255.86 223.19 255.86 211.17 276.54 199.23 276.54 211.24"/><polygon class="cls-1" points="276.54 199.23 255.86 211.17 248.18 206.74 268.86 194.8 276.54 199.23"/><polygon class="cls-1" points="276.15 211.43 256.9 222.54 256.9 211.93 276.15 200.81 276.15 211.43"/><polygon class="cls-1" points="255.86 223.19 248.18 218.75 248.18 206.74 255.86 211.17 255.86 223.19"/><polygon class="cls-1" points="254.67 222.54 248.43 218.94 248.43 208.32 254.67 211.93 254.67 222.54"/><path class="cls-1" d="M254,221.82l-4.76-2.75v-6.78c0-1.32.8-1.93,1.78-1.36l1.2.69A4.3,4.3,0,0,1,254,215Z"/><path class="cls-1" d="M250.74,220l-.48-.27v-6.5c0-.18.11-.26.24-.18h0a.57.57,0,0,1,.24.45Z"/><path class="cls-1" d="M252.83,221.17l-.47-.28V214.4c0-.18.1-.26.23-.18h0a.55.55,0,0,1,.24.45Z"/><path class="cls-1" d="M263.83,224.1l-.81,0v8.81h0a.19.19,0,0,0,.12.16.61.61,0,0,0,.57,0,.21.21,0,0,0,.12-.17h0Z"/><path class="cls-1" d="M267.28,226.08l-.8,0v8.81h0a.19.19,0,0,0,.12.16.64.64,0,0,0,.57,0,.18.18,0,0,0,.11-.16h0Z"/><path class="cls-1" d="M284.52,212.16l-.81,0V221h0a.19.19,0,0,0,.12.16.64.64,0,0,0,.57,0,.19.19,0,0,0,.12-.16h0Z"/><path class="cls-1" d="M288,214.14h-.81V223h0a.24.24,0,0,0,.12.17.64.64,0,0,0,.57,0A.21.21,0,0,0,288,223h0Z"/><polygon class="cls-1" points="290.15 218.61 269.46 230.55 269.46 218.54 290.15 206.59 290.15 218.61"/><polygon class="cls-1" points="290.15 206.59 269.46 218.54 261.78 214.1 282.47 202.16 290.15 206.59"/><polygon class="cls-1" points="289.76 218.79 270.51 229.91 270.51 219.29 289.76 208.18 289.76 218.79"/><polygon class="cls-1" points="269.46 230.55 261.78 226.12 261.78 214.1 269.46 218.54 269.46 230.55"/><polygon class="cls-1" points="268.28 229.91 262.03 226.3 262.03 215.69 268.28 219.29 268.28 229.91"/><path class="cls-1" d="M267.57,229.19l-4.77-2.76v-6.78c0-1.32.8-1.92,1.79-1.35l1.19.68a4.28,4.28,0,0,1,1.79,3.42Z"/><path class="cls-1" d="M264.35,227.32l-.48-.27v-6.5c0-.17.11-.25.24-.18h0a.58.58,0,0,1,.24.45Z"/><path class="cls-1" d="M266.44,228.53l-.48-.27v-6.5c0-.18.11-.26.24-.18h0a.58.58,0,0,1,.24.45Z"/><polygon class="cls-1" points="290.59 121.81 291.18 122.15 291.18 126.88 290.59 126.54 290.59 121.81"/><polygon class="cls-1" points="362 163.04 357.33 165.74 357.33 174.92 362 172.23 362 163.04"/><polygon class="cls-1" points="364.93 162.03 362.6 163.38 362.6 172.57 364.93 171.22 364.93 162.03"/><polygon class="cls-1" points="362 163.04 362.6 163.38 362.6 172.57 362 172.23 362 163.04"/><polygon class="cls-1" points="283.58 125.85 355.59 167.43 355.59 176.62 283.58 135.04 283.58 125.85"/><polygon class="cls-1" points="291.18 122.15 286.51 124.85 285.91 124.5 283.58 125.85 355.59 167.43 357.92 166.08 357.33 165.74 362 163.04 362.6 163.38 364.93 162.03 292.92 120.46 290.59 121.81 291.18 122.15"/><polygon class="cls-1" points="306.59 135.04 308.84 136.34 357.86 164.65 360.11 163.35 308.84 133.74 306.59 135.04"/><polygon class="cls-1" points="288.22 124.44 290.47 125.74 303.63 133.34 305.88 132.04 290.47 123.14 288.22 124.44"/><polygon class="cls-1" points="357.92 175.27 357.92 166.08 355.59 167.43 355.59 176.62 357.92 175.27"/><polygon class="cls-1" points="306.59 135.04 308.84 136.34 308.84 133.74 306.59 135.04"/><polygon class="cls-1" points="288.22 124.44 290.47 125.74 290.47 123.14 288.22 124.44"/><polygon class="cls-1" points="432.82 203.93 428.14 206.62 428.14 215.81 432.82 213.11 432.82 203.93"/><polygon class="cls-1" points="435.75 202.92 433.41 204.27 433.41 213.46 435.75 212.11 435.75 202.92"/><polygon class="cls-1" points="432.82 203.93 433.41 204.27 433.41 213.46 432.82 213.11 432.82 203.93"/><polygon class="cls-1" points="354.39 166.74 426.4 208.32 426.4 217.5 354.39 175.93 354.39 166.74"/><polygon class="cls-1" points="362 163.04 357.33 165.74 356.73 165.39 354.39 166.74 426.4 208.32 428.74 206.97 428.14 206.62 432.82 203.93 433.41 204.27 435.75 202.92 363.74 161.34 361.4 162.69 362 163.04"/><polygon class="cls-1" points="377.41 175.93 379.65 177.23 428.68 205.53 430.93 204.24 379.65 174.63 377.41 175.93"/><polygon class="cls-1" points="359.04 165.32 361.29 166.62 374.45 174.22 376.7 172.92 361.29 164.03 359.04 165.32"/><polygon class="cls-1" points="428.74 216.16 428.74 206.97 426.4 208.32 426.4 217.5 428.74 216.16"/><polygon class="cls-1" points="377.41 175.93 379.65 177.23 379.65 174.63 377.41 175.93"/><polygon class="cls-1" points="359.04 165.32 361.29 166.62 361.29 164.03 359.04 165.32"/><polygon class="cls-1" points="406.43 216.47 405.57 216.96 405.57 223.77 406.43 223.28 406.43 216.47"/><polygon class="cls-1" points="303.67 275.8 310.39 279.68 310.39 292.9 303.67 289.02 303.67 275.8"/><polygon class="cls-1" points="299.45 274.35 302.81 276.29 302.81 289.51 299.45 287.57 299.45 274.35"/><polygon class="cls-1" points="303.67 275.8 302.81 276.29 302.81 289.51 303.67 289.02 303.67 275.8"/><polygon class="cls-1" points="416.51 222.29 312.9 282.11 312.9 295.33 416.51 235.51 416.51 222.29"/><polygon class="cls-1" points="405.57 216.96 412.29 220.85 413.15 220.35 416.51 222.29 312.9 282.11 309.54 280.17 310.39 279.68 303.67 275.8 302.81 276.29 299.45 274.35 403.06 214.53 406.43 216.47 405.57 216.96"/><polygon class="cls-1" points="383.4 235.51 380.17 237.38 309.62 278.11 306.39 276.24 380.17 233.65 383.4 235.51"/><polygon class="cls-1" points="409.83 220.25 406.59 222.12 387.66 233.06 384.42 231.19 406.59 218.39 409.83 220.25"/><polygon class="cls-1" points="309.54 293.39 309.54 280.17 312.9 282.11 312.9 295.33 309.54 293.39"/><polygon class="cls-1" points="383.4 235.51 380.17 237.38 380.17 233.65 383.4 235.51"/><polygon class="cls-1" points="409.83 220.25 406.59 222.12 406.59 218.39 409.83 220.25"/><path class="cls-1" d="M280.19,239.71l-1,0V250.5h0a.26.26,0,0,0,.14.2.78.78,0,0,0,.7,0,.24.24,0,0,0,.14-.2h0Z"/><path class="cls-1" d="M283.65,241.52l-1,0v10.77h0c0,.07,0,.14.15.2a.78.78,0,0,0,.7,0,.26.26,0,0,0,.14-.2h0Z"/><path class="cls-1" d="M288.93,241.16l-1,0V252h0a.23.23,0,0,0,.14.2.75.75,0,0,0,.7,0,.24.24,0,0,0,.14-.21h0Z"/><path class="cls-1" d="M291.33,237.74l-1,0v10.77h0a.28.28,0,0,0,.15.2.78.78,0,0,0,.7,0,.26.26,0,0,0,.14-.2h0Z"/><path class="cls-1" d="M292.43,228.23l-14.49.32v16.07h0a3.64,3.64,0,0,0,2.14,3,11.33,11.33,0,0,0,10.24,0,3.57,3.57,0,0,0,2.11-3h0Z"/><path class="cls-1" d="M290.32,231.56a11.3,11.3,0,0,1-10.24,0c-2.84-1.64-2.86-4.29,0-5.92a11.32,11.32,0,0,1,10.25,0C293.13,227.28,293.15,229.93,290.32,231.56Z"/><path class="cls-1" d="M289.59,230.5a9.69,9.69,0,0,1-8.79,0c-2.43-1.4-2.45-3.67,0-5.07a9.71,9.71,0,0,1,8.8,0C292,226.83,292,229.1,289.59,230.5Z"/><path class="cls-1" d="M288.44,229.83a1.91,1.91,0,0,1-.28.15,7.33,7.33,0,0,1-5.93,0l-.28-.15-.26-.16c-1.45-1-1.46-2.44,0-3.42a2.26,2.26,0,0,1,.26-.16,1.51,1.51,0,0,1,.28-.15,7.33,7.33,0,0,1,5.93,0l.28.15.26.16c1.45,1,1.46,2.44,0,3.42Z"/><path class="cls-1" d="M288.44,229.83a1.91,1.91,0,0,1-.28.15l-3-1.71-.55-.32-3-1.71a2.26,2.26,0,0,1,.26-.16,1.51,1.51,0,0,1,.28-.15l3,1.71.55.32,3,1.71Z"/><path class="cls-1" d="M288.68,226.25,285.73,228l-.54.31-3,1.7-.28-.15-.26-.16,2.95-1.71.54-.31,3-1.7.28.15Z"/><path class="cls-1" d="M341.14,207.75l-1,0v10.76h0a.26.26,0,0,0,.14.21.78.78,0,0,0,.7,0,.24.24,0,0,0,.14-.21h0Z"/><path class="cls-1" d="M344.6,209.56l-1,0v10.76h0a.28.28,0,0,0,.15.2.78.78,0,0,0,.7,0,.26.26,0,0,0,.14-.2h0Z"/><path class="cls-1" d="M349.88,209.21l-1,0V220h0a.25.25,0,0,0,.14.2.78.78,0,0,0,.7,0,.23.23,0,0,0,.14-.2h0Z"/><path class="cls-1" d="M352.28,205.78l-1,0v10.76h0a.24.24,0,0,0,.14.2.78.78,0,0,0,.7,0,.26.26,0,0,0,.14-.2h0Z"/><path class="cls-1" d="M353.38,196.28l-14.49.32v16.07h0a3.62,3.62,0,0,0,2.14,2.94,11.32,11.32,0,0,0,10.25,0,3.55,3.55,0,0,0,2.1-3h0Z"/><path class="cls-1" d="M351.28,199.61a11.32,11.32,0,0,1-10.25,0c-2.84-1.64-2.86-4.29,0-5.92a11.32,11.32,0,0,1,10.25,0C354.08,195.33,354.1,198,351.28,199.61Z"/><path class="cls-1" d="M350.54,198.55a9.69,9.69,0,0,1-8.79,0c-2.43-1.4-2.44-3.68,0-5.07a9.72,9.72,0,0,1,8.79,0C353,194.88,353,197.15,350.54,198.55Z"/><path class="cls-1" d="M349.39,197.88l-.28.15a7.33,7.33,0,0,1-5.93,0l-.28-.15-.26-.16c-1.45-1-1.46-2.44,0-3.42l.26-.17.28-.14a7.29,7.29,0,0,1,5.93,0,1.91,1.91,0,0,1,.28.15,2.26,2.26,0,0,1,.26.16c1.45,1,1.46,2.44,0,3.42A2.26,2.26,0,0,1,349.39,197.88Z"/><path class="cls-1" d="M349.39,197.88l-.28.15-3-1.71-.55-.32-3-1.71.26-.17.28-.14,3,1.71.55.31,3,1.72A2.26,2.26,0,0,1,349.39,197.88Z"/><path class="cls-1" d="M349.63,194.3l-2.95,1.7-.54.32-3,1.7-.28-.15-.26-.16,2.95-1.71.54-.31,3-1.7a1.91,1.91,0,0,1,.28.15A2.26,2.26,0,0,1,349.63,194.3Z"/><path class="cls-1" d="M357.19,199.09l-1,0v10.77h0a.25.25,0,0,0,.14.2.78.78,0,0,0,.7,0,.23.23,0,0,0,.14-.2h0Z"/><path class="cls-1" d="M360.65,200.9l-1,0v10.77h0a.24.24,0,0,0,.15.2.76.76,0,0,0,.69,0,.24.24,0,0,0,.15-.2h0Z"/><path class="cls-1" d="M365.93,200.55l-1,0v10.77h0a.26.26,0,0,0,.14.2.78.78,0,0,0,.7,0,.24.24,0,0,0,.14-.2h0Z"/><path class="cls-1" d="M368.33,197.12l-1,0v10.77h0a.24.24,0,0,0,.15.2.78.78,0,0,0,.7,0,.25.25,0,0,0,.14-.2h0Z"/><path class="cls-1" d="M369.43,187.61l-14.49.33V204h0a3.63,3.63,0,0,0,2.14,3,11.3,11.3,0,0,0,10.24,0,3.56,3.56,0,0,0,2.11-3h0Z"/><path class="cls-1" d="M367.32,190.94a11.3,11.3,0,0,1-10.24,0c-2.84-1.64-2.86-4.28,0-5.91a11.35,11.35,0,0,1,10.25,0C370.13,186.66,370.15,189.31,367.32,190.94Z"/><path class="cls-1" d="M366.59,189.88a9.72,9.72,0,0,1-8.79,0c-2.43-1.41-2.45-3.68,0-5.08a9.74,9.74,0,0,1,8.8,0C369,186.21,369,188.49,366.59,189.88Z"/><path class="cls-1" d="M365.44,189.22l-.28.15a7.37,7.37,0,0,1-5.93,0l-.28-.15-.26-.17c-1.45-1-1.46-2.44,0-3.42l.26-.16.28-.15a7.33,7.33,0,0,1,5.93,0l.28.15.26.17a1.89,1.89,0,0,1,0,3.42Z"/><path class="cls-1" d="M365.44,189.22l-.28.15-3-1.72-.54-.31-3-1.72.26-.16.28-.15,3,1.72.54.31,3,1.72Z"/><path class="cls-1" d="M365.68,185.64l-3,1.7-.54.31-2.95,1.71-.28-.15-.26-.17,2.95-1.7.54-.31,3-1.71.28.15Z"/><polygon class="cls-1" points="380.99 200.16 380.14 200.66 380.14 207.47 380.99 206.97 380.99 200.16"/><polygon class="cls-1" points="278.24 259.49 284.96 263.37 284.96 276.6 278.24 272.71 278.24 259.49"/><polygon class="cls-1" points="274.02 258.05 277.38 259.99 277.38 273.21 274.02 271.27 274.02 258.05"/><polygon class="cls-1" points="278.24 259.49 277.38 259.99 277.38 273.21 278.24 272.71 278.24 259.49"/><polygon class="cls-1" points="391.08 205.99 287.46 265.81 287.46 279.03 391.08 219.21 391.08 205.99"/><polygon class="cls-1" points="380.14 200.66 386.86 204.54 387.72 204.05 391.08 205.99 287.46 265.81 284.1 263.87 284.96 263.37 278.24 259.49 277.38 259.99 274.02 258.05 377.63 198.22 380.99 200.16 380.14 200.66"/><polygon class="cls-1" points="357.97 219.21 354.73 221.08 284.19 261.81 280.95 259.94 354.73 217.34 357.97 219.21"/><polygon class="cls-1" points="384.39 203.95 381.16 205.82 362.22 216.75 358.99 214.88 381.16 202.08 384.39 203.95"/><polygon class="cls-1" points="284.1 277.09 284.1 263.87 287.46 265.81 287.46 279.03 284.1 277.09"/><polygon class="cls-1" points="357.97 219.21 354.73 221.08 354.73 217.34 357.97 219.21"/><polygon class="cls-1" points="384.39 203.95 381.16 205.82 381.16 202.08 384.39 203.95"/><path class="cls-1" d="M352,287.31l-1,0v10.76h0a.28.28,0,0,0,.15.2.78.78,0,0,0,.7,0,.26.26,0,0,0,.14-.2h0Z"/><path class="cls-1" d="M355.47,289.12l-1,0v10.77h0c0,.07.05.14.15.2a.76.76,0,0,0,.69,0c.1-.06.15-.13.14-.2h0Z"/><path class="cls-1" d="M360.76,288.76l-1,0v10.77h0a.25.25,0,0,0,.15.2.75.75,0,0,0,.7,0,.23.23,0,0,0,.14-.2h0Z"/><path class="cls-1" d="M363.15,285.34l-1,0v10.77h0c0,.07.05.14.15.2a.76.76,0,0,0,.69,0c.1-.06.15-.13.14-.2h0Z"/><path class="cls-1" d="M364.26,275.83l-14.5.32v16.07h0a3.68,3.68,0,0,0,2.14,2.95,11.32,11.32,0,0,0,10.25,0,3.55,3.55,0,0,0,2.11-3h0Z"/><ellipse class="cls-1" cx="357.01" cy="276.19" rx="4.18" ry="7.25" transform="translate(78.89 631.7) rotate(-89.69)"/><path class="cls-1" d="M361.42,278.1a9.69,9.69,0,0,1-8.79,0c-2.44-1.4-2.45-3.67,0-5.07a9.72,9.72,0,0,1,8.79,0C363.83,274.43,363.84,276.7,361.42,278.1Z"/><path class="cls-1" d="M360.26,277.43a1.51,1.51,0,0,1-.28.15,7.31,7.31,0,0,1-5.92,0l-.28-.15-.26-.16c-1.45-1-1.46-2.44,0-3.42a2.26,2.26,0,0,1,.26-.16,1.51,1.51,0,0,1,.28-.15,7.31,7.31,0,0,1,5.92,0,2.49,2.49,0,0,1,.28.15,1.64,1.64,0,0,1,.26.16c1.46,1,1.46,2.44,0,3.42A1.64,1.64,0,0,1,360.26,277.43Z"/><path class="cls-1" d="M360.26,277.43a1.51,1.51,0,0,1-.28.15l-3-1.71-.54-.32-3-1.71a2.26,2.26,0,0,1,.26-.16,1.51,1.51,0,0,1,.28-.15l3,1.71.54.32,3,1.71A1.64,1.64,0,0,1,360.26,277.43Z"/><path class="cls-1" d="M360.5,273.85l-2.95,1.71-.54.31-2.95,1.7-.28-.15-.26-.16,3-1.71.54-.31,2.95-1.7a2.49,2.49,0,0,1,.28.15A1.64,1.64,0,0,1,360.5,273.85Z"/><path class="cls-1" d="M371.77,297.66l-1,0v10.77h0a.25.25,0,0,0,.15.2.75.75,0,0,0,.7,0,.26.26,0,0,0,.14-.21h0Z"/><path class="cls-1" d="M375.23,299.47l-1,0v10.76h0a.23.23,0,0,0,.15.2.73.73,0,0,0,.69,0,.25.25,0,0,0,.15-.21h0Z"/><path class="cls-1" d="M380.51,299.12l-1,0v10.77h0a.26.26,0,0,0,.15.2.78.78,0,0,0,.7,0,.25.25,0,0,0,.14-.2h0Z"/><path class="cls-1" d="M382.91,295.69l-1,0v10.76h0a.23.23,0,0,0,.15.2.73.73,0,0,0,.69,0,.25.25,0,0,0,.15-.21h0Z"/><path class="cls-1" d="M384,286.18l-14.5.33v16.07h0a3.66,3.66,0,0,0,2.14,2.95,11.32,11.32,0,0,0,10.25,0,3.56,3.56,0,0,0,2.11-3h0Z"/><path class="cls-1" d="M381.9,289.51a11.32,11.32,0,0,1-10.25,0c-2.84-1.64-2.85-4.29,0-5.92a11.32,11.32,0,0,1,10.25,0C384.71,285.24,384.72,287.89,381.9,289.51Z"/><path class="cls-1" d="M381.17,288.46a9.72,9.72,0,0,1-8.79,0c-2.44-1.4-2.45-3.68,0-5.07a9.72,9.72,0,0,1,8.79,0C383.58,284.79,383.59,287.06,381.17,288.46Z"/><path class="cls-1" d="M380,287.79l-.28.15a7.31,7.31,0,0,1-5.92,0l-.28-.15-.26-.16a1.9,1.9,0,0,1,0-3.43l.26-.16.28-.15a7.35,7.35,0,0,1,5.92,0l.28.15.26.17c1.46,1,1.46,2.44,0,3.42A3,3,0,0,1,380,287.79Z"/><path class="cls-1" d="M380,287.79l-.28.15-3-1.72-.54-.31-3-1.72.26-.16.28-.15,3,1.72.54.31,3,1.72A3,3,0,0,1,380,287.79Z"/><path class="cls-1" d="M380.25,284.21l-2.95,1.7-.54.31-2.95,1.71-.28-.15-.26-.16,3-1.71.54-.31,2.95-1.71.28.15Z"/><path class="cls-1" d="M333.43,296.38l-1,0v10.77h0a.25.25,0,0,0,.14.2.78.78,0,0,0,.7,0,.23.23,0,0,0,.14-.2h0Z"/><path class="cls-1" d="M336.89,298.19l-1,0V309h0a.24.24,0,0,0,.15.2.78.78,0,0,0,.7,0,.23.23,0,0,0,.14-.2h0Z"/><path class="cls-1" d="M342.17,297.84l-1,0v10.77h0a.26.26,0,0,0,.14.2.78.78,0,0,0,.7,0,.24.24,0,0,0,.14-.2h0Z"/><path class="cls-1" d="M344.57,294.41l-1,0V305.2h0a.26.26,0,0,0,.15.2.78.78,0,0,0,.7,0,.23.23,0,0,0,.14-.2h0Z"/><path class="cls-1" d="M345.67,284.9l-14.49.33V301.3h0a3.62,3.62,0,0,0,2.14,2.95,11.3,11.3,0,0,0,10.24,0,3.56,3.56,0,0,0,2.11-3h0Z"/><ellipse class="cls-1" cx="338.42" cy="285.27" rx="4.18" ry="7.25" transform="matrix(0.01, -1, 1, 0.01, 51.33, 622.14)"/><path class="cls-1" d="M342.83,287.18a9.72,9.72,0,0,1-8.79,0c-2.43-1.41-2.45-3.68,0-5.08a9.74,9.74,0,0,1,8.8,0C345.24,283.51,345.25,285.78,342.83,287.18Z"/><path class="cls-1" d="M341.68,286.51l-.28.15a7.37,7.37,0,0,1-5.93,0l-.28-.15-.26-.17a1.89,1.89,0,0,1,0-3.42l.26-.16.28-.15a7.37,7.37,0,0,1,5.93,0l.28.15.26.17a1.89,1.89,0,0,1,0,3.42Z"/><path class="cls-1" d="M341.68,286.51l-.28.15-3-1.72-.55-.31-3-1.72.26-.16.28-.15,3,1.72.55.31,3,1.72Z"/><path class="cls-1" d="M341.92,282.93l-2.95,1.7-.54.31-3,1.71-.28-.15-.26-.17,2.95-1.7.54-.31,3-1.71.28.15Z"/><path class="cls-1" d="M269.08,250.41H228.42v4.17h0c-.13,3.1,1.86,6.24,6,8.62,8,4.6,20.84,4.62,28.75.05,4-2.29,5.94-5.31,5.91-8.32h0Z"/><ellipse class="cls-1" cx="248.75" cy="250.41" rx="11.74" ry="20.33" transform="matrix(0.01, -1, 1, 0.01, -3, 497.8)"/><path class="cls-1" d="M262.32,257.86c-7.59,4.38-19.93,4.36-27.57-.05s-7.67-11.54-.08-15.92,19.93-4.36,27.57.05S269.91,253.47,262.32,257.86Z"/><polygon class="cls-3" points="135.39 261.69 118.59 251.99 147.38 235.37 164.18 245.06 135.39 261.69"/><polygon class="cls-1" points="134.04 260.93 156.04 248.22 156.04 233.81 134.04 246.51 134.04 260.93"/><polygon class="cls-1" points="134.04 260.93 113.46 249.04 113.46 234.63 134.04 246.51 134.04 260.93"/><polygon class="cls-1" points="130.5 256.39 117.01 248.61 117.01 239.03 130.5 246.82 130.5 256.39"/><polygon class="cls-1" points="126.57 256.52 119.09 252.2 119.09 246.89 126.57 251.21 126.57 256.52"/><polygon class="cls-1" points="134.04 246.51 113.46 234.63 135.46 221.92 156.04 233.81 134.04 246.51"/><polygon class="cls-1" points="135.46 221.92 154.32 233.81 134.04 245.6 113.46 234.63 134.04 246.51 156.04 233.81 135.46 221.92"/><polygon class="cls-1" points="134.04 247.03 156.04 234.32 156.04 219.91 134.04 232.61 134.04 247.03"/><polygon class="cls-1" points="134.04 247.03 113.46 235.15 113.46 220.73 134.04 232.61 134.04 247.03"/><polygon class="cls-1" points="130.5 242.5 117.01 234.71 117.01 225.13 130.5 232.92 130.5 242.5"/><polygon class="cls-1" points="126.57 242.63 119.09 238.31 119.09 232.99 126.57 237.31 126.57 242.63"/><polygon class="cls-1" points="134.04 232.61 113.46 220.73 135.46 208.03 156.04 219.91 134.04 232.61"/><polygon class="cls-1" points="155.98 273.57 177.98 260.87 177.98 246.45 155.98 259.15 155.98 273.57"/><polygon class="cls-1" points="155.98 273.57 135.39 261.69 135.39 247.27 155.98 259.15 155.98 273.57"/><polygon class="cls-1" points="152.43 269.04 138.94 261.25 138.94 251.67 152.43 259.46 152.43 269.04"/><polygon class="cls-1" points="148.5 269.17 141.02 264.85 141.02 259.53 148.5 263.85 148.5 269.17"/><polygon class="cls-1" points="155.98 259.15 135.39 247.27 157.4 234.57 177.98 246.45 155.98 259.15"/><polygon class="cls-1" points="157.4 234.57 176.25 246.45 155.98 258.25 135.39 247.27 155.98 259.15 177.98 246.45 157.4 234.57"/><polygon class="cls-1" points="155.98 259.15 177.98 246.45 177.98 232.04 155.98 244.74 155.98 259.15"/><polygon class="cls-1" points="155.98 259.15 135.39 247.27 135.39 232.86 155.98 244.74 155.98 259.15"/><polygon class="cls-1" points="152.43 254.62 138.94 246.84 138.94 237.26 152.43 245.04 152.43 254.62"/><polygon class="cls-1" points="148.5 254.75 141.02 250.43 141.02 245.12 148.5 249.44 148.5 254.75"/><polygon class="cls-1" points="155.98 244.74 135.39 232.86 157.4 220.15 177.98 232.04 155.98 244.74"/><polygon class="cls-1" points="182.05 288.15 210.84 271.53 210.84 222.58 182.05 239.2 182.05 288.15"/><polygon class="cls-1" points="182.05 288.15 165.25 278.45 165.25 229.5 182.05 239.2 182.05 288.15"/><polygon class="cls-1" points="182.05 239.2 165.25 229.5 194.04 212.88 210.84 222.58 182.05 239.2"/><path class="cls-1" d="M179.1,262.1c0,3.51-2.47,4.92-5.52,3.15a12.16,12.16,0,0,1-5.53-9.53c0-3.5,2.47-4.91,5.53-3.15A12.17,12.17,0,0,1,179.1,262.1Z"/><polygon class="cls-1" points="177.29 265.74 172.13 268.44 164.75 254.76 170.02 252.01 176.58 258.64 177.29 265.74"/><path class="cls-1" d="M179.1,278.15c0,3.51-2.47,4.92-5.52,3.15a12.16,12.16,0,0,1-5.53-9.53c0-3.5,2.47-4.91,5.53-3.15A12.17,12.17,0,0,1,179.1,278.15Z"/><polygon class="cls-1" points="177.29 281.79 172.38 284.38 164.75 270.81 169.81 268.16 177.29 281.79"/><path class="cls-1" d="M179.1,246.05c0,3.51-2.47,4.92-5.52,3.15a12.16,12.16,0,0,1-5.53-9.53c0-3.5,2.47-4.91,5.53-3.15A12.17,12.17,0,0,1,179.1,246.05Z"/><polygon class="cls-1" points="177.92 249.28 172.44 252.25 164.75 238.71 169.84 236.04 175.77 242.04 177.92 249.28"/><path class="cls-1" d="M174.16,264.7c0,3.5-2.47,4.91-5.52,3.15a12.18,12.18,0,0,1-5.53-9.53c0-3.5,2.48-4.92,5.53-3.15A12.17,12.17,0,0,1,174.16,264.7Z"/><path class="cls-1" d="M171.72,263.29c0,1.95-1.38,2.74-3.08,1.76a6.8,6.8,0,0,1-3.09-5.32c0-2,1.38-2.75,3.09-1.76A6.79,6.79,0,0,1,171.72,263.29Z"/><path class="cls-1" d="M174.16,280.75c0,3.5-2.47,4.91-5.52,3.15a12.18,12.18,0,0,1-5.53-9.53c0-3.5,2.48-4.92,5.53-3.15A12.17,12.17,0,0,1,174.16,280.75Z"/><path class="cls-1" d="M171.72,279.34c0,2-1.38,2.74-3.08,1.76a6.8,6.8,0,0,1-3.09-5.32c0-2,1.38-2.75,3.09-1.76A6.79,6.79,0,0,1,171.72,279.34Z"/><path class="cls-1" d="M174.16,248.65c0,3.5-2.47,4.91-5.52,3.15a12.18,12.18,0,0,1-5.53-9.53c0-3.5,2.48-4.92,5.53-3.15A12.17,12.17,0,0,1,174.16,248.65Z"/><path class="cls-1" d="M171.72,247.24c0,1.95-1.38,2.74-3.08,1.76a6.8,6.8,0,0,1-3.09-5.32c0-2,1.38-2.75,3.09-1.76A6.79,6.79,0,0,1,171.72,247.24Z"/><path class="cls-1" d="M230.78,278.61l0,0a.81.81,0,0,1-1,0h0a.85.85,0,0,1-.28-.61v-6a.15.15,0,0,0-.08-.15.19.19,0,0,0-.18,0L227,273.21l-.86-1.39,2.16-1.33a1.87,1.87,0,0,1,1.42-.25A1.8,1.8,0,0,1,231.1,272v6A.81.81,0,0,1,230.78,278.61Z"/><g class="cls-2"><path class="cls-1" d="M226.87,268.68a8.06,8.06,0,0,1,3.58,6.35c0,2.31-1.69,3.21-3.71,2a8,8,0,0,1-3.57-6.35C223.2,268.39,224.86,267.49,226.87,268.68Z"/><g class="cls-2"><path class="cls-4" d="M224.24,268.4a2.52,2.52,0,0,0-1.07,2.3,8,8,0,0,0,3.57,6.35,2.58,2.58,0,0,0,2.63.28L222,281.54a2.58,2.58,0,0,1-2.63-.29,8,8,0,0,1-3.58-6.34,2.56,2.56,0,0,1,1.08-2.31Z"/><g class="cls-5"><g class="cls-2"><path class="cls-1" d="M224.24,268.4l-7.33,4.2a2.56,2.56,0,0,0-1.08,2.31V275l7.34-4.2v-.08a2.52,2.52,0,0,1,1.07-2.3Z"/><path class="cls-1" d="M223.17,270.78l-7.34,4.2a6,6,0,0,0,.23,1.59l7.33-4.21a5.84,5.84,0,0,1-.22-1.58Z"/><path class="cls-1" d="M223.39,272.36l-7.33,4.21a7.73,7.73,0,0,0,.75,1.85l7.33-4.21a8.65,8.65,0,0,1-.75-1.85Z"/><path class="cls-1" d="M224.14,274.21l-7.33,4.21a8.56,8.56,0,0,0,.88,1.31l7.34-4.21a8.62,8.62,0,0,1-.89-1.31Z"/><path class="cls-1" d="M225,275.52l-7.34,4.21a6.53,6.53,0,0,0,1.62,1.46l7.34-4.2a6.78,6.78,0,0,1-1.62-1.47Z"/><path class="cls-1" d="M226.65,277l-7.34,4.2.1.06a3.58,3.58,0,0,0,1.18.48l7.33-4.21a3.87,3.87,0,0,1-1.18-.47l-.09-.06Z"/><path class="cls-1" d="M227.92,277.52l-7.33,4.21a2.06,2.06,0,0,0,1.45-.19l7.33-4.21a2.06,2.06,0,0,1-1.45.19Z"/></g></g><path class="cls-6" d="M224.24,268.4a2.52,2.52,0,0,0-1.07,2.3,8,8,0,0,0,3.57,6.35,2.58,2.58,0,0,0,2.63.28L222,281.54a2.58,2.58,0,0,1-2.63-.29,8,8,0,0,1-3.58-6.34,2.56,2.56,0,0,1,1.08-2.31Z"/></g><g class="cls-2"><path class="cls-4" d="M219.54,272.89l-.31.89c-1.66-1-3-.24-3.07,1.67a6.65,6.65,0,0,0,3,5.25c1.66,1,3,.24,3.07-1.67a6.64,6.64,0,0,0-3-5.25l.31-.89a8,8,0,0,1,3.58,6.34c0,2.31-1.7,3.22-3.71,2a8,8,0,0,1-3.58-6.34C215.87,272.6,217.53,271.7,219.54,272.89Z"/><g class="cls-7"><g class="cls-2"><path class="cls-1" d="M219.54,272.89l-.31.89c-1.66-1-3-.24-3.07,1.67a6.65,6.65,0,0,0,3,5.25c1.66,1,3,.24,3.07-1.67a5.88,5.88,0,0,0-.58-2.45l.8-.31a7.11,7.11,0,0,1,.7,3c0,2.31-1.7,3.22-3.71,2a8,8,0,0,1-3.58-6.34c0-2.31,1.7-3.21,3.71-2Z"/><path class="cls-1" d="M222.42,276.27l-.8.31a7.07,7.07,0,0,0-1.49-2.11l.49-.74a8.42,8.42,0,0,1,1.8,2.54Z"/><path class="cls-1" d="M220.62,273.73l-.49.74a4.49,4.49,0,0,0-.9-.69l.31-.89a6,6,0,0,1,1.08.84Z"/></g></g><path class="cls-6" d="M219.54,272.89l-.31.89c-1.66-1-3-.24-3.07,1.67a6.65,6.65,0,0,0,3,5.25c1.66,1,3,.24,3.07-1.67a6.64,6.64,0,0,0-3-5.25l.31-.89a8,8,0,0,1,3.58,6.34c0,2.31-1.7,3.22-3.71,2a8,8,0,0,1-3.58-6.34C215.87,272.6,217.53,271.7,219.54,272.89Z"/></g><g class="cls-2"><path class="cls-4" d="M217.06,273.54a2.12,2.12,0,0,0-.9,1.91,6.65,6.65,0,0,0,3,5.25,2.12,2.12,0,0,0,2.17.24l-1.68,1a2.14,2.14,0,0,1-2.18-.24,6.63,6.63,0,0,1-3-5.25,2.1,2.1,0,0,1,.89-1.91Z"/><g class="cls-8"><g class="cls-2"><path class="cls-1" d="M217.06,273.54l-1.69,1a2.1,2.1,0,0,0-.89,1.91v.06l1.68-1v-.06a2.12,2.12,0,0,1,.9-1.91Z"/><path class="cls-1" d="M216.16,275.51l-1.68,1a5,5,0,0,0,.18,1.31l1.69-1a5.06,5.06,0,0,1-.19-1.31Z"/><path class="cls-1" d="M216.35,276.82l-1.69,1a6.75,6.75,0,0,0,.63,1.54l1.68-1a7,7,0,0,1-.62-1.54Z"/><path class="cls-1" d="M217,278.36l-1.68,1a6.6,6.6,0,0,0,.73,1.08l1.69-1a7.36,7.36,0,0,1-.74-1.08Z"/><path class="cls-1" d="M217.71,279.44l-1.69,1a5.43,5.43,0,0,0,1.34,1.21l1.69-1a5.5,5.5,0,0,1-1.34-1.22Z"/><path class="cls-1" d="M219.05,280.66l-1.69,1,.08.05a2.94,2.94,0,0,0,1,.4l1.69-1a2.94,2.94,0,0,1-1-.4l-.08,0Z"/><path class="cls-1" d="M220.11,281.1l-1.69,1a1.72,1.72,0,0,0,1.2-.16l1.68-1a1.69,1.69,0,0,1-1.19.16Z"/></g></g><path class="cls-6" d="M217.06,273.54a2.12,2.12,0,0,0-.9,1.91,6.65,6.65,0,0,0,3,5.25,2.12,2.12,0,0,0,2.17.24l-1.68,1a2.14,2.14,0,0,1-2.18-.24,6.63,6.63,0,0,1-3-5.25,2.1,2.1,0,0,1,.89-1.91Z"/></g><g class="cls-2"><path class="cls-4" d="M216.91,272.6l7.33-4.2a2.6,2.6,0,0,1,2.63.28l-7.33,4.21A2.61,2.61,0,0,0,216.91,272.6Z"/><g class="cls-9"><g class="cls-2"><path class="cls-1" d="M226.87,268.68l-7.33,4.21a3.77,3.77,0,0,0-1.18-.47l7.33-4.21a3.77,3.77,0,0,1,1.18.47Z"/><path class="cls-1" d="M225.69,268.21l-7.33,4.21a2,2,0,0,0-1.45.18l7.33-4.2a2.07,2.07,0,0,1,1.45-.19Z"/></g></g><path class="cls-6" d="M216.91,272.6l7.33-4.2a2.6,2.6,0,0,1,2.63.28l-7.33,4.21A2.61,2.61,0,0,0,216.91,272.6Z"/></g><g class="cls-2"><path class="cls-4" d="M214.55,273.88a2.56,2.56,0,0,0-1.1,2.33,8.15,8.15,0,0,0,3.63,6.44,2.66,2.66,0,0,0,2.67.29L218,284a2.66,2.66,0,0,1-2.67-.29,8.15,8.15,0,0,1-3.63-6.44,2.58,2.58,0,0,1,1.1-2.33Z"/><g class="cls-10"><g class="cls-2"><path class="cls-1" d="M214.55,273.88l-1.78,1a2.58,2.58,0,0,0-1.1,2.33v.08l1.78-1v-.08a2.56,2.56,0,0,1,1.1-2.33Z"/><path class="cls-1" d="M213.45,276.29l-1.78,1a6.14,6.14,0,0,0,.23,1.61l1.78-1a6.14,6.14,0,0,1-.23-1.61Z"/><path class="cls-1" d="M213.68,277.9l-1.78,1a8.37,8.37,0,0,0,.77,1.88l1.78-1a8.12,8.12,0,0,1-.77-1.87Z"/><path class="cls-1" d="M214.45,279.77l-1.78,1a9.24,9.24,0,0,0,.89,1.32l1.78-1a8.12,8.12,0,0,1-.89-1.33Z"/><path class="cls-1" d="M215.34,281.1l-1.78,1a6.93,6.93,0,0,0,1.64,1.49l1.78-1a6.93,6.93,0,0,1-1.64-1.49Z"/><path class="cls-1" d="M217,282.59l-1.78,1,.1.06a3.67,3.67,0,0,0,1.2.48l1.78-1a3.67,3.67,0,0,1-1.2-.48l-.1-.06Z"/><path class="cls-1" d="M218.28,283.13l-1.78,1A2.12,2.12,0,0,0,218,284l1.78-1a2.12,2.12,0,0,1-1.47.19Z"/></g></g><path class="cls-6" d="M214.55,273.88a2.56,2.56,0,0,0-1.1,2.33,8.15,8.15,0,0,0,3.63,6.44,2.66,2.66,0,0,0,2.67.29L218,284a2.66,2.66,0,0,1-2.67-.29,8.15,8.15,0,0,1-3.63-6.44,2.58,2.58,0,0,1,1.1-2.33Z"/></g><g class="cls-2"><path class="cls-4" d="M215.37,274.51l1.69-1a2.12,2.12,0,0,1,2.17.24l-1.68,1A2.14,2.14,0,0,0,215.37,274.51Z"/><g class="cls-11"><g class="cls-2"><path class="cls-1" d="M219.23,273.78l-1.68,1a3,3,0,0,0-1-.4l1.69-1a3,3,0,0,1,1,.4Z"/><path class="cls-1" d="M218.26,273.38l-1.69,1a1.71,1.71,0,0,0-1.2.16l1.69-1a1.71,1.71,0,0,1,1.2-.16Z"/></g></g><path class="cls-6" d="M215.37,274.51l1.69-1a2.12,2.12,0,0,1,2.17.24l-1.68,1A2.14,2.14,0,0,0,215.37,274.51Z"/></g><g class="cls-2"><path class="cls-4" d="M229.37,277.33,222,281.54a2.55,2.55,0,0,0,1.08-2.31,8,8,0,0,0-3.58-6.34l7.33-4.21a8.06,8.06,0,0,1,3.58,6.35A2.54,2.54,0,0,1,229.37,277.33Z"/><g class="cls-12"><g class="cls-2"><path class="cls-1" d="M229.37,277.33,222,281.54a2.55,2.55,0,0,0,1.08-2.31v-.07l7.33-4.2V275a2.54,2.54,0,0,1-1.08,2.3Z"/><path class="cls-1" d="M230.45,275l-7.33,4.2a5.86,5.86,0,0,0-.23-1.58l7.34-4.21a6.34,6.34,0,0,1,.22,1.59Z"/><path class="cls-1" d="M230.23,273.37l-7.34,4.21a8.43,8.43,0,0,0-.75-1.86l7.33-4.2a8.2,8.2,0,0,1,.76,1.85Z"/><path class="cls-1" d="M229.47,271.52l-7.33,4.2a9.67,9.67,0,0,0-.88-1.31l7.33-4.2a7.89,7.89,0,0,1,.88,1.31Z"/><path class="cls-1" d="M228.59,270.21l-7.33,4.2a7.12,7.12,0,0,0-1.62-1.46l7.33-4.21a6.78,6.78,0,0,1,1.62,1.47Z"/><path class="cls-1" d="M227,268.74,219.64,273l-.1-.06,7.33-4.21.1.06Z"/></g></g><path class="cls-6" d="M229.37,277.33,222,281.54a2.55,2.55,0,0,0,1.08-2.31,8,8,0,0,0-3.58-6.34l7.33-4.21a8.06,8.06,0,0,1,3.58,6.35A2.54,2.54,0,0,1,229.37,277.33Z"/></g><g class="cls-2"><path class="cls-4" d="M221.3,280.94l-1.68,1a2.12,2.12,0,0,0,.89-1.91,6.64,6.64,0,0,0-3-5.25l1.68-1a6.64,6.64,0,0,1,3,5.25A2.12,2.12,0,0,1,221.3,280.94Z"/><g class="cls-13"><g class="cls-2"><path class="cls-1" d="M221.3,280.94l-1.68,1a2.12,2.12,0,0,0,.89-1.91v-.06l1.69-1V279a2.12,2.12,0,0,1-.9,1.91Z"/><path class="cls-1" d="M222.2,279l-1.69,1a5.06,5.06,0,0,0-.19-1.31l1.69-1a5.06,5.06,0,0,1,.19,1.31Z"/><path class="cls-1" d="M222,277.66l-1.69,1a7,7,0,0,0-.62-1.54l1.69-1a7.2,7.2,0,0,1,.62,1.54Z"/><path class="cls-1" d="M221.39,276.12l-1.69,1A7.3,7.3,0,0,0,219,276l1.69-1a7.3,7.3,0,0,1,.73,1.08Z"/><path class="cls-1" d="M220.66,275,219,276a5.89,5.89,0,0,0-1.34-1.22l1.69-1a5.61,5.61,0,0,1,1.34,1.21Z"/><path class="cls-1" d="M219.32,273.83l-1.69,1-.08,0,1.68-1,.09.05Z"/></g></g><path class="cls-6" d="M221.3,280.94l-1.68,1a2.12,2.12,0,0,0,.89-1.91,6.64,6.64,0,0,0-3-5.25l1.68-1a6.64,6.64,0,0,1,3,5.25A2.12,2.12,0,0,1,221.3,280.94Z"/></g><g class="cls-2"><path class="cls-4" d="M217.55,274.75c-1.67-1-3-.25-3.07,1.67a6.63,6.63,0,0,0,3,5.25c1.67,1,3,.24,3.07-1.67a6.64,6.64,0,0,0-3-5.25l-.34-.58a8.12,8.12,0,0,1,3.63,6.43c0,2.34-1.72,3.26-3.76,2a8.15,8.15,0,0,1-3.63-6.44c0-2.34,1.72-3.26,3.76-2Z"/><g class="cls-14"><g class="cls-2"><path class="cls-1" d="M217.55,274.75l-.34-.58c-2-1.22-3.72-.3-3.76,2a6.79,6.79,0,0,0,.42,2.3l.95-.21a5.35,5.35,0,0,1-.34-1.88c0-1.92,1.4-2.66,3.07-1.67Z"/><path class="cls-1" d="M214.82,278.3l-.95.21a8.55,8.55,0,0,0,2.64,3.75l.46-.91a6.93,6.93,0,0,1-2.15-3.05Z"/><path class="cls-1" d="M217,281.35l-.46.91.57.39c2,1.21,3.73.29,3.76-2a8.12,8.12,0,0,0-3.63-6.43l.34.58a6.64,6.64,0,0,1,3,5.25c0,1.91-1.4,2.66-3.07,1.67a4.35,4.35,0,0,1-.47-.32Z"/></g></g><path class="cls-6" d="M217.55,274.75c-1.67-1-3-.25-3.07,1.67a6.63,6.63,0,0,0,3,5.25c1.67,1,3,.24,3.07-1.67a6.64,6.64,0,0,0-3-5.25l-.34-.58a8.12,8.12,0,0,1,3.63,6.43c0,2.34-1.72,3.26-3.76,2a8.15,8.15,0,0,1-3.63-6.44c0-2.34,1.72-3.26,3.76-2Z"/></g><g class="cls-2"><path class="cls-4" d="M212.77,274.9l1.78-1a2.59,2.59,0,0,1,2.66.29l-1.78,1A2.59,2.59,0,0,0,212.77,274.9Z"/><g class="cls-15"><g class="cls-2"><path class="cls-1" d="M217.21,274.17l-1.78,1a3.9,3.9,0,0,0-1.19-.49l1.78-1a4,4,0,0,1,1.19.49Z"/><path class="cls-1" d="M216,273.68l-1.78,1a2.06,2.06,0,0,0-1.47.2l1.78-1a2.06,2.06,0,0,1,1.47-.2Z"/></g></g><path class="cls-6" d="M212.77,274.9l1.78-1a2.59,2.59,0,0,1,2.66.29l-1.78,1A2.59,2.59,0,0,0,212.77,274.9Z"/></g><path class="cls-1" d="M215.43,275.19a8.12,8.12,0,0,1,3.63,6.43c0,2.34-1.72,3.26-3.76,2.05a8.15,8.15,0,0,1-3.63-6.44C211.71,274.89,213.39,274,215.43,275.19Z"/><g class="cls-2"><path class="cls-4" d="M219.75,282.94,218,284a2.59,2.59,0,0,0,1.09-2.34,8.12,8.12,0,0,0-3.63-6.43l1.78-1a8.12,8.12,0,0,1,3.63,6.43A2.59,2.59,0,0,1,219.75,282.94Z"/><g class="cls-16"><g class="cls-2"><path class="cls-1" d="M219.75,282.94,218,284a2.59,2.59,0,0,0,1.09-2.34v-.07l1.78-1v.07a2.59,2.59,0,0,1-1.09,2.34Z"/><path class="cls-1" d="M220.84,280.53l-1.78,1a6.5,6.5,0,0,0-.22-1.61l1.78-1a6.5,6.5,0,0,1,.22,1.61Z"/><path class="cls-1" d="M220.62,278.92l-1.78,1a9,9,0,0,0-.77-1.88l1.78-1a9,9,0,0,1,.77,1.88Z"/><path class="cls-1" d="M219.85,277l-1.78,1a9.34,9.34,0,0,0-.89-1.33l1.77-1a8.63,8.63,0,0,1,.9,1.33Z"/><path class="cls-1" d="M219,275.71l-1.77,1a6.74,6.74,0,0,0-1.65-1.48l1.78-1a6.52,6.52,0,0,1,1.64,1.48Z"/><path class="cls-1" d="M217.31,274.23l-1.78,1-.1-.06,1.78-1,.1.06Z"/></g></g><path class="cls-6" d="M219.75,282.94,218,284a2.59,2.59,0,0,0,1.09-2.34,8.12,8.12,0,0,0-3.63-6.43l1.78-1a8.12,8.12,0,0,1,3.63,6.43A2.59,2.59,0,0,1,219.75,282.94Z"/></g></g><path class="cls-1" d="M212.25,287.71l0,0a.79.79,0,0,1-1,0h0a.79.79,0,0,1-.25-.58V282.4a3.16,3.16,0,0,1,1.57-2.74l1.94-1.15.83,1.41-1.95,1.14a1.56,1.56,0,0,0-.76,1.34v4.69A.79.79,0,0,1,212.25,287.71Z"/><path class="cls-1" d="M243.41,287l0,0a.78.78,0,0,1-1,0h0a.81.81,0,0,1-.28-.6v-6a.15.15,0,0,0-.08-.15.17.17,0,0,0-.18,0l-2.21,1.37-.86-1.39,2.16-1.33a1.92,1.92,0,0,1,1.42-.26,1.81,1.81,0,0,1,1.39,1.76v6A.79.79,0,0,1,243.41,287Z"/><g class="cls-2"><path class="cls-1" d="M239.5,277.12a8.06,8.06,0,0,1,3.58,6.35c0,2.31-1.69,3.21-3.71,2a8,8,0,0,1-3.57-6.35C235.83,276.83,237.49,275.93,239.5,277.12Z"/><g class="cls-2"><path class="cls-4" d="M236.87,276.84a2.52,2.52,0,0,0-1.07,2.3,8,8,0,0,0,3.57,6.35,2.6,2.6,0,0,0,2.63.28L234.67,290a2.61,2.61,0,0,1-2.63-.29,8,8,0,0,1-3.58-6.34,2.56,2.56,0,0,1,1.08-2.31Z"/><g class="cls-17"><g class="cls-2"><path class="cls-1" d="M236.87,276.84l-7.33,4.2a2.56,2.56,0,0,0-1.08,2.31v.07l7.34-4.21v-.07a2.52,2.52,0,0,1,1.07-2.3Z"/><path class="cls-1" d="M235.8,279.21l-7.34,4.21a6,6,0,0,0,.23,1.59L236,280.8a5.91,5.91,0,0,1-.22-1.59Z"/><path class="cls-1" d="M236,280.8,228.69,285a8.08,8.08,0,0,0,.75,1.85l7.33-4.21a8.65,8.65,0,0,1-.75-1.85Z"/><path class="cls-1" d="M236.77,282.65l-7.33,4.21a9.67,9.67,0,0,0,.88,1.31l7.34-4.21a8.62,8.62,0,0,1-.89-1.31Z"/><path class="cls-1" d="M237.66,284l-7.34,4.21a6.73,6.73,0,0,0,1.62,1.46l7.34-4.2a6.78,6.78,0,0,1-1.62-1.47Z"/><path class="cls-1" d="M239.28,285.43l-7.34,4.2.1.06a3.81,3.81,0,0,0,1.18.48l7.33-4.21a3.87,3.87,0,0,1-1.18-.47l-.09-.06Z"/><path class="cls-1" d="M240.55,286l-7.33,4.21a2.06,2.06,0,0,0,1.45-.19l7.33-4.21a2.06,2.06,0,0,1-1.45.19Z"/></g></g><path class="cls-6" d="M236.87,276.84a2.52,2.52,0,0,0-1.07,2.3,8,8,0,0,0,3.57,6.35,2.6,2.6,0,0,0,2.63.28L234.67,290a2.61,2.61,0,0,1-2.63-.29,8,8,0,0,1-3.58-6.34,2.56,2.56,0,0,1,1.08-2.31Z"/></g><g class="cls-2"><path class="cls-4" d="M232.17,281.33l-.31.88c-1.66-1-3-.24-3.07,1.68a6.66,6.66,0,0,0,3,5.25c1.66,1,3,.24,3.07-1.67a6.66,6.66,0,0,0-3-5.26l.31-.88a8,8,0,0,1,3.58,6.34c0,2.31-1.7,3.22-3.71,2a8,8,0,0,1-3.58-6.34C228.5,281,230.16,280.13,232.17,281.33Z"/><g class="cls-18"><g class="cls-2"><path class="cls-1" d="M232.17,281.33l-.31.88c-1.66-1-3-.24-3.07,1.68a6.66,6.66,0,0,0,3,5.25c1.66,1,3,.24,3.07-1.67a5.81,5.81,0,0,0-.58-2.45l.8-.31a7.07,7.07,0,0,1,.7,3c0,2.31-1.7,3.22-3.71,2a8,8,0,0,1-3.58-6.34c0-2.31,1.7-3.22,3.71-2Z"/><path class="cls-1" d="M235.05,284.71l-.8.31a7,7,0,0,0-1.49-2.11l.49-.75a8.59,8.59,0,0,1,1.8,2.55Z"/><path class="cls-1" d="M233.25,282.16l-.49.75a5,5,0,0,0-.9-.7l.31-.88a6,6,0,0,1,1.08.83Z"/></g></g><path class="cls-6" d="M232.17,281.33l-.31.88c-1.66-1-3-.24-3.07,1.68a6.66,6.66,0,0,0,3,5.25c1.66,1,3,.24,3.07-1.67a6.66,6.66,0,0,0-3-5.26l.31-.88a8,8,0,0,1,3.58,6.34c0,2.31-1.7,3.22-3.71,2a8,8,0,0,1-3.58-6.34C228.5,281,230.16,280.13,232.17,281.33Z"/></g><g class="cls-2"><path class="cls-4" d="M229.69,282a2.12,2.12,0,0,0-.9,1.91,6.66,6.66,0,0,0,3,5.25,2.15,2.15,0,0,0,2.17.24l-1.68,1a2.16,2.16,0,0,1-2.18-.24,6.63,6.63,0,0,1-3-5.25A2.08,2.08,0,0,1,228,283Z"/><g class="cls-19"><g class="cls-2"><path class="cls-1" d="M229.69,282,228,283a2.08,2.08,0,0,0-.89,1.91v.06l1.68-1v-.06a2.12,2.12,0,0,1,.9-1.91Z"/><path class="cls-1" d="M228.79,284l-1.68,1a5.1,5.1,0,0,0,.18,1.31l1.69-1a5.06,5.06,0,0,1-.19-1.31Z"/><path class="cls-1" d="M229,285.26l-1.69,1a6.5,6.5,0,0,0,.63,1.53l1.68-1a6.92,6.92,0,0,1-.62-1.53Z"/><path class="cls-1" d="M229.6,286.79l-1.68,1a6.69,6.69,0,0,0,.73,1.09l1.69-1a7,7,0,0,1-.74-1.09Z"/><path class="cls-1" d="M230.34,287.88l-1.69,1a5.43,5.43,0,0,0,1.34,1.21l1.69-1a5.26,5.26,0,0,1-1.34-1.21Z"/><path class="cls-1" d="M231.68,289.09l-1.69,1,.08.05a3.13,3.13,0,0,0,1,.39l1.69-1a3.44,3.44,0,0,1-1-.4l-.08-.05Z"/><path class="cls-1" d="M232.74,289.54l-1.69,1a1.67,1.67,0,0,0,1.2-.15l1.68-1a1.69,1.69,0,0,1-1.19.16Z"/></g></g><path class="cls-6" d="M229.69,282a2.12,2.12,0,0,0-.9,1.91,6.66,6.66,0,0,0,3,5.25,2.15,2.15,0,0,0,2.17.24l-1.68,1a2.16,2.16,0,0,1-2.18-.24,6.63,6.63,0,0,1-3-5.25A2.08,2.08,0,0,1,228,283Z"/></g><g class="cls-2"><path class="cls-4" d="M229.54,281l7.33-4.2a2.58,2.58,0,0,1,2.63.28l-7.33,4.21A2.61,2.61,0,0,0,229.54,281Z"/><g class="cls-20"><g class="cls-2"><path class="cls-1" d="M239.5,277.12l-7.33,4.21a3.81,3.81,0,0,0-1.18-.48l7.33-4.2a3.77,3.77,0,0,1,1.18.47Z"/><path class="cls-1" d="M238.32,276.65l-7.33,4.2a2.06,2.06,0,0,0-1.45.19l7.33-4.2a2.07,2.07,0,0,1,1.45-.19Z"/></g></g><path class="cls-6" d="M229.54,281l7.33-4.2a2.58,2.58,0,0,1,2.63.28l-7.33,4.21A2.61,2.61,0,0,0,229.54,281Z"/></g><g class="cls-2"><path class="cls-4" d="M227.18,282.31a2.6,2.6,0,0,0-1.1,2.34,8.18,8.18,0,0,0,3.63,6.44,2.66,2.66,0,0,0,2.67.29l-1.78,1a2.66,2.66,0,0,1-2.67-.29,8.17,8.17,0,0,1-3.63-6.44,2.6,2.6,0,0,1,1.1-2.34Z"/><g class="cls-21"><g class="cls-2"><path class="cls-1" d="M227.18,282.31l-1.78,1a2.6,2.6,0,0,0-1.1,2.34v.08l1.78-1v-.08a2.6,2.6,0,0,1,1.1-2.34Z"/><path class="cls-1" d="M226.08,284.73l-1.78,1a6.06,6.06,0,0,0,.23,1.6l1.78-1a6.06,6.06,0,0,1-.23-1.6Z"/><path class="cls-1" d="M226.31,286.33l-1.78,1a8,8,0,0,0,.77,1.88l1.78-1a8,8,0,0,1-.77-1.88Z"/><path class="cls-1" d="M227.08,288.21l-1.78,1a9.34,9.34,0,0,0,.89,1.33l1.78-1a8.57,8.57,0,0,1-.89-1.33Z"/><path class="cls-1" d="M228,289.54l-1.78,1a7.15,7.15,0,0,0,1.64,1.49l1.78-1a7.15,7.15,0,0,1-1.64-1.49Z"/><path class="cls-1" d="M229.61,291l-1.78,1,.1.06a4.18,4.18,0,0,0,1.2.48l1.78-1a4.18,4.18,0,0,1-1.2-.48l-.1-.06Z"/><path class="cls-1" d="M230.91,291.57l-1.78,1a2.12,2.12,0,0,0,1.47-.19l1.78-1a2.12,2.12,0,0,1-1.47.19Z"/></g></g><path class="cls-6" d="M227.18,282.31a2.6,2.6,0,0,0-1.1,2.34,8.18,8.18,0,0,0,3.63,6.44,2.66,2.66,0,0,0,2.67.29l-1.78,1a2.66,2.66,0,0,1-2.67-.29,8.17,8.17,0,0,1-3.63-6.44,2.6,2.6,0,0,1,1.1-2.34Z"/></g><g class="cls-2"><path class="cls-4" d="M228,283l1.69-1a2.14,2.14,0,0,1,2.17.23l-1.68,1A2.16,2.16,0,0,0,228,283Z"/><g class="cls-22"><g class="cls-2"><path class="cls-1" d="M231.86,282.21l-1.68,1a3.23,3.23,0,0,0-1-.39l1.69-1a3.18,3.18,0,0,1,1,.39Z"/><path class="cls-1" d="M230.89,281.82l-1.69,1a1.66,1.66,0,0,0-1.2.16l1.69-1a1.71,1.71,0,0,1,1.2-.16Z"/></g></g><path class="cls-6" d="M228,283l1.69-1a2.14,2.14,0,0,1,2.17.23l-1.68,1A2.16,2.16,0,0,0,228,283Z"/></g><g class="cls-2"><path class="cls-4" d="M242,285.77,234.67,290a2.56,2.56,0,0,0,1.08-2.31,8,8,0,0,0-3.58-6.34l7.33-4.21a8.06,8.06,0,0,1,3.58,6.35A2.54,2.54,0,0,1,242,285.77Z"/><g class="cls-23"><g class="cls-2"><path class="cls-1" d="M242,285.77,234.67,290a2.56,2.56,0,0,0,1.08-2.31v-.07l7.33-4.21v.08a2.54,2.54,0,0,1-1.08,2.3Z"/><path class="cls-1" d="M243.08,283.39l-7.33,4.21a6,6,0,0,0-.23-1.59l7.34-4.2a6.27,6.27,0,0,1,.22,1.58Z"/><path class="cls-1" d="M242.86,281.81l-7.34,4.2a8.55,8.55,0,0,0-.75-1.85l7.33-4.2a8.2,8.2,0,0,1,.76,1.85Z"/><path class="cls-1" d="M242.1,280l-7.33,4.2a9.08,9.08,0,0,0-.88-1.31l7.33-4.2a7.89,7.89,0,0,1,.88,1.31Z"/><path class="cls-1" d="M241.22,278.65l-7.33,4.2a6.9,6.9,0,0,0-1.62-1.46l7.33-4.21a6.57,6.57,0,0,1,1.62,1.47Z"/><path class="cls-1" d="M239.6,277.18l-7.33,4.21-.1-.06,7.33-4.21.1.06Z"/></g></g><path class="cls-6" d="M242,285.77,234.67,290a2.56,2.56,0,0,0,1.08-2.31,8,8,0,0,0-3.58-6.34l7.33-4.21a8.06,8.06,0,0,1,3.58,6.35A2.54,2.54,0,0,1,242,285.77Z"/></g><g class="cls-2"><path class="cls-4" d="M233.93,289.38l-1.68,1a2.12,2.12,0,0,0,.89-1.91,6.66,6.66,0,0,0-3-5.26l1.68-1a6.66,6.66,0,0,1,3,5.26A2.12,2.12,0,0,1,233.93,289.38Z"/><g class="cls-24"><g class="cls-2"><path class="cls-1" d="M233.93,289.38l-1.68,1a2.12,2.12,0,0,0,.89-1.91v-.06l1.69-1v.06a2.12,2.12,0,0,1-.9,1.91Z"/><path class="cls-1" d="M234.83,287.41l-1.69,1a5.13,5.13,0,0,0-.19-1.32l1.69-1a5.13,5.13,0,0,1,.19,1.32Z"/><path class="cls-1" d="M234.64,286.09l-1.69,1a6.92,6.92,0,0,0-.62-1.53l1.69-1a6.92,6.92,0,0,1,.62,1.53Z"/><path class="cls-1" d="M234,284.56l-1.69,1a8,8,0,0,0-.73-1.09l1.69-1a7.3,7.3,0,0,1,.73,1.08Z"/><path class="cls-1" d="M233.29,283.48l-1.69,1a6.07,6.07,0,0,0-1.34-1.21l1.69-1a5.89,5.89,0,0,1,1.34,1.22Z"/><path class="cls-1" d="M232,282.26l-1.69,1-.08-.05,1.68-1,.09.05Z"/></g></g><path class="cls-6" d="M233.93,289.38l-1.68,1a2.12,2.12,0,0,0,.89-1.91,6.66,6.66,0,0,0-3-5.26l1.68-1a6.66,6.66,0,0,1,3,5.26A2.12,2.12,0,0,1,233.93,289.38Z"/></g><g class="cls-2"><path class="cls-4" d="M230.18,283.18c-1.67-1-3-.24-3.07,1.68a6.63,6.63,0,0,0,3,5.25c1.67,1,3,.24,3.07-1.67a6.66,6.66,0,0,0-3-5.26l-.34-.58a8.13,8.13,0,0,1,3.63,6.44c0,2.34-1.72,3.26-3.76,2a8.18,8.18,0,0,1-3.63-6.44c0-2.34,1.72-3.26,3.76-2Z"/><g class="cls-25"><g class="cls-2"><path class="cls-1" d="M230.18,283.18l-.34-.58c-2-1.21-3.72-.29-3.76,2a6.79,6.79,0,0,0,.42,2.3l.95-.22a5.26,5.26,0,0,1-.34-1.87c0-1.92,1.4-2.67,3.07-1.68Z"/><path class="cls-1" d="M227.45,286.73l-.95.22a8.61,8.61,0,0,0,2.64,3.75l.46-.91a7,7,0,0,1-2.15-3.06Z"/><path class="cls-1" d="M229.6,289.79l-.46.91q.29.21.57.39c2,1.21,3.73.29,3.76-2a8.13,8.13,0,0,0-3.63-6.44l.34.58a6.66,6.66,0,0,1,3,5.26c0,1.91-1.4,2.66-3.07,1.67a4.35,4.35,0,0,1-.47-.32Z"/></g></g><path class="cls-6" d="M230.18,283.18c-1.67-1-3-.24-3.07,1.68a6.63,6.63,0,0,0,3,5.25c1.67,1,3,.24,3.07-1.67a6.66,6.66,0,0,0-3-5.26l-.34-.58a8.13,8.13,0,0,1,3.63,6.44c0,2.34-1.72,3.26-3.76,2a8.18,8.18,0,0,1-3.63-6.44c0-2.34,1.72-3.26,3.76-2Z"/></g><g class="cls-2"><path class="cls-4" d="M225.4,283.33l1.78-1a2.64,2.64,0,0,1,2.66.29l-1.78,1A2.64,2.64,0,0,0,225.4,283.33Z"/><g class="cls-26"><g class="cls-2"><path class="cls-1" d="M229.84,282.6l-1.78,1a4.13,4.13,0,0,0-1.19-.48l1.78-1a4,4,0,0,1,1.19.48Z"/><path class="cls-1" d="M228.65,282.12l-1.78,1a2.12,2.12,0,0,0-1.47.19l1.78-1a2.12,2.12,0,0,1,1.47-.19Z"/></g></g><path class="cls-6" d="M225.4,283.33l1.78-1a2.64,2.64,0,0,1,2.66.29l-1.78,1A2.64,2.64,0,0,0,225.4,283.33Z"/></g><ellipse class="cls-1" cx="228" cy="287.87" rx="3.03" ry="5.22" transform="translate(-113 151.6) rotate(-29.84)"/><g class="cls-2"><path class="cls-4" d="M232.38,291.38l-1.78,1a2.59,2.59,0,0,0,1.09-2.34,8.14,8.14,0,0,0-3.63-6.44l1.78-1a8.13,8.13,0,0,1,3.63,6.44A2.59,2.59,0,0,1,232.38,291.38Z"/><g class="cls-27"><g class="cls-2"><path class="cls-1" d="M232.38,291.38l-1.78,1a2.59,2.59,0,0,0,1.09-2.34V290l1.78-1V289a2.59,2.59,0,0,1-1.09,2.34Z"/><path class="cls-1" d="M233.47,289l-1.78,1a6.48,6.48,0,0,0-.22-1.6l1.78-1a6.42,6.42,0,0,1,.22,1.6Z"/><path class="cls-1" d="M233.25,287.36l-1.78,1a9,9,0,0,0-.77-1.88l1.78-1a9,9,0,0,1,.77,1.88Z"/><path class="cls-1" d="M232.48,285.48l-1.78,1a9.34,9.34,0,0,0-.89-1.33l1.77-1a8.63,8.63,0,0,1,.9,1.33Z"/><path class="cls-1" d="M231.58,284.15l-1.77,1a7,7,0,0,0-1.65-1.49l1.78-1a6.76,6.76,0,0,1,1.64,1.49Z"/><path class="cls-1" d="M229.94,282.66l-1.78,1-.1-.06,1.78-1,.1.06Z"/></g></g><path class="cls-6" d="M232.38,291.38l-1.78,1a2.59,2.59,0,0,0,1.09-2.34,8.14,8.14,0,0,0-3.63-6.44l1.78-1a8.13,8.13,0,0,1,3.63,6.44A2.59,2.59,0,0,1,232.38,291.38Z"/></g></g><path class="cls-1" d="M224.88,296.14l0,0a.79.79,0,0,1-1,0h0a.79.79,0,0,1-.25-.58v-4.72a3.17,3.17,0,0,1,1.56-2.74l1.95-1.15.83,1.4-1.95,1.15a1.56,1.56,0,0,0-.76,1.34v4.69A.77.77,0,0,1,224.88,296.14Z"/><path class="cls-1" d="M81.83,192.4h-.62v6.77h0s0,.09.09.13a.49.49,0,0,0,.44,0c.06,0,.09-.08.09-.13h0Z"/><path class="cls-1" d="M92,198.41h-.62v6.77h0c0,.05,0,.09.09.13a.49.49,0,0,0,.44,0c.06,0,.09-.08.09-.13h0Z"/><path class="cls-1" d="M96.72,190.24c0,4.68-3.3,6.56-7.37,4.21A16.24,16.24,0,0,1,82,181.73c0-4.67,3.3-6.56,7.38-4.2A16.24,16.24,0,0,1,96.72,190.24Z"/><ellipse class="cls-1" cx="88.6" cy="186.17" rx="6.48" ry="11.23" transform="matrix(0.86, -0.5, 0.5, 0.86, -81.85, 70.16)"/><polygon class="cls-1" points="82.75 176.59 80.53 178.18 80.39 180.8 91.87 197.37 94.52 195.7 91.13 181 82.75 176.59"/><path class="cls-1" d="M81.44,194.78l-.78-.65a2.68,2.68,0,0,1-1-2l.28-5.56,4.73,4-1.87,4.23C82.62,195.26,82,195.27,81.44,194.78Z"/><path class="cls-1" d="M91.25,200.45l.78.24c.58.19,1-.19,1-.9l-.28-5.88L88,192.4l1.87,6.39A2.54,2.54,0,0,0,91.25,200.45Z"/><ellipse class="cls-1" cx="86.4" cy="187.57" rx="6.48" ry="11.23" transform="translate(-82.85 69.25) rotate(-30.31)"/><path class="cls-1" d="M93.28,191.83c0,4.67-3.3,6.55-7.37,4.2a16.22,16.22,0,0,1-7.38-12.72c0-4.67,3.3-6.55,7.38-4.2A16.24,16.24,0,0,1,93.28,191.83Z"/><path class="cls-1" d="M91.82,191.77c0,4.06-2.87,5.7-6.41,3.66A14.14,14.14,0,0,1,79,184.37c0-4.07,2.87-5.7,6.41-3.66A14.13,14.13,0,0,1,91.82,191.77Z"/><path class="cls-1" d="M65,201.8H64.4v6.77h0a.2.2,0,0,0,.1.13.47.47,0,0,0,.43,0c.06,0,.09-.08.09-.13h0Z"/><path class="cls-1" d="M75.15,207.81h-.62v6.77h0s0,.09.09.13a.49.49,0,0,0,.44,0c.06,0,.09-.08.09-.13h0Z"/><path class="cls-1" d="M79.92,199.64c0,4.68-3.31,6.56-7.38,4.21a16.26,16.26,0,0,1-7.37-12.72c0-4.67,3.3-6.56,7.37-4.21A16.28,16.28,0,0,1,79.92,199.64Z"/><path class="cls-1" d="M79.76,200.17c0,5-3.57,7.08-8,4.54s-8-8.69-8-13.74,3.57-7.08,8-4.54S79.76,195.12,79.76,200.17Z"/><polygon class="cls-1" points="65.95 185.99 63.72 187.58 63.58 190.2 75.07 206.77 77.72 205.1 74.32 190.4 65.95 185.99"/><path class="cls-1" d="M64.64,204.18l-.78-.65a2.73,2.73,0,0,1-1-2l.29-5.56,4.73,3.95L66,204.15C65.82,204.66,65.23,204.67,64.64,204.18Z"/><path class="cls-1" d="M74.45,209.84l.78.25c.58.19,1-.19,1-.9l-.28-5.88-4.73-1.51L73,208.19A2.5,2.5,0,0,0,74.45,209.84Z"/><ellipse class="cls-1" cx="69.6" cy="196.97" rx="6.48" ry="11.23" transform="translate(-89.89 62.05) rotate(-30.31)"/><path class="cls-1" d="M76.48,201.23c0,4.67-3.3,6.55-7.38,4.2a16.24,16.24,0,0,1-7.37-12.72c0-4.67,3.3-6.55,7.37-4.2A16.22,16.22,0,0,1,76.48,201.23Z"/><path class="cls-1" d="M75,201.17c0,4.06-2.87,5.7-6.41,3.66a14.13,14.13,0,0,1-6.42-11.07c0-4.06,2.87-5.7,6.42-3.65A14.13,14.13,0,0,1,75,201.17Z"/><path class="cls-1" d="M321,318.17H297.84v2.38h0c-.07,1.77,1.06,3.56,3.41,4.92,4.55,2.62,11.89,2.63,16.4,0,2.27-1.3,3.39-3,3.37-4.74h0Z"/><path class="cls-1" d="M317.66,322.92c-4.51,2.61-11.85,2.59-16.4,0s-4.56-6.86-.05-9.47,11.86-2.59,16.4,0S322.18,320.31,317.66,322.92Z"/><path class="cls-1" d="M317.14,322.62c-4.23,2.44-11.1,2.42-15.36,0s-4.27-6.43,0-8.87,11.1-2.42,15.35,0S321.37,320.18,317.14,322.62Z"/><path class="cls-1" d="M320.67,308l-22.46-.77v9.34h0c-.06,1.72,1,3.45,3.31,4.77,4.4,2.54,11.51,2.55,15.88,0,2.2-1.26,3.28-2.93,3.27-4.59h0Z"/><ellipse class="cls-1" cx="309.44" cy="307.98" rx="6.48" ry="11.23" transform="translate(-0.22 615.74) rotate(-89.69)"/><ellipse class="cls-1" cx="309.44" cy="307.98" rx="6.48" ry="11.23" transform="translate(-0.22 615.74) rotate(-89.69)"/><path class="cls-1" d="M296.83,331.09H273.64v2.38h0c-.07,1.77,1.06,3.56,3.41,4.92,4.55,2.62,11.89,2.63,16.4,0,2.27-1.3,3.39-3,3.37-4.74h0Z"/><path class="cls-1" d="M293.46,335.84c-4.51,2.61-11.85,2.59-16.4,0s-4.56-6.86-.05-9.47,11.86-2.59,16.4,0S298,333.23,293.46,335.84Z"/><path class="cls-1" d="M292.94,335.54a17,17,0,0,1-15.36,0c-4.25-2.46-4.27-6.43-.05-8.87s11.11-2.42,15.36,0S297.17,333.1,292.94,335.54Z"/><path class="cls-1" d="M296.47,320.9,274,320.13v9.34h0c-.06,1.72,1,3.45,3.31,4.77,4.4,2.54,11.51,2.55,15.88,0,2.2-1.27,3.28-2.94,3.27-4.6h0Z"/><path class="cls-1" d="M293.2,325.5c-4.37,2.52-11.48,2.51-15.88,0s-4.42-6.65-.05-9.17,11.48-2.51,15.88,0S297.57,323,293.2,325.5Z"/><path class="cls-1" d="M293.2,325.5c-4.37,2.52-11.48,2.51-15.88,0s-4.42-6.65-.05-9.17,11.48-2.51,15.88,0S297.57,323,293.2,325.5Z"/><path class="cls-1" d="M361.93,323.1H346.15v2.65h0c0,1.2.73,2.42,2.32,3.34a12.3,12.3,0,0,0,11.16,0,3.87,3.87,0,0,0,2.3-3.23h0Z"/><path class="cls-1" d="M359.63,326.33a12.3,12.3,0,0,1-11.16,0c-3.09-1.78-3.1-4.66,0-6.44a12.36,12.36,0,0,1,11.16,0C362.69,321.68,362.71,324.56,359.63,326.33Z"/><polygon class="cls-1" points="347.13 323.01 347.13 312.4 360.95 312.4 360.95 323.24 347.13 323.01"/><path class="cls-1" d="M358.94,325.84a10.8,10.8,0,0,1-9.78,0c-2.7-1.57-2.72-4.09,0-5.65a10.83,10.83,0,0,1,9.78,0C361.62,321.76,361.63,324.29,358.94,325.84Z"/><path class="cls-1" d="M358.94,315.23a10.83,10.83,0,0,1-9.78,0c-2.7-1.56-2.72-4.09,0-5.64a10.8,10.8,0,0,1,9.78,0C361.62,311.15,361.63,313.67,358.94,315.23Z"/><path class="cls-1" d="M361,312.4v-2.54a6.7,6.7,0,0,0-6.71-6.7H354a6.91,6.91,0,0,0-6.92,6.91v2.33"/><path class="cls-1" d="M356.83,305.33a3.37,3.37,0,0,1-2.47-.36c-.74-.43-.84-1-.21-1.2a3.37,3.37,0,0,1,2.47.36C357.36,304.56,357.46,305.1,356.83,305.33Z"/><polygon class="cls-1" points="356 308.99 355.27 309.42 355.27 310.5 352.74 316.45 354.04 317.01 355.49 314.87 355.49 317.9 356 317.61 356 308.99"/><polygon class="cls-1" points="354.56 311.14 355.86 311.69 351.61 315.54 351.61 321.44 350.31 320.89 350.31 314.98 351.31 312.97 354.56 311.14"/><polygon class="cls-1" points="354.87 320.34 356.16 320.89 357.98 317.77 356.68 317.21 354.87 318.26 354.87 320.34"/><polygon class="cls-1" points="350.31 325.05 351.61 325.61 351.66 322.56 350.31 322.97 350.31 325.05"/><polygon class="cls-1" points="355.33 322.15 356.63 322.71 356.63 319.65 355.33 320.07 355.33 322.15"/><polygon class="cls-1" points="355.33 317.99 356.63 318.55 357.51 309.42 356.22 308.87 355.33 309.38 355.33 317.99"/><polygon class="cls-1" points="349.85 323.24 351.14 323.79 352.96 320.67 351.66 320.11 349.85 321.16 349.85 323.24"/><polygon class="cls-1" points="357.3 309.55 356.56 309.97 356.56 311.05 354.04 317.01 356.78 315.42 356.78 318.46 357.3 318.16 357.3 309.55"/><polygon class="cls-1" points="355.86 311.69 353.49 317.15 352.5 317.73 352.5 320.93 351.61 321.44 351.61 315.54 352.6 313.53 355.86 311.69"/><polygon class="cls-1" points="356.16 320.89 357.98 319.85 357.98 317.77 356.16 318.81 356.16 320.89"/><polygon class="cls-1" points="351.61 325.61 352.5 325.09 352.5 323.01 351.61 323.52 351.61 325.61"/><polygon class="cls-1" points="356.63 322.71 357.51 322.19 357.51 320.11 356.63 320.63 356.63 322.71"/><polygon class="cls-1" points="356.63 318.55 357.51 318.03 357.51 309.42 356.63 309.94 356.63 318.55"/><polygon class="cls-1" points="351.14 323.79 352.96 322.75 352.96 320.67 351.14 321.71 351.14 323.79"/><path class="cls-1" d="M343.05,332.76H327.27v2.65h0c0,1.2.73,2.42,2.33,3.34a12.3,12.3,0,0,0,11.16,0,3.88,3.88,0,0,0,2.29-3.23h0Z"/><ellipse class="cls-1" cx="335.16" cy="332.76" rx="4.56" ry="7.89" transform="translate(0.59 666.11) rotate(-89.69)"/><polygon class="cls-1" points="328.25 332.67 328.25 322.06 342.07 322.06 342.07 332.9 328.25 332.67"/><path class="cls-1" d="M340.06,335.5a10.78,10.78,0,0,1-9.77,0c-2.71-1.56-2.72-4.09,0-5.64a10.78,10.78,0,0,1,9.77,0C342.74,331.42,342.76,334,340.06,335.5Z"/><path class="cls-1" d="M340.06,324.89a10.81,10.81,0,0,1-9.77,0c-2.71-1.56-2.72-4.09,0-5.64a10.78,10.78,0,0,1,9.77,0C342.74,320.81,342.76,323.33,340.06,324.89Z"/><path class="cls-1" d="M342.07,322.06v-2.54a6.7,6.7,0,0,0-6.7-6.7h-.21a6.91,6.91,0,0,0-6.91,6.91v2.33"/><path class="cls-1" d="M338,315a3.4,3.4,0,0,1-2.48-.36c-.74-.43-.83-1-.21-1.2a3.4,3.4,0,0,1,2.48.36C338.49,314.22,338.58,314.75,338,315Z"/><polygon class="cls-1" points="337.13 318.65 336.39 319.08 336.39 320.16 333.86 326.11 335.16 326.66 336.61 324.52 336.61 327.56 337.13 327.26 337.13 318.65"/><polygon class="cls-1" points="335.69 320.79 336.98 321.35 332.73 325.2 332.73 331.1 331.44 330.55 331.44 324.64 332.43 322.63 335.69 320.79"/><polygon class="cls-1" points="335.99 330 337.29 330.55 339.1 327.43 337.8 326.87 335.99 327.92 335.99 330"/><polygon class="cls-1" points="331.44 334.71 332.73 335.26 332.79 332.22 331.44 332.63 331.44 334.71"/><polygon class="cls-1" points="336.45 331.81 337.75 332.37 337.75 329.31 336.45 329.73 336.45 331.81"/><polygon class="cls-1" points="336.45 327.65 337.75 328.2 338.64 319.08 337.34 318.53 336.45 319.04 336.45 327.65"/><polygon class="cls-1" points="330.97 332.9 332.27 333.45 334.08 330.32 332.79 329.77 330.97 330.82 330.97 332.9"/><polygon class="cls-1" points="338.42 319.21 337.69 319.63 337.69 320.71 335.16 326.66 337.91 325.08 337.91 328.12 338.42 327.82 338.42 319.21"/><polygon class="cls-1" points="336.98 321.35 334.62 326.81 333.62 327.39 333.62 330.59 332.73 331.1 332.73 325.2 333.73 323.19 336.98 321.35"/><polygon class="cls-1" points="337.29 330.55 339.1 329.51 339.1 327.43 337.29 328.47 337.29 330.55"/><polygon class="cls-1" points="332.73 335.26 333.62 334.75 333.62 332.67 332.73 333.18 332.73 335.26"/><polygon class="cls-1" points="337.75 332.37 338.64 331.85 338.64 329.77 337.75 330.29 337.75 332.37"/><polygon class="cls-1" points="337.75 328.2 338.64 327.69 338.64 319.08 337.75 319.59 337.75 328.2"/><polygon class="cls-1" points="332.27 333.45 334.08 332.4 334.08 330.32 332.27 331.37 332.27 333.45"/><path class="cls-1" d="M216.42,229.25l-1,0V240h0c0,.07.05.14.15.2a.76.76,0,0,0,.69,0c.1-.06.15-.13.14-.2h0Z"/><path class="cls-1" d="M219.88,231.06l-1,0v10.76h0a.26.26,0,0,0,.14.2.78.78,0,0,0,.7,0,.26.26,0,0,0,.14-.2h0Z"/><path class="cls-1" d="M225.16,230.71l-1,0V241.5h0a.24.24,0,0,0,.15.2.76.76,0,0,0,.69,0,.21.21,0,0,0,.14-.2h0Z"/><path class="cls-1" d="M227.56,227.28l-1,0v10.76h0a.26.26,0,0,0,.14.2.78.78,0,0,0,.7,0,.26.26,0,0,0,.14-.2h0Z"/><path class="cls-1" d="M228.66,217.78l-14.49.32v16.07h0a3.64,3.64,0,0,0,2.14,2.95,11.35,11.35,0,0,0,10.25,0,3.55,3.55,0,0,0,2.1-3h0Z"/><path class="cls-1" d="M226.56,221.11a11.32,11.32,0,0,1-10.25,0c-2.84-1.64-2.86-4.29,0-5.92a11.3,11.3,0,0,1,10.24,0C229.36,216.83,229.38,219.48,226.56,221.11Z"/><path class="cls-1" d="M225.83,220.05a9.71,9.71,0,0,1-8.8,0c-2.43-1.4-2.44-3.68,0-5.07a9.72,9.72,0,0,1,8.79,0C228.23,216.38,228.25,218.65,225.83,220.05Z"/><path class="cls-1" d="M224.67,219.38l-.28.15a7.33,7.33,0,0,1-5.93,0l-.28-.15-.26-.16c-1.45-1-1.46-2.44,0-3.42l.26-.17.28-.14a7.29,7.29,0,0,1,5.93,0,1.51,1.51,0,0,1,.28.15,2.26,2.26,0,0,1,.26.16c1.45,1,1.46,2.44,0,3.42A2.26,2.26,0,0,1,224.67,219.38Z"/><path class="cls-1" d="M224.67,219.38l-.28.15-3-1.71-.54-.32-3-1.71.26-.17.28-.14,3,1.71.54.31,3,1.72A2.26,2.26,0,0,1,224.67,219.38Z"/><path class="cls-1" d="M224.91,215.8,222,217.5l-.54.32-3,1.7-.28-.15-.26-.16,3-1.71.54-.31,3-1.7a1.51,1.51,0,0,1,.28.15A2.26,2.26,0,0,1,224.91,215.8Z"/><polyline class="cls-28" points="307.26 372.75 342.94 409.25 514.26 409.25"/><path class="cls-29" d="M359.16,387.79h-8.52v7h7.62V397h-7.62v7.21h8.52v2.25H347.91V385.54h11.25Z"/><path class="cls-29" d="M366,385.57v18.7h7.32v2.22H363.3V385.57Z"/><path class="cls-29" d="M387.51,387.79H379v7h7.62V397H379v7.21h8.52v2.25H376.26V385.54h11.25Z"/><path class="cls-29" d="M401.07,385.3c4.53,0,8.13,2.28,9.69,6.33h-3.27a6.58,6.58,0,0,0-6.42-3.93c-4.38,0-7.65,3.18-7.65,8.31s3.27,8.29,7.65,8.29a6.6,6.6,0,0,0,6.42-3.9h3.27c-1.56,4-5.16,6.27-9.69,6.27a10.69,10.69,0,0,1,0-21.37Z"/><path class="cls-29" d="M413.52,385.57h14.16v2.22H422v18.7h-2.73v-18.7h-5.73Z"/><path class="cls-29" d="M437.79,385.57c4.92,0,7.26,2.73,7.26,6.15a5.9,5.9,0,0,1-5,6l5.25,8.77h-3.27l-5-8.56h-3.3v8.56H431V385.57Zm0,2.25h-4v7.92h4c3.09,0,4.44-1.68,4.44-4S440.91,387.82,437.79,387.82Z"/><path class="cls-29" d="M449.28,385.57H452v20.92h-2.73Z"/><path class="cls-29" d="M466.08,385.3c4.53,0,8.13,2.28,9.69,6.33H472.5a6.58,6.58,0,0,0-6.42-3.93c-4.38,0-7.65,3.18-7.65,8.31s3.27,8.29,7.65,8.29a6.6,6.6,0,0,0,6.42-3.9h3.27c-1.56,4-5.16,6.27-9.69,6.27a10.69,10.69,0,0,1,0-21.37Z"/><path class="cls-29" d="M492.18,401.83h-9.12l-1.68,4.66H478.5l7.56-20.8h3.15l7.53,20.8h-2.88Zm-4.56-12.78-3.78,10.56h7.56Z"/><path class="cls-29" d="M502.77,385.57v18.7h7.32v2.22H500V385.57Z"/><rect id="Electrical_Border_Box" data-name="Electrical Border Box" class="cls-30" x="0.76" y="0.25" width="557" height="409"/></g></g></g></g></g></svg>