<svg xmlns="http://www.w3.org/2000/svg" viewBox="0 0 557.5 196.85"><defs><style>.cls-1{fill:#262626;stroke-linejoin:round;}.cls-1,.cls-2,.cls-4{stroke:#fff;}.cls-1,.cls-4{stroke-width:0.5px;}.cls-2,.cls-4{fill:none;stroke-miterlimit:10;}.cls-3{fill:#fff;}.cls-4{opacity:0;}</style></defs><title>embeddedsoftware</title><g id="Layer_2" data-name="Layer 2"><g id="Layer_1-2" data-name="Layer 1"><g id="Circuit_Board" data-name="Circuit Board"><g id="Embedded_Software" data-name="Embedded Software"><rect class="cls-1" x="193.23" y="64.74" width="15.45" height="19.27"/><path class="cls-1" d="M196.64,177,120,132.7c-4.2-2.42-3.67-6.66,1.18-9.46l73.71-42.56c4.85-2.8,12.19-3.1,16.39-.68l76.64,44.25c4.2,2.43,3.67,6.66-1.18,9.46L213,176.27C208.18,179.07,200.84,179.37,196.64,177Z"/><path class="cls-1" d="M196.64,173.61,120,129.36c-4.2-2.42-3.67-6.66,1.18-9.46l73.71-42.56c4.85-2.8,12.19-3.1,16.39-.68l76.64,44.25c4.2,2.43,3.67,6.66-1.18,9.46L213,172.93C208.18,175.73,200.84,176,196.64,173.61Z"/><path class="cls-1" d="M247.52,83.54c-24.86-12.79-62.15-11.75-87.39-.15C144.2,90.7,147.87,109,145,114.23c-6.68,12.28-1.53,26.27,15.41,36.05,24.2,14,63.33,14.05,87.38.16,17.28-10,22.09-24.44,14.45-37C259.24,108.54,265.75,92.93,247.52,83.54Zm-82.61,64.14c-21.7-12.53-21.81-32.78-.25-45.23s56.65-12.39,78.35.14,21.82,32.78.25,45.23S186.61,160.21,164.91,147.68Z"/><path class="cls-1" d="M215.83,118.66c-1.5,3.6-9.36,4-14.22-2.28C187.09,100.8,226.7,85,236.2,83v9.27C221.34,96.56,210.29,111.08,215.83,118.66Z"/><path class="cls-1" d="M207.29,109.86c6.24.88,6.93,5.43-3.86,8.19-26.89,8.29-44.91-7.27-48.5-12.76.55-.62-.41-8.81,0-9.28,1.84-2.08,4.06,4.68,6.49,1.92C169,106.53,194.2,113,207.29,109.86Z"/><path class="cls-1" d="M197.92,110.47c5.48-1.92,11.52,1,7.32,7.41-8.74,16.87-40.45,13.16-49.7,10.72-2-3.62-2.42-4.27-4.46-7.89.27.06-.28-9.32,0-9.27C167,114.13,192.67,117.93,197.92,110.47Z"/><path class="cls-1" d="M192.09,114.73c1.5-3.6,9.37-4,14.22,2.28,14.53,15.58-12.31,25.88-21.8,27.92l-12.79-3.79c1.06-.3-1-8.87,0-9.27C185,126.6,197.24,121.77,192.09,114.73Z"/><path class="cls-1" d="M193.21,120.14C189.86,117,194.94,113.5,206,116c29.29,5.16,23.05,23.44,18.87,28.77l-13.62,2.52c1.29-2.27,1-3.75.55-6.46C210.56,132.61,203.11,122.49,193.21,120.14Z"/><path class="cls-1" d="M200.63,123.54c-6.24-.89-6.92-5.43,3.86-8.2,25.21-7.77,43.46-2.72,48.5,3.49.33.41-.23,8.93,0,9.27l-6.48,7.36C239,126.86,213.73,120.39,200.63,123.54Z"/><path class="cls-1" d="M210,122.92c-5.48,1.92-11.52-1-7.32-7.4,8.74-16.88,44.91-14.56,54.16-12.12v9.28C241,109.64,215.34,115.33,210,122.92Z"/><path class="cls-1" d="M215.83,109.39c-1.5,3.6-9.36,4-14.22-2.28-14.52-15.58,12.31-25.89,21.8-27.92L236.2,83C221.34,87.28,210.29,101.81,215.83,109.39Z"/><path class="cls-1" d="M214.71,104c3.35,3.17-1.73,6.64-12.79,4.18-29.28-5.16-23-23.44-18.87-28.77l13.62-2.52C191.51,86,201.53,100.84,214.71,104Z"/><path class="cls-1" d="M207.29,100.58c6.24.89,6.93,5.43-3.86,8.19-26.89,8.3-44.91-7.26-48.5-12.76l6.49-7.35C169,97.26,194.2,103.73,207.29,100.58Z"/><path class="cls-1" d="M197.92,101.19c5.48-1.91,11.52,1,7.32,7.41-8.74,16.88-40.45,13.16-49.7,10.72l-4.46-7.88C166.93,114.48,192.58,108.78,197.92,101.19Z"/><path class="cls-1" d="M192.09,105.46c1.5-3.6,9.37-4,14.22,2.28,14.53,15.58-12.31,25.88-21.8,27.92l-12.79-3.79C186.58,127.56,197.63,113,192.09,105.46Z"/><path class="cls-1" d="M193.21,110.87c-3.35-3.17,1.73-6.64,12.79-4.18,29.29,5.15,23.05,23.44,18.87,28.76L211.25,138C216.41,128.85,206.39,114,193.21,110.87Z"/><path class="cls-1" d="M200.63,114.26c-6.24-.89-6.92-5.43,3.86-8.19,26.9-8.29,44.91,7.27,48.5,12.76l-6.48,7.36C239,117.58,213.73,111.11,200.63,114.26Z"/><path class="cls-1" d="M210,113.65c-5.48,1.92-11.52-1-7.32-7.41,8.74-16.88,40.45-13.16,49.7-10.72l4.46,7.88C241,100.37,215.34,106.06,210,113.65Z"/><ellipse class="cls-1" cx="203.96" cy="107.42" rx="17.71" ry="30.68" transform="matrix(0.01, -1, 1, 0.01, 95.44, 310.8)"/><ellipse class="cls-1" cx="203.96" cy="107.42" rx="11.87" ry="20.55" transform="translate(95.44 310.8) rotate(-89.69)"/><ellipse class="cls-1" cx="203.96" cy="107.42" rx="8.34" ry="14.45" transform="translate(95.43 310.8) rotate(-89.69)"/><path class="cls-1" d="M269.58,123.16c-3,1.74-3,4.57,0,6.31a12.06,12.06,0,0,0,10.93,0c3-1.73,3-4.56,0-6.31A12.13,12.13,0,0,0,269.58,123.16Z"/><polyline class="cls-1" points="282.79 126.33 282.79 107.06 267.33 107.06 267.33 126.33"/><path class="cls-1" d="M125.37,120.85c-3,1.74-3,4.56,0,6.31a12.06,12.06,0,0,0,10.93,0c3-1.74,3-4.56,0-6.31A12.06,12.06,0,0,0,125.37,120.85Z"/><polyline class="cls-1" points="138.58 124.02 138.58 104.75 123.13 104.75 123.13 124.02"/><path class="cls-1" d="M269.58,104.36c-3,1.74-3,4.56,0,6.31a12.06,12.06,0,0,0,10.93,0c3-1.73,3-4.56,0-6.31A12.13,12.13,0,0,0,269.58,104.36Z"/><path class="cls-1" d="M272.27,105.92c-1.53.88-1.53,2.32,0,3.21a6.17,6.17,0,0,0,5.57,0c1.53-.89,1.52-2.32,0-3.21A6.12,6.12,0,0,0,272.27,105.92Z"/><path class="cls-1" d="M195.47,61.58c-3,1.74-3,4.56,0,6.31a12.07,12.07,0,0,0,10.92,0c3-1.74,3-4.56,0-6.31A12.06,12.06,0,0,0,195.47,61.58Z"/><path class="cls-1" d="M198.16,63.13c-1.53.89-1.52,2.32,0,3.21a6.12,6.12,0,0,0,5.56,0c1.54-.88,1.53-2.32,0-3.21A6.17,6.17,0,0,0,198.16,63.13Z"/><path class="cls-1" d="M125.37,102.05c-3,1.74-3,4.56,0,6.31a12.06,12.06,0,0,0,10.93,0c3-1.74,3-4.56,0-6.31A12.06,12.06,0,0,0,125.37,102.05Z"/><path class="cls-1" d="M128.06,103.6c-1.53.89-1.52,2.33,0,3.22a6.17,6.17,0,0,0,5.57,0c1.53-.89,1.52-2.33,0-3.22A6.17,6.17,0,0,0,128.06,103.6Z"/><polygon class="cls-1" points="224.38 177.4 214.84 171.89 284.94 131.42 294.48 136.92 224.38 177.4"/><polygon class="cls-1" points="224.38 177.4 224.38 196.16 294.92 155.43 294.48 136.92 224.38 177.4"/><polygon class="cls-1" points="214.84 171.89 214.84 190.65 224.38 196.16 224.38 177.4 214.84 171.89"/><path class="cls-1" d="M280.58,157.53c-1.54.89-2.79.18-2.79-1.59a6.16,6.16,0,0,1,2.79-4.82c1.54-.89,2.79-.17,2.79,1.59A6.16,6.16,0,0,1,280.58,157.53Z"/><path class="cls-1" d="M238.71,181.71c-1.54.89-2.79.17-2.79-1.6a6.14,6.14,0,0,1,2.79-4.81c1.54-.89,2.79-.18,2.79,1.59A6.16,6.16,0,0,1,238.71,181.71Z"/><polygon class="cls-1" points="183.05 176.72 192.59 171.21 122.49 130.74 112.95 136.25 183.05 176.72"/><polygon class="cls-1" points="183.05 176.72 183.05 195.48 112.52 154.76 112.95 136.25 183.05 176.72"/><polygon class="cls-1" points="192.59 171.21 192.59 189.97 183.05 195.48 183.05 176.72 192.59 171.21"/><path class="cls-1" d="M126.85,156.85c1.54.89,2.79.18,2.79-1.59a6.14,6.14,0,0,0-2.79-4.81c-1.54-.89-2.79-.18-2.79,1.59A6.14,6.14,0,0,0,126.85,156.85Z"/><path class="cls-1" d="M168.72,181c1.54.89,2.79.18,2.79-1.59a6.16,6.16,0,0,0-2.79-4.82c-1.54-.89-2.79-.18-2.79,1.59A6.16,6.16,0,0,0,168.72,181Z"/><path class="cls-1" d="M142.17,104.75v20.39s2.63,16.8,21.22,24.23,40.5,14.2,74.51,4c7-4.14,18.94-13.74,18.94-13.74l8.91-12.93v-22l-4.29,4s-5.39,30.53-48.21,30.44-49.56-5.36-58.32-14S142.17,104.75,142.17,104.75Z"/><path class="cls-1" d="M247.52,81.22c-24.21-14-63.33-14-87.39-.15s-23.93,36.47.28,50.45,63.33,14,87.38.16S271.72,95.2,247.52,81.22Zm-82.61,47.7c-21.7-12.53-21.81-32.79-.25-45.24s56.65-12.39,78.35.14,21.82,32.79.25,45.24S186.61,141.45,164.91,128.92Z"/><path class="cls-1" d="M199.48,163.64c-3,1.73-3,4.56,0,6.3a12.06,12.06,0,0,0,10.93,0c3-1.73,3-4.56,0-6.3A12.06,12.06,0,0,0,199.48,163.64Z"/><polyline class="cls-1" points="212.69 166.8 212.69 147.53 197.23 147.53 197.23 166.8"/><path class="cls-1" d="M199.48,144.83c-3,1.74-3,4.57,0,6.31a12.06,12.06,0,0,0,10.93,0c3-1.73,3-4.56,0-6.31A12.13,12.13,0,0,0,199.48,144.83Z"/><path class="cls-1" d="M202.17,146.39c-1.53.88-1.52,2.32,0,3.21a6.12,6.12,0,0,0,5.56,0c1.53-.88,1.53-2.32,0-3.21A6.12,6.12,0,0,0,202.17,146.39Z"/><polyline class="cls-2" points="200.75 60.1 236.44 23.6 556.75 23.6"/><g id="software_path" data-name="software path"><path class="cls-3" d="M251.36,2.49h-8.52v7h7.62v2.25h-7.62v7.2h8.52v2.25H240.11V.24h11.25Z"/><path class="cls-3" d="M255.5.42h2.94l7.68,17.16L273.8.42h2.92V21.18H274V5.7l-6.9,15.48h-1.92L258.23,5.67V21.18H255.5Z"/><path class="cls-3" d="M289.13,21.18h-7.8V.27h7.5c4.41,0,6.63,2.4,6.63,5.31a4.89,4.89,0,0,1-3.66,4.83,5.22,5.22,0,0,1,4.14,5.16C295.94,18.72,293.45,21.18,289.13,21.18Zm-.54-18.66h-4.53V9.3h4.59c2.55,0,4-1.26,4-3.39S291.26,2.52,288.59,2.52Zm.21,9h-4.74v7.38h4.83c2.7,0,4.32-1.35,4.32-3.63S291.47,11.55,288.8,11.55Z"/><path class="cls-3" d="M311,2.49h-8.52v7h7.62v2.25h-7.62v7.2H311v2.25H299.72V.24H311Z"/><path class="cls-3" d="M332.72,10.77c0,6.48-4.23,10.41-11.1,10.41h-6.51V.27h6.51C328.49.27,332.72,4.29,332.72,10.77Zm-11.1,8.16c5.46,0,8.31-3.06,8.31-8.16s-2.85-8.28-8.31-8.28h-3.78V18.93Z"/><path class="cls-3" d="M353.93,10.77c0,6.48-4.23,10.41-11.1,10.41h-6.51V.27h6.51C349.7.27,353.93,4.29,353.93,10.77Zm-11.1,8.16c5.46,0,8.31-3.06,8.31-8.16s-2.85-8.28-8.31-8.28h-3.78V18.93Z"/><path class="cls-3" d="M368.78,2.49h-8.52v7h7.62v2.25h-7.62v7.2h8.52v2.25H357.53V.24h11.25Z"/><path class="cls-3" d="M390.53,10.77c0,6.48-4.23,10.41-11.1,10.41h-6.51V.27h6.51C386.3.27,390.53,4.29,390.53,10.77Zm-11.1,8.16c5.46,0,8.31-3.06,8.31-8.16s-2.85-8.28-8.31-8.28h-3.78V18.93Z"/><path class="cls-3" d="M408.77,21.4c-4.2,0-7.17-2.35-7.23-5.8h2.91c.18,1.74,1.41,3.48,4.32,3.48,2.64,0,4.2-1.5,4.2-3.48,0-5.64-11.31-2-11.31-9.81,0-3.45,2.79-5.79,6.93-5.79s6.6,2.19,6.93,5.37h-3c-.18-1.41-1.5-3-4-3-2.25-.06-4,1.11-4,3.36,0,5.4,11.28,2,11.28,9.78C415.73,18.45,413.3,21.4,408.77,21.4Z"/><path class="cls-3" d="M429.23,21.4a10.32,10.32,0,0,1-10.5-10.69,10.5,10.5,0,1,1,21,0A10.31,10.31,0,0,1,429.23,21.4Zm0-2.38c4.41,0,7.71-3.21,7.71-8.31s-3.3-8.31-7.71-8.31-7.71,3.18-7.71,8.31S424.82,19,429.23,19Z"/><path class="cls-3" d="M443.33.27h11.82V2.49h-9.09v7h7.38v2.22h-7.38v9.42h-2.73Z"/><path class="cls-3" d="M457.16.27h14.16V2.49h-5.7V21.18h-2.73V2.49h-5.73Z"/><path class="cls-3" d="M473.06.27H476L480.53,18l5-17.73h3.06l4.8,17.67L498,.27H501L494.9,21.18h-3.06L487,4.35l-5,16.83-3,0Z"/><path class="cls-3" d="M516.32,16.53H507.2l-1.68,4.65h-2.88L510.2.39h3.15l7.53,20.79H518ZM511.76,3.75,508,14.31h7.56Z"/><path class="cls-3" d="M530.93.27c4.92,0,7.26,2.73,7.26,6.15a5.9,5.9,0,0,1-5,6l5.25,8.76h-3.27l-5-8.55h-3.3v8.55h-2.73V.27Zm0,2.25h-4v7.92h4c3.09,0,4.44-1.68,4.44-4S534.05,2.52,530.93,2.52Z"/><path class="cls-3" d="M553.67,2.49h-8.52v7h7.62v2.25h-7.62v7.2h8.52v2.25H542.42V.24h11.25Z"/></g><rect id="Embedded_Software_Border_Box" data-name="Embedded Software Border Box" class="cls-4" x="0.25" y="0.6" width="557" height="196"/></g></g></g></g></svg>