<svg xmlns="http://www.w3.org/2000/svg" viewBox="0 0 482 357"><defs><style>.cls-1,.cls-3,.cls-5{fill:none;}.cls-1,.cls-3,.cls-4,.cls-5{stroke:#fff;}.cls-1{stroke-miterlimit:10;}.cls-2{fill:#fff;}.cls-3,.cls-4,.cls-5{stroke-linecap:round;stroke-linejoin:round;}.cls-3{opacity:0;}.cls-4{fill:#262626;}.cls-4,.cls-5{stroke-width:0.75px;}</style></defs><title>newpropulsion</title><g id="Layer_2" data-name="Layer 2"><g id="Layer_1-2" data-name="Layer 1"><g id="Rocket"><g id="Propulsion"><polyline class="cls-1" points="259 314 294.69 350.5 479 350.5"/><path class="cls-2" d="M305,340.23h-4V349h-2.73V328.05H305c4.92,0,7.23,2.7,7.23,6.12C312.26,337.35,310.22,340.23,305,340.23Zm0-2.25c3.12,0,4.44-1.47,4.44-3.81s-1.32-3.87-4.44-3.87h-4V338Z"/><path class="cls-2" d="M322.4,328.05c4.92,0,7.27,2.73,7.27,6.15a5.91,5.91,0,0,1-5,6l5.25,8.76h-3.27l-5-8.55h-3.3V349h-2.73V328.05Zm0,2.25h-4v7.92h4c3.09,0,4.44-1.68,4.44-4S325.52,330.3,322.4,330.3Z"/><path class="cls-2" d="M343.37,349.17a10.68,10.68,0,1,1,10.51-10.68A10.31,10.31,0,0,1,343.37,349.17Zm0-2.37c4.41,0,7.72-3.21,7.72-8.31s-3.31-8.31-7.72-8.31-7.71,3.18-7.71,8.31S339,346.8,343.37,346.8Z"/><path class="cls-2" d="M364.22,340.23h-4V349h-2.73V328.05h6.75c4.92,0,7.23,2.7,7.23,6.12C371.45,337.35,369.41,340.23,364.22,340.23Zm0-2.25c3.12,0,4.44-1.47,4.44-3.81s-1.32-3.87-4.44-3.87h-4V338Z"/><path class="cls-2" d="M374.78,328.05h2.73v13.23c0,3.84,2.07,5.49,5.16,5.49s5.13-1.65,5.13-5.49V328.05h2.73v13.2c0,5.43-3.57,7.92-7.89,7.92s-7.86-2.49-7.86-7.92Z"/><path class="cls-2" d="M397.82,328.05v18.69h7.32V349H395.09V328.05Z"/><path class="cls-2" d="M414.68,349.17c-4.2,0-7.17-2.34-7.23-5.79h2.91c.18,1.74,1.41,3.48,4.32,3.48,2.64,0,4.2-1.5,4.2-3.48,0-5.64-11.31-2-11.31-9.81,0-3.45,2.79-5.79,6.93-5.79s6.6,2.19,6.93,5.37h-3c-.18-1.41-1.5-3-4.05-3-2.25-.06-4,1.11-4,3.36,0,5.4,11.28,2,11.28,9.78C421.64,346.23,419.21,349.17,414.68,349.17Z"/><path class="cls-2" d="M425.66,328.05h2.73V349h-2.73Z"/><path class="cls-2" d="M442.52,349.17A10.68,10.68,0,1,1,453,338.49,10.31,10.31,0,0,1,442.52,349.17Zm0-2.37c4.41,0,7.71-3.21,7.71-8.31s-3.3-8.31-7.71-8.31-7.71,3.18-7.71,8.31S438.11,346.8,442.52,346.8Z"/><path class="cls-2" d="M473.06,328V349h-2.73l-11-16.65V349h-2.73V328h2.73l11,16.62V328Z"/><rect id="Propulsion_Border_Box" data-name="Propulsion Border Box" class="cls-3" x="0.5" y="0.5" width="481" height="356"/><polyline class="cls-4" points="205.49 262.78 205.49 243.93 222.86 239.31 259.06 239.31 276.42 243.93 276.42 262.78"/><path id="_Path_" data-name="&lt;Path&gt;" class="cls-4" d="M223,249V223c0,2.42,8.07,4.28,18,4.28s18-2,18-4.39V350c0,3.35-8.07,6.07-18,6.07s-18-2.72-18-6.07V249Z"/><path class="cls-4" d="M259.05,228.14c0,2.45-8.07,4.44-18,4.44s-18-2-18-4.44"/><path class="cls-4" d="M227,344.79c-2.48-1-4-2.31-4-3.72"/><path class="cls-4" d="M253.76,345.28a47.73,47.73,0,0,1-25.36,0"/><path class="cls-4" d="M259.06,341.07c0,1.38-1.43,2.65-3.83,3.66"/><ellipse class="cls-4" cx="241.04" cy="313.62" rx="0.82" ry="0.7"/><ellipse class="cls-4" cx="241.03" cy="319.47" rx="0.82" ry="0.7"/><ellipse class="cls-4" cx="227.86" cy="350.03" rx="1.06" ry="1.5"/><ellipse class="cls-4" cx="254.3" cy="350.03" rx="1.06" ry="1.5"/><ellipse class="cls-4" cx="227.87" cy="344" rx="1.05" ry="1.51"/><ellipse class="cls-4" cx="254.32" cy="344" rx="1.05" ry="1.51"/><ellipse class="cls-4" cx="230.44" cy="289.09" rx="0.83" ry="1.05"/><ellipse class="cls-4" cx="251.56" cy="289.09" rx="0.83" ry="1.05"/><ellipse class="cls-4" cx="230.44" cy="270.63" rx="0.83" ry="1.05"/><ellipse class="cls-4" cx="251.56" cy="270.63" rx="0.83" ry="1.05"/><ellipse class="cls-4" cx="230.44" cy="252.09" rx="0.83" ry="1.05"/><ellipse class="cls-4" cx="251.56" cy="252.09" rx="0.83" ry="1.05"/><polygon class="cls-4" points="228.22 244.96 228.22 294.4 203.22 288.94 203.22 264.57 228.22 244.96"/><polygon class="cls-4" points="253.72 244.96 253.72 294.4 278.71 288.94 278.71 264.57 253.72 244.96"/><path class="cls-4" d="M223,222.89V1.49c0,.9,8.07,1.63,18,1.63s18-.73,18-1.63v221.4"/><ellipse class="cls-5" cx="227.89" cy="167.59" rx="1.07" ry="1.4"/><ellipse class="cls-5" cx="254.2" cy="167.59" rx="1.07" ry="1.4"/><ellipse class="cls-5" cx="227.89" cy="161.53" rx="1.07" ry="1.4"/><ellipse class="cls-5" cx="254.2" cy="161.53" rx="1.07" ry="1.4"/><circle class="cls-5" cx="241.04" cy="71.46" r="0.77"/><circle class="cls-5" cx="241.03" cy="77.34" r="0.77"/><path id="Bottom_Curve" data-name="Bottom Curve" class="cls-4" d="M223,223c0,2.42,8.07,4.28,18,4.28s18-2,18-4.39"/></g></g></g></g></svg>