<svg xmlns="http://www.w3.org/2000/svg" viewBox="0 0 149.87 185.46"><defs><style>.cls-1,.cls-2{fill:#fff;}.cls-1,.cls-4{fill-rule:evenodd;}.cls-3,.cls-4{fill:#b12024;}</style></defs><title>bottom right_1</title><g id="Layer_2" data-name="Layer 2"><g id="Layer_1-2" data-name="Layer 1"><g id="main_thing" data-name="main thing"><polygon class="cls-1" points="88.7 0 0 76.7 0 185.46 0.56 185.46 0.56 77.21 88.7 1.46 88.7 0 88.7 0"/><path class="cls-1" d="M31.36,178.31a3.74,3.74,0,1,1,3.73,3.75,3.73,3.73,0,0,1-3.73-3.75Zm-1.15,0a4.88,4.88,0,1,1,4.88,4.88,4.88,4.88,0,0,1-4.88-4.88Z"/><path class="cls-1" d="M43,178.31a3.75,3.75,0,1,1,3.75,3.75A3.75,3.75,0,0,1,43,178.31Zm-1.14,0a4.89,4.89,0,1,1,4.89,4.88,4.88,4.88,0,0,1-4.89-4.88Z"/><path class="cls-1" d="M54.65,178.31a3.75,3.75,0,1,1,3.75,3.75,3.75,3.75,0,0,1-3.75-3.75Zm-1.13,0a4.88,4.88,0,1,1,4.88,4.88,4.88,4.88,0,0,1-4.88-4.88Z"/><path class="cls-1" d="M66.31,178.31a3.75,3.75,0,1,1,3.75,3.75,3.75,3.75,0,0,1-3.75-3.75Zm-1.14,0a4.89,4.89,0,1,1,4.89,4.88,4.88,4.88,0,0,1-4.89-4.88Z"/><path class="cls-1" d="M78,178.31a3.75,3.75,0,1,1,3.75,3.75A3.75,3.75,0,0,1,78,178.31Zm-1.13,0a4.88,4.88,0,1,1,4.88,4.88,4.88,4.88,0,0,1-4.88-4.88Z"/><path class="cls-2" d="M32.6,163.23V129.31c-.94-.23-1.21-1-.41-1.69a.52.52,0,0,1,.28-.13,1.09,1.09,0,0,1,1.12,1c0,.39-.43.72-.43.86v33.92c0,.15.35.49.35.88a1,1,0,0,1-.83.93.68.68,0,0,1-.69-.29.92.92,0,0,1,.61-1.52Z"/><path class="cls-2" d="M38.18,163.23V129.31c-1.12-.14-.92-.47-.92-.86s.26-1,.79-1a1.08,1.08,0,0,1,1.09,1c0,.39-.41.72-.41.86v33.92c0,.15.33.49.33.88a1,1,0,0,1-.91.94.74.74,0,0,1-.84-.84c.07-.43-.35-.81.87-1Z"/><path class="cls-2" d="M43.76,163.23V129.31c-1.12-.14-.93-.47-.93-.86s.23-1,.76-1a1.12,1.12,0,0,1,1.13,1c0,.39-.41.72-.41.86v33.92c0,.15.32.49.32.88a1.08,1.08,0,0,1-1.09.95c-.52,0-.64-.43-.64-.95s-.26-.73.86-.88Z"/><path class="cls-2" d="M48.78,163.23V129.31a.79.79,0,0,1-.69-.86.93.93,0,0,1,.91-1c.51,0,1.2.43,1.2,1s-.31.72-.31.86v33.92c0,.15.28.49.28.88a1.08,1.08,0,0,1-1.08.95.94.94,0,0,1-.93-.95.76.76,0,0,1,.62-.88Z"/><path class="cls-2" d="M54.35,163.23V129.31a.81.81,0,0,1-.7-.86c0-.84.91-1.42,1.93-.46a.63.63,0,0,1,.16.23c.16.49-.27.92-.27,1.09v33.92c0,.15.28.49.28.88a1.11,1.11,0,0,1-1.12.95.92.92,0,0,1-.91-.95.77.77,0,0,1,.63-.88Z"/><path class="cls-2" d="M59.93,163.23V129.31a.81.81,0,0,1-.71-.86.89.89,0,0,1,.86-1,1,1,0,0,1,1,1c0,.39-.57.72-.57.86v33.92c0,.15.53.49.53.88a1,1,0,0,1-1,.95.84.84,0,0,1-.8-.95.83.83,0,0,1,.7-.88Z"/><path class="cls-2" d="M65.51,163.23V129.31a.85.85,0,0,1-.75-.88.93.93,0,0,1,.82-.94,1,1,0,0,1,1,1c0,.39-.53.72-.53.86v33.92c0,.15.49.49.49.88a1,1,0,0,1-1,.95.86.86,0,0,1-.75-.72.88.88,0,0,1,.71-1.11Z"/><path class="cls-2" d="M71.65,129.31v33.92c-.56.15-.8.49-.8.88a.86.86,0,0,0,.82.95,1,1,0,0,0,1-.95c0-.39-.49-.73-.49-.88V129.31c0-.14.43-.47.43-.86a1,1,0,0,0-1-1c-.5,0-.74.43-.74,1a.86.86,0,0,0,.77.86Z"/><path class="cls-2" d="M77.23,129.31v33.92c-.76.21-1,.75-.73,1.31a.85.85,0,0,0,.77.52,1,1,0,0,0,1-.95c0-.39-.48-.73-.48-.88V129.31c0-.14.42-.47.42-.86a1,1,0,0,0-1-1,.76.76,0,0,0-.73.52.9.9,0,0,0,.71,1.3Z"/><path class="cls-2" d="M82.81,129.31v33.92c-.58.16-.86.51-.84.92a.92.92,0,0,0,1.37.74.94.94,0,0,0,.5-.78c0-.39-.48-.73-.48-.88V129.31c0-.14.41-.47.41-.86a1,1,0,0,0-.63-.87.83.83,0,0,0-1.1.6.88.88,0,0,0,.77,1.13Z"/><path class="cls-2" d="M88.38,129.31v33.92c-.87.24-1.13.91-.56,1.56a.69.69,0,0,0,.63.26,1,1,0,0,0,.93-.94c0-.39-.44-.73-.44-.88V129.31c0-.14.37-.47.37-.86a1,1,0,0,0-1.11-1,.47.47,0,0,0-.34.19c-.5.67-.38,1.4.52,1.63Z"/><path class="cls-2" d="M94,129.31v33.92c-1.11.15-.9.49-.9.88s.27.95.8.95a1.08,1.08,0,0,0,1.08-.95c0-.39-.42-.73-.42-.88V129.31c0-.14.34-.47.34-.86a1,1,0,0,0-1-1c-.53,0-.69.43-.69,1s-.27.72.84.86Z"/><path class="cls-2" d="M99.54,129.31v33.92c-1.11.15-.91.49-.91.88s.24.95.76.95a1.12,1.12,0,0,0,1.13-.95c0-.39-.42-.73-.42-.88V129.31c0-.14.33-.47.33-.86a1.07,1.07,0,0,0-1.08-1c-.53,0-.66.43-.66,1s-.26.72.85.86Z"/><path class="cls-2" d="M104.56,129.31v33.92a.8.8,0,0,0-.67.88.92.92,0,0,0,.92.95c.51,0,1.18-.43,1.18-.95s-.31-.73-.31-.88V129.31c0-.14.29-.47.29-.86a1.07,1.07,0,0,0-1.07-1,1,1,0,0,0-.94,1c0,.39,0,.72.6.86Z"/><path class="cls-2" d="M144.73,163.11V129.33c0-.14.32-.47.32-.86a1.07,1.07,0,0,0-1.09-1,.92.92,0,0,0-.92,1c0,.39.57.72.57.86v33.92c0,.16-.64.49-.64.88a.91.91,0,0,0,.9,1,1.26,1.26,0,0,0,1.2-1c0-.39-.33-.39-.33-.95Z"/><path class="cls-2" d="M139.15,163.23V129.31c0-.14.33-.47.33-.86a1,1,0,0,0-1-1,1,1,0,0,0-1,1c0,.39.57.72.57.86v33.92c0,.15-.63.49-.63.88a.94.94,0,0,0,.93.95c.53,0,1.16-.43,1.16-.95s-.34-.73-.34-.88Z"/><path class="cls-2" d="M133.57,163.23V129.31c0-.14.37-.48.36-.88a.61.61,0,0,0-.08-.26c-.68-1.21-1.94-.6-1.94.28,0,.39.54.72.54.86v33.92c0,.15-.59.49-.59.88a.93.93,0,0,0,1.47.78,1.11,1.11,0,0,0,.31-1.5.35.35,0,0,1-.07-.16Z"/><path class="cls-2" d="M127.43,163.23V129.31a.81.81,0,0,0,.68-.94.89.89,0,0,0-.61-.83.92.92,0,0,0-1.22.91c0,.39.6.72.6.86v33.92c0,.15-.57.49-.57.88a.94.94,0,0,0,1,.95.92.92,0,0,0,.76-.93.81.81,0,0,0-.68-.9Z"/><path class="cls-2" d="M121.86,163.23V129.31a.79.79,0,0,0,.68-.85.93.93,0,0,0-.77-1,.94.94,0,0,0-1.06.95c0,.39.59.72.59.86v33.92c0,.15-.57.49-.57.88a1,1,0,0,0,.89.95.9.9,0,0,0,.91-.92.8.8,0,0,0-.67-.91Z"/><path class="cls-2" d="M116.28,163.23V129.31c1.11-.14.71-.47.71-.86a.9.9,0,0,0-.89-1,1,1,0,0,0-.94,1c0,.39.56.72.56.86v33.92c0,.15-.53.49-.53.88a1,1,0,0,0,1,.95.85.85,0,0,0,.83-.95c0-.39.41-.73-.7-.88Z"/><path class="cls-2" d="M111.26,163.23V129.31c.55-.14.46-.47.46-.86a1,1,0,0,0-1-1,1,1,0,0,0-1,1c0,.39.49.72.49.86v33.92c0,.15-.52.49-.52.88a1,1,0,0,0,2,.35.75.75,0,0,0,.12-.39c0-.38.08-.69-.45-.84Z"/><polygon class="cls-3" points="32.3 148.89 37.82 154.41 43.15 134.54 43.33 133.86 43.82 134.37 48.8 139.32 54.1 134.01 54.48 133.64 54.73 134.12 60.18 143.58 65.96 143.58 66.19 143.58 66.31 143.76 71.7 153.1 76.93 143.92 77.05 143.58 77.28 143.58 82.82 143.58 88.08 134.6 88.82 134.77 94.17 154.77 98.93 159.41 104.03 130.75 104.83 130.75 110.55 158.92 115.52 153.68 121.03 144.27 127.3 131.32 127.49 130.9 127.88 131.18 132.66 134.52 132.82 134.75 138.85 158.04 143.15 150.59 143.85 150.98 139.07 159.29 138.33 159.19 132.08 135.09 127.8 132.1 121.73 144.67 121.71 144.69 116.19 154.19 116.13 154.27 110.6 160.17 110.08 160.73 109.92 159.97 104.45 133.23 99.59 160.46 99.46 161.22 98.91 160.68 93.52 155.29 93.42 155.11 88.29 135.97 83.39 144.46 83.27 144.7 83.04 144.7 77.49 144.7 72.05 154.12 71.7 154.7 71.36 154.28 65.72 144.7 59.94 144.7 59.73 144.7 59.61 144.31 54.3 135.04 49.07 140.23 48.8 140.48 48.5 140.19 43.74 135.43 38.43 155.29 38.23 155.97 37.75 155.49 31.73 149.45 32.3 148.89 32.3 148.89"/><polygon class="cls-3" points="143.83 149.94 138.29 147.85 132.92 155.41 132.74 155.66 132.25 155.48 127.26 153.59 121.91 155.62 121.54 155.76 121.28 155.56 115.82 151.95 110 151.95 109.77 151.95 109.65 151.89 104.22 148.35 98.97 151.83 98.85 151.95 98.62 151.95 93.06 151.95 87.76 155.39 87.02 155.33 81.63 147.71 76.85 146 71.72 156.97 70.94 156.97 65.18 146.19 60.18 148.16 54.63 151.72 48.35 156.65 48.13 156.8 47.74 156.7 42.94 155.43 42.78 155.33 36.71 146.47 32.4 149.3 31.7 149.16 36.5 146 37.24 146.04 43.53 155.19 47.75 156.34 53.8 151.56 53.8 151.54 59.43 147.93 59.52 147.89 65.1 145.67 65.64 145.45 65.8 145.73 71.3 155.91 76.19 145.55 76.32 145.26 76.87 145.47 82.3 147.52 82.39 147.58 87.55 154.86 92.47 151.56 92.58 151.39 92.82 151.39 98.4 151.39 103.87 147.89 104.22 147.69 104.57 147.81 110.23 151.39 116.03 151.39 116.27 151.39 116.38 151.61 121.71 155.18 126.96 153.22 127.26 153.14 127.55 153.25 132.33 155.07 137.68 147.5 137.86 147.25 138.36 147.44 144.41 149.73 143.83 149.94 143.83 149.94"/><path class="cls-1" d="M89.64,178.31a3.74,3.74,0,1,1,3.73,3.75,3.73,3.73,0,0,1-3.73-3.75Zm-1.16,0a4.89,4.89,0,1,1,4.89,4.88,4.88,4.88,0,0,1-4.89-4.88Z"/><path class="cls-1" d="M101.29,178.31a3.75,3.75,0,1,1,3.75,3.75,3.75,3.75,0,0,1-3.75-3.75Zm-1.13,0a4.88,4.88,0,1,1,4.88,4.88,4.88,4.88,0,0,1-4.88-4.88Z"/><path class="cls-1" d="M113,178.31a3.74,3.74,0,1,1,3.73,3.75,3.73,3.73,0,0,1-3.73-3.75Zm-1.16,0a4.89,4.89,0,1,1,4.89,4.88,4.88,4.88,0,0,1-4.89-4.88Z"/><path class="cls-1" d="M124.62,178.31a3.75,3.75,0,1,1,3.75,3.75,3.75,3.75,0,0,1-3.75-3.75Zm-1.13,0a4.88,4.88,0,1,1,4.88,4.88,4.87,4.87,0,0,1-4.88-4.88Z"/><path class="cls-1" d="M136.3,178.31a3.74,3.74,0,1,1,3.72,3.75,3.72,3.72,0,0,1-3.72-3.75Zm-1.16,0a4.88,4.88,0,1,1,4.88,4.88,4.88,4.88,0,0,1-4.88-4.88Z"/><path class="cls-4" d="M131.33,78.92a17.68,17.68,0,1,1-17.68,17.67,17.67,17.67,0,0,1,17.68-17.67Zm0-.86a18.53,18.53,0,1,1-18.52,18.53,18.54,18.54,0,0,1,18.52-18.53Z"/><path class="cls-1" d="M131.33,84.09a12.5,12.5,0,1,1-12.5,12.5,12.51,12.51,0,0,1,12.5-12.5Zm0-.59a13.1,13.1,0,1,1-13.1,13.09,13.08,13.08,0,0,1,13.1-13.09Z"/><path class="cls-1" d="M88.76,31.2a25.38,25.38,0,1,1-25.4,25.37A25.37,25.37,0,0,1,88.76,31.2Zm0-1.23a26.61,26.61,0,1,1-26.64,26.6A26.6,26.6,0,0,1,88.76,30Z"/><path class="cls-4" d="M88.76,38.63a18,18,0,1,1-18,17.94,17.94,17.94,0,0,1,18-17.94Zm0-.87A18.83,18.83,0,1,1,69.92,56.57,18.82,18.82,0,0,1,88.76,37.76Z"/><path class="cls-1" d="M32.86,72.62a18,18,0,1,1-18,17.95,18,18,0,0,1,18-17.95Zm0-.86A18.82,18.82,0,1,1,14.05,90.57,18.82,18.82,0,0,1,32.86,71.76Z"/></g></g></g></svg>