<svg xmlns="http://www.w3.org/2000/svg" viewBox="0 0 312.75 87.58"><defs><style>.cls-1,.cls-4{fill:#b22126;}.cls-2{fill:none;}.cls-2,.cls-3{stroke:#fff;}.cls-2,.cls-3,.cls-4{stroke-miterlimit:10;stroke-width:2.5px;}.cls-3{fill:#231f20;opacity:0.6;}.cls-4{stroke:#b22126;}.cls-5{fill:#fff;}</style></defs><g id="Layer_2" data-name="Layer 2"><g id="Layer_1-2" data-name="Layer 1"><polygon class="cls-1" points="312.75 15.17 301.92 15.17 301.92 3 193.42 3 169.67 15.5 0 15.5 0 12.75 154.82 12.75 178.22 0 312.75 0 312.75 15.17"/><polygon class="cls-2" points="296.58 8.17 296.58 79.92 135.58 79.92 111.5 67.58 6.58 67.58 6.58 20.75 170.08 20.75 194.75 8.17 296.58 8.17"/><polygon class="cls-3" points="296.58 8.17 296.58 79.92 135.58 79.92 111.5 67.58 6.58 67.58 6.58 20.75 170.08 20.75 194.75 8.17 296.58 8.17"/><polyline class="cls-4" points="311.88 86.33 134.5 86.33 108.17 86.33 87.54 74.46 0 74.46 113.88 74.46 134.5 86.33"/><polygon class="cls-5" points="275.33 44.04 265.42 44.04 271.58 34.92 275.33 34.92 275.33 44.04"/><polygon class="cls-5" points="275.33 44.04 265.42 44.04 271.58 53.17 275.33 53.17 275.33 44.04"/><path class="cls-5" d="M28.14,38.72V49.89H26.68L20.82,41v8.88H19.37V38.72h1.45l5.86,8.87V38.72Z"/><path class="cls-5" d="M35.67,50a5.7,5.7,0,1,1,5.61-5.7A5.51,5.51,0,0,1,35.67,50Zm0-1.27c2.36,0,4.12-1.71,4.12-4.43S38,39.87,35.67,39.87s-4.11,1.7-4.11,4.44S33.32,48.74,35.67,48.74Z"/><path class="cls-5" d="M52,38.72V49.89H50.51L44.65,41v8.88H43.19V38.72h1.46l5.86,8.87V38.72Z"/><path class="cls-5" d="M54.13,43.41h6.39v1.23H54.13Z"/><path class="cls-5" d="M63.26,38.74h6.3v1.18H64.71v3.76h3.94v1.19H64.71v5H63.26Z"/><path class="cls-5" d="M74.92,38.74c2.63,0,3.87,1.45,3.87,3.28a3.15,3.15,0,0,1-2.65,3.2l2.8,4.67H77.19l-2.65-4.56H72.78v4.56H71.32V38.74Zm0,1.2H72.78v4.22h2.14c1.65,0,2.37-.89,2.37-2.14S76.59,39.94,74.92,39.94Z"/><path class="cls-5" d="M87.05,39.92H82.5v3.73h4.07v1.2H82.5v3.84h4.55v1.2h-6V38.72h6Z"/><path class="cls-5" d="M92.79,50c-2.24,0-3.82-1.25-3.86-3.09h1.56a2.06,2.06,0,0,0,2.3,1.85c1.41,0,2.24-.8,2.24-1.85,0-3-6-1.09-6-5.24,0-1.84,1.49-3.09,3.7-3.09s3.52,1.17,3.69,2.87h-1.6a2,2,0,0,0-2.16-1.62c-1.2,0-2.14.59-2.14,1.79,0,2.88,6,1.09,6,5.22C96.51,48.44,95.21,50,92.79,50Z"/><path class="cls-5" d="M105.78,44.84H100.1v5H98.65V38.74h1.45v4.9h5.68v-4.9h1.46V49.89h-1.46Z"/><path class="cls-5" d="M109.7,38.82h1.57l4.1,9.15,4.1-9.15H121V49.89h-1.46V41.63l-3.68,8.26h-1l-3.7-8.27v8.27H109.7Z"/><path class="cls-5" d="M130.07,47.41h-4.86l-.9,2.48h-1.54l4-11.09h1.68l4,11.09H131Zm-2.43-6.82-2,5.64h4Z"/><path class="cls-5" d="M143,38.72V49.89h-1.45L135.72,41v8.88h-1.46V38.72h1.46l5.86,8.87V38.72Z"/><path class="cls-5" d="M156.38,47.41h-4.87l-.9,2.48h-1.53l4-11.09h1.68l4,11.09h-1.54Zm-2.44-6.82-2,5.64h4Z"/><path class="cls-5" d="M164.17,45.24H162v4.65h-1.45V38.74h3.6c2.62,0,3.86,1.44,3.86,3.26S166.94,45.24,164.17,45.24Zm0-1.21c1.66,0,2.37-.78,2.37-2s-.71-2.06-2.37-2.06H162V44Z"/><path class="cls-5" d="M173.43,45.24h-2.14v4.65h-1.46V38.74h3.6c2.63,0,3.86,1.44,3.86,3.26S176.2,45.24,173.43,45.24Zm0-1.21c1.67,0,2.37-.78,2.37-2s-.7-2.06-2.37-2.06h-2.14V44Z"/><path class="cls-5" d="M180.55,38.74v10h3.91v1.18h-5.37V38.74Z"/><path class="cls-5" d="M186,38.74h1.45V49.89H186Z"/><path class="cls-5" d="M195,38.59A5.26,5.26,0,0,1,200.14,42h-1.75a3.52,3.52,0,0,0-3.42-2.1c-2.34,0-4.08,1.7-4.08,4.44s1.74,4.41,4.08,4.41a3.51,3.51,0,0,0,3.42-2.08h1.75A5.25,5.25,0,0,1,195,50a5.7,5.7,0,0,1,0-11.4Z"/><path class="cls-5" d="M208.89,47.41H204l-.89,2.48h-1.54l4-11.09h1.68l4,11.09h-1.54Zm-2.43-6.82-2,5.64h4Z"/><path class="cls-5" d="M212.39,38.74h7.55v1.18h-3v10h-1.45v-10h-3.06Z"/><path class="cls-5" d="M221.73,38.74h1.46V49.89h-1.46Z"/><path class="cls-5" d="M230.73,50a5.7,5.7,0,1,1,5.6-5.7A5.51,5.51,0,0,1,230.73,50Zm0-1.27c2.35,0,4.11-1.71,4.11-4.43s-1.76-4.44-4.11-4.44-4.12,1.7-4.12,4.44S228.37,48.74,230.73,48.74Z"/><path class="cls-5" d="M247,38.72V49.89h-1.46L239.7,41v8.88h-1.46V38.72h1.46l5.86,8.87V38.72Z"/></g></g></svg>