<svg xmlns="http://www.w3.org/2000/svg" viewBox="0 0 195 189"><defs><style>.cls-1,.cls-2{fill:#fff;}.cls-1,.cls-4,.cls-6{fill-rule:evenodd;}.cls-3,.cls-4{fill:#b12024;}.cls-5,.cls-6{fill:none;}.cls-6{stroke:#fff;stroke-miterlimit:10;}</style></defs><title>bottom right</title><g id="Layer_2" data-name="Layer 2"><g id="Layer_1-2" data-name="Layer 1"><g id="main_thing" data-name="main thing"><g id="Bottom_Right" data-name="Bottom Right"><path class="cls-1" d="M55.49,177.16a3.74,3.74,0,1,1,3.73,3.75,3.74,3.74,0,0,1-3.73-3.75Zm-1.15,0A4.88,4.88,0,1,1,59.22,182a4.89,4.89,0,0,1-4.88-4.88Z"/><path class="cls-1" d="M67.13,177.16a3.75,3.75,0,1,1,3.75,3.75,3.75,3.75,0,0,1-3.75-3.75Zm-1.13,0A4.88,4.88,0,1,1,70.88,182,4.88,4.88,0,0,1,66,177.16Z"/><path class="cls-1" d="M78.78,177.16a3.75,3.75,0,1,1,3.75,3.75,3.75,3.75,0,0,1-3.75-3.75Zm-1.13,0A4.88,4.88,0,1,1,82.53,182a4.89,4.89,0,0,1-4.88-4.88Z"/><path class="cls-1" d="M90.44,177.16a3.75,3.75,0,1,1,3.75,3.75,3.75,3.75,0,0,1-3.75-3.75Zm-1.13,0A4.88,4.88,0,1,1,94.19,182a4.88,4.88,0,0,1-4.88-4.88Z"/><path class="cls-1" d="M102.09,177.16a3.75,3.75,0,1,1,3.75,3.75,3.75,3.75,0,0,1-3.75-3.75Zm-1.13,0a4.88,4.88,0,1,1,4.88,4.88,4.89,4.89,0,0,1-4.88-4.88Z"/><path class="cls-2" d="M56.73,162.05v-34c-.94-.22-1.21-1-.41-1.69a.44.44,0,0,1,.28-.12,1.08,1.08,0,0,1,1.12,1c0,.4-.43.73-.43.86v34c0,.16.35.49.35.88a1,1,0,0,1-.83.93.66.66,0,0,1-.69-.29.92.92,0,0,1,.61-1.52Z"/><path class="cls-2" d="M62.31,162.05v-34c-1.12-.13-.92-.46-.92-.86s.26-1,.79-1a1.08,1.08,0,0,1,1.09,1c0,.4-.4.73-.4.86v34c0,.16.32.49.32.88a1,1,0,0,1-.91.94.73.73,0,0,1-.84-.84c.07-.43-.35-.81.87-1Z"/><path class="cls-2" d="M67.89,162.05v-34c-1.12-.13-.93-.46-.93-.86s.23-1,.76-1a1.12,1.12,0,0,1,1.13,1c0,.4-.41.73-.41.86v34c0,.16.32.49.32.88a1.08,1.08,0,0,1-1.09,1c-.52,0-.64-.43-.64-1s-.26-.72.86-.88Z"/><path class="cls-2" d="M72.91,162.05v-34a.78.78,0,0,1-.69-.86.92.92,0,0,1,.91-1c.51,0,1.2.43,1.2,1s-.31.73-.31.86v34c0,.16.28.49.28.88a1.08,1.08,0,0,1-1.07,1,.94.94,0,0,1-.93-1,.75.75,0,0,1,.61-.88Z"/><path class="cls-2" d="M78.49,162.05v-34a.79.79,0,0,1-.71-.86c0-.83.91-1.42,1.93-.46a.63.63,0,0,1,.16.24c.16.48-.27.92-.27,1.08v34c0,.16.28.49.28.88a1.11,1.11,0,0,1-1.12,1,.93.93,0,0,1-.91-1,.78.78,0,0,1,.64-.88Z"/><path class="cls-2" d="M84.06,162.05v-34a.8.8,0,0,1-.71-.86.89.89,0,0,1,.86-1,1,1,0,0,1,1,1c0,.4-.57.73-.57.86v34c0,.16.53.49.53.88a1,1,0,0,1-1,1,.85.85,0,0,1-.8-1,.84.84,0,0,1,.7-.88Z"/><path class="cls-2" d="M89.64,162.05v-34a.83.83,0,0,1-.75-.87.93.93,0,0,1,.82-.94,1,1,0,0,1,1,1c0,.4-.53.73-.53.86v34c0,.16.49.49.49.88a1,1,0,0,1-1,1,.94.94,0,0,1,0-1.84Z"/><path class="cls-2" d="M95.78,128.08v34c-.56.16-.8.49-.8.88a.87.87,0,0,0,.83,1,1,1,0,0,0,1-1c0-.39-.49-.72-.49-.88v-34c0-.13.43-.46.43-.86a1,1,0,0,0-1-1c-.5,0-.73.43-.73,1a.84.84,0,0,0,.76.86Z"/><path class="cls-2" d="M101.36,128.08v34c-.76.21-1,.75-.73,1.31a.84.84,0,0,0,.77.53,1,1,0,0,0,1-1c0-.39-.47-.72-.47-.88v-34c0-.13.41-.46.41-.86a1,1,0,0,0-1-1,.76.76,0,0,0-.73.52.89.89,0,0,0,.71,1.29Z"/><path class="cls-2" d="M106.94,128.08v34c-.58.16-.86.51-.84.92a.92.92,0,0,0,1.37.75.94.94,0,0,0,.5-.79c0-.39-.48-.72-.48-.88v-34c0-.13.41-.46.41-.86a1,1,0,0,0-.63-.86.82.82,0,0,0-1.09.6.86.86,0,0,0,.76,1.12Z"/><path class="cls-2" d="M112.51,128.08v34c-.87.24-1.13.92-.56,1.57a.75.75,0,0,0,.64.26,1.07,1.07,0,0,0,.93-.95c0-.39-.45-.72-.45-.88v-34c0-.13.37-.46.37-.86a1,1,0,0,0-1.11-1,.47.47,0,0,0-.34.19c-.5.66-.38,1.4.52,1.62Z"/><path class="cls-2" d="M118.09,128.08v34c-1.11.16-.9.49-.9.88s.27,1,.8,1a1.07,1.07,0,0,0,1.08-1c0-.39-.42-.72-.42-.88v-34c0-.13.34-.46.34-.86a1,1,0,0,0-1-1c-.52,0-.69.43-.69,1s-.27.73.84.86Z"/><path class="cls-2" d="M123.67,128.08v34c-1.11.16-.91.49-.91.88s.24,1,.77,1a1.12,1.12,0,0,0,1.12-1c0-.39-.42-.72-.42-.88v-34c0-.13.33-.46.33-.86a1.07,1.07,0,0,0-1.08-1c-.53,0-.66.43-.66,1s-.26.73.85.86Z"/><path class="cls-2" d="M128.69,128.08v34a.79.79,0,0,0-.66.88.92.92,0,0,0,.91,1c.51,0,1.19-.43,1.19-1s-.32-.72-.32-.88v-34c0-.13.3-.46.3-.86a1.08,1.08,0,0,0-1.08-1,1,1,0,0,0-.94,1c0,.4,0,.73.6.86Z"/><path class="cls-2" d="M168.86,161.93V128.11c0-.14.32-.47.32-.86a1.08,1.08,0,0,0-1.09-1,.93.93,0,0,0-.92,1c0,.39.57.72.57.86v34c0,.16-.64.49-.64.88a.91.91,0,0,0,.9,1,1.25,1.25,0,0,0,1.2-1c0-.39-.33-.39-.33-.95Z"/><path class="cls-2" d="M163.28,162.05v-34c0-.13.33-.46.33-.86a1,1,0,0,0-1.05-1,1,1,0,0,0-1,1c0,.4.57.73.57.86v34c0,.16-.63.49-.63.88a.94.94,0,0,0,.93,1c.53,0,1.16-.43,1.16-1s-.34-.72-.34-.88Z"/><path class="cls-2" d="M157.7,162.05v-34c0-.13.37-.47.36-.87A.61.61,0,0,0,158,127c-.68-1.22-1.94-.61-1.94.27,0,.4.55.73.55.86v34c0,.16-.6.49-.6.88a.93.93,0,0,0,1.47.78,1.1,1.1,0,0,0,.31-1.5.35.35,0,0,1-.07-.16Z"/><path class="cls-2" d="M151.56,162.05v-34a.8.8,0,0,0,.68-.94.91.91,0,0,0-.61-.83.92.92,0,0,0-1.22.91c0,.4.6.73.6.86v34c0,.16-.57.49-.57.88a.94.94,0,0,0,1,.95.92.92,0,0,0,.76-.93.81.81,0,0,0-.68-.9Z"/><path class="cls-2" d="M146,162.05v-34a.78.78,0,0,0,.68-.84.92.92,0,1,0-1.83,0c0,.4.59.73.59.86v34c0,.16-.56.49-.56.88a1,1,0,0,0,.89.95.89.89,0,0,0,.9-.92.81.81,0,0,0-.67-.91Z"/><path class="cls-2" d="M140.41,162.05v-34c1.11-.13.71-.46.71-.86a.9.9,0,0,0-.89-1,1,1,0,0,0-.94,1c0,.4.56.73.56.86v34c0,.16-.53.49-.53.88a1,1,0,0,0,1,1,.87.87,0,0,0,.84-1c0-.39.4-.72-.71-.88Z"/><path class="cls-2" d="M135.39,162.05v-34c.55-.13.46-.46.46-.86a1,1,0,0,0-1-1,1,1,0,0,0-1.06,1c0,.4.49.73.49.86v34c0,.16-.52.49-.52.88a1,1,0,0,0,2,.36.81.81,0,0,0,.12-.4c0-.37.09-.69-.45-.84Z"/><polygon class="cls-3" points="56.43 147.69 61.95 153.22 67.28 133.33 67.46 132.64 67.95 133.15 72.93 138.12 78.24 132.8 78.61 132.43 78.86 132.91 84.31 142.38 90.09 142.38 90.32 142.38 90.44 142.56 95.83 151.91 101.06 142.72 101.18 142.38 101.41 142.38 106.95 142.38 112.21 133.39 112.95 133.55 118.3 153.58 123.06 158.22 128.16 129.53 128.96 129.53 134.68 157.73 139.65 152.49 145.16 143.06 151.43 130.1 151.62 129.68 152.01 129.96 156.8 133.31 156.95 133.54 162.98 156.85 167.28 149.39 167.98 149.78 163.2 158.11 162.46 158.01 156.21 133.87 151.93 130.88 145.86 143.47 145.84 143.49 140.32 153.01 140.26 153.09 134.74 158.99 134.21 159.55 134.05 158.79 128.59 132.02 123.72 159.28 123.59 160.04 123.04 159.49 117.65 154.1 117.56 153.93 112.42 134.75 107.52 143.26 107.4 143.5 107.17 143.5 101.62 143.5 96.18 152.93 95.83 153.51 95.5 153.09 89.85 143.5 84.07 143.5 83.86 143.5 83.74 143.1 78.43 133.83 73.2 139.02 72.93 139.27 72.63 138.99 67.87 134.21 62.56 154.1 62.37 154.79 61.88 154.3 55.86 148.26 56.43 147.69 56.43 147.69"/><polygon class="cls-3" points="167.96 148.75 162.42 146.66 157.05 154.22 156.87 154.47 156.38 154.3 151.39 152.4 146.04 154.43 145.67 154.57 145.41 154.37 139.95 150.76 134.13 150.76 133.9 150.76 133.78 150.7 128.35 147.15 123.1 150.64 122.98 150.76 122.75 150.76 117.19 150.76 111.89 154.2 111.15 154.14 105.76 146.51 100.98 144.79 95.85 155.78 95.07 155.78 89.31 144.99 84.31 146.96 78.77 150.53 72.48 155.46 72.26 155.61 71.87 155.51 67.07 154.24 66.92 154.14 60.84 145.27 56.53 148.1 55.83 147.96 60.63 144.8 61.37 144.84 67.66 154 71.89 155.16 77.93 150.37 77.93 150.35 83.56 146.73 83.65 146.69 89.23 144.47 89.77 144.25 89.93 144.53 95.43 154.73 100.32 144.35 100.45 144.06 101 144.27 106.43 146.32 106.53 146.38 111.68 153.67 116.6 150.36 116.72 150.2 116.95 150.2 122.53 150.2 128 146.69 128.35 146.5 128.7 146.61 134.36 150.2 140.16 150.2 140.4 150.2 140.51 150.42 145.84 153.99 151.09 152.03 151.39 151.95 151.68 152.06 156.46 153.88 161.81 146.3 161.99 146.05 162.5 146.24 168.55 148.53 167.96 148.75 167.96 148.75"/><path class="cls-1" d="M113.77,177.16a3.74,3.74,0,1,1,3.73,3.75,3.74,3.74,0,0,1-3.73-3.75Zm-1.15,0A4.88,4.88,0,1,1,117.5,182a4.88,4.88,0,0,1-4.88-4.88Z"/><path class="cls-1" d="M125.42,177.16a3.75,3.75,0,1,1,3.75,3.75,3.75,3.75,0,0,1-3.75-3.75Zm-1.13,0a4.88,4.88,0,1,1,4.88,4.88,4.89,4.89,0,0,1-4.88-4.88Z"/><path class="cls-1" d="M137.1,177.16a3.74,3.74,0,1,1,3.73,3.75,3.74,3.74,0,0,1-3.73-3.75Zm-1.15,0a4.88,4.88,0,1,1,4.88,4.88,4.88,4.88,0,0,1-4.88-4.88Z"/><path class="cls-1" d="M148.75,177.16a3.75,3.75,0,1,1,3.75,3.75,3.75,3.75,0,0,1-3.75-3.75Zm-1.13,0A4.88,4.88,0,1,1,152.5,182a4.89,4.89,0,0,1-4.88-4.88Z"/><path class="cls-1" d="M160.43,177.16a3.74,3.74,0,1,1,3.73,3.75,3.74,3.74,0,0,1-3.73-3.75Zm-1.16,0a4.88,4.88,0,1,1,4.89,4.88,4.89,4.89,0,0,1-4.89-4.88Z"/><path class="cls-4" d="M155.46,77.63a17.7,17.7,0,1,1-17.67,17.7,17.68,17.68,0,0,1,17.67-17.7Zm0-.85a18.55,18.55,0,1,1-18.52,18.55,18.55,18.55,0,0,1,18.52-18.55Z"/><path class="cls-1" d="M155.46,82.82A12.52,12.52,0,1,1,143,95.33a12.51,12.51,0,0,1,12.5-12.51Zm0-.6a13.12,13.12,0,1,1-13.1,13.11,13.1,13.1,0,0,1,13.1-13.11Z"/><path class="cls-1" d="M112.89,29.85a25.42,25.42,0,1,1-25.4,25.41,25.39,25.39,0,0,1,25.4-25.41Zm0-1.23A26.65,26.65,0,1,1,86.26,55.26a26.62,26.62,0,0,1,26.63-26.64Z"/><path class="cls-4" d="M112.89,37.3a18,18,0,1,1-18,18,17.94,17.94,0,0,1,18-18Zm0-.88A18.85,18.85,0,1,1,94.05,55.26a18.83,18.83,0,0,1,18.84-18.84Z"/><path class="cls-1" d="M57,71.33a18,18,0,1,1-18,18,18,18,0,0,1,18-18Zm0-.86A18.84,18.84,0,1,1,38.18,89.31,18.84,18.84,0,0,1,57,70.47Z"/><rect id="Border_Box" data-name="Border Box" class="cls-5" width="195" height="189"/><polyline class="cls-6" points="89.87 1.62 0.5 77.06 0.87 186.62"/></g></g></g></g></svg>