<svg xmlns="http://www.w3.org/2000/svg" viewBox="0 0 86.49 85.98"><defs><style>.cls-1{fill:#b2372b;}.cls-1,.cls-10,.cls-11,.cls-2,.cls-3,.cls-4,.cls-5,.cls-6,.cls-7,.cls-8,.cls-9{fill-rule:evenodd;}.cls-13,.cls-2{fill:#431d22;}.cls-3{fill:#b12627;}.cls-14,.cls-4{fill:#a1191b;}.cls-5{fill:#b13830;}.cls-12,.cls-6{fill:#6d1f1f;}.cls-7{fill:#1e0000;}.cls-8{fill:#000101;}.cls-10,.cls-15{fill:#b02125;}.cls-11{fill:#af2222;}</style></defs><title>button 1</title><g id="Layer_2" data-name="Layer 2"><g id="Layer_1-2" data-name="Layer 1"><g id="main_thing" data-name="main thing"><path class="cls-1" d="M.11,39.55c.08-.87.18-1.73.31-2.59h0c0-.08,0-.17,0-.26h0c0-.35.11-.69.17-1l2,.39c-.14.77-.26,1.54-.35,2.32h0a2.6,2.6,0,0,0,0,.26h0c0,.36-.08.72-.11,1.08L.11,39.55Z"/><path class="cls-2" d="M0,44.15c0-1,0-2,0-3H0V41h0l0-.51L2,40.62C2,41.19,2,41.77,2,42.35H2c0,.09,0,.17,0,.25H2c0,.5,0,1,0,1.5l-2,.06Z"/><path class="cls-2" d="M.37,48.93c-.1-.87-.18-1.74-.24-2.6h0a.81.81,0,0,1,0-.16l-.06-1,1.87-.06v.06h0a.31.31,0,0,1,.12.25h0a5.69,5.69,0,0,0,.08.83h0a.62.62,0,0,0,0,.18H2a2.28,2.28,0,0,0,0,.26H2c.05.67.12,1.33.2,2l-1.86.29Z"/><path class="cls-3" d="M2.51,57.53c-.08-.21-.15-.43-.23-.65h0a1.55,1.55,0,0,1-.07-.23h0c-.29-.86-.55-1.74-.78-2.62l1.89-.48q.16.66.36,1.29h0c0,.08.05.16.07.24h0c.19.61.39,1.2.6,1.79l-1.83.67Z"/><path class="cls-3" d="M84.82,31.24a2.61,2.61,0,0,0,.27.68h0a.29.29,0,0,0,0,.24h0c.24.91.45,1.83.62,2.76l-2,.35c-.09-.46-.19-.9-.29-1.33h0a1,1,0,0,0,0-.2h0c-.14-.7-.31-1.32-.48-1.94l1.92-.57Z"/><path class="cls-4" d="M4.38,62c-.38-.78-.73-1.56-1.07-2.35h0a2.44,2.44,0,0,0-.1-.24h0l0,0c-.11-.28-.23-.56-.33-.84l1.88-.69.33.82h0c.16.4.34.8.51,1.19h0l.11.23h0c.16.34.32.69.49,1l-1.8.9Z"/><path class="cls-4" d="M83.26,26.69c.33.8.63,1.6.91,2.42h0a2.25,2.25,0,0,1,.08.24h0v.05c.1.28.19.56.28.85l-1.93.57c-.08-.29-.18-.57-.27-.85h0c-.14-.41-.28-.81-.43-1.21h0l-.09-.24h0l-.42-1.06,1.85-.78Z"/><path class="cls-4" d="M6.72,66.08c-.56-.86-1.08-1.75-1.58-2.66h0L5,63.19H5a2.93,2.93,0,0,1-.21-.39l1.79-.9c.26.5.53,1,.82,1.48h0l.12.23h0c.27.47.55.94.84,1.39L6.72,66.08Z"/><path class="cls-4" d="M81.21,22.47c.5.9,1.39,2.84,1.39,2.84h0a.63.63,0,0,1,.1.16h0l.18.4L81,26.65c-.23-.52-.72-1.54-.72-1.54h0l-.12-.2h0s-.49-1-.75-1.46l1.75-1Z"/><path class="cls-5" d="M9.45,69.94C8.69,69,8,68,7.3,67h0l-.11-.16L8.88,65.8c.22.33.45.66.69,1h0c0,.06.09.13.14.2h0c.41.57.84,1.13,1.28,1.68L9.45,69.94Z"/><path class="cls-5" d="M78.7,18.44c.69,1,1.34,2,2,3h0l.09.16-1.75,1-.62-1h0l-.13-.22h0c-.37-.59-.76-1.18-1.17-1.76l1.64-1.16Z"/><path class="cls-5" d="M12.69,73.47l-.11-.1h0s-1.68-1.76-2.47-2.69l1.56-1.27c.15.18.51.54.51.54h0l.2.19h0s1.1,1.28,1.72,1.89l-1.41,1.44Z"/><path class="cls-5" d="M75.76,14.77l.08.1h0c.79.91,1.55,1.86,2.27,2.83L76.5,18.85l-.43-.57h0l-.15-.19h0c-.53-.68-1.08-1.35-1.65-2l1.49-1.32Z"/><path class="cls-6" d="M16.23,76.62c-.46-.36-.92-.74-1.36-1.12h0l0,0h0l0,0h0c-.42-.36-.82-.73-1.21-1.09h0l-.2-.19,1.41-1.43.35.33h0c.32.3.64.59,1,.87h0l0,0h0l0,0h0l.82.68h0l.2.17h0l.27.22-1.24,1.57Z"/><path class="cls-6" d="M72.42,11.34c.43.4.86.8,1.28,1.22h0l0,0h0l0,0h0c.38.39.76.77,1.13,1.17h0l.18.2-1.5,1.33c-.11-.12-.21-.24-.33-.35h0c-.29-.32-.6-.63-.91-.94h0l0,0h0l0,0h0l-.76-.74h0a1.54,1.54,0,0,1-.19-.17h0l-.25-.23,1.34-1.49Z"/><path class="cls-6" d="M20.14,79.43C19.07,78.75,18,78,17,77.27h0l1.24-1.57c.66.5,1.34,1,2,1.45h0l.21.14h0l.7.44-1.05,1.71Z"/><path class="cls-6" d="M68.73,8.29c1,.74,2,1.53,3,2.36h0l-1.34,1.49c-.63-.55-1.27-1.07-1.93-1.58h0a1.56,1.56,0,0,1-.2-.16h0l-.66-.5,1.17-1.63Z"/><path class="cls-7" d="M24.31,81.69l0,0h0L24,81.55h0C23,81,22,80.48,21,79.88L22,78.18c.57.34,1.16.67,1.82,1h0s.08.08.2.12h0c.35.21.74.41,1.14.6l-.86,1.81Z"/><path class="cls-7" d="M64.63,5.81l0,0h0l.22.13h0c1,.59,2,1.21,3,1.88L66.68,9.46c-.55-.38-1.11-.74-1.68-1.1h0l-.21-.14h0l-1.14-.67,1-1.74Z"/><path class="cls-7" d="M28.69,83.55l-.52-.19h0l-.23-.09h0c-.93-.34-1.84-.72-2.74-1.13l.85-1.79q.69.32,1.38.6h0l.24.1h0c.54.22,1.1.43,1.66.63l-.64,1.87Z"/><path class="cls-7" d="M60.44,3.53l.52.22h0l.23.11h0c.91.42,1.81.87,2.68,1.34l-1,1.75c-.45-.25-.9-.48-1.36-.71h0l-.23-.11h0c-.55-.26-1.09-.51-1.65-.75l.78-1.84Z"/><path class="cls-8" d="M33.24,84.89c-.81-.19-1.6-.4-2.38-.63h0l-.25-.08h0l-1.07-.34.66-1.91,1,.32h0c.42.13.85.24,1.27.36h0l.25.07h0l1,.24-.44,2Z"/><path class="cls-8" d="M56,2c.78.24,1.55.49,2.31.78h0l.24.09h0l1,.4-.78,1.84-1-.37h0c-.41-.16-.81-.3-1.23-.44h0l-.24-.09h0l-.94-.29L56,2Z"/><path class="cls-8" d="M37.83,85.64c-.92-.11-1.84-.25-2.75-.42h0l-.25,0h0l-.59-.12.43-1.93q.7.15,1.41.27h0l.2,0v0c.59.1,1.17.18,1.77.26l-.22,1.88Z"/><path class="cls-8" d="M51.25.79c1,.18,2,.4,2.91.65V1.39l.26.07h0l.62.17-.6,2c-.49-.14-1-.27-1.49-.39v0l-.2-.06v0c-.62-.14-1.24-.28-1.87-.39l.37-2Z"/><path class="cls-9" d="M42.71,86h-.15c-1.2,0-2.38-.09-3.56-.2l.22-1.93.68.06h0l.24,0h0c.85.06,1.7.1,2.57.11V86Z"/><path class="cls-9" d="M46.6.18h.15c1.23.1,2.43.25,3.63.45l-.36,2-.68-.11h0l-.26,0h0c-.86-.12-1.74-.22-2.62-.29l.14-2Z"/><path class="cls-9" d="M47.2,85.8l-.81.06h-.18c-.84,0-1.67.08-2.5.09V84h.2c.74,0,1.48,0,2.21-.09l.2,0v.05l.4,0v0l.27,0,.21,2Z"/><path class="cls-9" d="M42.28.06l.79,0h.21c.78,0,1.55,0,2.32.06l-.13,2h-.15C44.58,2,43.85,2,43.11,2h-.2V2h-.56l-.07-2Z"/><path class="cls-9" d="M51.76,85.14l-.21,0h0c-1.12.21-2.24.39-3.39.51L48,83.8c.66-.08,1.32-.17,2-.27v0l.2,0h0l1.21-.22.41,1.91Z"/><path class="cls-9" d="M37.45.36a2,2,0,0,1,.24,0h0C39,.17,40.23.05,41.52,0l.07,2.15c-.74,0-1.49.08-2.22.15h0l-.27,0h0l-1.33.16L37.45.36Z"/><path class="cls-9" d="M56.41,84l-.45.14h0l-.24.07h0c-1,.3-2,.56-3,.79l-.42-2,1.56-.38h0l.25-.07h0c.55-.15,1.11-.31,1.65-.49l.64,1.9Z"/><path class="cls-9" d="M32.81,1.29l.46-.11h0l.25-.06h0c1-.23,2-.42,3.06-.58l.29,2c-.53.08-1.07.17-1.59.28h0l-.26,0h0l-1.71.38-.5-1.95Z"/><path class="cls-9" d="M27.79,2.84l.46-.17v0l.24-.09h0c1-.36,2-.68,3-1l.54,2-1.56.47v0l-.21.08v0c-.57.19-1.13.39-1.69.6l-.77-1.93Z"/><path class="cls-10" d="M22.85,5.07l.86-.44h0c.41-.21.82-.41,1.24-.6h0l1.34-.59.76,1.85c-.35.14-.69.29-1,.45h0l-1.19.56h0l-1,.52-1-1.75Z"/><path class="cls-10" d="M60.88,82.28l-.89.38h0c-.42.18-.85.35-1.28.51h0l-1.38.5-.63-1.9c.35-.12.7-.24,1-.38h0q.61-.23,1.23-.48h0L60,80.46l.85,1.82Z"/><path class="cls-10" d="M18.91,7.51c.78-.53,1.58-1,2.4-1.52h0l.22-.13h0l.62-.35,1,1.76c-.57.32-1.14.65-1.69,1h0a1.64,1.64,0,0,0-.22.14h0l-1.14.75L18.91,7.51Z"/><path class="cls-10" d="M65.05,80c-.82.48-1.65.93-2.5,1.35h0l-.23.12h0l-.64.3L60.84,80c.59-.28,1.18-.58,1.75-.88h0l.23-.12h0L64,78.29l1,1.71Z"/><path class="cls-11" d="M15.07,10.39c.85-.72,1.72-1.41,2.62-2.15h0c.07,0,.14,0,.21.2h0c.05-.3.11-.34.17-.38l1.15,1.63L18,10.58h0a1.39,1.39,0,0,1-.22.15h0c-.46.37-.94.76-1.4,1.16l-1.33-1.51Z"/><path class="cls-11" d="M69,77.52q-1.24,1-2.55,1.89h0l-.2.14h0l-.17.11-1-1.71,1.16-.8h0l.19-.14h0c.47-.34.93-.7,1.39-1.06L69,77.52Z"/><path class="cls-11" d="M11.63,13.68c.87-.92,1.77-1.81,2.72-2.65l1.33,1.5c-.26.23-.51.45-.75.68h0l-.19.18h0c-.55.53-1.1,1.08-1.63,1.64l-1.48-1.35Z"/><path class="cls-11" d="M72.76,74.43c-.92.86-1.89,1.68-2.89,2.46l-1.22-1.58.79-.64h0l.2-.16h0c.59-.5,1.17-1,1.73-1.53l1.39,1.45Z"/><path class="cls-11" d="M8.45,17.36l.2-.26h0c.61-.8,1.25-1.58,1.91-2.34h0c.14-.16.27-.32.41-.47l1.56,1.41-.55.63h0c-.63.73-1.23,1.47-1.81,2.24h0l0,0-1.7-1.24Z"/><path class="cls-11" d="M76.06,71l-.21.24h0c-.63.72-1.29,1.42-2,2.1h0l-.42.42-1.39-1.44.57-.56h0c.64-.66,1.26-1.33,1.86-2h0l0,0L76.06,71Z"/><path class="cls-11" d="M6,21.35c.58-1,1.21-2,1.87-2.88h0c0-.07.09-.14.14-.21H8L8,18.17l1.63,1.18c-.55.77-1.07,1.55-1.57,2.35h0L8,21.91H8l-.26.42L6,21.35Z"/><path class="cls-11" d="M79,67.23c-.65,1-1.33,1.87-2.06,2.76h0l-.15.19h0l-.07.09L75.14,69c.6-.72,1.17-1.47,1.72-2.24h0a1.53,1.53,0,0,0,.14-.21h0l.29-.4L79,67.23Z"/><path class="cls-10" d="M3.74,25.39c.52-1.15,1.09-2.28,1.71-3.38L7.2,23c-.39.69-.75,1.38-1.1,2.09h0a2.26,2.26,0,0,1-.11.22H6c-.14.3-.28.59-.41.88l-1.85-.8Z"/><path class="cls-10" d="M81.43,63.13c-.6,1.12-1.24,2.2-1.93,3.26l-1.68-1.11c.43-.65.84-1.32,1.23-2h0l.12-.22h0c.16-.28.31-.55.46-.84l1.79.92Z"/><path class="cls-10" d="M2,29.92c0-.05,0-.1,0-.15h0a2.25,2.25,0,0,0,.08-.24h0c.36-1.07.76-2.13,1.2-3.16l1.84.79c-.24.58-.47,1.16-.69,1.77h0l-.09.2h0L4,30.51,2,29.92Z"/><path class="cls-10" d="M83.43,58.87a1.21,1.21,0,0,1-.05.14h0a2.44,2.44,0,0,0-.1.24h0c-.43,1-.9,2.07-1.41,3.07l-1.78-.91c.28-.57.55-1.13.81-1.75h0a.46.46,0,0,0,.1-.2h0c.2-.42.38-.86.56-1.31l1.87.72Z"/><path class="cls-1" d="M.84,34.51c.13-.66.28-1.32.44-2h0c.15-.58.31-1.14.47-1.71l1.92.59c-.13.45-.26.91-.38,1.37h0c-.11.42-.21.85-.31,1.27H3c0,.09,0,.17,0,.25l-.12.57-2-.37Z"/><path class="cls-1" d="M85,54.29c-.18.65-.38,1.3-.59,1.94h0c-.18.56-.37,1.11-.58,1.67l-1.88-.72c.17-.44.32-.89.47-1.33h0l.39-1.26h0c0-.08,0-.16.07-.24S83,54,83,53.79l2,.5Z"/><path class="cls-1" d="M86,49.64c-.14.87-.3,1.74-.49,2.59h0l-.06.2h0c-.08.34-.16.68-.25,1l-2-.51c.19-.74.36-1.5.5-2.26h0a2.38,2.38,0,0,0,0-.26h0c.07-.36.13-.72.19-1.08l2.09.3Z"/><path class="cls-2" d="M86.46,44.91c0,1-.13,2.08-.25,3.1h0l0,.2h0c0,.18,0,.37-.07.55l-2.07-.3c.08-.62.16-1.23.21-1.85h0l0-.21h0c0-.52.07-1,.1-1.56l2.08.07Z"/><path class="cls-2" d="M86.38,40.27c.05.87.08,1.73.11,2.59h0V43c0,.35,0,.69,0,1L84.29,44h.16v-.28h0c0-.28,0-.55,0-.83h0a1.46,1.46,0,0,1,0-.29h0s0-.11,0-.2h0c0-.66,0-1.32-.08-2l2-.15Z"/><path class="cls-3" d="M1.24,53.34C1,52.5.86,51.65.7,50.82h0a.38.38,0,0,0,0-.2h0c-.05-.38-.1-.69-.15-1l2-.28c.19,1.18.42,2.35.7,3.49l-1.95.51Z"/><path class="cls-3" d="M85.81,35.56c.15.84.27,1.7.37,2.61h0s0,.13,0,.2h0c0,.32.07.63.09.94l-2,.15c-.11-1.19-.26-2.38-.47-3.53l2-.37Z"/><path class="cls-12" d="M65.16,22.8a29.61,29.61,0,0,1,3,3.86c.1.14.18.28.27.42a.83.83,0,0,1,.08.12c.07.11.14.22.2.33a29.7,29.7,0,0,1,4.29,14l7.29.06v-.13s0-.09,0-.13l0-.69v0a36.88,36.88,0,0,0-5-16.35l0-.08L75,23.81l-.25-.41-.14-.22-.3-.47,0,0a35.73,35.73,0,0,0-3.22-4.2h0l-.52-.58A37.15,37.15,0,0,0,44.92,6l0,7.26A29.85,29.85,0,0,1,65.16,22.8Z"/><path class="cls-13" d="M13.75,44.6l-7.21,0A36.94,36.94,0,0,0,35.68,79.31h0a36.16,36.16,0,0,0,6,.75V72.8a28.81,28.81,0,0,1-4.22-.53A29.67,29.67,0,0,1,13.75,44.6Z"/><path class="cls-14" d="M71,53.86A29.85,29.85,0,0,1,44.72,72.67v7.26a37.21,37.21,0,0,0,28-14.46,36.84,36.84,0,0,0,5-8.74.14.14,0,0,0,0-.06A36.5,36.5,0,0,0,80.31,44.8l-7.3,0a29.69,29.69,0,0,1-2,9.11Z"/><path class="cls-15" d="M27.24,9.63l-.49.24,0,0-.68.35-.15.08-.51.27-.21.12-.45.25-.22.13L24,11.4l-.09.06h0A37,37,0,0,0,6.1,41.38l7.32,0A29.72,29.72,0,0,1,27.8,17.58l.43-.26.12-.07.46-.25.08,0c.36-.2.73-.4,1.11-.58l.06,0a30,30,0,0,1,11.84-3l0-7.27a37.45,37.45,0,0,0-14.7,3.6Z"/><path class="cls-11" d="M11.65,41.58A31.56,31.56,0,0,1,41.9,11.64v1.7a30,30,0,0,0-11.92,3l-.06,0L28.81,17l-.08,0-.45.26-.13.07-.43.25A29.72,29.72,0,0,0,13.36,41.38l-1.71.2ZM41.7,74.51a31.52,31.52,0,0,1-30-29.91H13.4a29.8,29.8,0,0,0,24,27.68h0a30.94,30.94,0,0,0,4.27.53v1.7ZM74.79,45A31.52,31.52,0,0,1,44.72,74.42V72.71A29.79,29.79,0,0,0,71.06,53.9a29.56,29.56,0,0,0,2-9.1l1.71.2Zm0-3.21-1.71,0A29.67,29.67,0,0,0,68.8,27.72l-.2-.33a.57.57,0,0,1-.08-.13l-.27-.41h0A30,30,0,0,0,44.92,13.44v-1.7A31.51,31.51,0,0,1,74.8,41.79Z"/><path class="cls-11" d="M20.47,21.21A31.76,31.76,0,0,1,63.24,18.7L60,22.37a26.81,26.81,0,0,0-35.8,2.09l-3.69-3.25Z"/><path class="cls-10" d="M21.33,65.69a31.28,31.28,0,0,1-2.63-42.5l3.7,3.25A26.41,26.41,0,0,0,24.59,62l-3.26,3.67Z"/><path class="cls-11" d="M65.88,65a31.77,31.77,0,0,1-42.56,2.5l3.27-3.68A26.81,26.81,0,0,0,62.2,61.68L65.88,65Z"/><path class="cls-10" d="M65.23,20.46A31.3,31.3,0,0,1,67.65,63L64,59.71a26.42,26.42,0,0,0-2-35.59l3.28-3.66Z"/><path class="cls-11" d="M43.23,29.22A13.81,13.81,0,1,1,29.34,43,13.85,13.85,0,0,1,43.23,29.22Zm0-5.86A19.67,19.67,0,1,1,23.44,43,19.72,19.72,0,0,1,43.23,23.36Z"/><path class="cls-2" d="M43.23,23.32A19.72,19.72,0,0,1,63,43h-5.9a13.89,13.89,0,0,0-27.77,0h-5.9A19.73,19.73,0,0,1,43.23,23.32Z"/></g></g></g></svg>