<svg xmlns="http://www.w3.org/2000/svg" viewBox="0 0 195 189"><defs><style>.cls-1,.cls-2{fill:#fff;}.cls-1,.cls-3,.cls-5{fill-rule:evenodd;}.cls-3{fill:#b12024;}.cls-4,.cls-5{fill:none;}.cls-5{stroke:#fff;stroke-miterlimit:10;}</style></defs><title>top right</title><g id="Layer_2" data-name="Layer 2"><g id="Layer_1-2" data-name="Layer 1"><g id="main_thing" data-name="main thing"><g id="Top_Right" data-name="Top Right"><path class="cls-1" d="M81.36,110.56a50.32,50.32,0,0,1-5.76-5.22,54.5,54.5,0,0,0,11,11,52.37,52.37,0,0,1-5.22-5.78Zm16.33,9a62.09,62.09,0,0,1-7.4-3.25,46.69,46.69,0,0,0,12,7.42,39.1,39.1,0,0,1-4.63-4.17Zm13.71,3.21a61.6,61.6,0,0,1-8.66-1.64,28.09,28.09,0,0,0,11,5.39,22.69,22.69,0,0,1-2.37-3.75Zm12.84.25c-1.69.15-3.41.21-5.15.21s-3.46-.06-5.15-.21c.21.38.42.73.64,1.07a10.86,10.86,0,0,0,2.77,3c.57.05,1.16.07,1.74.07s1.15,0,1.74-.07a10.58,10.58,0,0,0,2.74-3,11.39,11.39,0,0,0,.67-1.07Zm11.18-1.89a60.53,60.53,0,0,1-8.66,1.64,21.45,21.45,0,0,1-2.37,3.75,28.09,28.09,0,0,0,11-5.39Zm12.47-4.82a60.31,60.31,0,0,1-7.42,3.25,39.1,39.1,0,0,1-4.63,4.17,46.46,46.46,0,0,0,12-7.42Zm14.69-11a53,53,0,0,1-5.76,5.22,53.56,53.56,0,0,1-5.24,5.78,54.6,54.6,0,0,0,11-11Zm-5.76-70.22a53.16,53.16,0,0,1,5.76,5.24,54.6,54.6,0,0,0-11-11,56.33,56.33,0,0,1,5.24,5.76Zm-16.35-9a57.42,57.42,0,0,1,7.42,3.25,46.69,46.69,0,0,0-12-7.42,39.65,39.65,0,0,1,4.61,4.17ZM126.76,22.9a65,65,0,0,1,8.66,1.66,27.82,27.82,0,0,0-11-5.39,20.51,20.51,0,0,1,2.37,3.73Zm-12.82-.25c1.69-.12,3.41-.21,5.15-.21s3.46.09,5.15.21c-.21-.35-.43-.71-.67-1.07a10.52,10.52,0,0,0-2.74-2.95c-.59,0-1.15-.06-1.74-.06s-1.17,0-1.74.06a10.8,10.8,0,0,0-2.77,2.95l-.64,1.07Zm-11.2,1.91a66.25,66.25,0,0,1,8.66-1.66,21.65,21.65,0,0,1,2.37-3.73,27.82,27.82,0,0,0-11,5.39ZM90.29,29.38a59,59,0,0,1,7.4-3.25A38.24,38.24,0,0,1,102.32,22a46.69,46.69,0,0,0-12,7.42Zm-14.69,11a50.49,50.49,0,0,1,5.76-5.24,55,55,0,0,1,5.22-5.76,54.5,54.5,0,0,0-11,11ZM72.34,94.24a39.17,39.17,0,0,1-4.16-4.64,46.39,46.39,0,0,0,7.43,12.05,64.2,64.2,0,0,1-3.27-7.41Zm15.46,9.89a57.52,57.52,0,0,1-11.6-6.65,56,56,0,0,0,6.88,11.36,56.73,56.73,0,0,0,11.36,6.88,57.69,57.69,0,0,1-6.64-11.59Zm19,5.3a75,75,0,0,1-16.44-4.23,49.19,49.19,0,0,0,8.3,12.21,59.12,59.12,0,0,0,11.58,2.89,67.59,67.59,0,0,1-3.44-10.87Zm22.32.29a86.67,86.67,0,0,1-10,.59,82.9,82.9,0,0,1-10.06-.59c.23,1,.48,1.87.73,2.79a56.51,56.51,0,0,0,2.89,8.09c2.12.21,4.26.33,6.44.33s4.32-.12,6.44-.33a55.11,55.11,0,0,0,2.86-8.09c.28-.92.51-1.84.74-2.79Zm18.65-4.52a74.76,74.76,0,0,1-16.43,4.23,67.69,67.69,0,0,1-3.42,10.87,59.28,59.28,0,0,0,11.56-2.89,48.89,48.89,0,0,0,8.29-12.21ZM162,97.48a57,57,0,0,1-11.57,6.65,56.34,56.34,0,0,1-6.66,11.59,55.63,55.63,0,0,0,11.36-6.88A54.63,54.63,0,0,0,162,97.48ZM170,89.6a39.46,39.46,0,0,1-4.19,4.64,59.28,59.28,0,0,1-3.24,7.41A47.5,47.5,0,0,0,170,89.6Zm-4.19-38.13A38.6,38.6,0,0,1,170,56.1a47.15,47.15,0,0,0-7.43-12.05,59.42,59.42,0,0,1,3.24,7.42Zm-15.43-9.92A56.13,56.13,0,0,1,162,48.22a53.86,53.86,0,0,0-6.87-11.36A54.29,54.29,0,0,0,143.72,30a55.83,55.83,0,0,1,6.66,11.56Zm-19-5.3a75.9,75.9,0,0,1,16.43,4.26,48.9,48.9,0,0,0-8.29-12.24,59.25,59.25,0,0,0-11.56-2.87,66.77,66.77,0,0,1,3.42,10.85ZM109,36a88.88,88.88,0,0,1,20.1,0c-.23-.92-.46-1.85-.74-2.77a55.11,55.11,0,0,0-2.86-8.09,63,63,0,0,0-12.88,0,56.51,56.51,0,0,0-2.89,8.09c-.25.92-.5,1.85-.73,2.77ZM90.37,40.51a76.14,76.14,0,0,1,16.44-4.26,66.67,66.67,0,0,1,3.44-10.85,59.09,59.09,0,0,0-11.58,2.87,49.19,49.19,0,0,0-8.3,12.24ZM76.2,48.22a56.64,56.64,0,0,1,11.6-6.67A57.16,57.16,0,0,1,94.44,30a55.33,55.33,0,0,0-11.36,6.87A55.18,55.18,0,0,0,76.2,48.22Zm-8,7.88a38.32,38.32,0,0,1,4.16-4.63,64.35,64.35,0,0,1,3.27-7.42A46.06,46.06,0,0,0,68.18,56.1ZM169.29,78c.36-.21.71-.42,1.07-.65a10.69,10.69,0,0,0,3-2.77,25.26,25.26,0,0,0,0-3.48,10.71,10.71,0,0,0-3-2.74c-.36-.23-.71-.47-1.07-.67.13,1.69.21,3.41.21,5.15s-.08,3.46-.21,5.16ZM156,82.9c.93-.23,1.85-.48,2.77-.73a55.38,55.38,0,0,0,8.09-2.9,62.61,62.61,0,0,0,0-12.84,52,52,0,0,0-8.09-2.89c-.92-.26-1.84-.51-2.77-.74a88.88,88.88,0,0,1,0,20.1Zm-21.31,3.27c2.11-.19,4.23-.4,6.33-.63a130.4,130.4,0,0,0,13.18-2.22,84.65,84.65,0,0,0,0-20.94A133.28,133.28,0,0,0,141,60.16c-2.1-.25-4.22-.46-6.33-.63.29,4.28.43,8.74.43,13.31s-.14,9-.43,13.33Zm-29.06.14c4.49.32,9,.47,13.48.47s9-.15,13.48-.47c.31-4.48.44-9,.44-13.47s-.13-9-.44-13.47c-4.49-.3-9-.44-13.48-.44s-9,.14-13.48.44c-.31,4.48-.46,9-.46,13.47s.15,9,.46,13.47ZM84,83.32a128.73,128.73,0,0,0,13.19,2.22c2.1.23,4.19.44,6.31.63-.3-4.28-.45-8.74-.45-13.33s.15-9,.45-13.31c-2.12.17-4.21.38-6.31.63A131.52,131.52,0,0,0,84,62.38a82.14,82.14,0,0,0,0,20.94Zm-12.68-4a56.23,56.23,0,0,0,8.09,2.9c.92.25,1.85.5,2.79.73a85.89,85.89,0,0,1,0-20.1c-.94.23-1.87.48-2.79.74a52.77,52.77,0,0,0-8.09,2.89,60.78,60.78,0,0,0,0,12.84Zm-6.47-4.69a10.86,10.86,0,0,0,3,2.77c.34.23.69.44,1.05.65-.13-1.7-.19-3.42-.19-5.16s.06-3.46.19-5.15c-.36.2-.71.44-1.05.67a10.89,10.89,0,0,0-3,2.74,22.46,22.46,0,0,0,0,3.48Zm4.27,6a22.46,22.46,0,0,1-3.73-2.37,27.84,27.84,0,0,0,5.4,11,63.11,63.11,0,0,1-1.67-8.66Zm13.37,4.59a67.05,67.05,0,0,1-10.88-3.44,59,59,0,0,0,2.9,11.57,48.8,48.8,0,0,0,12.22,8.3,74.91,74.91,0,0,1-4.24-16.43Zm21.17,3.14a142.29,142.29,0,0,1-19.34-2.72,71.27,71.27,0,0,0,4.9,17.16,71.81,71.81,0,0,0,17.17,4.91,143.49,143.49,0,0,1-2.73-19.35Zm28.74.17c-4.27.29-8.72.44-13.31.44s-9-.15-13.33-.44c.19,2.12.4,4.21.65,6.31a120.77,120.77,0,0,0,2.2,13.18,82.3,82.3,0,0,0,21,0,125.79,125.79,0,0,0,2.2-13.18c.25-2.1.46-4.19.63-6.31Zm21.46-2.89a142.74,142.74,0,0,1-19.34,2.72,146.57,146.57,0,0,1-2.75,19.35,71.55,71.55,0,0,0,17.17-4.91,70.38,70.38,0,0,0,4.92-17.16Zm12.69-3.86a66.15,66.15,0,0,1-10.86,3.44,76.05,76.05,0,0,1-4.26,16.43,48.92,48.92,0,0,0,12.24-8.3,59,59,0,0,0,2.88-11.57Zm6.24-3.52A21.88,21.88,0,0,1,169,80.53a63.08,63.08,0,0,1-1.65,8.66,28.11,28.11,0,0,0,5.4-11Zm-3.75-13a21.88,21.88,0,0,1,3.75,2.37,28.33,28.33,0,0,0-5.4-11.05A63.08,63.08,0,0,1,169,65.17Zm-13.35-4.59A69.28,69.28,0,0,1,166.55,64a59.16,59.16,0,0,0-2.88-11.55,49.19,49.19,0,0,0-12.24-8.3,76.05,76.05,0,0,1,4.26,16.43Zm-21.17-3.16a147.48,147.48,0,0,1,19.34,2.74A70.51,70.51,0,0,0,148.94,43a69.32,69.32,0,0,0-17.17-4.9,146.57,146.57,0,0,1,2.75,19.32Zm-28.76-.15c4.28-.29,8.74-.44,13.33-.44s9,.15,13.31.44c-.17-2.12-.38-4.21-.63-6.33a126.3,126.3,0,0,0-2.2-13.16,82.3,82.3,0,0,0-21,0,121.22,121.22,0,0,0-2.2,13.16c-.25,2.12-.46,4.21-.65,6.33ZM84.32,60.16a147,147,0,0,1,19.34-2.74,143.47,143.47,0,0,1,2.73-19.32A69.57,69.57,0,0,0,89.22,43a71.4,71.4,0,0,0-4.9,17.16ZM71.61,64a70.26,70.26,0,0,1,10.88-3.42,74.91,74.91,0,0,1,4.24-16.43,49.06,49.06,0,0,0-12.22,8.3A59.2,59.2,0,0,0,71.61,64Zm-6.22,3.54a22.46,22.46,0,0,1,3.73-2.37,64.62,64.62,0,0,1,1.66-8.68,28.16,28.16,0,0,0-5.39,11.05ZM119.09,16A56.9,56.9,0,0,1,176,72.86c0,32.29-25.16,56.92-56.91,56.87-32.41,0-56.89-23.88-56.91-56.89C62.16,41.07,86.77,16,119.09,16Z"/><polygon class="cls-1" points="30.61 108.5 30.61 103.97 34.99 103.97 34.99 108.5 30.61 108.5 30.61 108.5"/><polygon class="cls-1" points="30.61 101.49 30.61 96.96 34.99 96.96 34.99 101.49 30.61 101.49 30.61 101.49"/><polygon class="cls-1" points="30.61 94.08 30.61 89.54 34.99 89.54 34.99 94.08 30.61 94.08 30.61 94.08"/><polygon class="cls-1" points="30.61 87.07 30.61 82.54 34.99 82.54 34.99 87.07 30.61 87.07 30.61 87.07"/><polygon class="cls-1" points="30.61 80.06 30.61 75.53 34.99 75.53 34.99 80.06 30.61 80.06 30.61 80.06"/><polygon class="cls-1" points="30.61 73.06 30.61 68.52 34.99 68.52 34.99 73.06 30.61 73.06 30.61 73.06"/><path class="cls-2" d="M34.49,61.61v3.53H31.11V61.61h3.38m.5-.5H30.61v4.53H35V61.11Z"/><path class="cls-2" d="M34.49,54.6v3.53H31.11V54.6h3.38m.5-.5H30.61v4.53H35V54.1Z"/><path class="cls-2" d="M34.49,47.59v3.54H31.11V47.59h3.38m.5-.5H30.61v4.54H35V47.09Z"/><path class="cls-2" d="M34.49,40.18v3.53H31.11V40.18h3.38m.5-.5H30.61v4.53H35V39.68Z"/><path class="cls-2" d="M34.49,33.17V36.7H31.11V33.17h3.38m.5-.5H30.61V37.2H35V32.67Z"/><polygon class="cls-3" points="75.03 146.11 80.39 146.11 80.39 150.49 75.03 150.49 75.03 146.11 75.03 146.11"/><polygon class="cls-3" points="83.31 146.11 88.66 146.11 88.66 150.49 83.31 150.49 83.31 146.11 83.31 146.11"/><polygon class="cls-3" points="92.06 146.11 97.42 146.11 97.42 150.49 92.06 150.49 92.06 146.11 92.06 146.11"/><polygon class="cls-3" points="100.34 146.11 105.69 146.11 105.69 150.49 100.34 150.49 100.34 146.11 100.34 146.11"/><polygon class="cls-3" points="108.61 146.11 113.96 146.11 113.96 150.49 108.61 150.49 108.61 146.11 108.61 146.11"/><polygon class="cls-3" points="116.88 146.11 122.23 146.11 122.23 150.49 116.88 150.49 116.88 146.11 116.88 146.11"/><polygon class="cls-3" points="125.64 146.11 130.99 146.11 130.99 150.49 125.64 150.49 125.64 146.11 125.64 146.11"/><polygon class="cls-3" points="133.91 146.11 139.26 146.11 139.26 150.49 133.91 150.49 133.91 146.11 133.91 146.11"/><polygon class="cls-3" points="142.18 146.11 147.53 146.11 147.53 150.49 142.18 150.49 142.18 146.11 142.18 146.11"/><polygon class="cls-3" points="150.94 146.11 156.29 146.11 156.29 150.49 150.94 150.49 150.94 146.11 150.94 146.11"/><polygon class="cls-3" points="159.21 146.11 164.56 146.11 164.56 150.49 159.21 150.49 159.21 146.11 159.21 146.11"/><rect id="Border_Box" data-name="Border Box" class="cls-4" width="195" height="189"/><polyline class="cls-5" points="0.5 2.5 0.5 111.5 89.5 186.5"/></g></g></g></g></svg>