<svg xmlns="http://www.w3.org/2000/svg" viewBox="0 0 195.37 189"><defs><style>.cls-1,.cls-3{fill:#fff;}.cls-1,.cls-2,.cls-5{fill-rule:evenodd;}.cls-2{fill:#999;}.cls-4,.cls-5{fill:none;}.cls-5{stroke:#fff;stroke-miterlimit:10;}</style></defs><title>bottom left</title><g id="Layer_2" data-name="Layer 2"><g id="Layer_1-2" data-name="Layer 1"><g id="main_thing" data-name="main thing"><g id="Bottom_Left" data-name="Bottom Left"><path class="cls-1" d="M18.72,162.06H39.91v21.19H38.23a8.87,8.87,0,0,0-17.32,0H18.72V162.06Zm10.9,3.78a5,5,0,1,1-5,5,5,5,0,0,1,5-5Z"/><path class="cls-1" d="M42.15,162.06H63.34v21.19H61.7a8.87,8.87,0,0,0-17.32,0H42.15V162.06Zm10.92,3.78a5,5,0,1,1-5,5,5,5,0,0,1,5-5Z"/><path class="cls-1" d="M18.72,138.63H39.91v21.19H38.23a8.87,8.87,0,0,0-17.32,0H18.72V138.63Zm10.9,3.59a5,5,0,1,1-5,5,5,5,0,0,1,5-5Z"/><path class="cls-1" d="M42.15,138.63H63.34v21.19H61.7a8.87,8.87,0,0,0-17.32,0H42.15V138.63Zm10.92,3.59a5,5,0,1,1-5,5,5,5,0,0,1,5-5Z"/><path class="cls-1" d="M65.58,162.06H87.33v21.19H85.18a8.86,8.86,0,0,0-17.31,0H65.58V162.06Zm11,3.78a5,5,0,1,1-5,5,5,5,0,0,1,5-5Z"/><path class="cls-1" d="M89,162.06h21.75v21.19h-2.13a8.87,8.87,0,0,0-17.32,0H89V162.06Zm11,3.78a5,5,0,1,1-5,5,5,5,0,0,1,5-5Z"/><path class="cls-1" d="M65.58,138.63H87.33v21.19H85.18a8.86,8.86,0,0,0-17.31,0H65.58V138.63Zm11,3.59a5,5,0,1,1-5,5,5,5,0,0,1,5-5Z"/><path class="cls-1" d="M89,138.63h21.75v21.19h-2.13a8.87,8.87,0,0,0-17.32,0H89V138.63Zm11,3.59a5,5,0,1,1-5,5,5,5,0,0,1,5-5Z"/><path class="cls-1" d="M18.72,114.64H39.91v21.2H38.23a8.86,8.86,0,0,0-17.32,0H18.72v-21.2Zm10.9,3.63a5,5,0,1,1-5,5,5,5,0,0,1,5-5Z"/><path class="cls-1" d="M42.15,114.64H63.34v21.2H61.7a8.86,8.86,0,0,0-17.32,0H42.15v-21.2Zm10.92,3.63a5,5,0,1,1-5,5,5,5,0,0,1,5-5Z"/><path class="cls-1" d="M18.72,91.21H39.91v21.2H38.23a8.86,8.86,0,0,0-17.32,0H18.72V91.21Zm10.9,3.45a5,5,0,1,1-5,5,5,5,0,0,1,5-5Z"/><path class="cls-1" d="M42.15,91.21H63.34v21.2H61.7a8.86,8.86,0,0,0-17.32,0H42.15V91.21Zm10.92,3.45a5,5,0,1,1-5,5,5,5,0,0,1,5-5Z"/><path class="cls-1" d="M65.58,114.64H87.33v21.2H85.18a8.86,8.86,0,0,0-17.31,0H65.58v-21.2Zm11,3.63a5,5,0,1,1-5,5,5,5,0,0,1,5-5Z"/><path class="cls-1" d="M89,114.64h21.75v21.2h-2.13a8.86,8.86,0,0,0-17.32,0H89v-21.2Zm11,3.63a5,5,0,1,1-5,5,5,5,0,0,1,5-5Z"/><path class="cls-2" d="M65.58,91.21H87.33v21.2H85.18a8.86,8.86,0,0,0-17.31,0H65.58V91.21Zm11,3.45a5,5,0,1,1-5,5,5,5,0,0,1,5-5Z"/><path class="cls-2" d="M89,91.21h21.75v21.2h-2.13a8.86,8.86,0,0,0-17.32,0H89V91.21Zm11,3.45a5,5,0,1,1-5,5,5,5,0,0,1,5-5Z"/><path class="cls-1" d="M112.43,162.06h21.2v21.19h-2a8.87,8.87,0,0,0-17.32,0h-1.9V162.06ZM123,165.84a5,5,0,1,1-5,5,5,5,0,0,1,5-5Z"/><path class="cls-1" d="M112.43,138.63h21.2v21.19h-2a8.87,8.87,0,0,0-17.32,0h-1.9V138.63ZM123,142.22a5,5,0,1,1-5,5,5,5,0,0,1,5-5Z"/><path class="cls-1" d="M112.43,114.64h21.2v21.2h-2a8.86,8.86,0,0,0-17.32,0h-1.9v-21.2ZM123,118.27a5,5,0,1,1-5,5,5,5,0,0,1,5-5Z"/><path class="cls-2" d="M112.43,91.21h21.2v21.2h-2a8.86,8.86,0,0,0-17.32,0h-1.9V91.21ZM123,94.66a5,5,0,1,1-5,5,5,5,0,0,1,5-5Z"/><g id="join_our_team_path" data-name="join our team path"><path class="cls-3" d="M75.74,60.91V56.65l.32-.33,1,1v3.11Zm5.72,1.14h-4.9a1,1,0,0,1-.82-.82l1.31-.49H81Zm-.16-7V51.58l.49-1.31a1,1,0,0,1,.82.82v4.58l-.33.33Zm1,1.3.33.33v4.58a1,1,0,0,1-.82.82l-.49-1.31V57.31Z"/><path class="cls-3" d="M84.57,56l-.32-.33V51.91l.81-.82.5.49V55Zm1,1.31v3.43l-.5.49-.81-.81V56.65l.32-.33Zm3.92-5.73h-3.6l-.65-.66.65-.65h3.6l.66.65Zm.66,9.82-.66.65h-3.6l-.65-.65.65-.66h3.6ZM89.81,55V51.58l.49-.49.82.82v3.76l-.33.33Zm1,1.3.33.33v3.77l-.82.81-.49-.49V57.31Z"/><path class="cls-3" d="M92.75,55V51.58l.5-1.31a1,1,0,0,1,.81.82v4.58l-.32.33Zm1,1.14.32.33v4.58a1,1,0,0,1-.81.82l-.5-1.31V57.14Z"/><path class="cls-3" d="M96,56.16l-.33-.33V51.25a1.06,1.06,0,0,1,.82-.82L97,51.74v3.44Zm1,1.15v3.43l-.49,1.31a1,1,0,0,1-.82-.82V56.65l.33-.33Zm3.93-2.13H99.79l-2.45-2.46v-1h1l2.62,2.62Zm.32,0V51.74l.49-1.31a1.06,1.06,0,0,1,.82.82v4.58l-.32.33Zm1,1.14.32.33v4.58a1,1,0,0,1-.82.82l-.49-1.31V57.31Z"/><path class="cls-3" d="M109.45,56l-.33-.33V51.91l.82-.82.49.49V55Zm1,1.31v3.43l-.49.49-.82-.81V56.65l.33-.33Zm3.92-5.73h-3.6l-.65-.66.65-.65h3.6l.66.65ZM115,61.4l-.66.65h-3.6l-.65-.65.65-.66h3.6ZM114.68,55V51.58l.49-.49.82.82v3.76l-.33.33Zm1,1.3.33.33v3.77l-.82.81-.49-.49V57.31Z"/><path class="cls-3" d="M118,56.16l-.32-.33V51.25a1.06,1.06,0,0,1,.82-.82l.49,1.31v3.44Zm-.32,4.75V56.65l.32-.33,1,1v3.11Zm5.72,1.14h-4.9a1,1,0,0,1-.82-.82l1.31-.49h3.92Zm-.16-7V51.58l.49-1.31a1,1,0,0,1,.82.82v4.58l-.33.33Zm1,1.3.33.33v4.58a1,1,0,0,1-.82.82l-.49-1.31V57.31Z"/><path class="cls-3" d="M127.45,51.91V55l-1,1-.32-.33V51.42Zm0,5.4v3.43l-.5,1.31a1,1,0,0,1-.81-.82V56.65l.32-.33Zm3.92-5.73h-3.91l-1.31-.49a1,1,0,0,1,.82-.82h4.89Zm.33,3.93.65.65-.65.66h-4.25l-.66-.66.66-.65Zm-3.93,1.63h1L133,61.4a1.33,1.33,0,0,1-1.31.65l-3.93-3.93ZM131.7,55V51.58l.49-1.31a1,1,0,0,1,.82.82v4.58l-.33.33Z"/><path class="cls-3" d="M89.82,73.18l-1.31-.49a1,1,0,0,1,.82-.82h5.22a1,1,0,0,1,.81.82l-1.3.49Zm1.45,3.76V73.51h1.31v3.43l-.65.66Zm.66,1,.65.66v4.25a1,1,0,0,1-.81.82l-.5-1.31V78.58Z"/><path class="cls-3" d="M98.31,73.51v3.11l-1,1L97,77.27V73Zm-1.31,9V78.25l.33-.33,1,1V82Zm6.22,1.14h-5.4a1,1,0,0,1-.82-.82l1.31-.49h4.42Zm-.49-10.47h-4.4L97,72.69a1,1,0,0,1,.82-.82h5.38Zm-.17,3.93.66.65-.66.66H98.31l-.65-.66.65-.65Z"/><path class="cls-3" d="M106.17,73.51v3.11l-1,1-.32-.33V73Zm0,5.4v3.43l-.5,1.31a1,1,0,0,1-.81-.82V78.25l.32-.33Zm3.92-5.73h-3.91l-1.31-.49a1,1,0,0,1,.82-.82h4.89Zm.33,3.93.65.65-.65.66h-4.25l-.66-.66.66-.65Zm0-.49V73.18l.49-1.31a1,1,0,0,1,.82.82v4.58l-.33.33Zm1,1.3.33.33v4.58a1,1,0,0,1-.82.82l-.49-1.31V78.91Z"/><path class="cls-3" d="M114.67,73.51v3.11l-1,1-.33-.33V73Zm0,5.4v3.43l-.49,1.31a1.06,1.06,0,0,1-.82-.82V78.25l.33-.33Zm3.93-5.73h-3.91l-1.31-.49a1,1,0,0,1,.82-.82h4.89Zm-1.14,4.09-.66.65-.65-.65V73.51h1.31Zm1.47-.65V73.18l.49-1.31a1,1,0,0,1,.82.82v4.58l-.33.33Zm1,1.3.33.33v4.58a1,1,0,0,1-.82.82l-.49-1.31V78.91Z"/></g><path class="cls-3" d="M25,69.72c-.57-7.26,4.55-16.11,11.1-19.29a11.31,11.31,0,0,1,6.1-1.2,7.57,7.57,0,0,1,6.5,5.16,2.43,2.43,0,0,1,0,.69,17.22,17.22,0,0,0-2-1.82,6.79,6.79,0,0,0-5.09-.88c-7.5,1.42-13.71,10.9-12,18.34a7.82,7.82,0,0,0,6,6.2,14,14,0,0,0,3.43,0c-3.4,1.15-6.81,1.51-10-.32-2.63-1.5-3.74-4-4-6.93"/><path class="cls-3" d="M44.56,71.14c1.33.27,2.94.57,4.54.93a4,4,0,0,0,2-.06,55.22,55.22,0,0,1,10.57-2.23,8,8,0,0,1,2.63.14c1,.28,1.16.93.46,1.68A6.84,6.84,0,0,1,62.64,73a42,42,0,0,1-8.93,3,8.29,8.29,0,0,0-4.34,2.33A22.21,22.21,0,0,1,47,80.36c-1,.78-1.51.59-1.82-.62-.2-.78-.3-1.62-1.43-1.52a.57.57,0,0,1-.62-.51c-.2-.77-.42-1.54-.64-2.3-.08-.27-.07-.54.18-.67,1.05-.55.89-1.36.55-2.24C42.83,71.47,43.32,71.12,44.56,71.14Z"/><path class="cls-3" d="M62.15,57.84c-.15.37-.25.55-.3.74a2.12,2.12,0,0,1-2.75,1.75c-.88-.18-1.12.19-1.09,1.07.07,2.22,0,4.45,0,6.67,0,.85-.26,1.15-1,1.31-2,.4-2,.43-2-1.53,0-2.14,0-4.28,0-6.42,0-.84-.14-1.26-1.07-1.12a7.94,7.94,0,0,1-1.38,0c-.67,0-1.44.27-1.36-1,.06-1,.29-1.56,1.43-1.54C55.79,57.87,58.89,57.84,62.15,57.84Z"/><path class="cls-3" d="M46.76,66.78c-.32-.56-.39-.86.32-1.22a3.48,3.48,0,0,0,2-3.26,4.35,4.35,0,0,0-4.48-4.44c-1.72-.08-3.44,0-5.16,0-.84,0-1.24.36-1.24,1.2,0,4.12,0,8.23,0,12.35,0,.59.25.71.76.68a5.34,5.34,0,0,1,1.13,0c.84.12,1.21-.13,1.13-1.06s0-2.1,0-3.15c0-1.6,0-1.56,1.58-1.48a1,1,0,0,1,.91.69l1.27,2.45a1.08,1.08,0,0,0,.8.7c1.06.2,2.11.47,3.35.75C48.25,69.46,47.53,68.1,46.76,66.78ZM44.67,64a15,15,0,0,1-3,.11c-.39,0-.52-.18-.51-.54s0-.92,0-1.38c0-1.85,0-1.85,1.82-1.81a9.38,9.38,0,0,1,1.5,0,1.76,1.76,0,0,1,1.62,1.79A1.73,1.73,0,0,1,44.67,64Z"/><rect id="Border_Box" data-name="Border Box" class="cls-4" width="195" height="189"/><polyline class="cls-5" points="105.5 3 194.87 78.44 194.5 188"/></g></g></g></g></svg>