<svg xmlns="http://www.w3.org/2000/svg" viewBox="0 0 81.83 85.64"><defs><style>.cls-1{fill:#b02125;}.cls-1,.cls-10,.cls-11,.cls-2,.cls-3,.cls-4,.cls-5,.cls-6,.cls-7,.cls-8,.cls-9{fill-rule:evenodd;}.cls-2{fill:#af2222;}.cls-3{fill:#b2372b;}.cls-4{fill:#1e0000;}.cls-5{fill:#b12627;}.cls-7{fill:#431d22;}.cls-8{fill:#a1191b;}.cls-9{fill:#b13830;}.cls-10{fill:#6d1f1f;}.cls-11{fill:#000101;}</style></defs><title>button 2</title><g id="Layer_2" data-name="Layer 2"><g id="Layer_1-2" data-name="Layer 1"><g id="main_thing" data-name="main thing"><path class="cls-1" d="M39.36,0A42.82,42.82,0,0,1,81.83,42.82h0A42.81,42.81,0,0,1,39.36,85.64V83.25A40.43,40.43,0,0,0,79.44,42.82h0A40.43,40.43,0,0,0,39.36,2.4V0Z"/><path class="cls-2" d="M13.57,72.43A39.09,39.09,0,0,1,9.25,17.57h0a39.09,39.09,0,0,1,54.82-4.8l-1.42,1.67A36.89,36.89,0,0,0,10.92,19h0A36.91,36.91,0,0,0,15,70.76l-1.41,1.67Z"/><path class="cls-3" d="M74.34,48.3A35.68,35.68,0,0,1,34,78.13h0A35.67,35.67,0,0,1,3.74,38l2,.29A33.69,33.69,0,0,0,34.24,76.15h0A33.67,33.67,0,0,0,72.35,48l2,.29Z"/><path class="cls-1" d="M57.87,62.33A27.17,27.17,0,0,1,21,63.17l6.81-7a17.4,17.4,0,0,0,22.94-.52l7.12,6.68Z"/><path class="cls-2" d="M60,25.65a27.09,27.09,0,0,1,6.12,17.17h0a27.09,27.09,0,0,1-6.49,17.62l-7.12-6.68a17.31,17.31,0,0,0,3.86-10.94h0a17.29,17.29,0,0,0-3.63-10.64L60,25.65Z"/><path class="cls-4" d="M26.24,31a17.32,17.32,0,0,0-4.66,11.85h0a17.35,17.35,0,0,0,4.36,11.53l-6.8,7a27,27,0,0,1-7.31-18.53h0a27.09,27.09,0,0,1,7.77-19L26.24,31Z"/><path class="cls-5" d="M39,15.67a27.07,27.07,0,0,1,19.29,8L51,30.25A17.38,17.38,0,0,0,28.15,29.2L21.51,22A27.07,27.07,0,0,1,39,15.67Z"/><path class="cls-6" d="M36.18,10.44c.55,0,1.09-.07,1.64-.1l0,1.34c-.52,0-1,.05-1.53.09l-.14-1.33Z"/><path class="cls-1" d="M33.69,10.76c.54-.1,1.08-.17,1.63-.23l.13,1.32c-.51.06-1,.13-1.52.21l-.24-1.3Z"/><path class="cls-1" d="M31.24,11.25c.53-.13,1.06-.24,1.6-.34l.24,1.31q-.77.13-1.5.33l-.34-1.3Z"/><path class="cls-1" d="M28.83,11.94c.52-.17,1-.32,1.57-.47l.33,1.29c-.49.13-1,.28-1.47.44l-.43-1.26Z"/><path class="cls-1" d="M26.48,12.82c.5-.22,1-.41,1.52-.59l.44,1.25L27,14l-.53-1.22Z"/><path class="cls-1" d="M24.2,13.87c.49-.25,1-.49,1.48-.71l.53,1.23L24.82,15l-.62-1.17Z"/><path class="cls-2" d="M22,15.1c.46-.28.93-.56,1.42-.82l.62,1.18c-.45.24-.89.5-1.33.77L22,15.1Z"/><path class="cls-2" d="M19.93,16.49c.44-.32.9-.63,1.35-.93L22,16.69q-.64.42-1.26.87l-.8-1.07Z"/><path class="cls-2" d="M18,18c.42-.35.84-.7,1.28-1L20,18.08c-.4.31-.81.63-1.2,1L18,18Z"/><path class="cls-2" d="M16.12,19.73c.38-.38.78-.76,1.19-1.12l.87,1c-.38.35-.76.7-1.12,1.06l-.94-.94Z"/><path class="cls-2" d="M14.4,21.56c.36-.41.73-.82,1.1-1.2l.95.92c-.35.38-.7.76-1,1.14l-1-.86Z"/><path class="cls-2" d="M12.83,23.52c.33-.44.66-.87,1-1.29l1,.85c-.32.4-.64.8-.95,1.22l-1.08-.78Z"/><path class="cls-2" d="M11.42,25.6c.29-.47.59-.92.9-1.37l1.09.78c-.29.41-.58.84-.85,1.27l-1.14-.68Z"/><path class="cls-2" d="M10.17,27.77q.39-.72.81-1.44l1.13.7c-.26.44-.51.89-.75,1.34l-1.19-.6Z"/><path class="cls-2" d="M9.1,30c.21-.5.44-1,.68-1.48l1.19.59c-.22.46-.43.93-.64,1.41L9.1,30Z"/><path class="cls-2" d="M8.2,32.38c.17-.53.36-1,.56-1.55l1.23.52c-.18.47-.36.95-.53,1.43l-1.26-.4Z"/><path class="cls-1" d="M7.49,34.78c.13-.54.28-1.06.44-1.58l1.27.41c-.15.49-.29,1-.42,1.48l-1.29-.31Z"/><path class="cls-1" d="M7,37.23c.1-.54.21-1.08.32-1.61l1.3.31c-.11.5-.21,1-.3,1.51L7,37.23Z"/><path class="cls-1" d="M6.63,39.71c.06-.54.11-1.08.2-1.62l1.31.21c-.07.5-.13,1-.18,1.52l-1.33-.11Z"/><path class="cls-1" d="M6.49,42.36c0-.69,0-1.24.07-1.78l1.32.11c0,.51,0,1,0,1.47l-1.34.2Z"/><path class="cls-1" d="M6.54,44.8c0-.54,0-1.08-.06-1.63H7.82c0,.51,0,1,0,1.53l-1.33.1Z"/><path class="cls-3" d="M6.78,47.22c-.08-.54-.14-1.08-.18-1.63l1.33-.09C8,46,8,46.52,8.1,47l-1.32.19Z"/><path class="cls-3" d="M7.21,49.69c-.11-.53-.21-1.07-.3-1.61l1.31-.2c.09.51.18,1,.29,1.51l-1.3.3Z"/><path class="cls-3" d="M7.83,52.12c-.15-.52-.29-1-.43-1.58l1.3-.3c.13.5.26,1,.41,1.48l-1.28.4Z"/><path class="cls-3" d="M8.65,54.5c-.2-.52-.39-1-.55-1.55l1.26-.4c.16.49.34,1,.52,1.45l-1.23.5Z"/><path class="cls-3" d="M9.63,56.79c-.23-.48-.45-1-.66-1.49l1.24-.5c.19.48.4,1,.62,1.41l-1.2.58Z"/><path class="cls-7" d="M10.8,59c-.27-.47-.53-.94-.78-1.43L11.21,57c.24.45.48.91.74,1.35L10.8,59Z"/><path class="cls-7" d="M12.13,61.14c-.3-.45-.6-.91-.89-1.37l1.15-.69c.26.44.54.87.83,1.29l-1.09.77Z"/><path class="cls-7" d="M13.62,63.15c-.33-.42-.67-.86-1-1.3l1.1-.77c.29.42.61.83.92,1.23l-1,.84Z"/><path class="cls-7" d="M15.27,65.05c-.37-.4-.73-.81-1.09-1.22l1-.86c.33.4.67.78,1,1.15l-1,.93Z"/><path class="cls-7" d="M17.05,66.81c-.4-.37-.79-.75-1.18-1.13l1-.93c.36.36.73.72,1.11,1.06l-.89,1Z"/><path class="cls-5" d="M19,68.43c-.43-.34-.85-.69-1.27-1l.89-1c.38.34.78.66,1.18,1L19,68.43Z"/><path class="cls-5" d="M21,69.9c-.46-.31-.91-.62-1.35-.94l.81-1.06c.42.3.83.6,1.26.88L21,69.9Z"/><path class="cls-5" d="M23.14,71.21c-.48-.27-.94-.55-1.41-.84l.72-1.12q.66.41,1.32.78l-.63,1.18Z"/><path class="cls-5" d="M25.37,72.35c-.49-.23-1-.48-1.47-.73l.63-1.17c.46.23.91.46,1.39.68l-.55,1.22Z"/><path class="cls-5" d="M27.69,73.31l-1.53-.61.55-1.21,1.43.56-.45,1.26Z"/><path class="cls-8" d="M30.4,74.18c-.64-.18-1.27-.36-1.89-.58L29,72.35c.59.19,1.19.38,1.79.54l-.34,1.29Z"/><path class="cls-8" d="M33.17,74.81c-.65-.12-1.29-.26-1.92-.41l.33-1.29c.59.14,1.2.27,1.82.38l-.23,1.32Z"/><path class="cls-8" d="M36,75.18c-.65-.06-1.3-.13-1.94-.23l.22-1.31c.6.09,1.22.16,1.82.22L36,75.18Z"/><path class="cls-8" d="M38.55,75.32c-.57,0-1.15,0-1.73-.07l.11-1.32q.81,0,1.62.06v1.33Z"/><path class="cls-8" d="M41,75.26c-.54,0-1.08,0-1.63.06V74c.51,0,1,0,1.53,0l.1,1.33Z"/><path class="cls-9" d="M43.57,75c-.54.07-1.08.13-1.63.18l-.11-1.32c.52-.05,1-.11,1.53-.18L43.57,75Z"/><path class="cls-9" d="M46,74.56c-.53.12-1.08.22-1.62.31l-.2-1.32c.51-.08,1-.18,1.51-.29l.31,1.3Z"/><path class="cls-9" d="M48.46,73.92c-.52.16-1.05.31-1.58.44l-.3-1.3c.5-.12,1-.26,1.48-.41l.4,1.27Z"/><path class="cls-9" d="M50.83,73.1c-.5.2-1,.39-1.54.55l-.41-1.26c.49-.16,1-.34,1.45-.53l.5,1.24Z"/><path class="cls-9" d="M53.13,72.09c-.49.24-1,.47-1.5.68l-.49-1.23,1.39-.64.6,1.19Z"/><path class="cls-9" d="M55.34,70.91c-.47.28-1,.54-1.43.79l-.6-1.19c.45-.23.9-.48,1.35-.74l.68,1.14Z"/><path class="cls-10" d="M57.46,69.57c-.46.31-.91.61-1.38.89l-.68-1.14c.43-.27.86-.55,1.28-.84l.78,1.09Z"/><path class="cls-10" d="M59.46,68.07c-.42.33-.85.67-1.3,1L57.39,68c.42-.3.82-.62,1.22-.94l.85,1Z"/><path class="cls-10" d="M61.34,66.41c-.39.37-.8.74-1.21,1.1l-.85-1,1.14-1,.92,1Z"/><path class="cls-10" d="M63.1,64.61c-.37.41-.74.8-1.13,1.19l-.93-1c.36-.36.72-.74,1.06-1.12l1,.88Z"/><path class="cls-10" d="M64.7,62.7c-.32.43-.67.85-1,1.26l-1-.88c.34-.38.66-.78,1-1.19l1.06.81Z"/><path class="cls-4" d="M66.17,60.65c-.31.46-.62.91-.94,1.35l-1.07-.8c.31-.41.6-.83.88-1.26l1.13.71Z"/><path class="cls-4" d="M67.46,58.51c-.26.47-.54.94-.83,1.41l-1.12-.72c.27-.43.53-.88.77-1.32l1.18.63Z"/><path class="cls-4" d="M68.59,56.26c-.23.5-.47,1-.72,1.48l-1.18-.62c.23-.46.46-.93.67-1.39l1.23.53Z"/><path class="cls-4" d="M69.53,53.94q-.27.78-.6,1.53l-1.22-.53q.3-.72.57-1.44l1.25.44Z"/><path class="cls-4" d="M70.3,51.55c-.15.53-.31,1.06-.48,1.57l-1.26-.44q.24-.72.45-1.47l1.29.34Z"/><path class="cls-11" d="M70.88,49.11c-.11.54-.23,1.07-.36,1.61l-1.29-.34c.13-.5.24-1,.34-1.5l1.31.23Z"/><path class="cls-11" d="M71.26,46.64c-.06.55-.14,1.09-.23,1.62L69.72,48c.08-.5.16-1,.22-1.52l1.32.14Z"/><path class="cls-11" d="M71.46,44.14c0,.55-.06,1.09-.11,1.64L70,45.63c0-.5.09-1,.11-1.52l1.33,0Z"/><path class="cls-11" d="M71.47,41.59c0,.42,0,.83,0,1.25h0v.47l-1.4,0v-.44h0c0-.39,0-.79,0-1.18l1.4-.07Z"/><path class="cls-11" d="M71.27,39.13c.07.54.11,1.08.15,1.63l-1.33.07c0-.52-.07-1-.13-1.53l1.31-.17Z"/><path class="cls-6" d="M70.9,36.65c.1.54.19,1.07.26,1.62l-1.31.17c-.08-.51-.16-1-.26-1.52l1.31-.27Z"/><path class="cls-6" d="M70.33,34.21c.14.52.28,1.06.39,1.6l-1.3.27c-.11-.51-.23-1-.37-1.5l1.28-.37Z"/><path class="cls-6" d="M69.58,31.82c.18.52.35,1,.51,1.55l-1.28.38q-.23-.73-.48-1.47l1.25-.46Z"/><path class="cls-6" d="M68.64,29.49c.22.5.43,1,.63,1.51L68,31.47q-.27-.72-.6-1.41l1.22-.57Z"/><path class="cls-6" d="M67.52,27.24q.39.74.75,1.47l-1.21.56c-.22-.46-.46-.92-.7-1.37l1.16-.66Z"/><path class="cls-6" d="M66.23,25.1c.3.46.59.92.86,1.39l-1.16.65c-.26-.44-.52-.87-.81-1.31l1.11-.73Z"/><path class="cls-6" d="M64.78,23.05q.5.66,1,1.32l-1.1.75c-.29-.42-.59-.84-.91-1.24l1.05-.83Z"/><path class="cls-6" d="M63.18,21.12c.36.41.71.82,1.06,1.25l-1,.82c-.32-.39-.65-.78-1-1.16l1-.91Z"/><path class="cls-6" d="M61.44,19.33c.39.37.77.76,1.15,1.15l-1,.91c-.35-.38-.71-.74-1.09-1.09l.92-1Z"/><path class="cls-6" d="M59.55,17.66c.43.35.84.7,1.25,1.07l-.91,1c-.38-.35-.77-.68-1.16-1l.82-1Z"/><path class="cls-6" d="M57.55,16.15c.45.31.9.63,1.33,1l-.84,1c-.39-.31-.81-.62-1.23-.9l.74-1.11Z"/><path class="cls-6" d="M55.44,14.79c.48.28.94.58,1.4.87l-.75,1.11c-.43-.28-.86-.56-1.31-.81l.66-1.17Z"/><path class="cls-6" d="M53.24,13.61c.49.24,1,.49,1.45.75L54,15.53c-.44-.26-.9-.49-1.36-.71l.57-1.21Z"/><path class="cls-6" d="M50.94,12.6c.51.2,1,.41,1.51.64l-.56,1.21c-.47-.22-.94-.42-1.42-.61l.47-1.24Z"/><path class="cls-6" d="M48.58,11.76c.52.16,1,.34,1.55.52l-.47,1.25c-.48-.17-1-.34-1.46-.49l.38-1.28Z"/><path class="cls-6" d="M46.16,11.12c.53.12,1.06.25,1.58.4l-.37,1.28c-.5-.14-1-.26-1.49-.38l.28-1.3Z"/><path class="cls-6" d="M43.69,10.66c.54.08,1.08.17,1.61.28L45,12.24c-.49-.1-1-.18-1.51-.26l.18-1.32Z"/><path class="cls-6" d="M41.19,10.4l1.64.14-.18,1.33c-.51-.06-1-.11-1.53-.14l.07-1.33Z"/><path class="cls-6" d="M39,10.43c.44,0,.89,0,1.34,0l-.08,1.34c-.42,0-.84,0-1.26,0h-.27l0-1.33Z"/><path class="cls-6" d="M37.05,20.54l1.14-.07v.92c-.35,0-.7,0-1.05.06l-.1-.91Z"/><path class="cls-1" d="M35.35,20.75c.36-.06.74-.11,1.11-.15l.1.91c-.36,0-.7.1-1.05.15l-.16-.91Z"/><path class="cls-1" d="M33.65,21.1q.56-.13,1.11-.24l.16.91c-.35.06-.69.13-1,.22l-.24-.89Z"/><path class="cls-1" d="M32,21.57c.35-.12.71-.22,1.08-.32l.23.89q-.51.13-1,.3L32,21.57Z"/><path class="cls-1" d="M30.38,22.18c.34-.15.7-.29,1.05-.41l.3.86c-.33.12-.66.25-1,.39l-.37-.84Z"/><path class="cls-1" d="M28.82,22.9q.49-.25,1-.48l.36.83c-.33.15-.64.31-.95.47l-.43-.82Z"/><path class="cls-2" d="M27.31,23.75c.32-.2.64-.39,1-.57l.43.81c-.31.17-.61.35-.91.53l-.49-.77Z"/><path class="cls-2" d="M25.88,24.7c.3-.22.61-.43.92-.64l.49.78c-.29.19-.58.4-.86.6l-.55-.74Z"/><path class="cls-2" d="M24.52,25.77c.28-.25.58-.48.87-.71l.55.73c-.27.22-.55.44-.81.67l-.61-.69Z"/><path class="cls-2" d="M23.25,26.93c.26-.26.54-.52.82-.77l.6.7c-.26.22-.52.47-.77.71l-.65-.64Z"/><path class="cls-2" d="M22.07,28.2c.24-.29.5-.57.76-.84l.65.64-.71.78-.7-.58Z"/><path class="cls-2" d="M21,29.54c.23-.3.45-.6.69-.89l.71.6c-.23.27-.45.54-.65.82L21,29.54Z"/><path class="cls-2" d="M20,31c.2-.32.41-.63.62-.94l.74.53c-.2.29-.39.59-.58.88L20,31Z"/><path class="cls-2" d="M19.16,32.46c.17-.33.36-.66.55-1l.78.49c-.18.3-.35.6-.51.92l-.82-.42Z"/><path class="cls-2" d="M18.42,34c.15-.34.3-.69.47-1l.82.42c-.16.32-.3.64-.45,1L18.42,34Z"/><path class="cls-2" d="M17.8,35.64c.12-.37.25-.72.39-1.07l.85.36c-.13.32-.26.65-.37,1l-.87-.28Z"/><path class="cls-1" d="M17.32,37.29c.09-.37.19-.73.3-1.09l.87.28c-.1.34-.2.68-.29,1l-.88-.21Z"/><path class="cls-1" d="M17,39c.07-.37.14-.73.22-1.1l.9.22c-.08.33-.16.68-.21,1L17,39Z"/><path class="cls-1" d="M16.72,40.69c0-.38.08-.76.14-1.13l.9.15q-.07.52-.12,1l-.92-.07Z"/><path class="cls-1" d="M16.62,42.56c0-.53,0-.9.05-1.28l.92.07c0,.36,0,.71-.05,1l-.92.2Z"/><path class="cls-1" d="M16.66,44.09c0-.37,0-.75,0-1.12h.92c0,.35,0,.7,0,1.05l-.92.07Z"/><path class="cls-3" d="M16.83,45.85c0-.37-.1-.75-.13-1.12l.92-.07c0,.36.07.7.11,1.05l-.9.14Z"/><path class="cls-3" d="M17.12,47.55Q17,47,16.91,46.44l.91-.14c.06.35.12.7.2,1.05l-.9.2Z"/><path class="cls-3" d="M17.55,49.22c-.11-.36-.2-.72-.29-1.09l.89-.2c.09.34.18.68.28,1l-.88.28Z"/><path class="cls-3" d="M18.11,50.85c-.14-.35-.26-.7-.38-1.06l.88-.27c.11.33.22.66.35,1l-.85.34Z"/><path class="cls-3" d="M18.79,52.44c-.17-.34-.32-.69-.46-1l.85-.34c.13.32.28.64.43,1l-.82.41Z"/><path class="cls-7" d="M19.59,54q-.29-.49-.54-1l.82-.41q.24.48.51.93l-.79.47Z"/><path class="cls-7" d="M20.51,55.43c-.22-.32-.42-.63-.61-1l.78-.47c.19.3.38.6.58.89l-.75.53Z"/><path class="cls-7" d="M21.54,56.81c-.24-.29-.47-.59-.69-.89l.75-.54c.21.29.43.58.65.85l-.71.58Z"/><path class="cls-7" d="M22.67,58.11c-.26-.27-.51-.55-.75-.83l.7-.59c.23.27.47.54.71.79l-.66.63Z"/><path class="cls-7" d="M23.89,59.33c-.28-.26-.55-.52-.81-.79l.66-.63c.25.25.51.5.77.73l-.62.69Z"/><path class="cls-5" d="M25.21,60.44c-.3-.23-.58-.47-.87-.72L25,59c.27.23.54.46.82.68l-.56.72Z"/><path class="cls-5" d="M26.61,61.45l-.92-.65.55-.72.87.6-.5.77Z"/><path class="cls-5" d="M28.08,62.35c-.33-.19-.65-.37-1-.57l.5-.77.91.54-.44.8Z"/><path class="cls-5" d="M29.62,63.14l-1-.5.44-.81c.31.17.64.32,1,.47l-.38.84Z"/><path class="cls-5" d="M31.21,63.8c-.35-.13-.7-.28-1-.42l.37-.84c.32.14.65.27,1,.39l-.3.87Z"/><path class="cls-8" d="M33.08,64.4c-.44-.13-.87-.25-1.3-.4l.3-.86c.41.13.82.26,1.23.37l-.23.89Z"/><path class="cls-8" d="M35,64.83c-.45-.08-.89-.18-1.33-.28l.23-.89c.41.1.82.19,1.25.27l-.15.9Z"/><path class="cls-8" d="M36.91,65.09c-.45,0-.89-.1-1.33-.16l.15-.91q.62.11,1.26.15l-.08.92Z"/><path class="cls-8" d="M38.75,65.19l-1.19,0,.07-.92c.37,0,.74,0,1.12,0v.92Z"/><path class="cls-8" d="M40.48,65.14l-1.12,0v-.92c.35,0,.71,0,1.06,0l.07.92Z"/><path class="cls-9" d="M42.14,65,41,65.09,41,64.18q.52,0,1-.12l.14.91Z"/><path class="cls-9" d="M43.83,64.65c-.36.09-.73.16-1.1.22l-.15-.9,1-.2.21.88Z"/><path class="cls-9" d="M45.51,64.22c-.36.11-.72.21-1.09.3l-.21-.9q.51-.12,1-.27l.28.87Z"/><path class="cls-9" d="M47.14,63.66,46.07,64l-.28-.87,1-.36.35.85Z"/><path class="cls-9" d="M48.71,63c-.33.16-.67.31-1,.46l-.34-.85,1-.43.4.82Z"/><path class="cls-9" d="M50.24,62.15l-1,.55-.41-.82c.31-.16.63-.34.93-.52l.47.79Z"/><path class="cls-10" d="M51.7,61.23c-.31.21-.63.41-1,.61l-.47-.78c.3-.19.6-.38.88-.58l.54.75Z"/><path class="cls-10" d="M53.08,60.19c-.3.24-.59.46-.9.69l-.53-.75c.29-.21.57-.42.84-.64l.59.7Z"/><path class="cls-10" d="M54.37,59.05c-.27.26-.55.51-.83.76l-.6-.71c.27-.23.54-.46.79-.7l.64.65Z"/><path class="cls-10" d="M55.58,57.82l-.78.82L54.16,58c.25-.25.49-.51.72-.77l.7.61Z"/><path class="cls-10" d="M56.68,56.49c-.22.3-.46.59-.71.88l-.69-.61c.23-.26.46-.54.67-.82l.73.55Z"/><path class="cls-4" d="M57.69,55.09c-.21.31-.42.62-.65.93l-.73-.55c.2-.29.41-.58.6-.87l.78.49Z"/><path class="cls-4" d="M58.57,53.61c-.17.33-.37.66-.56,1l-.78-.49c.19-.29.37-.6.54-.91l.8.43Z"/><path class="cls-4" d="M59.35,52.07c-.15.34-.32.68-.49,1l-.81-.43c.16-.31.31-.64.47-1l.83.37Z"/><path class="cls-4" d="M60,50.47c-.13.36-.26.71-.4,1.06l-.85-.38c.14-.32.27-.65.39-1l.86.29Z"/><path class="cls-4" d="M60.53,48.83c-.1.37-.21.72-.32,1.08l-.87-.3c.1-.34.21-.68.31-1l.88.23Z"/><path class="cls-11" d="M60.93,47.15l-.24,1.1L59.8,48c.08-.34.16-.69.23-1l.9.17Z"/><path class="cls-11" d="M61.19,45.45c0,.37-.09.74-.16,1.11l-.89-.16c0-.34.1-.7.14-1l.91.1Z"/><path class="cls-11" d="M61.33,43.73c0,.38,0,.75-.07,1.13l-.91-.1c0-.35,0-.71.07-1.06l.91,0Z"/><path class="cls-11" d="M61.35,42c0,.27,0,.55,0,.82h0c0,.1,0,.2,0,.31l-.91,0v-.29h0c0-.26,0-.51,0-.77l.92,0Z"/><path class="cls-11" d="M61.2,40.28c0,.37.08.75.1,1.12l-.91.05L60.3,40.4l.9-.12Z"/><path class="cls-6" d="M61,38.58c.07.37.12.74.18,1.11l-.91.12c0-.36-.11-.7-.18-1.05l.91-.18Z"/><path class="cls-6" d="M60.55,36.9c.1.36.19.72.27,1.09l-.89.19c-.08-.35-.16-.69-.26-1l.88-.25Z"/><path class="cls-6" d="M60,35.25c.13.35.25.71.36,1.07l-.89.25c-.1-.33-.21-.66-.32-1l.85-.32Z"/><path class="cls-6" d="M59.39,33.65c.15.34.3.69.43,1L59,35c-.12-.33-.26-.65-.4-1l.83-.39Z"/><path class="cls-6" d="M58.62,32.11c.18.33.35.66.51,1l-.82.38-.49-.93.8-.45Z"/><path class="cls-6" d="M57.73,30.62c.2.32.41.64.59,1l-.79.46c-.18-.31-.37-.61-.56-.9l.76-.52Z"/><path class="cls-6" d="M56.73,29.22c.23.3.45.6.67.91l-.77.51c-.19-.29-.4-.58-.61-.85l.71-.57Z"/><path class="cls-6" d="M55.63,27.89c.25.28.5.57.73.86l-.71.56c-.22-.27-.46-.54-.69-.8l.67-.62Z"/><path class="cls-6" d="M54.43,26.65c.27.27.54.53.79.81l-.66.61-.76-.75.63-.67Z"/><path class="cls-6" d="M53.14,25.51c.29.24.57.49.85.74l-.62.67c-.26-.24-.53-.47-.8-.7l.57-.71Z"/><path class="cls-6" d="M51.76,24.47l.91.66-.57.72c-.28-.21-.56-.42-.85-.62l.51-.76Z"/><path class="cls-6" d="M50.31,23.54c.33.18.64.39,1,.6l-.51.75c-.3-.19-.6-.38-.91-.56l.46-.79Z"/><path class="cls-6" d="M48.79,22.72c.34.17.68.34,1,.52l-.46.8-.94-.49.39-.83Z"/><path class="cls-6" d="M47.21,22c.36.14.7.29,1,.45l-.39.82-1-.41.32-.86Z"/><path class="cls-6" d="M45.58,21.45c.36.11.72.23,1.07.36l-.32.86c-.34-.12-.66-.24-1-.34l.25-.88Z"/><path class="cls-6" d="M43.92,21c.37.08.73.17,1.1.27l-.27.88-1-.26.2-.89Z"/><path class="cls-6" d="M42.22,20.69c.37,0,.74.12,1.12.2l-.2.89c-.34-.07-.69-.12-1-.17l.12-.92Z"/><path class="cls-6" d="M40.51,20.52c.37,0,.75.06,1.12.1l-.12.9c-.35,0-.7-.07-1-.09l0-.91Z"/><path class="cls-6" d="M39,20.55l.92,0,0,.91-.87,0H38.8l0-.91Z"/></g></g></g></svg>