<svg xmlns="http://www.w3.org/2000/svg" viewBox="0 0 329.14 23.71"><defs><style>.cls-1{fill:#fff;fill-rule:evenodd;}.cls-2{fill:#b12024;}</style></defs><title>center bar_2</title><g id="Layer_2" data-name="Layer 2"><g id="Layer_1-2" data-name="Layer 1"><g id="main_thing" data-name="main thing"><path class="cls-1" d="M77,11.78H0V10.11H77v1.67Zm0,4.47H0V14.57H77v1.68Z"/><path class="cls-1" d="M329.14,11.78H251.59V10.11h77.55v1.67Zm0,4.47H251.59V14.57h77.55v1.68Z"/><path class="cls-2" d="M97.34,13.4l3,4.16v5.15h-6V17.56l3-4.16m0-1.71-4,5.55v6.47h8V17.24l-4-5.55Z"/><path class="cls-2" d="M106.34,13.4l3,4.16v5.15h-6V17.56l3-4.16m0-1.71-4,5.55v6.47h8V17.24l-4-5.55Z"/><path class="cls-2" d="M115.34,13.4l3,4.16v5.15h-6V17.56l3-4.16m0-1.71-4,5.55v6.47h8V17.24l-4-5.55Z"/><path class="cls-2" d="M124.34,13.4l3,4.16v5.15h-6V17.56l3-4.16m0-1.71-4,5.55v6.47h8V17.24l-4-5.55Z"/><path class="cls-2" d="M133.34,13.4l3,4.16v5.15h-6V17.56l3-4.16m0-1.71-4,5.55v6.47h8V17.24l-4-5.55Z"/><path class="cls-2" d="M142.34,13.4l3,4.16v5.15h-6V17.56l3-4.16m0-1.71-4,5.55v6.47h8V17.24l-4-5.55Z"/><path class="cls-2" d="M151.34,13.4l3,4.16v5.15h-6V17.56l3-4.16m0-1.71-4,5.55v6.47h8V17.24l-4-5.55Z"/><path class="cls-2" d="M160.34,13.4l3,4.16v5.15h-6V17.56l3-4.16m0-1.71-4,5.55v6.47h8V17.24l-4-5.55Z"/><path class="cls-2" d="M169.34,13.4l3,4.16v5.15h-6V17.56l3-4.16m0-1.71-4,5.55v6.47h8V17.24l-4-5.55Z"/><path class="cls-2" d="M178.34,13.4l3,4.16v5.15h-6V17.56l3-4.16m0-1.71-4,5.55v6.47h8V17.24l-4-5.55Z"/><path class="cls-2" d="M187.34,13.4l3,4.16v5.15h-6V17.56l3-4.16m0-1.71-4,5.55v6.47h8V17.24l-4-5.55Z"/><path class="cls-2" d="M196.34,13.4l3,4.16v5.15h-6V17.56l3-4.16m0-1.71-4,5.55v6.47h8V17.24l-4-5.55Z"/><path class="cls-2" d="M205.34,13.4l3,4.16v5.15h-6V17.56l3-4.16m0-1.71-4,5.55v6.47h8V17.24l-4-5.55Z"/><path class="cls-2" d="M214.34,13.4l3,4.16v5.15h-6V17.56l3-4.16m0-1.71-4,5.55v6.47h8V17.24l-4-5.55Z"/><path class="cls-2" d="M223.34,13.4l3,4.16v5.15h-6V17.56l3-4.16m0-1.71-4,5.55v6.47h8V17.24l-4-5.55Z"/><path class="cls-2" d="M232.34,13.4l3,4.16v5.15h-6V17.56l3-4.16m0-1.71-4,5.55v6.47h8V17.24l-4-5.55Z"/><path class="cls-2" d="M239.79,1V6.15l-3,4.16-3-4.16V1h6m1-1h-8V6.47l4,5.55,4-5.55V0Z"/><path class="cls-2" d="M230.79,1V6.15l-3,4.16-3-4.16V1h6m1-1h-8V6.47l4,5.55,4-5.55V0Z"/><path class="cls-2" d="M221.79,1V6.15l-3,4.16-3-4.16V1h6m1-1h-8V6.47l4,5.55,4-5.55V0Z"/><path class="cls-2" d="M212.79,1V6.15l-3,4.16-3-4.16V1h6m1-1h-8V6.47l4,5.55,4-5.55V0Z"/><path class="cls-2" d="M203.79,1V6.15l-3,4.16-3-4.16V1h6m1-1h-8V6.47l4,5.55,4-5.55V0Z"/><path class="cls-2" d="M194.79,1V6.15l-3,4.16-3-4.16V1h6m1-1h-8V6.47l4,5.55,4-5.55V0Z"/><path class="cls-2" d="M185.79,1V6.15l-3,4.16-3-4.16V1h6m1-1h-8V6.47l4,5.55,4-5.55V0Z"/><path class="cls-2" d="M176.79,1V6.15l-3,4.16-3-4.16V1h6m1-1h-8V6.47l4,5.55,4-5.55V0Z"/><path class="cls-2" d="M167.79,1V6.15l-3,4.16-3-4.16V1h6m1-1h-8V6.47l4,5.55,4-5.55V0Z"/><path class="cls-2" d="M158.79,1V6.15l-3,4.16-3-4.16V1h6m1-1h-8V6.47l4,5.55,4-5.55V0Z"/><path class="cls-2" d="M149.79,1V6.15l-3,4.16-3-4.16V1h6m1-1h-8V6.47l4,5.55,4-5.55V0Z"/><path class="cls-2" d="M140.79,1V6.15l-3,4.16-3-4.16V1h6m1-1h-8V6.47l4,5.55,4-5.55V0Z"/><path class="cls-2" d="M131.79,1V6.15l-3,4.16-3-4.16V1h6m1-1h-8V6.47l4,5.55,4-5.55V0Z"/><path class="cls-2" d="M122.79,1V6.15l-3,4.16-3-4.16V1h6m1-1h-8V6.47l4,5.55,4-5.55V0Z"/><path class="cls-2" d="M113.79,1V6.15l-3,4.16-3-4.16V1h6m1-1h-8V6.47l4,5.55,4-5.55V0Z"/><path class="cls-2" d="M104.79,1V6.15l-3,4.16-3-4.16V1h6m1-1h-8V6.47l4,5.55,4-5.55V0Z"/><path class="cls-2" d="M95.79,1V6.15l-3,4.16-3-4.16V1h6m1-1h-8V6.47l4,5.55,4-5.55V0Z"/></g></g></g></svg>