<svg xmlns="http://www.w3.org/2000/svg" viewBox="0 0 117.62 1376.18"><defs><style>.cls-1{fill:none;stroke:#fff;stroke-linecap:round;stroke-linejoin:round;stroke-width:4px;}.cls-2{fill:#fff;}</style></defs><title>rocket_1</title><g id="Layer_2" data-name="Layer 2"><g id="Rocket"><g id="Rocket-2" data-name="Rocket"><polygon class="cls-1" points="39.62 1206.99 39.62 1281.42 2 1273.19 2 1236.52 39.62 1206.99"/><polygon class="cls-1" points="78 1206.99 78 1281.42 115.62 1273.19 115.62 1236.52 78 1206.99"/><line class="cls-1" x1="86.04" y1="1279.66" x2="86.04" y2="1365.03"/><line class="cls-1" x1="86.04" y1="380.47" x2="86.04" y2="1213.3"/><line class="cls-1" x1="31.8" y1="1213.13" x2="31.8" y2="380.47"/><line class="cls-1" x1="31.8" y1="1365.03" x2="31.8" y2="1279.66"/><path class="cls-1" d="M58.94,2C30.69,134.13,31.79,380.47,31.79,380.47"/><path class="cls-1" d="M58.9,2C87.15,134.13,86,380.47,86,380.47"/><polyline class="cls-1" points="31.55 1198.49 5.42 1205.44 5.42 1233.82"/><polyline class="cls-1" points="86.05 1198.49 112.18 1205.44 112.18 1233.82"/><path class="cls-1" d="M86,1181.68c0,3.69-12.14,6.68-27.12,6.68s-27.12-3-27.12-6.68"/><path class="cls-1" d="M86,822.56c0,1.26-12.14,2.27-27.12,2.27s-27.12-1-27.12-2.27"/><path class="cls-1" d="M86,840.31c0,1.36-12.14,2.45-27.12,2.45s-27.12-1.09-27.12-2.45"/><path class="cls-1" d="M86,1173.78c0,3.64-12.14,6.6-27.12,6.6s-27.12-3-27.12-6.6"/><path class="cls-1" d="M37.75,1357.25c-3.72-1.53-5.95-3.47-5.95-5.59"/><path class="cls-1" d="M78.07,1358a64,64,0,0,1-19.15,2.61,64.16,64.16,0,0,1-19-2.57"/><path class="cls-1" d="M86,1351.66c0,2.08-2.15,4-5.75,5.51"/><path class="cls-1" d="M86,1365c0,5-12.14,9.15-27.12,9.15s-27.12-4.1-27.12-9.15"/><ellipse class="cls-1" cx="58.92" cy="1310.34" rx="1.24" ry="1.05"/><ellipse class="cls-1" cx="58.9" cy="1319.14" rx="1.24" ry="1.05"/><ellipse class="cls-1" cx="39.09" cy="1365.15" rx="1.6" ry="2.26"/><ellipse class="cls-1" cx="78.89" cy="1365.15" rx="1.6" ry="2.26"/><ellipse class="cls-1" cx="39.1" cy="1356.07" rx="1.58" ry="2.27"/><ellipse class="cls-1" cx="78.9" cy="1356.07" rx="1.58" ry="2.27"/><ellipse class="cls-1" cx="42.96" cy="1273.42" rx="1.25" ry="1.58"/><ellipse class="cls-1" cx="74.76" cy="1273.42" rx="1.25" ry="1.58"/><ellipse class="cls-1" cx="42.96" cy="1245.63" rx="1.25" ry="1.58"/><ellipse class="cls-1" cx="74.76" cy="1245.63" rx="1.25" ry="1.58"/><ellipse class="cls-1" cx="42.96" cy="1217.73" rx="1.25" ry="1.58"/><ellipse class="cls-1" cx="74.76" cy="1217.73" rx="1.25" ry="1.58"/><ellipse class="cls-1" cx="39.13" cy="1090.49" rx="1.61" ry="2.12"/><ellipse class="cls-1" cx="78.73" cy="1090.49" rx="1.61" ry="2.12"/><ellipse class="cls-1" cx="39.13" cy="1081.35" rx="1.61" ry="2.12"/><ellipse class="cls-1" cx="78.73" cy="1081.35" rx="1.61" ry="2.12"/><circle class="cls-1" cx="58.92" cy="945.7" r="1.16"/><circle class="cls-1" cx="58.9" cy="954.56" r="1.16"/><line class="cls-1" x1="31.8" y1="648.65" x2="86.04" y2="648.65"/><ellipse class="cls-1" cx="39.22" cy="639.16" rx="1.12" ry="1.45"/><ellipse class="cls-1" cx="78.62" cy="639.16" rx="1.12" ry="1.45"/><ellipse class="cls-1" cx="39.22" cy="535.98" rx="1.18" ry="1.48"/><ellipse class="cls-1" cx="78.62" cy="535.98" rx="1.18" ry="1.48"/><path class="cls-1" d="M31.8,371c0-2.18,12.14-3.94,27.12-3.94S86,368.79,86,371"/><path class="cls-1" d="M86,366.47c0-2.19-12.14-4-27.12-4s-27.12,1.79-27.12,4"/><path class="cls-1" d="M31.8,356.49c0-2.19,12.12-4,27.08-4S86,354.3,86,356.49"/><path class="cls-1" d="M85.85,347.39c0-2.18-12.06-3.95-26.94-3.95S32,345.21,32,347.39"/><path class="cls-1" d="M32.13,337.53c0-2.27,12-4.11,26.8-4.11s26.81,1.84,26.81,4.11"/><path class="cls-1" d="M85.44,321.42c0-2.19-11.88-4-26.54-4s-26.54,1.77-26.54,4"/><path class="cls-1" d="M85.23,311.48c0-2.18-11.8-4-26.35-4s-26.35,1.77-26.35,4"/><circle class="cls-1" cx="58.94" cy="292.61" r="2.07"/><path class="cls-1" d="M86,630.2c0-.2-12.14-.36-27.12-.36s-27.12.16-27.12.36"/><path class="cls-1" d="M86,517.8c0-.45-2.9-.86-7.61-1.16"/><path class="cls-1" d="M78.36,447.76c4.76.37,7.68.89,7.68,1.45"/><path class="cls-1" d="M78.36,378.75c4.75.59,7.68,1.38,7.68,2.26"/><path class="cls-2" d="M62.32,389.89s0,0,0,0l-.35-.54a8.64,8.64,0,0,0-.59-.8,4.57,4.57,0,0,0-.82-.76,4.78,4.78,0,0,0-1-.53,5.94,5.94,0,0,0-1.23-.35,5.69,5.69,0,0,0-.71-.07,6.26,6.26,0,0,0-.75,0c-.24,0-.49.05-.73.09a9,9,0,0,0-2.83,1.05,12.44,12.44,0,0,0-2.06,1.47,16.92,16.92,0,0,0-3.48,4.29,12.66,12.66,0,0,0-1.23,3.14,10.16,10.16,0,0,0-.21,1.1c0,.31-.08.62-.09.94s0,.6,0,.91l0,.48c0,.21,0,.42.07.63a8.7,8.7,0,0,0,.21,1,7.42,7.42,0,0,0,.9,2.06,5.89,5.89,0,0,0,1.39,1.51,5.06,5.06,0,0,0,1.76.86,8.43,8.43,0,0,0,.9.19l.72.08a10.57,10.57,0,0,0,1.13,0q.34,0,.69,0l.58-.06c.23,0,.46-.06.69-.1l.21-.05h0l-.08,0a12.63,12.63,0,0,1-1.68.54c-.36.09-.73.17-1.09.23s-.42.07-.63.09-.49.06-.73.08l-.42,0c-.25,0-.51,0-.76,0s-.44,0-.65,0-.41,0-.62-.06a7.85,7.85,0,0,1-2.12-.53,5.46,5.46,0,0,1-1.2-.68A6.18,6.18,0,0,1,43.71,404a8.06,8.06,0,0,1-.68-1.79,9.93,9.93,0,0,1-.19-1.09,11.08,11.08,0,0,1-.07-1.73c0-.32,0-.64.07-1a15.3,15.3,0,0,1,.83-3.41,18.8,18.8,0,0,1,1.66-3.44c.14-.22.26-.43.39-.65a17.18,17.18,0,0,1,2.35-3,13.44,13.44,0,0,1,3.19-2.42,10.69,10.69,0,0,1,2.18-.91,8.4,8.4,0,0,1,2.48-.36c.24,0,.48,0,.72,0a6.39,6.39,0,0,1,2.1.59,6.11,6.11,0,0,1,1,.61,5.76,5.76,0,0,1,1.12,1.14,7.38,7.38,0,0,1,1.07,2,6.81,6.81,0,0,1,.34,1.17Z"/><path class="cls-2" d="M75.12,401.71a.67.67,0,0,1-.06.28,1.28,1.28,0,0,1-.15.25,2.76,2.76,0,0,1-.29.3A4,4,0,0,1,74,403a9.06,9.06,0,0,1-1.11.59c-.61.29-1.23.54-1.86.78s-1.44.52-2.17.76l-.51.14-2.87.77-1.4.37a.77.77,0,0,0-.34.19L62,408.14l-1.41,1.25-.12.11a.48.48,0,0,1-.25.14l-.6.16a.3.3,0,0,1-.26,0,.41.41,0,0,1-.14-.2c0-.19-.09-.38-.14-.56l-.26-.95a.35.35,0,0,0-.25-.26h-.08c-.21,0-.41-.06-.61-.09l-.16,0a.3.3,0,0,1-.27-.23,1.39,1.39,0,0,1-.06-.19c-.17-.65-.34-1.29-.52-1.94a.38.38,0,0,1,0-.21.36.36,0,0,1,.11-.17l.56-.44.06,0a.4.4,0,0,0,.18-.31.36.36,0,0,0,0-.1c-.09-.35-.19-.71-.29-1.07l-.12-.43a.37.37,0,0,1,0-.18.28.28,0,0,1,.21-.22l.31-.08.29-.08a.62.62,0,0,1,.33,0l.44.09,1,.21,1,.21,1,.21.83.17a.76.76,0,0,0,.3,0l.73-.2,2.62-.7,1.38-.37.49-.1.85-.17.83-.14.72-.11.58-.07a5.14,5.14,0,0,1,.55-.06l.28,0,.37,0h.07c.33,0,.67,0,1,0a3.51,3.51,0,0,1,.85.14,1,1,0,0,1,.3.12l.18.12A.58.58,0,0,1,75.12,401.71Z"/><path class="cls-2" d="M59.94,397.82a.41.41,0,0,0,.05.09L61.13,400l1,1.8a.1.1,0,0,1,0,.07h0l-3-.68-.06,0-.78-1.49c-.26-.5-.51-1-.77-1.49-.11,0-1.65,0-1.72,0v4.55H53.42a.07.07,0,0,0,0-.05V392.05a.86.86,0,0,1,0-.28.68.68,0,0,1,.57-.46h4.22a4.83,4.83,0,0,1,1.64.28,3.57,3.57,0,0,1,1.37.89,3.23,3.23,0,0,1,.86,1.68,3.66,3.66,0,0,1,0,1,2.94,2.94,0,0,1-1.23,2.16,3.3,3.3,0,0,1-.89.47l-.07,0Zm-4.14-1.51a.18.18,0,0,0,.1,0H58a3.11,3.11,0,0,0,.43,0,1.9,1.9,0,0,0,.56-.17,1.38,1.38,0,0,0,.72-.78,1.48,1.48,0,0,0,.08-.78,1.42,1.42,0,0,0-.63-1,1.84,1.84,0,0,0-.56-.23,2.32,2.32,0,0,0-.59-.06H55.8C55.79,393.37,55.79,396.23,55.8,396.31Z"/><path class="cls-2" d="M69.37,393.29a.3.3,0,0,0,0,.13v7h0l-.09,0-1.16.25c-.36.08-.72.18-1.08.28a.11.11,0,0,1,0-.05v-7.49a.49.49,0,0,0,0-.12H64a.09.09,0,0,1,0-.08V392a.75.75,0,0,1,0-.21.7.7,0,0,1,.58-.51h8a.09.09,0,0,1,.07.12l0,0c-.27.57-.55,1.13-.82,1.7l0,0a.22.22,0,0,1-.14.09h-2.3Z"/></g></g></g></svg>