<svg xmlns="http://www.w3.org/2000/svg" viewBox="0 0 195.5 189"><defs><style>.cls-1,.cls-3{fill:#fff;}.cls-1,.cls-2,.cls-4{fill-rule:evenodd;}.cls-2{fill:#b12024;}.cls-4,.cls-5{fill:none;}.cls-4{stroke:#fff;stroke-miterlimit:10;}</style></defs><g id="Layer_2" data-name="Layer 2"><g id="Layer_1-2" data-name="Layer 1"><g id="main_thing" data-name="main thing"><g id="Top_Left" data-name="Top Left"><path class="cls-1" d="M79.33,148.31H73.19V78.7h6.14v69.61Zm-10.53,0H63.25V78.7H68.8v69.61Zm-9.94,0H53V78.7h5.85v69.61Zm24.57,0V78.7h6.14v69.61Zm10.53,0V78.7h5.56v69.61Zm9.94,0V78.7h5.85v69.61Zm-25.44-1.17V79.28h-4.1v67.86Zm-10.24,0V79.28h-4.1v67.86Zm-10.53,0V79.28H54.18v67.86Zm26.91,0V79.28h3.8v67.86Zm9.94,0V79.28h4.1v67.86Zm10.53,0V79.28h3.51v67.86Zm10,0V79.28h4.09v67.86Zm-.88,1.17V78.7H120v69.61Z"/><polygon class="cls-1" points="115.02 147.14 115.02 111.16 119.11 111.16 119.11 147.14 115.02 147.14 115.02 147.14"/><polygon class="cls-1" points="105.07 147.14 105.07 119.06 108.58 119.06 108.58 147.14 105.07 147.14 105.07 147.14"/><polygon class="cls-1" points="94.54 147.14 94.54 111.16 98.64 111.16 98.64 147.14 94.54 147.14 94.54 147.14"/><polygon class="cls-1" points="84.6 147.14 84.6 89.81 88.4 89.81 88.4 147.14 84.6 147.14 84.6 147.14"/><polygon class="cls-1" points="57.69 147.14 57.69 111.16 54.18 111.16 54.18 147.14 57.69 147.14 57.69 147.14"/><polygon class="cls-1" points="68.22 147.14 68.22 138.07 64.13 138.07 64.13 147.14 68.22 147.14 68.22 147.14"/><polygon class="cls-1" points="78.46 147.14 78.46 119.06 74.36 119.06 74.36 147.14 78.46 147.14 78.46 147.14"/><polygon class="cls-2" points="49.5 153.57 52.72 153.57 52.72 156.5 49.5 156.5 49.5 153.57 49.5 153.57"/><polygon class="cls-2" points="54.47 153.57 57.69 153.57 57.69 156.5 54.47 156.5 54.47 153.57 54.47 153.57"/><polygon class="cls-2" points="59.45 153.57 62.66 153.57 62.66 156.5 59.45 156.5 59.45 153.57 59.45 153.57"/><polygon class="cls-2" points="64.71 153.57 67.93 153.57 67.93 156.5 64.71 156.5 64.71 153.57 64.71 153.57"/><polygon class="cls-2" points="69.68 153.57 72.9 153.57 72.9 156.5 69.68 156.5 69.68 153.57 69.68 153.57"/><polygon class="cls-2" points="74.66 153.57 77.87 153.57 77.87 156.5 74.66 156.5 74.66 153.57 74.66 153.57"/><polygon class="cls-2" points="79.63 153.57 83.14 153.57 83.14 156.5 79.63 156.5 79.63 153.57 79.63 153.57"/><polygon class="cls-2" points="84.89 153.57 88.11 153.57 88.11 156.5 84.89 156.5 84.89 153.57 84.89 153.57"/><polygon class="cls-2" points="89.86 153.57 93.08 153.57 93.08 156.5 89.86 156.5 89.86 153.57 89.86 153.57"/><polygon class="cls-2" points="94.84 153.57 98.05 153.57 98.05 156.5 94.84 156.5 94.84 153.57 94.84 153.57"/><polygon class="cls-2" points="100.1 153.57 103.32 153.57 103.32 156.5 100.1 156.5 100.1 153.57 100.1 153.57"/><polygon class="cls-2" points="105.07 153.57 108.29 153.57 108.29 156.5 105.07 156.5 105.07 153.57 105.07 153.57"/><polygon class="cls-2" points="110.05 153.57 113.26 153.57 113.26 156.5 110.05 156.5 110.05 153.57 110.05 153.57"/><polygon class="cls-2" points="115.02 153.57 118.53 153.57 118.53 156.5 115.02 156.5 115.02 153.57 115.02 153.57"/><polygon class="cls-2" points="120.28 153.57 123.5 153.57 123.5 156.5 120.28 156.5 120.28 153.57 120.28 153.57"/><polygon class="cls-1" points="2.66 29.45 8.79 29.45 8.79 35.58 2.66 35.58 2.66 29.45 2.66 29.45"/><polygon class="cls-1" points="12.14 29.45 18.28 29.45 18.28 35.58 12.14 35.58 12.14 29.45 12.14 29.45"/><polygon class="cls-1" points="21.62 29.45 27.76 29.45 27.76 35.58 21.62 35.58 21.62 29.45 21.62 29.45"/><polygon class="cls-1" points="31.67 29.45 37.8 29.45 37.8 35.58 31.67 35.58 31.67 29.45 31.67 29.45"/><polygon class="cls-1" points="41.15 29.45 47.29 29.45 47.29 35.58 41.15 35.58 41.15 29.45 41.15 29.45"/><polygon class="cls-1" points="50.63 29.45 56.77 29.45 56.77 35.58 50.63 35.58 50.63 29.45 50.63 29.45"/><polygon class="cls-1" points="60.12 29.45 66.81 29.45 66.81 35.58 60.12 35.58 60.12 29.45 60.12 29.45"/><polygon class="cls-1" points="70.16 29.45 76.29 29.45 76.29 35.58 70.16 35.58 70.16 29.45 70.16 29.45"/><polygon class="cls-1" points="79.64 29.45 85.78 29.45 85.78 35.58 79.64 35.58 79.64 29.45 79.64 29.45"/><polygon class="cls-1" points="89.13 29.45 95.26 29.45 95.26 35.58 89.13 35.58 89.13 29.45 89.13 29.45"/><polygon class="cls-1" points="99.17 29.45 105.3 29.45 105.3 35.58 99.17 35.58 99.17 29.45 99.17 29.45"/><polygon class="cls-1" points="108.65 29.45 114.79 29.45 114.79 35.58 108.65 35.58 108.65 29.45 108.65 29.45"/><polygon class="cls-1" points="118.13 29.45 124.27 29.45 124.27 35.58 118.13 35.58 118.13 29.45 118.13 29.45"/><polygon class="cls-1" points="127.62 29.45 134.31 29.45 134.31 35.58 127.62 35.58 127.62 29.45 127.62 29.45"/><polygon class="cls-1" points="137.66 29.45 143.79 29.45 143.79 35.58 137.66 35.58 137.66 29.45 137.66 29.45"/><polygon class="cls-1" points="147.14 29.45 153.28 29.45 153.28 35.58 147.14 35.58 147.14 29.45 147.14 29.45"/><polygon class="cls-1" points="156.63 29.45 162.76 29.45 162.76 35.58 156.63 35.58 156.63 29.45 156.63 29.45"/><polygon class="cls-1" points="166.67 29.45 172.8 29.45 172.8 35.58 166.67 35.58 166.67 29.45 166.67 29.45"/><path class="cls-3" d="M12.48,46.58H8.55l-1.31-.49v-.82h5.24l.65.65Zm-3.93.33V50l-1,1-.33-.33V46.42Zm0,5.4v3.43l-.49,1.31a1,1,0,0,1-.82-.82V51.65l.33-.32Zm4.25-1.8.66.65-.66.66H8.55l-.66-.66.66-.65Zm0-.49V46.58l.49-.49.82.82v3.76l-.32.33Z"/><path class="cls-3" d="M17.06,46.91V50l-1,1-.33-.33V46.42Zm0,5.4v3.43l-.49,1.31a1,1,0,0,1-.82-.82V51.65l.33-.32ZM21,46.58H17.07l-1.31-.49a1.06,1.06,0,0,1,.82-.82h4.9Zm.33,3.93.66.65-.66.66H17.06l-.66-.66.66-.65Zm-3.93,1.63h1l4.25,4.26a1.33,1.33,0,0,1-1.31.65l-3.93-3.92ZM21.31,50V46.58l.49-1.31a1,1,0,0,1,.82.82v4.58l-.33.33Z"/><path class="cls-3" d="M25.57,46.91V50l-1,1-.32-.33V46.42Zm-1.31,9V51.65l.32-.32,1,1v3.11Zm6.22,1.14h-5.4a1,1,0,0,1-.82-.82l1.31-.49H30ZM30,46.58h-4.4l-1.31-.49a1.06,1.06,0,0,1,.82-.82h5.39Zm-.16,3.93.66.65-.66.66H25.57l-.66-.66.66-.65Z"/><path class="cls-3" d="M37.35,46.58H33.42l-1.31-.49v-.82h5.24l.65.65Zm-3.93.33V50l-1,1-.33-.33V46.42Zm0,5.4v3.43l-.49,1.31a1,1,0,0,1-.82-.82V51.65l.33-.32Zm4.26-1.8.65.65-.65.66H33.42l-.65-.66.65-.65Zm0-.49V46.58l.49-.49.81.82v3.76l-.32.33Z"/><path class="cls-3" d="M41.93,46.91V50l-1,1-.33-.33V46.42Zm0,5.4v3.43l-.49,1.31a1,1,0,0,1-.82-.82V51.65l.33-.32Zm3.93-5.73H42l-1.31-.49a1,1,0,0,1,.82-.82h4.89Zm.32,3.93.66.65-.66.66H41.93l-.65-.66.65-.65Zm0-.49V46.58l.5-1.31a1,1,0,0,1,.81.82v4.58l-.32.33Zm1,1.31.32.32v4.58a1,1,0,0,1-.81.82l-.5-1.31V52.31Z"/><path class="cls-3" d="M50.44,46.91V50l-1,1-.33-.33V46.42Zm0,5.4v3.43L50,57.05a1,1,0,0,1-.82-.82V51.65l.33-.32Zm3.93-5.73H50.46l-1.31-.49a1,1,0,0,1,.81-.82h4.9Zm.32,3.93.66.65-.66.66H50.44l-.66-.66.66-.65Zm-3.92,1.63h1L56,56.4a1.33,1.33,0,0,1-1.31.65l-3.92-3.92ZM54.69,50V46.58l.49-1.31a1,1,0,0,1,.82.82v4.58l-.32.33Z"/><path class="cls-3" d="M57.64,50V46.58l.49-1.31a1,1,0,0,1,.82.82v4.58l-.33.33Zm1,1.14.33.33v4.58a1,1,0,0,1-.82.82l-.49-1.31V52.14Z"/><path class="cls-3" d="M60.91,51.16l-.33-.33V46.25a1.08,1.08,0,0,1,.82-.82l.49,1.31v3.44Zm1,1.15v3.43l-.49,1.31a1.06,1.06,0,0,1-.82-.82V51.65l.33-.32Zm3.93-2.13H64.67l-2.45-2.45v-1h1l2.62,2.62Zm.33,0V46.74l.49-1.31a1.08,1.08,0,0,1,.82.82v4.58l-.33.33Zm1,1.15.33.32v4.58a1.06,1.06,0,0,1-.82.82l-.49-1.31V52.31Z"/><path class="cls-3" d="M70.4,46.91V50l-1,1-.33-.33V46.42Zm-1.31,9V51.65l.33-.32,1,1v3.11Zm5.73,1.14H69.91a1,1,0,0,1-.82-.82l1.31-.49h3.93Zm0-10.47h-4.4l-1.31-.49a1,1,0,0,1,.82-.82h5.38Zm-.16,3.93.65.65-.65.66H73.18l-.65-.66.65-.65Zm1,.82.33.32v4.58a1.06,1.06,0,0,1-.82.82l-.49-1.31V52.31Z"/><path class="cls-3" d="M83.82,46.91V50l-1,1-.33-.33V46.42Zm0,5.4v3.43l-.49,1.31a1,1,0,0,1-.82-.82V51.65l.33-.32Zm4.42-5.73h-4.4l-1.31-.49a1,1,0,0,1,.82-.82h5.38Zm-.17,3.93.66.65-.66.66H83.82l-.65-.66.65-.65Z"/><path class="cls-3" d="M90.69,51l-.32-.33V46.91l.81-.82.49.49V50Zm1,1.31v3.43l-.49.49-.81-.81V51.65l.32-.32Zm3.93-5.73H92l-.65-.66.65-.65h3.6l.66.65Zm.66,9.82-.66.65H92l-.65-.65.65-.66h3.6ZM95.93,50V46.58l.49-.49.82.82v3.76l-.33.33Zm1,1.31.33.32v3.77l-.82.81-.49-.49V52.31Z"/><path class="cls-3" d="M100.18,46.91V50l-1,1-.33-.33V46.42Zm0,5.4v3.43l-.49,1.31a1.06,1.06,0,0,1-.82-.82V51.65l.33-.32Zm3.93-5.73H100.2l-1.31-.49a1,1,0,0,1,.82-.82h4.89Zm.33,3.93.65.65-.65.66h-4.26l-.65-.66.65-.65Zm-3.93,1.63h1l4.26,4.26a1.33,1.33,0,0,1-1.31.65l-3.93-3.92ZM104.44,50V46.58l.49-1.31a1.06,1.06,0,0,1,.82.82v4.58l-.33.33Z"/><path class="cls-3" d="M113.6,46.58l-1.31-.49a1,1,0,0,1,.82-.82h5.22a1,1,0,0,1,.82.82l-1.31.49Zm1.46,3.76V46.91h1.31v3.43l-.66.66Zm.65,1,.66.65v4.25a1.06,1.06,0,0,1-.82.82l-.49-1.31V52Z"/><path class="cls-3" d="M122.09,46.91V50l-1,1-.33-.33V46.42Zm0,5.4v3.43l-.49,1.31a1.06,1.06,0,0,1-.82-.82V51.65l.33-.32ZM126,46.58h-3.91l-1.31-.49a1,1,0,0,1,.82-.82h4.89Zm.33,3.93.65.65-.65.66h-4.26l-.65-.66.65-.65Zm0-.49V46.58l.49-1.31a1,1,0,0,1,.82.82v4.58l-.33.33Zm1,1.31.33.32v4.58a1,1,0,0,1-.82.82l-.49-1.31V52.31Z"/><path class="cls-3" d="M129.62,51l-.33-.33V46.09a1.06,1.06,0,0,1,.82-.82l.49,1.31V50Zm1,1.31v3.43l-.49,1.31a1.06,1.06,0,0,1-.82-.82V51.65l.33-.32Zm4.26-1.8.65.65-.65.66H130.6l-.65-.66.65-.65Zm-3.93-1.31,3.93-3.93a1.33,1.33,0,0,1,1.31.65l-4.26,4.26h-1Zm4.91,2.13.33.32v4.58a1.06,1.06,0,0,1-.82.82l-.49-1.31V52.31Z"/><path class="cls-3" d="M139.11,46.91V50l-1,1-.33-.33V46.42Zm-1.31,9V51.65l.33-.32,1,1v3.11ZM144,57.05h-5.4a1,1,0,0,1-.82-.82l1.31-.49h4.42Zm-.49-10.47h-4.4l-1.31-.49a1,1,0,0,1,.82-.82H144Zm-.16,3.93.65.65-.65.66h-4.26l-.65-.66.65-.65Z"/><path class="cls-3" d="M146,51l-.32-.33V46.91l.82-.82.49.49V50Zm1,1.31v3.43l-.49.49-.82-.81V51.65l.32-.32Zm3.92-5.73h-3.6l-.65-.66.65-.65h3.6l.66.65Zm.66,9.82-.66.65h-3.6l-.65-.65.65-.66h3.6ZM151.22,50V46.58l.49-.49.82.82v3.76l-.33.33Zm1,1.31.33.32v3.77l-.82.81-.49-.49V52.31Z"/><path class="cls-3" d="M155.48,46.91V50l-1,1-.32-.33V46.42Zm0,5.4v3.43l-.5,1.31a1,1,0,0,1-.81-.82V51.65l.32-.32Zm4.41-5.73h-4.4l-1.31-.49a1,1,0,0,1,.82-.82h5.38Zm-.16,3.93.65.65-.65.66h-4.25l-.66-.66.66-.65Z"/><path class="cls-3" d="M163.33,46.91V50l-1,1-.33-.33V46.42Zm0,5.4v3.43l-.49,1.31a1,1,0,0,1-.82-.82V51.65l.33-.32Zm4.42-5.73h-4.4L162,46.09a1,1,0,0,1,.81-.82h5.39Zm-.17,3.93.66.65-.66.66h-4.25l-.66-.66.66-.65Z"/><polyline class="cls-4" points="195 2.5 195 111.5 106 186.5"/><rect id="Border_Box" data-name="Border Box" class="cls-5" width="195" height="189"/></g></g></g></g></svg>